<?xml version="1.0" standalone="no"?>
<!DOCTYPE svg PUBLIC "-//W3C//DTD SVG 20010904//EN" "http://www.w3.org/TR/2001/REC-SVG-20010904/DTD/svg10.dtd">
<svg version="1.0" xmlns="http://www.w3.org/2000/svg" width="960.000000pt" height="960.000000pt"
  viewBox="0 0 960.000000 960.000000" preserveAspectRatio="xMidYMid meet">

  <g transform="translate(0.000000,960.000000) scale(0.100000,-0.100000)" fill="#currentColor" stroke="none">
    <path d="M4900 8474 c-1829 -376 -3331 -683 -3338 -684 -7 0 -32 18 -56 40
l-43 40 -257 0 -256 0 0 -1070 0 -1070 100 0 100 0 0 -2314 c0 -2294 0 -2314
20 -2379 26 -84 96 -164 178 -204 l57 -28 3375 0 3375 0 47 23 c109 55 179
147 197 262 7 44 11 820 11 2408 l0 2342 35 0 35 0 0 485 0 485 -2973 0 -2972
0 -79 79 -78 79 48 10 c27 6 1395 286 3039 623 1645 337 2992 614 2993 615 3
2 -113 580 -180 897 -8 39 -13 47 -31 46 -12 -1 -1518 -309 -3347 -685z m3368
288 c33 -161 57 -292 52 -290 -15 6 -539 502 -535 506 9 9 410 89 417 83 3 -3
33 -138 66 -299z m-747 -246 c193 -181 347 -332 342 -336 -7 -6 -555 -121
-575 -120 -10 0 -710 656 -711 666 -2 10 526 123 565 120 22 -1 105 -74 379
-330z m-1177 -281 c266 -249 316 -300 300 -307 -15 -6 -555 -118 -569 -118 -5
0 -710 660 -713 668 -1 4 130 35 290 68 l293 60 40 -36 c22 -20 184 -171 359
-335z m-1324 -141 c347 -324 432 -406 427 -410 -2 -2 -125 -28 -273 -59 -148
-30 -279 -57 -290 -60 -18 -4 -91 60 -375 326 -195 182 -355 334 -357 338 -1
4 91 27 205 50 165 34 318 67 373 80 3 0 133 -119 290 -265z m-1139 -316 c195
-182 356 -335 357 -340 2 -4 0 -8 -5 -8 -5 0 -138 -26 -295 -59 l-287 -59
-353 331 c-194 181 -354 333 -356 338 -2 4 23 13 55 19 32 7 162 34 288 60
127 27 233 49 236 49 3 1 165 -148 360 -331z m-1210 -249 c195 -182 355 -334
357 -338 3 -8 -571 -125 -588 -119 -13 4 -719 661 -715 666 2 3 563 120 581
121 6 1 170 -148 365 -330z m-1316 38 c57 -57 59 -130 5 -190 -26 -30 -33 -32
-93 -32 -56 0 -69 4 -91 24 -59 55 -56 154 5 205 25 21 41 26 86 26 49 0 59
-4 88 -33z m1460 -864 c-9 -16 -29 -44 -45 -63 l-29 -35 -55 55 c-31 30 -56
58 -56 62 0 4 45 8 101 8 l100 0 -16 -27z m1242 14 c-3 -7 -130 -190 -282
-405 l-277 -392 -239 0 -239 0 0 94 0 94 98 138 c54 77 153 217 221 312 l122
172 300 0 c246 0 300 -2 296 -13z m1241 4 c-1 -5 -129 -187 -283 -405 l-280
-396 -303 0 c-167 0 -302 4 -300 8 2 5 129 187 283 405 l280 397 303 0 c171 0
302 -4 300 -9z m1232 0 c0 -6 -125 -187 -278 -403 l-279 -393 -308 -3 -308 -2
25 32 c13 18 143 201 288 406 l263 372 298 0 c182 0 299 -4 299 -9z m1238 -1
c-1 -5 -129 -188 -282 -405 l-280 -395 -304 0 c-240 0 -302 3 -296 13 15 24
537 762 552 780 14 15 42 17 314 17 193 0 298 -4 296 -10z m632 -400 l0 -400
-281 0 c-172 0 -279 4 -277 9 3 11 551 790 556 791 1 0 2 -180 2 -400z m-7039
-138 c53 -59 50 -133 -6 -189 -29 -29 -39 -33 -88 -33 -45 0 -61 5 -86 25 -56
47 -64 133 -19 190 28 36 54 45 117 41 46 -2 59 -8 82 -34z m1413 17 c69 -54
74 -149 12 -206 -31 -29 -43 -33 -90 -33 -65 0 -108 29 -126 86 -21 62 10 143
64 164 41 17 112 11 140 -11z m-61 -1079 c45 -39 61 -79 55 -139 -8 -80 -61
-131 -138 -131 -77 0 -130 51 -138 131 -6 60 10 100 55 139 28 25 42 30 83 30
41 0 55 -5 83 -30z m886 16 c31 -16 61 -56 61 -81 0 -25 -49 -18 -72 10 -24
31 -77 34 -102 6 -42 -46 -23 -154 29 -167 36 -9 73 10 81 41 5 19 12 25 35
25 24 0 29 -4 29 -25 0 -14 -13 -39 -28 -56 -24 -27 -37 -33 -83 -36 -42 -3
-61 0 -87 17 -35 22 -72 88 -72 130 0 42 37 108 72 130 39 23 98 26 137 6z
m674 -16 c45 -39 61 -79 55 -139 -8 -80 -61 -131 -138 -131 -77 0 -130 51
-138 131 -6 60 10 100 55 139 28 25 42 30 83 30 41 0 55 -5 83 -30z m-2142 10
c28 -16 51 -67 44 -99 -10 -47 -48 -74 -110 -79 l-55 -4 0 -50 0 -49 -32 3
-33 3 -3 143 -3 142 86 0 c48 0 95 -5 106 -10z m294 -15 c31 -30 32 -73 4
-109 -11 -14 -16 -26 -11 -26 15 0 32 -48 32 -91 0 -38 -2 -40 -27 -37 -25 3
-29 9 -38 53 l-11 50 -46 3 -47 3 -3 -53 c-3 -52 -4 -53 -35 -56 l-33 -3 0
145 0 146 95 0 c88 0 98 -2 120 -25z m574 11 c45 -24 65 -63 65 -128 1 -101
-56 -148 -181 -148 l-73 0 0 145 0 145 80 0 c51 0 91 -5 109 -14z m171 -90 c0
-82 3 -108 16 -120 18 -18 47 -20 75 -6 17 10 19 22 19 120 l0 110 35 0 35 0
0 -111 0 -111 -34 -34 c-29 -29 -41 -34 -82 -34 -104 0 -134 44 -134 193 l0
97 35 0 35 0 0 -104z m748 77 c-3 -25 -7 -28 -45 -31 l-43 -3 0 -115 0 -115
-32 3 -33 3 -3 113 -3 112 -39 0 c-38 0 -40 2 -40 30 l0 30 121 0 120 0 -3
-27z m92 -119 l0 -145 -32 3 -33 3 -3 143 -3 142 36 0 35 0 0 -146z m489 52
l56 -89 3 92 3 91 29 0 30 0 0 -145 0 -145 -30 0 c-28 0 -37 9 -90 92 l-59 93
-3 -90 -3 -90 -30 0 -30 0 -3 143 -3 143 37 -3 c35 -3 41 -9 93 -92z m3315
-309 c8 -12 8 -22 0 -35 -11 -16 -164 -17 -2954 -20 -2167 -1 -2946 1 -2956 9
-15 12 -19 51 -7 62 3 4 1334 6 2956 5 2797 -3 2950 -4 2961 -21z m-4705 -321
c31 -16 61 -56 61 -81 0 -25 -49 -18 -72 10 -24 31 -77 34 -102 6 -42 -46 -23
-154 29 -167 36 -9 73 10 81 41 5 19 12 25 35 25 24 0 29 -4 29 -25 0 -14 -13
-39 -28 -56 -24 -27 -37 -33 -83 -36 -42 -3 -61 0 -87 17 -35 22 -72 88 -72
130 0 42 37 108 72 130 39 23 98 26 137 6z m564 -16 c45 -39 61 -79 55 -139
-8 -80 -61 -131 -138 -131 -77 0 -130 51 -138 131 -6 60 10 100 55 139 28 25
42 30 83 30 41 0 55 -5 83 -30z m-1506 -14 c33 -30 37 -39 40 -92 8 -116 -48
-166 -177 -162 l-75 3 -3 143 -3 142 91 0 c89 0 91 -1 127 -34z m151 -108 l-3
-143 -32 -3 -33 -3 0 145 0 146 35 0 36 0 -3 -142z m267 117 c31 -30 32 -73 4
-109 -11 -14 -16 -26 -11 -26 15 0 32 -48 32 -91 0 -38 -2 -40 -27 -37 -25 3
-29 9 -38 53 l-11 50 -46 3 -47 3 -3 -53 c-3 -52 -4 -53 -35 -56 l-33 -3 0
145 0 146 95 0 c88 0 98 -2 120 -25z m293 -2 c-3 -27 -5 -28 -75 -31 -70 -3
-73 -4 -73 -27 0 -23 4 -24 68 -27 64 -3 67 -4 67 -28 0 -24 -3 -25 -67 -28
-68 -3 -68 -3 -68 -32 l0 -30 75 0 75 0 0 -30 0 -30 -110 0 -110 0 0 145 0
145 111 0 110 0 -3 -27z m552 -3 c0 -28 -2 -30 -40 -30 l-39 0 -3 -112 -3
-113 -32 -3 -33 -3 0 115 0 115 -42 3 c-39 3 -43 6 -46 31 l-3 27 120 0 121 0
0 -30z m555 5 c31 -30 32 -73 4 -109 -11 -14 -16 -26 -11 -26 15 0 32 -48 32
-91 0 -38 -2 -40 -27 -37 -25 3 -29 9 -38 53 l-11 50 -46 3 -47 3 -3 -53 c-3
-52 -4 -53 -35 -56 l-33 -3 0 145 0 146 95 0 c88 0 98 -2 120 -25z m3829 -388
c8 -12 8 -22 0 -35 -11 -16 -164 -17 -2954 -20 -2167 -1 -2946 1 -2956 9 -17
14 -18 41 -2 57 9 9 675 11 2956 10 2792 -3 2945 -4 2956 -21z m-5690 -291
c34 -14 76 -59 76 -82 0 -24 -51 -16 -76 11 -40 43 -95 29 -114 -31 -24 -71 8
-134 67 -134 27 0 37 6 51 30 13 23 24 30 49 30 31 0 32 -1 22 -27 -36 -97
-145 -119 -222 -45 -74 71 -48 206 48 248 39 17 58 17 99 0z m265 -15 c11 -19
101 -258 101 -266 0 -3 -15 -5 -34 -5 -30 0 -35 4 -41 30 -6 29 -9 30 -61 30
-52 0 -56 -2 -65 -30 -9 -25 -16 -30 -45 -30 l-33 0 25 68 c86 228 83 222 114
222 19 0 33 -7 39 -19z m243 -61 c14 -41 29 -84 33 -95 5 -15 15 5 38 75 l32
95 45 0 45 0 3 -142 3 -143 -36 0 -35 0 -1 88 0 87 -32 -87 c-29 -80 -34 -88
-58 -88 -23 0 -28 8 -57 88 l-31 87 0 -87 -1 -88 -35 0 -35 0 0 138 c0 76 3
142 7 146 4 4 25 6 48 4 l40 -3 27 -75z m458 50 l0 -30 -75 0 -75 0 0 -30 0
-30 70 0 c68 0 70 -1 70 -25 0 -24 -2 -25 -70 -25 l-70 0 0 -30 0 -29 78 -3
c76 -3 77 -3 80 -30 l3 -28 -115 0 -116 0 0 138 c0 76 3 142 7 145 3 4 53 7
110 7 l103 0 0 -30z m262 3 c31 -31 30 -89 -1 -114 -13 -11 -18 -19 -12 -19
15 0 27 -29 35 -83 l6 -48 -33 3 c-29 3 -32 7 -37 43 -8 57 -16 65 -66 65
l-44 0 0 -55 0 -55 -35 0 -35 0 0 138 c0 76 3 142 8 146 4 4 49 6 99 4 80 -3
96 -6 115 -25z m248 -53 c15 -41 39 -105 54 -142 l25 -68 -35 0 c-30 0 -37 4
-45 30 -10 28 -14 30 -64 30 -50 0 -54 -2 -64 -30 -8 -24 -16 -30 -40 -30 -17
0 -31 2 -31 5 0 8 91 247 102 268 7 13 18 17 40 15 28 -3 33 -9 58 -78z m4214
-363 c8 -12 8 -22 0 -35 -11 -16 -163 -17 -2965 -17 l-2954 0 -3 23 c-8 56
-230 52 2966 50 2792 -3 2945 -4 2956 -21z m-3477 -361 c33 -39 31 -66 -6 -66
-21 0 -32 6 -36 20 -12 39 -85 37 -93 -3 -2 -12 15 -21 67 -37 76 -22 101 -45
101 -92 0 -15 -11 -39 -23 -54 -20 -23 -34 -28 -84 -32 -56 -4 -62 -2 -96 28
-47 41 -51 80 -8 80 20 0 30 -6 34 -20 12 -46 112 -51 112 -5 0 16 -14 25 -63
42 -79 27 -102 47 -102 89 0 24 8 39 32 59 28 24 38 27 87 23 44 -4 59 -10 78
-32z m262 20 c31 -16 61 -56 61 -81 0 -25 -49 -18 -72 10 -24 31 -77 34 -102
6 -42 -46 -23 -154 29 -167 36 -9 73 10 81 41 5 19 12 25 35 25 24 0 29 -4 29
-25 0 -14 -13 -39 -28 -56 -24 -27 -37 -33 -83 -36 -42 -3 -61 0 -87 17 -35
22 -72 88 -72 130 0 42 37 108 72 130 39 23 98 26 137 6z m-2122 -30 c33 -30
37 -39 40 -92 8 -116 -48 -166 -177 -162 l-75 3 -3 143 -3 142 91 0 c89 0 91
-1 127 -34z m284 -100 c27 -70 49 -135 49 -142 0 -9 -11 -14 -29 -14 -25 0
-31 6 -41 35 -11 34 -13 35 -64 35 -51 0 -53 -1 -62 -32 -8 -27 -15 -34 -42
-36 -18 -2 -32 0 -32 5 0 4 23 70 52 146 l52 138 34 -3 c35 -3 35 -3 83 -132z
m257 107 c-3 -25 -7 -28 -45 -31 l-43 -3 0 -115 0 -115 -32 3 -33 3 -3 113 -3
112 -39 0 c-38 0 -40 2 -40 30 l0 30 121 0 120 0 -3 -27z m190 -111 c29 -77
52 -142 52 -145 0 -4 -14 -7 -31 -7 -25 0 -32 6 -45 35 -14 33 -17 35 -64 35
-47 0 -50 -2 -64 -35 -11 -26 -21 -35 -39 -35 -13 0 -26 2 -29 5 -3 3 17 63
43 133 27 70 51 133 54 140 2 6 20 12 38 12 l34 0 51 -138z m1710 111 c-3 -27
-5 -28 -75 -31 -70 -3 -73 -4 -73 -27 0 -23 4 -24 68 -27 64 -3 67 -4 67 -28
0 -24 -3 -25 -67 -28 -68 -3 -68 -3 -68 -32 l0 -30 75 0 75 0 0 -30 0 -30
-110 0 -110 0 0 145 0 145 111 0 110 0 -3 -27z m162 -61 l55 -87 3 88 3 87 35
0 35 0 -3 -142 -3 -143 -31 -3 c-29 -3 -34 3 -90 92 l-59 95 -3 -94 -3 -95
-29 0 -30 0 0 145 0 145 33 0 c29 0 36 -7 87 -88z m398 61 c-3 -27 -5 -28 -75
-31 -70 -3 -73 -4 -73 -27 0 -23 4 -24 68 -27 64 -3 67 -4 67 -28 0 -24 -3
-25 -67 -28 -68 -3 -68 -3 -68 -32 l0 -30 75 0 75 0 0 -30 0 -30 -110 0 -110
0 0 145 0 145 111 0 110 0 -3 -27z m1120 0 c-3 -25 -7 -28 -45 -31 l-43 -3 0
-115 0 -115 -32 3 -33 3 -3 113 -3 112 -39 0 c-38 0 -40 2 -40 30 l0 30 121 0
120 0 -3 -27z m183 -107 c27 -70 49 -135 49 -142 0 -9 -11 -14 -29 -14 -25 0
-31 6 -41 35 -11 34 -13 35 -64 35 -51 0 -53 -1 -62 -32 -8 -27 -15 -34 -42
-36 -18 -2 -32 0 -32 5 0 4 23 70 52 146 l52 138 34 -3 c35 -3 35 -3 83 -132z
m149 77 l0 -58 53 58 c47 52 56 58 92 57 l39 0 -52 -53 c-29 -29 -52 -56 -52
-61 0 -4 23 -39 51 -78 68 -94 69 -98 25 -98 -32 0 -39 5 -77 63 -23 34 -44
64 -45 66 -2 2 -10 -2 -18 -8 -9 -8 -16 -34 -18 -64 -3 -51 -4 -52 -35 -55
l-33 -3 0 145 0 146 35 0 35 0 0 -57z m438 30 c-3 -27 -5 -28 -75 -31 -70 -3
-73 -4 -73 -27 0 -23 4 -24 68 -27 64 -3 67 -4 67 -28 0 -24 -3 -25 -67 -28
-68 -3 -68 -3 -68 -32 l0 -30 75 0 75 0 0 -30 0 -30 -110 0 -110 0 0 145 0
145 111 0 110 0 -3 -27z m440 -355 c18 -18 14 -56 -7 -68 -13 -7 -331 -10
-960 -10 l-941 0 0 -627 c0 -569 -2 -628 -17 -645 -20 -22 -31 -23 -55 -1 -17
15 -18 48 -18 645 l0 628 -1030 0 -1030 0 0 -635 0 -635 -25 -12 c-19 -8 -28
-8 -40 2 -13 11 -15 90 -15 646 l0 634 -871 0 c-581 0 -877 3 -890 10 -21 12
-25 50 -7 68 17 17 5889 17 5906 0z" />
    <path d="M2576 5068 c-9 -13 -16 -43 -16 -71 0 -38 5 -53 25 -72 13 -14 34
-25 45 -25 12 0 32 11 45 25 20 19 25 34 25 72 0 66 -20 93 -70 93 -29 0 -43
-6 -54 -22z" />
    <path d="M4136 5068 c-9 -13 -16 -43 -16 -71 0 -38 5 -53 25 -72 13 -14 34
-25 45 -25 12 0 32 11 45 25 20 19 25 34 25 72 0 66 -20 93 -70 93 -29 0 -43
-6 -54 -22z" />
    <path d="M2010 5049 l0 -40 48 3 c44 3 47 5 50 32 4 35 -10 46 -60 46 -38 0
-38 0 -38 -41z" />
    <path d="M2280 5050 c0 -39 1 -40 34 -40 51 0 66 9 66 40 0 31 -15 40 -66 40
-33 0 -34 -1 -34 -40z" />
    <path d="M2880 4995 l0 -85 35 0 c67 0 106 71 74 133 -16 31 -28 37 -71 37
l-38 0 0 -85z" />
    <path d="M3536 4348 c-9 -13 -16 -43 -16 -71 0 -38 5 -53 25 -72 13 -14 34
-25 45 -25 12 0 32 11 45 25 20 19 25 34 25 72 0 66 -20 93 -70 93 -29 0 -43
-6 -54 -22z" />
    <path d="M2020 4275 l0 -85 40 0 c54 0 80 26 80 83 0 63 -21 87 -76 87 l-44 0
0 -85z" />
    <path d="M2440 4330 c0 -39 1 -40 34 -40 51 0 66 9 66 40 0 31 -15 40 -66 40
-33 0 -34 -1 -34 -40z" />
    <path d="M3840 4330 c0 -39 1 -40 34 -40 51 0 66 9 66 40 0 31 -15 40 -66 40
-33 0 -34 -1 -34 -40z" />
    <path d="M2343 3610 c-27 -68 -27 -70 11 -70 l35 0 -13 33 c-7 17 -16 39 -19
47 -3 11 -7 8 -14 -10z" />
    <path d="M3200 3625 l0 -35 50 0 c44 0 50 3 56 24 9 37 -2 46 -57 46 l-49 0 0
-35z" />
    <path d="M3518 3591 l-16 -51 35 0 c37 0 38 2 9 74 l-11 28 -17 -51z" />
    <path d="M2330 2795 l0 -85 40 0 c54 0 80 26 80 83 0 63 -21 87 -76 87 l-44 0
0 -85z" />
    <path d="M2659 2815 l-17 -45 34 0 c38 0 39 1 16 53 l-17 38 -16 -46z" />
    <path d="M3112 2840 c-26 -67 -26 -70 7 -70 34 0 36 7 16 60 l-13 35 -10 -25z" />
    <path d="M6679 2815 l-17 -45 34 0 c38 0 39 1 16 53 l-17 38 -16 -46z" />
  </g>
</svg>