<?xml version="1.0" standalone="no"?>
<!DOCTYPE svg PUBLIC "-//W3C//DTD SVG 20010904//EN"
 "http://www.w3.org/TR/2001/REC-SVG-20010904/DTD/svg10.dtd">
<svg version="1.0" xmlns="http://www.w3.org/2000/svg"
 width="614.000000pt" height="543.000000pt" viewBox="0 0 614.000000 543.000000"
 preserveAspectRatio="xMidYMid meet">

<g transform="translate(0.000000,543.000000) scale(0.100000,-0.100000)"
fill="#000000" stroke="none">
<path d="M0 5112 c0 -316 0 -323 19 -312 32 16 40 12 38 -21 -2 -28 -5 -30
-29 -25 l-28 6 0 -171 0 -170 27 -24 28 -24 -30 -1 c-19 -1 -25 -4 -15 -8 8
-4 16 -15 16 -25 2 -14 -1 -15 -12 -6 -12 10 -14 -52 -14 -445 1 -251 3 -463
6 -471 4 -8 10 -13 14 -10 4 3 11 -2 14 -11 5 -13 2 -15 -14 -11 -18 5 -20 0
-20 -40 0 -34 5 -49 22 -64 21 -17 16 -25 -14 -20 -5 0 -8 -17 -8 -40 0 -24 4
-38 10 -34 5 3 10 2 10 -4 0 -5 -5 -13 -10 -16 -12 -7 -12 -205 0 -205 4 0 12
10 19 23 6 12 22 36 34 53 22 29 25 31 57 20 36 -12 54 -38 23 -34 -10 2 -18
-1 -18 -7 0 -5 11 -10 24 -10 15 -1 27 -8 31 -20 11 -31 2 -37 -46 -29 -24 3
-64 3 -89 0 l-45 -7 0 -280 c0 -245 2 -279 15 -279 13 0 15 -8 10 -37 -3 -26
-2 -32 3 -18 8 18 9 17 14 -7 3 -15 2 -25 -3 -23 -12 8 -17 -24 -15 -92 1 -35
-1 -63 -6 -63 -4 0 -4 -8 -1 -17 6 -15 7 -14 13 3 4 10 6 26 5 35 -2 9 3 16
10 16 14 0 13 -9 -2 -47 -6 -14 -9 -28 -6 -32 2 -4 -3 -5 -12 -2 -13 5 -14 2
-5 -20 29 -79 71 -121 107 -110 14 4 15 3 4 -4 -16 -12 -7 -17 42 -26 36 -7
39 -5 90 51 28 31 66 71 84 89 82 81 80 244 -6 412 -26 51 -27 82 -3 82 12 0
13 3 5 8 -16 10 -44 102 -36 115 3 6 2 7 -4 4 -10 -6 -81 171 -85 214 -2 15 3
24 13 26 12 3 19 -10 28 -51 19 -83 50 -123 114 -146 15 -5 34 -24 43 -42 8
-18 33 -46 55 -62 46 -35 49 -46 12 -46 -16 0 -45 -5 -65 -10 -33 -10 -36 -13
-28 -33 5 -12 18 -55 30 -95 16 -53 35 -90 70 -133 29 -36 58 -88 75 -134 38
-106 93 -139 223 -135 102 4 101 4 97 -31 -3 -17 -9 -36 -14 -43 -5 -6 -24
-38 -41 -71 -42 -78 -7 -47 44 39 31 52 41 61 37 34 0 -4 6 -5 14 -2 13 5 12
8 -1 21 -8 9 -13 22 -10 30 3 8 2 12 -3 9 -14 -9 -22 23 -11 42 14 27 50 149
50 172 0 39 -28 88 -66 114 -42 28 -43 28 36 30 14 1 25 6 25 11 0 11 -71 11
-99 -1 -14 -5 -17 -4 -12 4 5 8 2 10 -8 6 -9 -3 -16 -1 -16 5 0 6 -19 20 -42
31 -24 11 -51 32 -62 46 l-19 26 44 -8 c24 -5 74 -8 112 -6 39 2 67 -1 67 -7
0 -5 12 -16 27 -23 19 -9 31 -25 38 -53 9 -30 20 -45 48 -60 34 -18 37 -18 55
-2 27 24 49 23 31 -2 -53 -74 -99 -142 -99 -146 0 -3 21 18 46 47 59 67 58 66
51 45 -4 -10 -3 -16 2 -13 5 3 8 17 9 30 0 13 10 39 22 58 13 18 17 27 10 21
-18 -17 -40 -17 -40 0 0 7 -20 33 -45 57 -45 44 -54 60 -34 60 5 0 7 -6 4 -12
-4 -7 0 -6 7 4 10 12 18 14 32 6 9 -5 20 -7 23 -5 9 10 -8 27 -26 27 -10 0
-31 16 -45 35 -25 32 -26 38 -15 74 10 32 9 44 -5 72 -9 18 -14 34 -11 37 2 3
7 -3 11 -12 9 -22 24 -20 24 3 0 11 5 23 12 27 7 5 8 3 3 -6 -4 -7 -2 -16 6
-21 10 -6 11 -9 2 -9 -21 0 -15 -16 7 -17 11 -1 20 4 20 11 0 11 15 10 75 -2
41 -9 72 -18 70 -20 -3 -3 -32 1 -66 8 -51 11 -62 11 -69 -1 -5 -8 -4 -19 2
-26 11 -14 32 -7 23 7 -3 5 -1 11 5 15 5 3 10 3 10 -2 0 -4 14 -9 31 -9 17 -1
35 -7 40 -15 8 -12 11 -12 19 1 8 12 10 11 10 -7 0 -12 5 -25 10 -28 6 -4 9
-1 8 6 -2 6 3 14 11 17 8 2 11 0 7 -6 -3 -5 -2 -21 3 -34 l9 -23 7 26 c3 14
13 26 20 26 15 0 13 -6 -17 -49 -24 -35 -23 -36 14 -34 26 1 34 7 45 36 11 29
13 31 10 8 -3 -16 0 -26 7 -25 6 1 10 -6 10 -15 -1 -10 3 -15 9 -11 7 4 8 0 3
-12 -5 -15 -4 -16 9 -5 13 11 16 11 13 -1 -2 -8 3 -13 10 -11 15 3 16 -10 2
-26 -5 -7 -3 -6 6 2 15 12 15 16 -1 40 -10 14 -22 23 -28 19 -6 -4 -8 0 -4 10
3 8 -1 21 -9 28 -8 6 -12 14 -10 16 8 8 -30 40 -60 51 -16 6 -23 11 -16 11 6
1 12 11 12 24 0 28 -43 122 -61 133 -9 5 -7 -3 4 -20 21 -32 13 -51 -9 -22 -8
11 -14 15 -14 9 0 -17 38 -55 49 -48 6 3 11 1 11 -4 0 -6 -6 -11 -14 -11 -8 0
-17 -6 -19 -12 -3 -7 -6 -4 -6 7 -1 11 -11 29 -22 39 -21 18 -22 18 -17 -2 3
-12 1 -23 -6 -26 -6 -2 -3 -5 7 -5 9 -1 17 -6 17 -11 0 -7 -7 -7 -20 0 -11 6
-26 8 -32 4 -7 -5 -8 -3 -3 6 6 10 -1 12 -33 7 -23 -3 -40 -1 -37 3 3 5 -6 7
-20 6 -13 -2 -22 0 -19 5 2 4 -5 13 -17 19 -13 7 -19 8 -15 2 3 -6 2 -13 -4
-17 -5 -3 -10 -1 -10 6 0 8 -5 7 -17 -2 -15 -12 -16 -12 -10 4 4 9 10 25 13
35 5 16 5 16 -9 0 -13 -17 -16 -14 -43 27 -29 47 -38 53 -50 33 -4 -6 -3 -8 4
-4 15 9 21 -15 9 -42 -9 -19 -13 -20 -26 -9 -9 8 -37 21 -63 31 -32 12 -48 24
-48 35 0 9 -13 28 -30 43 -20 18 -30 36 -30 55 0 16 -5 34 -11 40 -7 7 -15 35
-20 63 -6 38 -18 63 -49 100 -37 44 -40 52 -34 89 8 50 16 56 47 37 22 -15 23
-14 25 14 3 35 4 35 -48 14 -37 -15 -41 -15 -57 1 -9 9 -24 31 -32 49 -11 22
-22 30 -36 28 -16 -3 -17 -1 -6 11 10 13 9 15 -8 10 -20 -5 -20 -5 0 -40 19
-33 19 -35 2 -28 -10 4 -39 15 -66 25 -26 9 -49 19 -52 22 -6 5 145 46 217 59
26 4 56 13 68 19 12 6 29 8 38 4 9 -4 20 -8 24 -8 19 -3 69 -50 74 -71 3 -14
11 -22 17 -18 5 3 7 1 4 -4 -14 -22 23 -108 60 -144 55 -51 82 -65 138 -72 28
-4 65 -10 83 -13 45 -9 75 17 61 53 -5 13 -9 38 -9 54 0 17 -4 28 -9 25 -15
-10 -41 5 -41 22 0 11 -3 13 -11 5 -7 -7 -21 -5 -47 8 -20 11 -42 19 -49 19
-7 0 -12 3 -11 8 2 4 -1 9 -7 11 -5 2 -15 15 -22 30 -6 14 -12 20 -12 13 -1
-8 -6 -10 -13 -6 -18 11 10 -24 50 -64 36 -34 38 -55 5 -60 -12 -2 -24 6 -32
20 -6 13 -9 15 -7 6 8 -27 -1 -22 -18 10 -11 20 -15 22 -16 9 0 -10 -5 -15
-11 -12 -6 4 -8 14 -5 22 3 8 -1 24 -9 37 -14 21 -14 25 2 37 11 9 14 10 9 2
-4 -7 -2 -13 3 -13 13 0 15 37 2 44 -5 4 -12 0 -14 -6 -3 -7 -6 -3 -6 10 -1
14 -7 22 -18 22 -15 0 -15 2 -4 9 8 5 11 16 8 25 -5 12 3 23 26 36 36 22 47
25 47 10 0 -6 -3 -9 -7 -8 -5 2 -9 0 -10 -4 -2 -5 -1 -7 0 -5 2 1 11 -4 19
-11 13 -11 17 -9 22 14 8 30 18 26 21 -8 4 -36 4 -38 14 -38 5 0 12 7 15 16 4
10 2 13 -7 8 -6 -4 -9 -4 -5 1 4 4 3 15 -2 25 -7 13 -4 22 13 37 23 20 87 53
105 53 19 0 -46 114 -92 163 -40 43 -44 51 -31 64 8 8 15 20 15 26 0 7 4 6 10
-3 20 -31 11 89 -10 128 -45 86 -157 172 -225 172 -22 0 -25 -3 -20 -21 5 -15
4 -19 -4 -15 -6 4 -11 3 -11 -3 0 -13 -45 -58 -87 -88 l-31 -22 -7 95 c-7 88
-2 174 11 209 8 19 45 19 104 1 78 -24 98 -36 93 -57 -3 -10 4 -38 16 -62 l21
-43 61 7 c34 4 66 12 73 19 8 8 4 9 -19 1 -28 -10 -29 -10 -11 4 17 13 15 19
-6 17 -3 -1 -9 5 -12 13 -7 20 -10 20 76 -19 71 -32 99 -58 78 -71 -5 -3 -7
-11 -5 -18 2 -7 6 -24 9 -39 4 -16 18 -34 34 -42 29 -15 136 -31 113 -17 -7 5
-10 14 -7 20 7 10 -7 16 -29 11 -5 -1 -7 2 -2 6 4 4 -1 16 -10 27 -13 15 -7
13 24 -7 36 -24 58 -55 54 -79 -4 -24 22 -88 39 -97 24 -13 26 -30 4 -30 -9 0
-12 -5 -8 -12 5 -9 3 -9 -9 1 -9 7 -14 18 -11 23 14 22 -109 118 -150 118 -11
0 -36 18 -56 39 -32 36 -37 38 -54 26 -21 -16 -14 -50 8 -42 8 3 20 -2 28 -11
9 -11 10 -14 1 -8 -27 15 -11 -12 24 -44 20 -19 34 -26 30 -17 -3 9 -2 17 3
17 24 0 23 -186 -1 -231 -10 -20 -2 -52 12 -43 5 3 7 9 5 13 -3 4 -1 13 5 21
7 12 9 11 10 -5 1 -11 1 -24 0 -28 -1 -5 3 -6 8 -3 5 3 7 16 3 28 -5 19 -4 20
10 7 12 -10 13 -19 6 -32 -5 -10 -7 -23 -4 -30 2 -7 5 -3 5 8 1 18 2 18 19 2
15 -16 15 -19 2 -27 -8 -5 -10 -10 -5 -10 12 1 45 25 45 33 0 4 -6 4 -14 1
-29 -11 -25 15 4 28 16 7 30 17 30 21 0 5 10 5 23 2 13 -4 17 -3 10 2 -7 5
-11 22 -9 38 1 17 -1 35 -6 41 -5 6 -5 19 -2 28 6 16 8 16 25 0 10 -9 16 -21
13 -26 -3 -4 0 -7 8 -6 7 2 12 -3 10 -10 -1 -8 1 -11 5 -9 5 3 17 -12 27 -34
11 -21 27 -41 36 -44 23 -7 43 -52 28 -61 -7 -4 -8 -3 -4 4 4 7 2 12 -4 12 -6
0 -9 4 -6 9 3 5 -1 12 -10 15 -12 5 -15 2 -9 -11 18 -45 26 -89 21 -115 -3
-15 -2 -28 2 -28 19 1 28 18 29 54 1 29 -2 35 -9 25 -8 -11 -9 -10 -4 4 3 10
6 22 6 25 0 13 62 -114 86 -176 13 -35 33 -125 44 -199 19 -128 19 -137 3
-155 -16 -18 -29 -73 -14 -64 4 3 8 -5 8 -17 2 -17 0 -19 -7 -7 -7 11 -10 8
-10 -14 0 -24 -2 -27 -15 -16 -22 19 -20 -10 6 -64 22 -48 53 -63 101 -51 21
5 27 2 38 -25 16 -38 9 -45 -30 -32 -17 6 -28 7 -25 2 10 -16 -20 -17 -33 -1
-12 15 -13 14 -8 -1 3 -9 0 -19 -7 -21 -7 -2 16 -7 51 -11 48 -5 62 -11 62
-23 0 -13 -3 -14 -12 -5 -7 7 -23 12 -37 12 -20 0 -23 -2 -11 -10 12 -7 10
-11 -9 -18 -20 -7 -21 -10 -8 -15 10 -4 17 -11 17 -17 0 -20 -19 -10 -41 22
-13 17 -18 28 -11 24 7 -4 12 -2 12 3 0 6 -9 11 -19 11 -11 0 -33 14 -50 31
-17 17 -31 25 -31 18 0 -7 19 -30 42 -51 24 -21 43 -42 43 -46 0 -14 32 -52
38 -45 4 3 7 1 7 -6 0 -7 9 -24 19 -38 11 -13 25 -49 31 -79 7 -30 19 -59 29
-67 10 -7 20 -21 22 -32 3 -14 16 -23 47 -29 24 -6 42 -16 42 -24 0 -11 2 -11
13 0 17 16 32 72 18 64 -5 -4 -12 -2 -15 3 -4 5 -2 12 3 15 5 4 12 2 16 -3 3
-6 12 -8 20 -4 25 9 19 110 -9 169 -13 27 -27 61 -30 77 -7 32 -26 36 -33 7
-10 -39 -36 -15 -73 70 l-38 85 29 31 c16 17 26 34 22 39 -5 4 -2 5 5 1 7 -4
15 -1 18 8 10 27 20 18 50 -41 16 -32 42 -69 58 -83 37 -32 104 -70 122 -70
10 0 14 -15 14 -59 0 -33 5 -63 11 -67 6 -4 8 -21 5 -43 -4 -28 -3 -31 4 -16
8 15 9 8 5 -29 -4 -50 -14 -75 -16 -40 0 14 -4 11 -14 -11 -7 -16 -12 -32 -10
-35 7 -11 -56 -10 -77 1 -20 11 -20 11 -2 -15 11 -14 25 -23 32 -21 7 3 10 1
7 -4 -3 -5 -1 -12 5 -16 5 -3 10 0 11 7 0 15 17 -20 18 -39 1 -12 -34 -11 -74
2 -18 6 -18 5 -2 -5 13 -8 15 -16 7 -29 -6 -13 -5 -24 4 -36 13 -18 14 -18 25
4 21 39 22 17 1 -24 -11 -22 -20 -45 -20 -52 0 -7 -5 -13 -11 -13 -6 0 -9 -9
-6 -20 3 -12 0 -20 -8 -20 -15 0 -40 -56 -37 -83 1 -10 -2 -15 -8 -12 -5 3
-16 -9 -24 -27 -8 -18 -15 -27 -15 -19 -1 7 10 35 24 63 31 61 31 61 0 56 -13
-3 -27 0 -29 6 -3 6 -3 -2 0 -19 4 -23 3 -27 -5 -15 -9 13 -11 13 -11 -2 0
-11 7 -18 18 -18 14 0 15 -2 2 -10 -8 -5 -15 -17 -16 -27 -2 -48 -4 -52 -21
-47 -14 5 -15 4 -4 -4 7 -5 10 -15 6 -21 -3 -7 -10 -24 -15 -39 -7 -27 -6 -28
26 -28 19 0 30 2 25 6 -16 10 -21 57 -7 69 11 9 15 8 20 -4 6 -18 26 -11 26 8
0 7 -4 6 -10 -3 -8 -13 -10 -12 -10 3 0 9 4 17 10 17 5 0 7 7 3 16 -4 11 -2
15 7 12 13 -4 16 -14 23 -80 3 -23 1 -26 -15 -17 -18 10 -20 9 -34 -38 -5 -18
12 -16 41 3 14 9 25 13 25 10 0 -15 79 68 90 94 17 41 10 52 -22 36 -15 -8
-29 -12 -32 -8 -6 5 -10 -26 -8 -58 0 -9 -7 -5 -19 10 -10 14 -17 31 -14 38 3
7 1 11 -4 8 -5 -3 -11 8 -13 24 -5 31 13 42 28 18 5 -7 3 -8 -6 -3 -8 5 -11 3
-8 -5 2 -7 12 -14 21 -16 10 -1 14 2 10 9 -4 6 0 8 9 4 9 -3 21 0 28 6 10 9
11 9 5 -2 -6 -10 -4 -12 4 -7 7 5 10 10 7 13 -2 3 -1 16 5 30 7 18 6 22 -4 17
-6 -4 -2 3 10 15 12 11 27 21 32 21 5 0 13 5 17 12 4 7 3 8 -4 4 -15 -9 -12
36 3 46 6 5 5 12 -3 20 -10 10 -14 10 -21 0 -5 -9 -11 -4 -19 15 -10 24 -10
25 1 11 17 -21 40 -8 31 18 -7 19 -7 19 14 0 26 -23 29 -38 5 -29 -11 4 -14 3
-9 -6 4 -7 13 -10 19 -8 7 3 27 -10 46 -27 l35 -31 -22 30 c-13 17 -39 52 -58
79 l-36 49 27 -7 c14 -4 31 -3 38 1 19 12 51 11 60 -1 6 -7 7 -6 4 4 -2 8 -12
14 -21 14 -19 -2 -20 1 -4 18 7 7 25 39 40 71 35 71 38 142 8 152 -11 3 -19 9
-19 13 1 4 1 27 -1 52 -1 34 -3 40 -10 25 -7 -18 -8 -19 -15 -3 -4 10 -11 16
-15 13 -5 -3 -12 0 -16 6 -4 7 -3 9 2 6 18 -11 31 7 23 33 -4 16 -7 19 -8 8
-1 -10 -6 -18 -12 -18 -7 0 -5 10 6 26 9 14 14 28 11 32 -3 3 -6 2 -6 -3 0 -5
-12 2 -27 16 -14 13 -23 18 -19 12 4 -7 2 -13 -4 -13 -6 0 -8 -5 -5 -10 4 -6
10 -8 15 -5 13 8 21 -11 14 -30 -6 -14 -8 -13 -21 5 -14 20 -16 20 -30 3 -14
-17 -14 -17 -7 2 4 11 12 43 19 70 17 74 25 88 41 75 7 -7 10 -18 8 -25 -4
-10 1 -12 17 -8 17 5 20 3 14 -7 -5 -9 -4 -11 3 -6 19 11 14 28 -15 58 -32 34
-23 51 11 19 14 -13 26 -38 29 -63 4 -27 16 -52 39 -75 32 -34 113 -79 133
-74 5 2 7 -1 3 -4 -4 -4 6 -26 21 -49 33 -46 57 -128 27 -91 -15 20 -16 19
-12 -5 3 -14 5 -29 5 -34 1 -6 8 -1 16 10 13 16 16 17 25 4 8 -11 10 -5 8 25
-6 87 24 43 47 -69 3 -16 19 -40 34 -55 80 -75 99 -90 138 -110 23 -11 52 -21
63 -21 11 0 37 -7 58 -16 32 -13 38 -13 46 -1 8 12 14 9 33 -17 12 -17 30 -44
38 -61 8 -16 20 -37 27 -46 21 -25 105 -70 151 -81 26 -6 56 -23 80 -46 20
-20 37 -32 37 -28 0 5 31 -23 68 -62 56 -59 78 -74 129 -91 34 -12 80 -20 101
-19 21 0 44 -2 50 -6 24 -15 40 21 47 106 11 127 -8 176 -81 218 -74 41 -95
68 -124 159 l-25 78 45 10 c37 9 48 8 62 -5 19 -16 25 -37 8 -27 -5 3 -10 1
-10 -4 0 -6 5 -11 10 -11 6 0 10 -5 10 -11 0 -7 -9 -9 -21 -6 -13 4 -22 0 -26
-11 -4 -9 -11 -21 -17 -25 -7 -5 -5 -7 4 -4 8 2 21 -5 28 -17 12 -20 13 -20 6
3 -5 21 -4 23 16 18 17 -4 20 -2 16 10 -4 11 -2 13 9 9 20 -7 19 3 -2 26 -15
17 -15 18 0 18 10 0 17 -6 17 -14 0 -8 6 -16 14 -19 11 -5 9 -15 -10 -53 -13
-26 -24 -61 -23 -78 0 -26 2 -28 8 -11 5 11 7 23 4 28 -2 4 0 7 6 7 5 0 12 18
16 40 8 47 21 52 30 10 8 -39 19 -44 52 -28 27 13 28 16 30 102 2 99 4 95 -94
173 -31 24 -40 38 -40 62 0 33 -29 75 -45 65 -6 -4 -5 2 1 13 8 17 6 25 -14
43 -14 13 -25 20 -25 16 0 -4 -9 -2 -21 4 -11 7 -18 14 -15 17 3 3 14 0 23 -8
15 -11 16 -11 6 1 -16 18 -16 30 0 29 6 0 28 -22 48 -48 20 -26 58 -65 84 -86
l47 -39 111 0 c65 -1 113 -5 114 -11 2 -5 -3 -10 -10 -10 -22 0 -118 -48 -115
-57 6 -18 113 -137 124 -137 6 -1 11 6 11 14 0 8 -4 12 -8 10 -4 -3 -21 11
-38 30 -31 36 -39 51 -21 40 7 -4 9 3 6 19 -3 18 0 26 10 26 8 0 14 9 14 21 0
16 5 20 20 16 12 -3 18 -1 14 5 -5 7 3 9 22 4 82 -20 102 -22 122 -15 12 5 24
4 27 -2 10 -15 27 1 20 19 -3 9 -3 14 0 10 4 -3 19 6 33 21 15 15 43 38 62 51
38 27 84 68 60 55 -13 -8 -13 -7 -1 8 12 15 11 17 -7 17 -12 0 -23 4 -26 9 -4
5 2 7 11 5 10 -2 24 0 32 5 13 8 12 18 -5 67 -34 103 -91 139 -237 149 -50 3
-54 2 -22 -4 33 -7 35 -8 12 -10 -20 -1 -26 -5 -21 -13 6 -9 3 -9 -9 1 -10 8
-27 11 -42 7 -31 -8 -33 7 -2 21 20 10 19 11 -13 12 -120 3 -145 0 -216 -30
-80 -34 -142 -78 -169 -122 -9 -15 -29 -34 -45 -42 -26 -13 -30 -13 -54 6 -32
25 -35 15 -3 -12 l22 -19 -30 -25 c-16 -14 -35 -25 -41 -25 -5 0 -23 -14 -39
-30 -25 -26 -27 -33 -15 -41 12 -8 12 -10 -4 -7 -10 2 -28 20 -39 41 -17 33
-23 38 -46 32 -17 -4 -21 -2 -13 3 11 8 12 13 1 30 -10 17 -10 23 1 36 7 9 15
14 18 12 6 -6 27 14 35 34 3 8 4 -7 0 -35 -3 -27 -6 -52 -8 -55 -1 -3 4 -18
11 -35 11 -28 12 -23 13 54 0 47 -4 90 -10 98 -6 7 -9 27 -7 44 3 20 0 33 -9
36 -15 6 -18 43 -2 43 5 0 7 -4 4 -10 -3 -5 4 -10 17 -11 13 0 37 -2 53 -4 96
-10 134 -6 220 23 50 17 102 33 116 36 32 7 79 53 79 77 0 11 4 19 8 19 5 0
23 20 41 45 25 35 29 45 16 45 -9 0 -14 4 -11 9 4 5 -21 34 -55 64 -52 48 -70
57 -131 71 -39 9 -82 16 -97 16 -38 0 -169 -36 -190 -52 -10 -7 -40 -29 -67
-50 -27 -20 -59 -50 -72 -68 -28 -37 -51 -100 -44 -119 2 -7 -5 -4 -17 8 -22
22 -55 27 -93 12 -13 -4 -41 -11 -64 -14 -32 -5 -41 -4 -41 8 0 8 7 15 16 15
14 0 14 2 1 10 -12 8 -12 10 -1 10 8 0 11 7 8 20 -4 17 -2 20 16 15 16 -4 12
3 -18 31 -22 20 -31 32 -20 28 35 -14 93 -7 121 15 15 12 36 21 48 21 24 0 86
35 86 49 0 5 18 27 39 49 31 31 40 50 46 90 7 56 18 73 56 89 30 13 79 -4 100
-34 24 -35 73 -53 122 -47 30 4 53 1 75 -10 39 -20 79 -21 79 -1 0 8 -9 17
-19 21 -10 3 -18 12 -18 20 0 8 -7 17 -15 20 -8 4 -12 10 -9 15 3 5 0 9 -7 9
-7 0 -10 3 -6 6 3 3 15 3 28 -1 17 -6 19 -9 8 -16 -9 -6 -10 -9 -2 -9 21 0 24
19 5 29 -18 9 -89 7 -100 -3 -3 -3 0 -6 6 -6 7 0 12 -5 12 -11 0 -8 -5 -8 -15
1 -8 7 -12 16 -10 21 7 10 -32 32 -45 24 -5 -3 -11 -1 -15 4 -4 7 -15 7 -31 1
-36 -14 -42 -12 -19 7 16 13 17 15 3 10 -11 -4 -18 -1 -19 6 0 7 -5 0 -11 -15
-13 -37 -21 -35 -42 9 -13 28 -20 33 -26 23 -6 -9 -4 -18 3 -23 8 -6 6 -7 -6
-3 -10 3 -21 6 -23 6 -2 0 -4 5 -4 11 0 5 5 7 11 3 7 -4 10 -1 7 7 -3 8 -11
14 -19 14 -8 0 -16 3 -19 7 -3 4 -56 21 -117 37 l-112 29 11 -24 c6 -13 18
-24 25 -24 8 0 11 5 7 12 -5 7 -3 8 5 4 7 -5 10 -15 6 -24 -3 -9 -3 -13 1 -9
4 4 14 1 22 -6 13 -10 14 -8 8 13 -7 23 -6 23 14 -5 l22 -30 -7 29 c-5 26 -5
27 10 12 9 -9 23 -16 30 -16 8 0 21 -10 31 -22 l16 -23 -6 28 c-6 24 -5 27 8
15 7 -7 11 -17 8 -22 -3 -5 2 -6 12 -3 10 4 15 3 11 -4 -4 -5 -2 -16 4 -23 24
-28 -20 -25 -77 5 -50 27 -64 30 -107 24 -121 -15 -229 -77 -271 -157 -15 -28
-20 -158 -6 -158 4 0 13 -9 19 -20 12 -17 11 -18 -10 -11 -15 6 -23 18 -25 39
-5 47 -46 72 -120 72 -59 0 -85 13 -87 44 -2 22 -17 46 -27 40 -5 -3 -1 -15 9
-27 17 -20 17 -20 0 -14 -10 4 -21 7 -23 7 -11 0 -1 26 26 65 16 24 30 50 30
58 0 8 -15 29 -34 45 -46 40 -137 52 -217 28 -30 -9 -60 -20 -68 -25 -9 -6
-27 -1 -56 16 l-42 26 35 69 c43 85 52 167 28 247 -9 30 -15 55 -13 56 17 11
258 35 304 30 155 -18 263 -47 263 -72 0 -4 -9 -17 -21 -29 -26 -27 -18 -44
22 -44 27 0 34 8 30 38 -3 23 8 12 52 -55 64 -99 93 -163 77 -173 -9 -6 -7
-10 9 -15 11 -3 21 -10 21 -14 0 -4 7 -16 15 -27 14 -18 15 -17 9 11 -4 17
-12 37 -19 45 -7 8 -32 53 -56 100 -23 47 -58 102 -76 123 -18 20 -33 44 -33
52 0 22 42 28 107 14 69 -14 138 -15 175 0 35 13 137 -4 154 -27 6 -8 24 -17
39 -19 16 -2 37 -9 48 -14 10 -6 21 -9 23 -6 3 3 -16 17 -42 32 l-47 28 27 14
c15 8 64 17 110 20 l84 6 16 -29 c15 -27 16 -27 11 -4 l-6 25 113 -2 c104 -1
109 -1 58 9 -67 13 -247 11 -352 -3 -43 -5 -102 -9 -132 -7 -48 3 -53 5 -45
21 6 9 18 17 29 17 39 0 28 19 -20 35 -27 9 -50 21 -50 26 0 6 -4 7 -10 4 -5
-3 -10 3 -10 14 0 12 -5 21 -11 21 -5 0 -8 4 -4 9 3 5 1 12 -5 16 -6 4 -8 11
-4 16 4 6 17 1 31 -13 l26 -23 -7 36 c-5 28 -2 42 16 64 29 37 29 101 0 147
-12 20 -22 51 -22 69 0 77 -42 171 -93 211 -22 17 -41 45 -52 76 -11 30 -28
56 -44 65 -25 16 -25 16 -4 17 12 0 42 9 68 20 55 23 58 24 50 8 -4 -7 -1 -6
7 2 7 9 34 33 60 54 57 45 105 121 114 176 8 50 19 58 47 32 12 -11 32 -25 45
-32 22 -11 23 -10 12 10 -13 25 -3 22 34 -9 18 -15 18 -15 6 9 l-13 25 22 -19
c17 -16 21 -16 16 -4 -6 14 -1 15 32 7 59 -15 83 -17 83 -8 0 9 -21 15 -92 24
-36 5 -46 10 -41 21 4 10 0 12 -11 8 -9 -3 -13 -10 -10 -15 3 -5 0 -9 -5 -9
-6 0 -11 7 -11 16 0 8 -4 13 -9 10 -5 -3 -14 1 -21 9 -9 11 -9 15 -1 15 7 0 9
5 6 10 -8 13 -26 3 -24 -13 3 -23 -1 -37 -10 -37 -6 0 -7 16 -4 35 4 28 1 39
-13 51 -18 15 -18 15 1 9 19 -6 19 -5 -2 14 -14 13 -19 28 -16 40 3 12 9 19
13 16 3 -2 18 3 31 13 29 20 129 25 129 6 0 -7 10 -23 23 -36 12 -13 17 -17
11 -8 -7 8 -15 26 -19 40 -5 20 -1 17 19 -12 15 -21 28 -38 30 -38 8 0 -1 31
-12 42 -7 7 -12 19 -11 27 0 12 2 12 8 -2 8 -21 26 -24 26 -4 0 7 11 11 27 9
15 -1 29 2 33 7 3 7 -66 10 -195 11 l-200 0 -1 -43 -1 -42 -12 40 -12 40 -403
3 c-359 2 -402 1 -391 -13 7 -9 10 -24 6 -37 -27 -86 -46 -167 -46 -193 0 -53
21 -107 53 -137 l32 -30 -42 6 c-33 5 -43 3 -43 -8 0 -8 -11 -17 -25 -20 -13
-3 -29 -15 -35 -26 -6 -11 -19 -20 -29 -20 -28 0 -81 21 -81 32 0 5 5 6 11 2
8 -4 9 1 4 17 -11 34 -10 34 -93 34 -71 0 -77 -2 -80 -22 -2 -12 9 -35 25 -55
40 -47 65 -88 53 -88 -5 0 -16 13 -25 30 -8 16 -29 43 -45 60 -24 25 -30 39
-30 76 0 41 2 44 19 34 11 -5 41 -10 66 -10 38 0 46 3 41 15 -3 8 -1 15 4 15
6 0 10 -4 10 -10 0 -5 8 -6 17 -3 11 4 13 8 5 11 -7 2 -9 8 -6 14 5 7 -2 9
-20 6 -21 -4 -24 -3 -15 8 8 9 16 11 29 4 9 -5 21 -6 25 -2 5 4 5 1 1 -5 -4
-7 -2 -13 4 -13 15 0 29 41 36 114 8 76 0 80 -59 23 -32 -31 -36 -38 -22 -44
15 -5 14 -8 -6 -19 -13 -7 -19 -13 -14 -14 6 0 21 7 33 16 22 15 24 15 37 -2
17 -23 18 -31 5 -39 -6 -3 -10 4 -10 16 0 20 -1 21 -22 5 -13 -9 -39 -24 -58
-32 -19 -9 -39 -22 -43 -30 -10 -17 -25 -18 -24 -1 1 42 -6 64 -24 76 -19 11
-21 11 -16 -3 3 -8 1 -18 -5 -22 -7 -5 -8 7 -3 37 4 24 7 71 8 103 1 37 7 61
15 63 7 3 12 -4 12 -16 0 -17 6 -21 31 -21 25 0 44 12 92 60 l61 60 -326 0
-325 0 1 -22 c1 -17 -5 -23 -19 -23 -14 0 -20 6 -19 22 l0 22 -368 1 c-363 0
-368 0 -368 -20 0 -11 -4 -20 -10 -20 -5 0 -10 9 -10 20 0 20 -7 20 -335 20
-261 0 -335 -3 -335 -12 0 -9 -4 -8 -10 2 -6 10 -9 -100 -10 -308z m2810 280
c0 -5 -7 -17 -15 -28 -14 -18 -14 -17 -4 9 12 27 19 34 19 19z m-900 -26 c0
-11 -19 -15 -25 -6 -3 5 1 10 9 10 9 0 16 -2 16 -4z m-1585 -25 c-3 -6 -14
-11 -23 -11 -21 -1 -53 -44 -61 -82 l-6 -30 -20 21 c-13 16 -15 20 -4 16 18
-7 22 26 5 37 -6 4 1 8 16 8 15 0 30 5 34 12 5 8 2 9 -10 5 -10 -4 -34 -7 -54
-7 -28 0 -33 -3 -24 -12 20 -20 14 -30 -10 -17 -22 12 -38 28 -38 40 0 3 26 4
58 2 41 -3 68 2 97 15 42 20 51 21 40 3z m407 -68 c16 -19 5 -25 -26 -13 -22
8 -26 14 -20 37 14 67 17 70 26 29 5 -22 13 -46 20 -53z m1628 77 c0 -5 -7 -7
-15 -4 -8 4 -15 8 -15 10 0 2 7 4 15 4 8 0 15 -4 15 -10z m390 -10 c0 -5 -5
-10 -11 -10 -5 0 -7 5 -4 10 3 6 8 10 11 10 2 0 4 -4 4 -10z m-2630 -31 c0
-18 -2 -19 -15 -5 -8 8 -15 17 -15 20 0 3 7 6 15 6 9 0 15 -9 15 -21z m2927
-21 c-3 -8 -6 -5 -6 6 -1 11 2 17 5 13 3 -3 4 -12 1 -19z m-310 -65 c-13 -27
-27 -61 -31 -77 -9 -36 3 -166 15 -166 12 0 79 -43 79 -50 0 -11 -95 -2 -96 9
-3 21 -4 22 -14 16 -8 -5 -8 -11 0 -20 7 -9 6 -16 -5 -25 -14 -11 -19 -7 -16
12 0 4 -6 5 -14 2 -17 -7 -20 -20 -6 -28 5 -3 6 -26 3 -51 -2 -25 0 -51 6 -58
6 -7 11 -22 12 -32 0 -11 4 -49 8 -85 6 -44 5 -67 -2 -72 -7 -5 -5 -8 5 -8 9
0 43 -27 76 -60 33 -33 54 -60 46 -60 -7 0 -13 -9 -13 -20 0 -11 -4 -20 -9
-20 -13 0 -32 26 -24 33 3 4 -7 7 -23 7 -22 0 -26 -3 -14 -10 8 -5 11 -10 6
-10 -14 0 16 -31 39 -40 11 -4 26 -3 35 3 12 9 13 8 3 -2 -6 -7 -9 -20 -6 -27
3 -8 0 -14 -6 -14 -6 0 -11 5 -11 11 0 6 -7 8 -17 5 -10 -4 -15 -4 -11 -1 3 4
-10 21 -29 38 -19 18 -43 39 -53 48 -10 9 -21 18 -26 20 -5 2 -26 15 -47 29
-31 21 -37 29 -32 50 3 14 8 57 12 96 4 59 2 78 -17 120 -12 27 -25 69 -29 94
-12 69 -15 74 -36 87 -11 7 -15 12 -8 13 26 0 43 -13 43 -35 0 -13 4 -27 10
-30 6 -3 7 1 4 12 -5 16 -4 16 7 -1 9 -14 9 -24 1 -37 -9 -13 -7 -21 9 -35 18
-16 19 -16 19 5 0 12 -4 19 -10 16 -16 -10 -11 11 6 26 12 9 20 10 33 2 14 -9
18 -8 18 3 0 7 -5 10 -10 7 -6 -3 -7 -1 -3 5 4 7 15 12 24 12 15 0 15 2 2 10
-12 8 -10 10 10 10 20 0 22 2 10 10 -8 5 -25 10 -37 10 -13 0 -23 5 -23 11 0
6 7 8 16 5 10 -4 14 -1 12 6 -3 7 -13 15 -23 16 -10 2 -15 0 -11 -6 12 -19
-15 -24 -66 -12 l-51 13 37 12 c40 14 54 28 132 137 47 66 96 118 111 118 2 0
-7 -21 -20 -47z m373 -26 c-1 -6 -9 -2 -20 11 -11 13 -23 21 -27 19 -4 -3 -9
7 -10 21 l-1 27 29 -33 c16 -18 29 -38 29 -45z m-2399 42 c19 -7 42 -20 51
-30 16 -16 16 -18 -13 -28 -24 -8 -31 -7 -36 4 -3 8 -10 15 -16 15 -8 0 -7 -4
1 -12 9 -9 3 -20 -22 -48 -18 -20 -44 -60 -57 -88 -27 -58 -45 -68 -35 -19 4
20 3 27 -3 18 -6 -9 -18 -11 -35 -7 -25 6 -66 -10 -66 -26 0 -5 14 -8 31 -8
17 0 37 -7 46 -15 8 -8 19 -13 24 -10 10 7 11 -1 3 -32 -6 -21 -7 -21 -51 13
-49 37 -59 40 -66 22 -2 -7 -8 -1 -12 14 -8 33 11 64 71 113 24 20 44 43 44
51 0 22 13 17 48 -17 l32 -31 0 35 c0 47 9 67 29 68 10 0 11 2 4 6 -7 2 -13 9
-13 14 0 11 0 11 41 -2z m495 -75 c-5 -17 0 -41 15 -71 14 -28 18 -48 12 -54
-6 -6 -18 17 -31 65 -26 89 -26 86 -6 86 12 0 15 -6 10 -26z m-936 -14 c0 -5
-5 -10 -11 -10 -5 0 -7 5 -4 10 3 6 8 10 11 10 2 0 4 -4 4 -10z m-220 -137
c-8 -32 -10 -57 -4 -66 5 -7 1 -5 -8 5 -15 17 -15 23 -3 66 8 26 15 58 16 72
l2 25 4 -25 c3 -14 -1 -48 -7 -77z m1974 88 c3 -5 -1 -11 -9 -14 -9 -4 -12 -1
-8 9 6 16 10 17 17 5z m-814 -64 c0 -4 -9 -3 -19 3 -13 7 -17 16 -14 31 6 21
6 21 19 -2 7 -13 13 -28 14 -32z m-143 -26 c30 -22 29 -30 -7 -37 -16 -4 -30
-10 -30 -14 0 -4 -11 -15 -25 -24 l-25 -16 6 47 c8 71 11 75 36 67 13 -4 33
-14 45 -23z m143 -17 c0 -2 -11 -4 -25 -4 -18 0 -25 5 -25 20 0 20 1 20 25 4
14 -9 25 -18 25 -20z m97 -6 c71 -55 128 -84 177 -92 l40 -7 -23 -22 c-16 -15
-25 -18 -28 -9 -3 6 -9 12 -14 12 -14 0 -219 141 -219 151 0 15 9 11 67 -33z
m-1059 -8 c-7 -11 -19 -22 -26 -25 -13 -5 -8 8 13 32 17 20 26 15 13 -7z
m1019 -10 c22 -13 31 -25 27 -35 -8 -20 -6 -20 -43 20 -36 40 -31 44 16 15z
m504 -7 l34 -17 -31 -7 c-18 -3 -53 -20 -79 -38 l-47 -31 -18 22 c-16 21 -17
23 -1 33 9 6 35 17 59 24 23 6 42 16 42 21 0 13 1 13 41 -7z m-1266 -32 c27
-30 28 -33 8 -27 -13 4 -25 2 -30 -6 -4 -7 -16 -19 -26 -27 -16 -13 -16 -11
-2 22 8 20 15 46 15 58 0 12 1 20 3 18 1 -2 16 -19 32 -38z m855 -29 c8 -2 21
-8 30 -13 12 -8 11 -9 -5 -4 -11 4 -27 8 -34 9 -8 2 -17 9 -19 17 -2 8 0 10 5
4 4 -5 15 -11 23 -13z m-1215 -12 c3 -11 13 -20 21 -20 9 0 13 5 9 13 -4 6 1
3 9 -7 16 -20 16 -20 16 0 0 15 2 16 9 5 6 -9 6 -22 0 -33 -6 -10 -7 -29 -4
-41 6 -21 5 -21 -14 3 -11 14 -21 28 -21 33 0 4 -7 7 -15 7 -14 0 -35 29 -35
49 0 19 18 12 25 -9z m423 -8 c7 -5 15 -32 19 -61 3 -28 10 -54 14 -57 5 -3 9
-12 9 -19 0 -12 -6 -12 -35 2 -19 9 -38 14 -41 10 -4 -3 11 -28 33 -54 22 -26
50 -64 62 -83 20 -33 21 -34 21 -10 0 18 3 21 9 12 11 -19 15 -19 34 -3 10 7
17 10 17 5 0 -5 11 -9 24 -9 20 0 22 3 14 18 -5 10 -16 16 -23 13 -8 -3 -24 4
-37 15 l-23 20 27 -16 27 -17 7 39 c14 76 45 114 106 131 20 6 53 22 73 37 34
26 62 28 37 3 -7 -7 -12 -24 -12 -39 0 -15 -15 -51 -32 -80 -28 -45 -33 -61
-32 -113 1 -34 8 -86 17 -116 8 -30 18 -73 21 -96 l6 -41 -68 17 c-77 19 -193
59 -206 72 -14 12 -16 38 -3 35 16 -3 11 53 -7 89 -16 29 -21 25 -29 -26 -4
-25 -4 -25 -6 2 -1 28 -50 111 -52 87 -1 -17 -17 20 -18 41 -1 12 1 12 8 2 7
-11 9 -11 14 0 5 14 -15 44 -43 65 -13 10 -16 8 -16 -7 0 -10 3 -17 7 -14 4 2
13 -4 20 -14 12 -15 12 -16 -2 -5 -9 7 -18 10 -22 7 -6 -7 -32 37 -29 49 1 5
-2 6 -8 2 -6 -3 -8 -11 -5 -16 4 -5 1 -9 -4 -9 -6 0 -11 7 -11 15 0 14 -3 13
-25 -1 -14 -9 -28 -14 -31 -12 -2 3 7 13 21 22 14 9 25 22 25 30 0 9 14 6 51
-11 35 -17 59 -22 80 -18 32 7 37 19 14 33 -9 4 -17 25 -18 45 -3 38 -1 42 21
29z m-462 -23 c23 -22 22 -49 -2 -49 -21 0 -56 39 -50 56 8 20 26 17 52 -7z
m1486 -28 c14 -35 14 -40 1 -45 -8 -4 -34 5 -56 19 -23 14 -35 25 -27 25 8 0
21 9 28 20 19 31 37 24 54 -19z m-1352 14 c0 -20 10 -19 26 3 7 9 13 13 13 7
0 -5 -6 -19 -14 -29 -12 -16 -17 -17 -30 -6 -17 14 -20 40 -5 40 6 0 10 -7 10
-15z m1223 -2 c4 -3 -3 -11 -16 -18 -12 -6 -21 -17 -20 -23 3 -10 -88 -103
-107 -110 -15 -6 -35 78 -23 96 12 20 27 14 28 -12 2 -19 2 -19 -13 0 -14 18
-14 18 -8 -6 3 -14 6 -32 6 -40 1 -24 23 19 26 53 5 42 12 47 40 37 24 -10 64
4 64 22 0 10 14 10 23 1z m59 -51 c-1 -8 2 -11 7 -7 6 3 19 -3 30 -14 19 -19
21 -19 30 -3 12 22 35 3 25 -21 -4 -12 -13 -15 -30 -11 -32 8 -127 -38 -153
-74 -10 -15 -39 -67 -65 -116 -34 -65 -46 -102 -47 -135 -1 -49 -4 -43 -14 32
-3 26 -10 45 -15 42 -5 -3 -5 -17 1 -32 5 -14 8 -28 6 -30 -5 -5 -30 55 -30
73 0 10 -5 10 -20 3 -15 -9 -18 -20 -17 -67 3 -81 4 -79 -45 -127 l-46 -44 23
-20 c29 -28 20 -26 -36 5 -26 15 -46 33 -46 42 0 21 63 120 121 192 25 30 58
79 74 108 39 71 197 225 228 220 12 -2 21 -9 19 -16z m-1218 -57 c-3 -7 -1
-16 5 -19 6 -4 7 -14 4 -23 -4 -11 -2 -14 5 -9 6 4 18 -5 28 -21 10 -15 29
-41 43 -56 l26 -29 -37 22 c-21 12 -38 27 -38 34 0 7 -18 30 -40 51 -37 36
-54 65 -30 50 6 -3 10 4 10 16 0 17 3 19 14 9 8 -6 13 -17 10 -25z m160 -10
c3 -8 1 -15 -4 -15 -6 0 -10 7 -10 15 0 8 2 15 4 15 2 0 6 -7 10 -15z m-418
-70 c4 -8 15 -15 25 -15 15 0 19 -7 19 -32 0 -25 -3 -29 -12 -20 -7 7 -20 12
-29 12 -9 0 -19 8 -22 18 -2 9 -8 25 -12 35 -5 12 -2 17 9 17 9 0 19 -7 22
-15z m1974 -16 c0 -16 -4 -28 -9 -25 -8 5 -3 56 5 56 2 0 4 -14 4 -31z m-1515
-9 c3 -5 1 -10 -4 -10 -6 0 -11 5 -11 10 0 6 2 10 4 10 3 0 8 -4 11 -10z m3
-55 c-40 -27 -53 -31 -42 -14 4 7 0 9 -14 5 -11 -4 -23 -2 -26 3 -4 5 2 10 11
10 29 0 73 8 80 15 3 3 11 6 17 6 6 0 -6 -11 -26 -25z m1312 0 c19 -10 44 -19
55 -20 82 -7 171 -17 174 -20 9 -10 -57 -54 -81 -55 -22 0 -28 -5 -28 -21 0
-13 -20 -42 -47 -69 -57 -55 -118 -186 -109 -231 3 -14 2 -30 -2 -34 -4 -4 -7
-12 -7 -18 0 -7 -21 -13 -52 -15 -58 -3 -66 7 -34 42 41 46 54 112 56 284 2
94 -1 162 -7 162 -5 0 -6 -4 -3 -10 3 -5 2 -10 -3 -10 -5 0 -12 8 -14 18 -4
14 1 17 31 17 20 -1 52 -9 71 -20z m-1783 -37 c-3 -8 -6 -5 -6 6 -1 11 2 17 5
13 3 -3 4 -12 1 -19z m113 -48 c0 -6 -13 -4 -30 5 -23 12 -29 22 -28 41 l3 26
27 -31 c16 -17 28 -36 28 -41z m245 20 c3 -5 -1 -20 -10 -33 -11 -17 -14 -38
-10 -68 l5 -44 -15 39 c-12 31 -13 46 -3 77 11 39 21 48 33 29z m1603 -73 c3
-26 2 -27 -22 -15 -33 15 -36 51 -3 46 16 -2 23 -11 25 -31z m877 16 c9 -10
33 -38 55 -63 41 -47 37 -60 -14 -40 -17 6 -33 24 -42 47 -9 21 -23 46 -32 56
-14 15 -14 17 1 17 10 0 24 -8 32 -17z m-2521 -75 c1 -26 6 -43 15 -46 10 -3
12 1 8 14 -7 18 -6 18 8 -1 9 -11 13 -25 11 -31 -2 -6 3 -11 11 -10 9 0 18 -5
20 -11 3 -7 -1 -13 -9 -13 -12 0 -18 -21 -21 -82 -1 -16 -3 -28 -4 -28 -1 0
-11 19 -22 43 -11 23 -29 51 -40 61 -32 29 -25 37 15 20 20 -8 38 -13 41 -11
5 5 -101 47 -118 47 -6 0 -7 5 -3 11 3 6 17 8 29 5 18 -5 23 -2 21 11 -4 25
-19 26 -46 3 -25 -22 -36 -25 -44 -11 -3 5 14 16 38 25 24 9 52 26 61 36 23
26 29 19 29 -32z m-144 -20 c0 -12 -6 -9 -26 13 -19 22 -19 22 4 8 12 -8 22
-17 22 -21z m1125 -50 c6 -31 4 -38 -9 -38 -16 0 -20 11 -17 39 2 8 -2 10 -10
5 -8 -4 -10 -3 -5 5 4 6 12 8 18 5 7 -4 8 2 3 17 -5 17 -4 21 3 14 6 -5 14
-27 17 -47z m1442 30 c-3 -8 -6 -5 -6 6 -1 11 2 17 5 13 3 -3 4 -12 1 -19z
m-1837 -61 c0 -4 -5 -5 -11 -1 -6 3 -16 0 -21 -7 -8 -11 -9 -10 -4 3 7 23 -42
38 -55 17 -10 -16 -12 -8 -3 14 5 14 11 14 50 -1 24 -9 44 -20 44 -25z m1860
33 c0 -5 -2 -10 -4 -10 -3 0 -8 5 -11 10 -3 6 -1 10 4 10 6 0 11 -4 11 -10z
m258 -28 c6 -19 -22 -3 -37 20 -14 22 -13 22 10 7 12 -9 25 -21 27 -27z
m-2455 -19 c-5 -36 -23 -72 -23 -45 0 6 -11 17 -24 24 -31 16 -29 29 9 49 39
21 44 17 38 -28z m607 37 c0 -5 -4 -10 -10 -10 -5 0 -10 5 -10 10 0 6 5 10 10
10 6 0 10 -4 10 -10z m860 -20 c0 -5 -7 -10 -16 -10 -8 0 -12 5 -9 10 3 6 10
10 16 10 5 0 9 -4 9 -10z m846 -48 c-3 -2 -14 2 -26 8 -12 6 -24 9 -27 7 -2
-3 5 -10 16 -17 12 -6 21 -19 21 -30 0 -13 5 -18 15 -14 9 4 15 0 16 -7 0 -8
4 -5 8 6 7 16 10 12 15 -23 4 -23 12 -40 17 -36 12 7 12 44 -1 44 -5 0 -10 5
-10 10 0 19 21 10 30 -12 5 -13 9 -17 9 -10 1 6 6 12 12 12 6 0 9 -7 5 -15 -3
-8 -1 -15 4 -15 6 0 10 -7 10 -15 0 -9 6 -12 15 -8 18 6 14 29 -4 26 -6 -2
-11 2 -11 7 0 6 6 10 13 10 8 0 7 4 -3 10 -10 7 -11 10 -2 10 7 0 15 -7 18
-15 4 -8 12 -15 20 -15 8 0 14 -6 14 -14 0 -8 10 -22 22 -30 12 -9 18 -16 12
-16 -6 0 -19 9 -29 20 -16 17 -19 18 -40 4 -21 -14 -49 -15 -70 -3 -5 4 -18 5
-29 3 -14 -2 -17 2 -13 22 2 13 0 24 -4 24 -5 0 -9 -13 -9 -29 0 -27 -2 -29
-31 -24 -16 2 -37 -1 -45 -8 -8 -7 -14 -8 -13 -3 6 33 -2 36 -61 25 -3 -1 2
-6 10 -11 9 -6 10 -10 3 -10 -6 0 -15 5 -18 10 -3 6 -14 10 -23 10 -13 0 -13
-2 4 -15 19 -14 19 -14 -2 -15 -12 0 -36 3 -54 6 l-32 7 30 13 c17 7 55 15 86
19 48 6 58 11 70 37 18 34 8 70 -24 90 -41 26 -18 27 35 1 30 -15 53 -29 51
-31z m-1660 10 c-18 -16 -18 -16 -6 6 6 13 14 21 18 18 3 -4 -2 -14 -12 -24z
m1781 6 c-3 -8 -6 -5 -6 6 -1 11 2 17 5 13 3 -3 4 -12 1 -19z m-1685 -28 c4
-45 -17 -75 -45 -64 -12 4 -15 14 -11 34 5 22 2 29 -12 32 -15 3 -12 5 8 10
17 3 25 1 21 -5 -3 -6 -1 -7 5 -3 17 10 15 24 -5 29 -12 3 -8 5 8 6 24 1 27
-3 31 -39z m-455 8 c-3 -8 -6 -5 -6 6 -1 11 2 17 5 13 3 -3 4 -12 1 -19z m910
-28 c-7 -17 -13 -26 -15 -21 -3 10 15 51 22 51 3 0 -1 -14 -7 -30z m1233 16
c0 -8 -7 -16 -15 -20 -17 -6 -71 11 -62 20 3 3 15 0 28 -6 18 -10 23 -9 31 4
11 20 18 21 18 2z m-1781 -11 c4 2 13 0 21 -5 10 -6 12 -12 4 -20 -7 -7 -23
-4 -52 10 -50 24 -54 32 -11 20 18 -5 35 -8 38 -5z m989 -17 c48 -12 129 -62
115 -71 -4 -3 -35 -8 -68 -12 -33 -4 -70 -11 -82 -16 -31 -11 -47 19 -38 72 8
44 8 44 73 27z m148 -24 c-5 -13 -10 -14 -18 -6 -6 6 -8 18 -4 28 5 13 10 14
18 6 6 -6 8 -18 4 -28z m-1561 8 c-3 -3 -11 0 -18 7 -9 10 -8 11 6 5 10 -3 15
-9 12 -12z m1152 -14 c-3 -7 -5 -2 -5 12 0 14 2 19 5 13 2 -7 2 -19 0 -25z
m-163 -22 c-7 -30 -13 -29 -19 3 -2 12 0 19 6 16 5 -4 9 -1 9 6 0 7 2 10 5 7
4 -3 3 -18 -1 -32z m-1391 13 c12 -7 29 -21 38 -33 19 -24 45 -93 37 -101 -3
-3 -19 0 -37 6 -17 6 -47 9 -66 7 l-34 -4 5 46 c11 96 15 101 57 79z m1057
-162 c63 -26 105 -9 145 58 9 15 20 16 73 10 36 -4 62 -12 62 -18 0 -7 10 -32
21 -57 16 -35 22 -41 29 -30 8 12 10 11 11 -5 1 -11 0 -30 -1 -42 -2 -37 29
-83 78 -114 46 -29 156 -139 147 -147 -2 -2 -23 14 -46 37 -61 60 -61 41 -1
-23 51 -54 69 -82 35 -55 -9 8 -5 -2 10 -22 15 -20 24 -39 20 -43 -10 -10 17
-25 34 -19 7 3 10 10 6 16 -4 6 -1 7 7 2 9 -6 11 -27 6 -83 -5 -49 -3 -92 5
-124 16 -60 7 -72 -44 -56 -27 8 -45 24 -65 54 -15 23 -35 45 -45 47 -19 6
-70 -16 -61 -26 3 -3 -3 -3 -15 0 -12 3 -21 13 -21 22 0 14 7 17 29 13 34 -5
85 29 107 70 21 40 17 104 -8 149 -12 22 -26 39 -32 39 -5 0 -6 3 -3 7 4 3 17
-2 28 -13 22 -19 22 -19 10 3 -13 25 -72 76 -83 71 -4 -2 -15 7 -23 20 -9 12
-22 22 -30 22 -23 0 -52 47 -59 95 -4 24 -10 46 -14 48 -4 2 -20 -1 -35 -8
l-28 -11 26 -12 c31 -14 31 -24 4 -62 -15 -20 -20 -36 -15 -54 4 -16 0 -38 -9
-56 -8 -16 -18 -50 -22 -75 -5 -37 -2 -50 14 -68 11 -12 35 -44 54 -72 18 -27
44 -60 58 -73 15 -14 21 -26 15 -32 -8 -8 -49 1 -210 46 l-52 14 -40 92 c-54
126 -131 320 -154 393 -48 147 -45 176 11 121 20 -19 52 -41 71 -49z m-685 53
c4 -6 -1 -22 -10 -37 -14 -21 -15 -27 -4 -35 9 -6 4 -7 -16 -3 l-30 5 28 -11
c15 -6 25 -15 21 -20 -3 -5 -3 -9 1 -9 3 0 10 10 15 23 l9 22 0 -22 c1 -13 6
-23 11 -23 6 0 10 -4 10 -9 0 -5 -20 -4 -46 1 -25 5 -56 7 -69 4 -33 -8 -72
-52 -79 -89 -7 -37 26 -77 89 -108 l40 -19 -37 3 c-20 2 -34 -1 -32 -5 3 -5
-3 -11 -13 -15 -10 -4 -28 -20 -41 -35 -13 -15 -27 -28 -32 -28 -9 0 -50 66
-50 81 0 5 6 9 14 9 27 0 39 30 37 90 -1 46 2 63 17 77 11 10 27 32 36 48 15
27 16 27 11 5 -5 -21 -4 -22 5 -7 7 10 8 23 2 33 -8 15 -11 14 -24 -5 -13 -19
-16 -20 -22 -6 -3 9 -6 28 -6 42 0 25 1 25 18 10 23 -21 33 -22 26 -2 -5 11 1
15 19 15 14 0 33 3 41 6 12 5 15 2 10 -11 -5 -13 -3 -16 7 -13 8 3 13 10 12
16 -2 6 4 9 12 6 8 -4 15 -2 15 4 0 6 -6 13 -12 15 -10 4 -10 6 -1 6 6 1 15
-4 18 -9z m524 -30 c11 -24 11 -24 -3 -6 -9 11 -16 24 -16 30 0 12 5 7 19 -24z
m-179 3 c0 -3 -7 -3 -15 1 -8 3 -15 0 -15 -6 0 -6 -3 -9 -6 -5 -11 10 6 26 21
20 8 -3 15 -7 15 -10z m136 -69 c10 -6 14 -13 8 -17 -5 -3 -34 17 -64 44 l-55
50 46 -33 c26 -18 55 -38 65 -44z m1507 47 c-7 -28 -31 -34 -28 -8 3 28 2 27
19 27 9 0 12 -7 9 -19z m-2182 -126 c-8 -70 -18 -44 -13 35 4 47 7 58 12 40 4
-14 4 -47 1 -75z m1249 64 c0 -6 -4 -7 -10 -4 -5 3 -10 11 -10 16 0 6 5 7 10
4 6 -3 10 -11 10 -16z m16 -36 c-6 -15 -9 -15 -16 -3 -6 9 -5 17 3 22 16 10
21 2 13 -19z m-949 11 c-3 -3 -12 -4 -19 -1 -8 3 -5 6 6 6 11 1 17 -2 13 -5z
m1194 -51 c13 -16 12 -17 -3 -4 -10 7 -18 15 -18 17 0 8 8 3 21 -13z m-712
-58 c0 -11 -25 20 -41 50 -5 11 2 7 16 -10 14 -16 25 -34 25 -40z m721 0 c0
-5 -5 -3 -10 5 -5 8 -10 20 -10 25 0 6 5 3 10 -5 5 -8 10 -19 10 -25z m-843
-17 c-3 -7 -5 -2 -5 12 0 14 2 19 5 13 2 -7 2 -19 0 -25z m668 -116 c-6 -6
-35 18 -35 29 0 5 9 1 20 -8 11 -9 17 -19 15 -21z m189 -17 c8 -22 -32 -85
-55 -85 -10 0 -19 5 -19 12 0 26 25 78 39 81 27 8 29 7 35 -8z m56 -1 c11 -12
10 -18 -6 -35 -24 -24 -73 -37 -54 -14 7 8 15 14 18 13 18 -2 32 3 32 12 0 5
-6 7 -13 4 -7 -2 -13 4 -14 16 -2 24 19 26 37 4z m1230 -28 c0 -11 -19 -15
-25 -6 -3 5 1 10 9 10 9 0 16 -2 16 -4z m33 -10 c4 -10 1 -13 -8 -9 -8 3 -12
9 -9 14 7 12 11 11 17 -5z m-1323 -51 c0 -8 -2 -15 -4 -15 -2 0 -6 7 -10 15
-3 8 -1 15 4 15 6 0 10 -7 10 -15z m-2005 -28 c23 -6 55 -26 73 -42 l32 -30
-45 -11 c-41 -9 -45 -9 -40 7 5 16 3 17 -23 8 -16 -5 -40 -22 -53 -36 -22 -24
-22 -25 -4 -19 45 18 49 18 27 2 -27 -21 -58 -13 -68 16 -3 12 -9 16 -13 10
-3 -6 -7 9 -8 32 -1 39 2 45 30 59 39 19 43 20 92 4z m2400 -81 l40 -14 -29
-11 c-24 -10 -31 -9 -42 6 -12 16 -18 33 -11 33 1 0 20 -7 42 -14z m-790 -66
l30 -11 -42 -40 c-49 -46 -56 -60 -14 -30 15 11 32 17 36 13 5 -4 5 -1 1 6 -4
6 -2 12 4 12 6 0 9 4 6 9 -3 5 1 12 10 15 31 12 37 6 16 -14 -12 -11 -25 -32
-28 -45 -3 -14 -14 -25 -23 -26 -10 0 -8 -4 8 -10 21 -8 23 -14 18 -55 -2 -25
-7 -47 -10 -50 -3 -3 -25 -1 -49 4 l-43 10 45 2 c25 1 36 5 25 8 l-20 5 20 8
c15 6 10 8 -20 8 -45 1 -66 -13 -58 -38 5 -13 3 -14 -7 -4 -24 22 15 53 67 53
37 0 44 3 41 18 -5 28 -68 29 -89 0 l-18 -23 6 25 c3 14 11 32 17 40 6 8 1 6
-12 -4 -12 -11 -22 -25 -22 -33 0 -7 -4 -13 -9 -13 -9 0 -14 23 -26 127 l-7
52 59 -3 c32 -2 72 -9 88 -16z m-1665 -20 c0 -5 -2 -10 -4 -10 -3 0 -8 5 -11
10 -3 6 -1 10 4 10 6 0 11 -4 11 -10z m2740 -113 c0 -7 -6 -3 -12 8 -6 11 -17
24 -25 28 -7 4 -13 13 -13 19 0 6 11 -1 25 -16 14 -15 25 -32 25 -39z m-392
13 c1 -23 -3 -38 -9 -35 -5 4 -9 13 -9 20 0 9 -6 12 -17 8 -14 -5 -12 0 6 20
14 15 25 27 27 27 1 0 2 -18 2 -40z m-224 1 c7 -10 -17 -21 -45 -21 -19 0 -25
11 -12 23 9 10 51 8 57 -2z m-90 -14 c16 -12 16 -14 2 -26 -12 -10 -16 -33
-16 -98 0 -63 -3 -84 -12 -80 -13 4 -15 33 -8 112 2 22 0 55 -4 73 -8 36 6 43
38 19z m272 -22 c10 -8 26 -15 35 -15 27 0 40 -98 16 -118 -17 -15 -77 21 -77
46 0 10 -13 33 -30 52 -16 19 -29 38 -30 43 0 13 66 7 86 -8z m-2232 -44 c16
-18 16 -19 -1 -17 -18 1 -33 14 -33 29 0 13 17 7 34 -12z m2586 -22 c0 -12
-38 2 -44 17 -4 11 0 11 19 2 14 -6 25 -15 25 -19z m71 -19 c16 9 19 7 19 -12
0 -13 -4 -18 -8 -13 -4 6 -14 10 -22 10 -8 0 -15 7 -16 15 0 9 1 10 3 3 3 -10
10 -10 24 -3z m-1126 0 c-3 -5 1 -10 10 -10 9 0 14 -4 11 -9 -7 -11 -25 -9
-46 4 -13 8 -13 7 -1 -8 7 -9 17 -14 21 -12 5 3 7 -7 5 -22 -2 -16 -4 -31 -4
-35 -1 -5 -5 -8 -10 -8 -5 0 -12 18 -16 40 -8 48 -8 55 4 55 5 0 13 3 17 8 11
10 16 9 9 -3z m825 -60 c0 -12 -54 -19 -64 -10 -5 6 -4 15 3 24 10 12 18 13
37 4 13 -6 24 -14 24 -18z m-2239 -6 c7 -8 28 -24 48 -33 l35 -19 -49 -24
c-48 -24 -105 -43 -105 -34 0 2 -7 20 -15 40 -16 37 -15 37 5 26 28 -15 38 -5
22 21 -7 11 -10 24 -7 29 10 15 51 12 66 -6z m2147 0 c12 -8 20 -20 17 -25
-10 -15 -22 -10 -39 16 -19 29 -11 32 22 9z m760 -9 c-3 -3 -9 2 -12 12 -6 14
-5 15 5 6 7 -7 10 -15 7 -18z m-416 -7 c-7 -7 -12 -36 -12 -65 0 -29 -4 -53
-10 -53 -5 0 -7 6 -5 13 2 6 1 28 -3 47 -7 29 -4 38 13 52 23 20 35 24 17 6z
m1045 -14 c-3 -3 -12 -4 -19 -1 -8 3 -5 6 6 6 11 1 17 -2 13 -5z m-1141 -36
l19 -23 -25 20 c-14 11 -27 21 -29 22 -2 2 0 3 6 3 5 0 18 -10 29 -22z m47 -3
c-7 -21 -13 -19 -13 6 0 11 4 18 10 14 5 -3 7 -12 3 -20z m-2023 -8 c8 -7 28
-32 44 -56 l28 -44 -26 7 c-50 12 -141 62 -144 78 -5 26 70 38 98 15z m2051
-130 c-8 -8 -14 -7 -23 2 -8 9 -8 11 -2 8 7 -4 15 1 19 11 5 12 9 14 12 4 3
-8 0 -19 -6 -25z m94 -17 l30 -20 -57 0 c-42 0 -58 4 -58 13 0 33 41 36 85 7z
m282 -22 c-3 -8 -6 -5 -6 6 -1 11 2 17 5 13 3 -3 4 -12 1 -19z m-2487 2 c-8
-5 -22 -10 -30 -10 -13 0 -13 1 0 10 8 5 22 10 30 10 13 0 13 -1 0 -10z m1050
0 c0 -5 -4 -10 -10 -10 -5 0 -10 5 -10 10 0 6 5 10 10 10 6 0 10 -4 10 -10z
m1069 -4 c6 -8 8 -27 5 -46 l-7 -33 -18 24 c-34 43 -14 96 20 55z m361 -39 c0
-5 -7 -15 -17 -22 -14 -11 -19 -27 -22 -73 -1 -8 -22 8 -48 34 -26 26 -61 55
-78 66 -35 21 -22 24 15 3 14 -8 35 -14 47 -15 12 0 24 -6 26 -12 4 -8 6 -7 6
3 1 24 43 50 59 37 6 -6 12 -15 12 -21z m646 10 c8 -21 -14 -67 -32 -67 -13 0
-14 3 -4 14 6 8 11 23 10 33 -1 10 -2 21 -1 26 2 12 21 8 27 -6z m384 -7 c0
-5 -5 -10 -11 -10 -5 0 -7 5 -4 10 3 6 8 10 11 10 2 0 4 -4 4 -10z m-89 -43
c8 -29 -8 -41 -32 -23 -18 13 -31 44 -24 56 10 16 49 -7 56 -33z m-2004 -4
c-3 -10 -5 -4 -5 12 0 17 2 24 5 18 2 -7 2 -21 0 -30z m-1740 -116 c10 -22 13
-41 7 -46 -5 -4 -35 -14 -68 -20 -44 -10 -69 -23 -101 -52 -39 -36 -65 -49
-65 -32 0 11 33 43 45 43 20 0 52 43 68 90 9 25 25 63 36 85 12 21 21 48 22
60 0 11 9 -5 20 -35 11 -30 28 -72 36 -93z m1388 123 c3 -5 1 -10 -4 -10 -6 0
-11 5 -11 10 0 6 2 10 4 10 3 0 8 -4 11 -10z m139 -6 c3 -8 2 -12 -4 -9 -6 3
-10 10 -10 16 0 14 7 11 14 -7z m233 -34 c-1 -16 -7 -30 -14 -30 -8 0 -8 7 0
30 14 38 17 38 14 0z m1258 20 c-3 -5 -11 -10 -16 -10 -6 0 -7 5 -4 10 3 6 11
10 16 10 6 0 7 -4 4 -10z m-2052 -17 c-7 -2 -19 -2 -25 0 -7 3 -2 5 12 5 14 0
19 -2 13 -5z m410 -19 c11 -14 17 -28 14 -30 -3 -3 -15 9 -27 25 -12 17 -18
31 -13 31 4 0 16 -12 26 -26z m44 20 c-3 -3 -12 -4 -19 -1 -8 3 -5 6 6 6 11 1
17 -2 13 -5z m1728 -4 c-3 -5 -12 -10 -18 -10 -7 0 -6 4 3 10 19 12 23 12 15
0z m199 -15 c3 -8 1 -15 -4 -15 -6 0 -10 7 -10 15 0 8 2 15 4 15 2 0 6 -7 10
-15z m-1561 -22 c-5 -12 -3 -14 8 -8 11 6 12 5 2 -6 -11 -11 -15 -11 -25 0
-11 11 -10 14 0 18 6 3 9 10 6 15 -4 7 -2 8 4 4 6 -4 8 -14 5 -23z m1395 -9
c-4 -3 -12 5 -18 18 -12 22 -12 22 6 6 10 -10 15 -20 12 -24z m-1739 6 c-6 -5
-19 -6 -27 -2 -13 4 -12 7 4 12 23 9 41 1 23 -10z m316 -20 c-3 -5 4 -12 16
-15 11 -4 18 -9 16 -12 -9 -9 -47 18 -47 33 0 8 5 12 10 9 6 -4 8 -10 5 -15z
m-283 -30 c5 0 6 -16 2 -35 -4 -23 -2 -35 5 -35 6 0 11 -8 11 -17 0 -14 -3
-14 -20 5 -11 12 -20 24 -20 28 0 3 -14 25 -32 48 -17 22 -25 35 -18 29 21
-20 50 -16 44 5 -2 9 1 7 7 -5 7 -13 16 -23 21 -23z m1343 6 c24 -11 33 -19
29 -30 -5 -12 -11 -13 -24 -6 -10 6 -28 10 -39 10 -14 0 -21 6 -21 20 0 24 9
25 55 6z m99 -46 c19 -12 37 -28 40 -36 3 -9 3 -14 -1 -12 -23 11 -61 27 -78
34 -19 7 -19 7 -1 12 15 3 16 6 5 13 -29 18 1 8 35 -11z m-2238 -37 c-7 -7
-26 7 -26 19 0 6 6 6 15 -2 9 -7 13 -15 11 -17z m14 -28 c0 -8 -4 -15 -10 -15
-5 0 -10 7 -10 15 0 8 5 15 10 15 6 0 10 -7 10 -15z m815 -53 c-3 -3 -11 0
-18 7 -9 10 -8 11 6 5 10 -3 15 -9 12 -12z m1630 -52 c3 -5 1 -10 -4 -10 -6 0
-11 5 -11 10 0 6 2 10 4 10 3 0 8 -4 11 -10z m-1435 -170 c0 -15 -5 -12 -26
11 -19 22 -19 22 4 10 12 -6 22 -16 22 -21z m-1633 -6 c-3 -3 -12 -4 -19 -1
-8 3 -5 6 6 6 11 1 17 -2 13 -5z m1583 -67 c0 -4 5 -5 10 -2 6 3 10 4 10 1 0
-3 -4 -7 -10 -11 -5 -3 -16 9 -25 27 -14 29 -14 30 0 14 8 -11 15 -24 15 -29z
m-52 -122 c-3 -3 -9 2 -12 12 -6 14 -5 15 5 6 7 -7 10 -15 7 -18z m1562 -36
c0 -15 -5 -31 -10 -34 -6 -4 -8 -10 -6 -14 3 -4 0 -8 -7 -8 -8 0 -11 17 -9 54
3 45 6 52 18 42 8 -6 14 -24 14 -40z m-105 -47 c-3 -3 -11 0 -18 7 -9 10 -8
11 6 5 10 -3 15 -9 12 -12z"/>
<path d="M2610 4795 c0 -10 3 -15 7 -11 4 3 12 -3 19 -15 6 -12 14 -17 17 -12
4 6 -5 21 -18 33 -23 21 -25 22 -25 5z"/>
<path d="M2631 4634 c0 -11 3 -14 6 -6 3 7 2 16 -1 19 -3 4 -6 -2 -5 -13z"/>
<path d="M2670 4520 c-6 -11 -8 -20 -6 -20 3 0 10 9 16 20 6 11 8 20 6 20 -3
0 -10 -9 -16 -20z"/>
<path d="M720 5205 c14 -8 30 -14 35 -14 6 0 -1 6 -15 14 -14 8 -29 14 -35 14
-5 0 1 -6 15 -14z"/>
<path d="M670 5196 c0 -8 4 -17 9 -20 5 -4 7 3 4 14 -6 23 -13 26 -13 6z"/>
<path d="M866 4745 c-9 -26 -7 -32 5 -12 6 10 9 21 6 23 -2 3 -7 -2 -11 -11z"/>
<path d="M570 4644 c0 -8 5 -12 10 -9 6 3 10 10 10 16 0 5 -4 9 -10 9 -5 0
-10 -7 -10 -16z"/>
<path d="M876 4423 c-4 -9 -3 -20 2 -25 4 -4 9 4 10 17 2 29 -3 32 -12 8z"/>
<path d="M1310 4570 c0 -5 5 -10 10 -10 6 0 10 5 10 10 0 6 -4 10 -10 10 -5 0
-10 -4 -10 -10z"/>
<path d="M1885 4520 c10 -11 20 -20 23 -20 3 0 -3 9 -13 20 -10 11 -20 20 -23
20 -3 0 3 -9 13 -20z"/>
<path d="M2860 4171 c0 -5 5 -13 10 -16 6 -3 10 -2 10 4 0 5 -4 13 -10 16 -5
3 -10 2 -10 -4z"/>
<path d="M1396 4023 c-9 -22 5 -35 24 -22 12 9 12 10 -3 5 -15 -5 -17 -2 -12
14 8 24 0 27 -9 3z"/>
<path d="M1416 3973 c-8 -20 21 -123 34 -123 5 0 7 -6 5 -12 -3 -7 4 -31 15
-53 11 -22 18 -30 16 -17 -2 12 0 20 5 16 5 -3 9 5 10 18 l0 23 10 -24 c5 -13
13 -21 16 -17 12 11 -26 69 -62 96 -32 24 -38 47 -9 36 12 -4 11 -1 -1 18 -8
12 -14 25 -13 27 2 2 -3 -3 -10 -11 -11 -13 -12 -11 -7 13 8 29 1 37 -9 10z"/>
<path d="M1465 3970 c3 -5 8 -10 11 -10 2 0 4 5 4 10 0 6 -5 10 -11 10 -5 0
-7 -4 -4 -10z"/>
<path d="M1476 3932 c13 -13 17 -13 29 -1 12 12 10 14 -15 15 -25 1 -27 -1
-14 -14z"/>
<path d="M1710 3864 c0 -8 5 -12 10 -9 6 3 10 10 10 16 0 5 -4 9 -10 9 -5 0
-10 -7 -10 -16z"/>
<path d="M1756 3846 c10 -8 21 -12 24 -10 5 6 -21 24 -34 24 -6 0 -1 -6 10
-14z"/>
<path d="M1830 3826 c0 -7 9 -21 20 -31 11 -10 20 -16 20 -12 0 3 16 -9 36
-26 19 -18 45 -33 57 -33 20 -1 20 -1 2 12 -10 8 -24 14 -29 14 -6 0 -32 20
-58 45 -27 24 -48 39 -48 31z"/>
<path d="M1731 3784 c0 -11 3 -14 6 -6 3 7 2 16 -1 19 -3 4 -6 -2 -5 -13z"/>
<path d="M1522 3700 c0 -14 2 -19 5 -12 2 6 2 18 0 25 -3 6 -5 1 -5 -13z"/>
<path d="M2076 3402 c-3 -6 1 -13 10 -16 23 -9 28 -2 10 13 -8 7 -17 8 -20 3z"/>
<path d="M2030 3371 c0 -10 9 -21 20 -24 11 -3 20 -9 19 -14 -1 -4 -1 -15 0
-23 1 -12 3 -13 10 -1 7 11 10 9 16 -9 6 -18 9 -20 16 -9 12 19 11 62 -1 54
-5 -3 -7 0 -4 8 3 8 -6 18 -21 25 -37 17 -55 15 -55 -7z"/>
<path d="M730 4000 c0 -6 7 -13 15 -17 24 -9 27 1 5 15 -13 8 -20 8 -20 2z"/>
<path d="M726 3951 c-3 -4 6 -8 20 -9 13 -1 24 0 24 2 0 7 -40 14 -44 7z"/>
<path d="M2340 3210 c0 -5 5 -10 11 -10 5 0 7 5 4 10 -3 6 -8 10 -11 10 -2 0
-4 -4 -4 -10z"/>
<path d="M3050 2731 c0 -6 4 -13 10 -16 6 -3 7 1 4 9 -7 18 -14 21 -14 7z"/>
<path d="M1740 2612 c0 -5 7 -9 15 -9 8 0 12 4 9 9 -3 4 -9 8 -15 8 -5 0 -9
-4 -9 -8z"/>
<path d="M3603 5415 c0 -19 7 -18 31 0 19 14 19 15 -5 15 -16 0 -26 -6 -26
-15z"/>
<path d="M3612 5364 c-20 -14 -31 -44 -16 -44 9 0 44 41 44 52 0 11 -2 10 -28
-8z"/>
<path d="M2132 5330 c0 -14 2 -19 5 -12 2 6 2 18 0 25 -3 6 -5 1 -5 -13z"/>
<path d="M3540 5321 c-17 -15 -30 -34 -30 -42 0 -8 -5 -21 -11 -29 -8 -11 -9
-9 -3 10 6 22 5 23 -10 11 -13 -11 -14 -17 -5 -28 10 -11 15 -10 31 7 10 11
23 20 28 20 6 0 10 7 10 16 0 9 5 12 11 8 7 -4 10 -1 7 7 -3 8 -1 22 4 32 13
25 2 21 -32 -12z"/>
<path d="M3480 5320 c0 -5 5 -10 11 -10 5 0 7 5 4 10 -3 6 -8 10 -11 10 -2 0
-4 -4 -4 -10z"/>
<path d="M3385 5210 c3 -5 15 -10 26 -10 11 0 17 5 14 10 -3 6 -15 10 -26 10
-11 0 -17 -4 -14 -10z"/>
<path d="M3455 5210 c-19 -8 -19 -9 2 -9 12 -1 25 4 28 9 7 12 -2 12 -30 0z"/>
<path d="M3662 5203 c-7 -10 -10 -12 -7 -5 8 16 -10 16 -24 -1 -17 -22 -3 -27
68 -26 55 0 62 2 39 10 -18 7 -25 15 -21 26 5 13 3 13 -15 4 -13 -7 -22 -7
-24 -1 -2 6 -9 2 -16 -7z"/>
<path d="M3495 5199 c-4 -5 4 -9 17 -9 13 0 39 -3 59 -6 29 -5 37 -3 43 11 5
15 4 16 -8 6 -8 -7 -23 -10 -33 -7 -40 12 -73 14 -78 5z"/>
<path d="M3500 5173 c0 -5 11 -8 24 -8 13 0 22 3 19 8 -2 4 -13 7 -24 7 -10 0
-19 -3 -19 -7z"/>
<path d="M3568 5163 c6 -2 18 -2 25 0 6 3 1 5 -13 5 -14 0 -19 -2 -12 -5z"/>
<path d="M4007 5162 c-9 -2 -15 -8 -12 -13 4 -5 1 -9 -4 -9 -6 0 -11 3 -11 8
0 4 -69 8 -153 8 -83 1 -140 -1 -124 -3 15 -2 27 -10 27 -16 0 -7 4 -6 10 3 6
10 10 11 10 3 0 -7 3 -12 8 -12 21 4 42 -2 38 -10 -3 -5 1 -12 10 -15 12 -4
15 -2 10 9 -7 20 4 19 20 -2 13 -17 14 -17 8 0 -6 16 -2 15 32 -5 21 -12 34
-16 29 -9 -6 11 -2 12 19 7 15 -4 25 -3 22 2 -3 5 1 9 9 9 8 0 12 -4 9 -8 -2
-4 0 -10 6 -14 5 -3 10 -2 10 3 0 5 11 21 26 37 28 30 28 33 1 27z"/>
<path d="M3325 5060 c-4 -6 -21 -9 -37 -6 -64 10 -151 -60 -164 -132 -4 -20
-14 -50 -23 -65 -13 -24 -21 -28 -48 -25 -18 2 -30 2 -28 -1 8 -7 49 -30 66
-37 13 -4 18 -22 21 -77 3 -62 8 -78 36 -116 24 -32 32 -55 32 -85 0 -46 27
-112 56 -138 11 -10 38 -25 59 -34 47 -19 84 -50 95 -81 5 -11 25 -34 45 -49
32 -24 48 -28 121 -32 79 -4 86 -7 109 -34 l25 -30 0 79 c0 50 -6 88 -15 107
-8 16 -22 58 -30 94 -9 38 -27 79 -44 101 -15 20 -41 56 -56 81 -15 25 -44 60
-64 77 -40 36 -38 41 29 63 36 12 40 11 65 -14 14 -14 29 -25 33 -23 4 2 24
11 45 21 20 9 37 22 37 29 0 7 4 6 10 -3 8 -13 11 -12 24 5 9 11 13 29 9 40
-5 18 -4 18 11 6 14 -12 16 -12 10 4 -5 13 -4 16 4 11 7 -4 12 -3 12 3 0 5 9
13 20 16 24 8 26 28 5 45 -10 9 -15 9 -15 1 0 -6 -5 -11 -11 -11 -6 0 -9 7 -5
15 3 9 0 15 -10 15 -12 0 -15 6 -10 24 3 14 1 28 -5 31 -6 4 -8 13 -5 21 3 8
2 13 -2 12 -4 -1 -27 10 -50 26 -24 15 -50 25 -58 22 -8 -3 -13 -2 -9 3 3 5
-24 19 -60 30 -70 23 -219 29 -230 11z m335 -102 c-12 -5 -25 -6 -28 -3 -3 3
0 5 7 5 7 0 10 4 7 9 -4 5 4 7 16 3 l22 -5 -24 -9z m-300 -89 c0 -11 -4 -17
-10 -14 -5 3 -10 13 -10 21 0 8 5 14 10 14 6 0 10 -9 10 -21z m233 -26 c-13
-2 -35 -2 -50 0 -16 2 -5 4 22 4 28 0 40 -2 28 -4z m100 -10 c-7 -2 -19 -2
-25 0 -7 3 -2 5 12 5 14 0 19 -2 13 -5z m-533 -18 c24 -14 24 -14 -22 -15 -45
0 -63 12 -35 23 20 9 31 7 57 -8z m555 -35 c3 -5 1 -10 -4 -10 -6 0 -11 5 -11
10 0 6 2 10 4 10 3 0 8 -4 11 -10z m-411 -82 c-7 -23 -21 -38 -37 -38 -4 0 -1
14 8 30 18 35 40 41 29 8z m121 -8 c16 0 17 -2 6 -9 -9 -6 -22 -6 -33 0 -14 7
-18 6 -18 -6 0 -9 -4 -13 -10 -10 -5 3 -10 13 -10 22 0 11 6 14 23 9 12 -3 31
-6 42 -6z m-54 -58 c-12 -23 -41 -48 -41 -35 0 5 5 14 12 21 9 9 9 12 -2 13
-10 0 -7 4 5 9 31 13 37 12 26 -8z m26 -44 c-3 -8 -6 -5 -6 6 -1 11 2 17 5 13
3 -3 4 -12 1 -19z m83 -2 c0 -11 -19 -15 -25 -6 -3 5 1 10 9 10 9 0 16 -2 16
-4z m-136 -72 c5 -14 4 -15 -9 -4 -17 14 -19 20 -6 20 5 0 12 -7 15 -16z m117
-82 c-7 -2 -18 1 -23 6 -8 8 -4 9 13 5 13 -4 18 -8 10 -11z m85 -33 c-6 -54
-19 -67 -34 -34 -7 15 -8 25 -2 25 6 0 10 -8 11 -17 0 -10 4 -5 9 10 5 16 6
35 3 43 -3 8 0 14 6 14 8 0 10 -14 7 -41z m-29 5 c-3 -3 -12 -4 -19 -1 -8 3
-5 6 6 6 11 1 17 -2 13 -5z m3 -91 c0 -8 -9 0 -50 45 l-45 47 48 -45 c26 -24
47 -45 47 -47z m-123 55 c-3 -8 -6 -5 -6 6 -1 11 2 17 5 13 3 -3 4 -12 1 -19z
m20 -30 c-3 -8 -6 -5 -6 6 -1 11 2 17 5 13 3 -3 4 -12 1 -19z m21 -53 c-3 -3
-9 2 -12 12 -6 14 -5 15 5 6 7 -7 10 -15 7 -18z m13 -51 l24 -27 -27 18 c-16
9 -28 21 -28 26 0 14 5 11 31 -17z"/>
<path d="M2158 5023 c17 -2 47 -2 65 0 17 2 3 4 -33 4 -36 0 -50 -2 -32 -4z"/>
<path d="M3736 5018 c3 -5 10 -6 15 -3 13 9 11 12 -6 12 -8 0 -12 -4 -9 -9z"/>
<path d="M3042 4920 c-12 -5 -29 -7 -37 -4 -24 9 -18 -21 8 -40 12 -9 16 -14
10 -11 -7 3 -13 1 -13 -4 0 -11 29 -16 60 -11 8 1 20 9 26 18 10 14 9 18 -4
23 -14 5 -15 7 -2 11 8 3 2 3 -15 0 -26 -4 -28 -3 -16 12 15 18 15 18 -17 6z"/>
<path d="M4290 4541 c0 -6 4 -13 10 -16 6 -3 7 1 4 9 -7 18 -14 21 -14 7z"/>
<path d="M4265 4520 c-4 -6 -10 -8 -15 -5 -4 3 -6 -5 -4 -17 2 -13 2 -17 -2
-11 -4 9 -14 3 -31 -17 -14 -17 -30 -27 -36 -24 -7 4 -4 -1 5 -11 16 -17 18
-17 43 4 15 11 31 19 35 16 5 -3 7 7 5 22 -2 16 2 34 7 41 6 6 8 12 5 12 -3 0
-9 -5 -12 -10z"/>
<path d="M4873 4497 c-19 -13 -30 -28 -27 -36 3 -10 1 -11 -8 -4 -16 12 -49
13 -42 1 3 -5 10 -6 15 -3 15 10 10 -2 -8 -16 -9 -8 -14 -9 -10 -3 4 7 -2 12
-18 12 -14 0 -22 -5 -18 -11 4 -6 1 -7 -6 -3 -7 5 -10 15 -6 25 3 9 -6 4 -20
-11 -14 -15 -31 -25 -38 -22 -20 7 -57 -34 -58 -64 l-1 -27 -7 30 -7 30 -7
-34 c-4 -18 -4 -37 -1 -42 10 -16 -13 -9 -27 8 -10 11 -10 14 -1 9 7 -4 12 -1
12 8 0 10 -6 13 -15 10 -12 -5 -15 -19 -13 -58 2 -51 -5 -76 -22 -76 -6 0 -5
12 1 28 9 24 5 22 -29 -15 -22 -24 -45 -43 -51 -43 -6 0 -11 -7 -11 -17 0 -14
2 -14 20 2 11 10 23 16 26 13 3 -3 -11 -18 -30 -33 -38 -29 -46 -45 -21 -45 8
0 14 6 13 13 -2 6 3 11 10 9 8 -1 11 2 7 8 -3 5 2 13 11 17 10 3 26 15 37 26
20 20 20 20 -1 15 -12 -4 -22 -2 -22 3 0 9 8 11 48 12 12 0 20 2 18 5 -3 2 2
11 10 19 8 8 12 18 9 23 -9 14 114 110 131 103 9 -3 19 0 24 6 4 7 14 13 22
15 8 1 30 14 47 29 18 15 37 25 42 21 5 -3 9 -2 8 3 -5 28 2 42 18 36 10 -4
14 -2 9 5 -3 6 3 13 14 17 11 3 20 11 20 16 0 13 -11 10 -47 -14z m-279 -208
c-8 -13 -24 -1 -24 18 0 13 3 13 15 3 8 -7 12 -16 9 -21z"/>
<path d="M4728 4503 c18 -2 45 -2 60 0 15 2 0 4 -33 4 -33 0 -45 -2 -27 -4z"/>
<path d="M4765 4471 c-3 -5 -2 -12 3 -15 5 -3 9 1 9 9 0 17 -3 19 -12 6z"/>
<path d="M4251 4424 c6 -7 17 -10 25 -7 18 7 10 16 -16 18 -15 1 -17 -1 -9
-11z"/>
<path d="M4150 4400 c-14 -17 -31 -30 -38 -30 -7 0 -10 -5 -6 -11 4 -7 19 1
39 21 29 28 36 30 55 20 18 -10 21 -9 15 1 -5 7 -4 10 3 5 14 -9 8 -56 -9 -66
-7 -5 -10 -12 -6 -16 4 -4 15 0 25 9 10 10 21 16 23 14 2 -2 20 14 39 36 31
36 32 39 8 23 -26 -17 -28 -17 -49 3 -17 16 -26 18 -36 10 -9 -8 -17 -8 -26
-1 -10 8 -19 4 -37 -18z m105 -30 c-3 -5 -11 -10 -16 -10 -6 0 -7 5 -4 10 3 6
11 10 16 10 6 0 7 -4 4 -10z"/>
<path d="M4830 4413 c-8 -3 -24 -14 -35 -24 -11 -10 -24 -18 -30 -18 -5 0 -11
-5 -13 -13 -2 -9 0 -8 7 2 10 13 11 13 11 0 0 -12 2 -12 9 -2 4 8 12 13 17 13
5 -1 9 4 9 11 0 6 6 13 14 16 9 3 11 0 6 -8 -6 -9 25 6 54 27 7 5 -33 2 -49
-4z"/>
<path d="M4055 4319 c-9 -14 -2 -20 14 -10 8 6 9 11 3 15 -6 3 -14 1 -17 -5z"/>
<path d="M4220 4306 c0 -2 7 -7 16 -10 8 -3 12 -2 9 4 -6 10 -25 14 -25 6z"/>
<path d="M4530 4300 c0 -5 5 -10 11 -10 5 0 7 5 4 10 -3 6 -8 10 -11 10 -2 0
-4 -4 -4 -10z"/>
<path d="M4060 4285 c-11 -13 -10 -14 4 -9 9 3 16 10 16 15 0 13 -6 11 -20 -6z"/>
<path d="M4619 4283 c-13 -16 -12 -17 4 -4 9 7 17 15 17 17 0 8 -8 3 -21 -13z"/>
<path d="M3999 4263 c-11 -13 -11 -17 -1 -21 10 -3 10 -7 1 -18 -19 -23 -2
-16 27 11 15 14 22 25 16 25 -6 0 -14 -5 -17 -10 -4 -6 -11 -8 -16 -4 -6 3 -3
12 8 20 10 7 13 14 7 14 -6 0 -18 -7 -25 -17z"/>
<path d="M4234 4224 c-18 -14 -18 -15 4 -4 12 6 22 13 22 15 0 8 -5 6 -26 -11z"/>
<path d="M5072 4235 c4 -4 3 -16 -3 -26 -5 -11 -7 -19 -5 -19 3 0 10 9 16 19
7 15 7 22 -2 27 -7 4 -10 4 -6 -1z"/>
<path d="M3960 4219 c0 -5 5 -7 10 -4 6 3 10 8 10 11 0 2 -4 4 -10 4 -5 0 -10
-5 -10 -11z"/>
<path d="M3873 4188 c-14 -18 -22 -68 -11 -68 5 0 11 7 14 15 4 8 10 12 15 9
5 -3 9 0 9 5 0 6 -5 11 -11 11 -6 0 -9 9 -6 20 6 23 3 25 -10 8z"/>
<path d="M3480 4155 c0 -8 5 -15 10 -15 6 0 10 7 10 15 0 8 -4 15 -10 15 -5 0
-10 -7 -10 -15z"/>
<path d="M4406 4143 c-28 -24 -30 -24 -37 -7 -6 15 -8 12 -8 -11 -1 -21 -4
-26 -10 -16 -7 11 -10 9 -16 -8 -3 -11 -15 -26 -25 -31 -16 -9 -19 -6 -23 22
-3 20 -4 11 -4 -19 0 -39 4 -50 12 -43 7 5 16 6 20 2 5 -4 5 -2 2 4 -7 12 18
37 75 75 33 21 54 46 46 55 -2 1 -16 -9 -32 -23z"/>
<path d="M3905 4129 c-4 -6 -5 -12 -2 -15 2 -3 7 2 10 11 7 17 1 20 -8 4z"/>
<path d="M5214 4124 c-18 -14 -18 -15 4 -4 12 6 22 13 22 15 0 8 -5 6 -26 -11z"/>
<path d="M3498 4123 c7 -3 16 -2 19 1 4 3 -2 6 -13 5 -11 0 -14 -3 -6 -6z"/>
<path d="M3875 4111 c-3 -5 -2 -12 3 -15 5 -3 9 1 9 9 0 17 -3 19 -12 6z"/>
<path d="M5176 4111 c-3 -5 1 -11 9 -14 9 -4 12 -1 8 9 -6 16 -10 17 -17 5z"/>
<path d="M3695 4100 c3 -5 8 -10 11 -10 2 0 4 5 4 10 0 6 -5 10 -11 10 -5 0
-7 -4 -4 -10z"/>
<path d="M4395 4099 c-11 -17 1 -21 15 -4 8 9 8 15 2 15 -6 0 -14 -5 -17 -11z"/>
<path d="M5138 4099 c-10 -5 -18 -7 -18 -4 0 4 -7 -1 -16 -9 -8 -9 -22 -17
-30 -17 -8 -1 -19 -2 -26 -3 -11 -1 -25 -26 -14 -26 11 0 117 53 122 61 7 11
3 11 -18 -2z"/>
<path d="M3911 4083 c-19 -4 -21 -7 -10 -14 9 -6 -15 -8 -66 -5 -76 5 -77 5
-25 -5 30 -5 57 -13 60 -17 3 -4 25 -8 50 -8 25 -1 73 -6 107 -11 71 -11 75
-2 8 17 -26 7 -41 16 -35 20 6 4 0 11 -15 18 -27 12 -32 13 -74 5z"/>
<path d="M4350 4058 c-17 -15 -19 -19 -7 -15 10 4 22 7 26 7 4 0 8 7 8 15 0 8
-1 15 -1 15 -1 -1 -12 -10 -26 -22z"/>
<path d="M5120 4060 c-9 -6 -10 -10 -3 -10 6 0 15 5 18 10 8 12 4 12 -15 0z"/>
<path d="M4986 4035 c-10 -8 -24 -16 -30 -18 -7 -3 -6 -9 3 -18 11 -12 13 -12
6 0 -6 10 -3 12 12 7 11 -4 35 1 54 9 28 13 29 15 7 11 -14 -3 -34 -8 -45 -11
-11 -4 -9 -1 5 6 12 7 22 16 22 21 0 12 -12 9 -34 -7z"/>
<path d="M2830 4023 c0 -4 5 -15 10 -23 8 -13 10 -13 10 2 0 9 -4 20 -10 23
-5 3 -10 3 -10 -2z"/>
<path d="M3837 4011 c2 -10 10 -18 18 -18 16 0 9 23 -10 30 -8 4 -11 -1 -8
-12z"/>
<path d="M2715 4000 c-17 -19 -11 -28 10 -12 10 7 19 32 12 32 -2 0 -12 -9
-22 -20z"/>
<path d="M4118 4013 c7 -3 16 -2 19 1 4 3 -2 6 -13 5 -11 0 -14 -3 -6 -6z"/>
<path d="M4922 4002 c4 -15 2 -22 -9 -22 -8 0 -11 5 -7 11 3 6 -7 4 -22 -4
-16 -8 -45 -18 -64 -22 -19 -4 -38 -13 -42 -19 -5 -8 -8 -7 -8 2 0 7 -4 10
-10 7 -5 -3 -10 -1 -10 6 0 19 -17 -2 -25 -31 -5 -19 -4 -21 4 -10 9 13 11 13
11 -1 0 -9 7 -20 16 -23 26 -10 29 -7 8 8 -10 8 -15 18 -11 22 4 5 12 2 16 -5
7 -11 11 -9 21 8 7 15 17 20 29 16 24 -7 53 4 44 18 -4 6 3 8 18 4 13 -3 35 1
49 8 14 8 19 14 12 15 -7 0 -11 4 -7 9 3 5 0 13 -6 17 -9 5 -10 0 -7 -14z"/>
<path d="M4178 4003 c7 -3 16 -2 19 1 4 3 -2 6 -13 5 -11 0 -14 -3 -6 -6z"/>
<path d="M4236 3990 c24 -9 38 -36 27 -52 -3 -7 -1 -8 5 -4 8 5 10 -2 6 -24
-4 -18 -2 -30 4 -30 11 0 9 53 -3 83 -4 10 -3 17 5 17 28 0 -3 17 -32 18 -27
0 -29 -1 -12 -8z"/>
<path d="M5478 3993 c6 -2 18 -2 25 0 6 3 1 5 -13 5 -14 0 -19 -2 -12 -5z"/>
<path d="M2914 3978 c-3 -5 2 -10 10 -13 9 -3 23 -7 32 -10 13 -4 14 -3 6 8
-7 8 -9 17 -6 20 4 3 -4 5 -16 4 -12 -1 -24 -5 -26 -9z"/>
<path d="M4296 3964 c-5 -13 -4 -14 7 -6 10 9 35 6 97 -9 46 -11 88 -18 94
-16 6 2 -3 7 -21 11 -17 4 -36 13 -42 20 -6 8 -36 14 -70 15 -47 1 -60 -2 -65
-15z"/>
<path d="M5450 3972 c0 -5 -14 -6 -31 -4 -23 3 -30 1 -24 -7 4 -7 -1 -18 -11
-26 -12 -9 -14 -15 -6 -16 6 -1 18 -2 25 -3 21 -4 30 6 16 16 -11 7 -9 8 5 4
12 -4 27 2 44 19 24 24 24 25 3 25 -11 0 -21 -4 -21 -8z"/>
<path d="M2702 3958 c2 -6 10 -13 16 -14 7 -1 8 0 2 3 -5 2 -8 9 -4 14 3 5 0
9 -6 9 -7 0 -10 -5 -8 -12z"/>
<path d="M3413 3950 c33 -27 34 -40 1 -63 -16 -12 -24 -14 -22 -5 3 15 -44 16
-76 3 -13 -6 -17 -5 -12 3 5 8 -4 10 -29 8 -19 -1 -35 1 -35 5 0 5 -10 4 -22
0 -13 -5 -22 -15 -20 -21 2 -8 -3 -10 -14 -6 -10 4 -21 0 -28 -10 -11 -14 -15
-13 -42 13 -21 21 -52 36 -114 52 -47 13 -87 24 -90 25 -3 0 -6 -3 -6 -9 -1
-5 2 -9 7 -7 5 1 8 -1 8 -5 -3 -21 3 -24 18 -12 9 8 14 9 10 3 -4 -7 0 -14 7
-17 8 -3 16 -1 18 4 5 14 118 -39 118 -55 0 -7 13 -25 29 -40 24 -23 36 -27
59 -23 40 8 94 -8 123 -37 13 -13 40 -29 60 -36 33 -12 40 -11 70 6 18 11 36
31 39 44 6 23 7 24 14 5 9 -26 75 -76 89 -68 6 4 -1 11 -16 16 -15 5 -27 14
-27 22 0 7 -7 18 -15 25 -21 17 -19 33 7 49 16 10 23 10 26 2 5 -15 29 -14 35
2 7 23 -4 44 -31 57 -19 8 -27 9 -30 0 -5 -15 -32 8 -32 28 0 8 -3 12 -6 9 -4
-4 -15 3 -25 15 -11 11 -19 18 -19 14 0 -3 -12 1 -27 10 l-28 16 28 -22z m72
-68 c3 -7 2 -19 -2 -25 -4 -6 0 -8 10 -4 10 3 17 2 17 -2 0 -15 -28 -20 -38
-8 -19 24 -23 54 -8 54 9 0 18 -7 21 -15z m-216 -31 c7 -5 9 -11 5 -14 -5 -3
-15 1 -22 9 -14 16 -5 18 17 5z"/>
<path d="M5330 3955 c-19 -7 -58 -22 -86 -33 -40 -16 -54 -18 -65 -9 -8 7 -10
8 -6 3 4 -5 2 -15 -4 -23 -33 -39 130 5 186 52 33 27 28 29 -25 10z"/>
<path d="M3008 3943 c6 -2 18 -2 25 0 6 3 1 5 -13 5 -14 0 -19 -2 -12 -5z"/>
<path d="M3390 3925 c13 -14 26 -23 28 -20 7 7 -29 45 -41 45 -6 0 0 -11 13
-25z"/>
<path d="M3054 3931 c3 -5 26 -14 51 -20 25 -6 45 -15 45 -20 0 -5 9 -7 20 -4
39 10 17 30 -28 24 -7 -1 -12 2 -11 6 3 20 -2 25 -15 14 -10 -8 -16 -9 -21 -1
-3 5 -15 10 -26 10 -11 0 -18 -4 -15 -9z"/>
<path d="M4800 3930 c0 -5 5 -10 10 -10 6 0 10 5 10 10 0 6 -4 10 -10 10 -5 0
-10 -4 -10 -10z"/>
<path d="M4675 3880 c3 -5 13 -10 21 -10 8 0 12 5 9 10 -3 6 -13 10 -21 10 -8
0 -12 -4 -9 -10z"/>
<path d="M3630 3870 c0 -5 5 -10 11 -10 5 0 7 5 4 10 -3 6 -8 10 -11 10 -2 0
-4 -4 -4 -10z"/>
<path d="M3700 3869 c0 -5 10 -9 23 -9 18 0 19 -2 7 -10 -8 -5 -10 -10 -5 -11
6 0 18 -2 28 -4 18 -3 21 3 9 22 -9 15 -62 25 -62 12z"/>
<path d="M3770 3865 c0 -5 9 -23 20 -40 11 -16 20 -23 20 -15 0 17 -39 71 -40
55z"/>
<path d="M4785 3861 c-4 -7 144 -56 150 -49 2 2 -30 15 -71 29 -41 14 -76 23
-79 20z"/>
<path d="M1300 3850 c0 -5 5 -10 10 -10 6 0 10 5 10 10 0 6 -4 10 -10 10 -5 0
-10 -4 -10 -10z"/>
<path d="M3660 3831 c7 -14 16 -17 32 -13 l23 7 -23 3 c-12 2 -20 8 -17 13 4
5 -1 9 -10 9 -12 0 -14 -4 -5 -19z"/>
<path d="M3736 3809 c20 -22 34 -24 34 -5 0 7 -11 16 -25 19 -25 4 -25 4 -9
-14z"/>
<path d="M4691 3814 c0 -11 3 -14 6 -6 3 7 2 16 -1 19 -3 4 -6 -2 -5 -13z"/>
<path d="M5129 3799 l-24 -20 30 17 c39 24 40 24 28 24 -6 0 -21 -9 -34 -21z"/>
<path d="M5170 3800 c-12 -7 -10 -9 7 -7 12 0 19 5 17 9 -6 10 -6 10 -24 -2z"/>
<path d="M3041 3786 c-9 -10 -8 -15 3 -19 10 -4 14 0 13 14 -2 23 -1 23 -16 5z"/>
<path d="M5725 3790 c-3 -5 -1 -10 4 -10 6 0 11 5 11 10 0 6 -2 10 -4 10 -3 0
-8 -4 -11 -10z"/>
<path d="M5205 3779 c-4 -5 -10 -7 -15 -4 -5 3 -11 1 -14 -4 -3 -5 8 -7 25 -6
36 3 46 10 25 18 -9 4 -18 2 -21 -4z"/>
<path d="M5250 3773 c0 -18 64 -17 79 1 9 11 3 13 -34 12 -30 0 -45 -5 -45
-13z"/>
<path d="M5357 3783 c-15 -15 -5 -23 26 -22 l32 2 -30 5 c-26 4 -28 5 -10 12
15 6 16 9 4 9 -9 1 -19 -2 -22 -6z"/>
<path d="M5820 3780 c14 -4 36 -8 50 -8 22 0 22 1 -5 8 -16 4 -39 8 -50 8 -16
0 -15 -2 5 -8z"/>
<path d="M5075 3769 c-4 -6 -5 -12 -2 -15 2 -3 7 2 10 11 7 17 1 20 -8 4z"/>
<path d="M1103 3755 c0 -8 4 -12 9 -9 4 3 8 9 8 15 0 5 -4 9 -8 9 -5 0 -9 -7
-9 -15z"/>
<path d="M5438 3763 c12 -2 30 -2 40 0 9 3 -1 5 -23 4 -22 0 -30 -2 -17 -4z"/>
<path d="M2616 3740 c-10 -11 -22 -18 -26 -17 -12 3 -13 -17 -1 -21 6 -2 11 1
11 8 0 6 5 8 12 4 7 -5 8 -3 3 6 -6 9 -4 12 6 8 10 -4 15 1 16 13 2 23 3 23
-21 -1z"/>
<path d="M2880 3741 c-13 -25 -13 -61 1 -61 5 0 8 4 5 9 -4 5 2 7 12 4 10 -2
24 3 31 11 14 16 6 20 -36 19 -6 0 -9 6 -6 13 4 11 9 12 19 3 8 -7 16 -10 19
-8 2 3 -5 10 -15 17 -16 10 -21 9 -30 -7z"/>
<path d="M4298 3690 c2 -36 8 -58 14 -54 5 3 7 13 4 21 -3 8 -1 11 4 8 6 -3
10 -2 10 3 0 10 -29 82 -33 82 -1 0 0 -27 1 -60z"/>
<path d="M5999 3738 c16 -21 58 -20 74 2 9 12 9 13 -3 3 -9 -9 -19 -9 -33 -2
-14 8 -18 8 -13 0 10 -15 -7 -14 -24 2 -12 10 -12 9 -1 -5z"/>
<path d="M2832 3705 c0 -16 2 -22 5 -12 2 9 2 23 0 30 -3 6 -5 -1 -5 -18z"/>
<path d="M3696 3715 c4 -8 11 -15 16 -15 6 0 5 6 -2 15 -7 8 -14 15 -16 15 -2
0 -1 -7 2 -15z"/>
<path d="M5100 3719 c0 -5 5 -7 10 -4 6 3 10 8 10 11 0 2 -4 4 -10 4 -5 0 -10
-5 -10 -11z"/>
<path d="M2851 3704 c0 -11 3 -14 6 -6 3 7 2 16 -1 19 -3 4 -6 -2 -5 -13z"/>
<path d="M5115 3700 c-10 -11 -15 -23 -12 -27 4 -3 7 -1 7 6 0 7 5 9 12 5 7
-4 8 -3 4 4 -4 7 -1 12 9 12 22 0 95 -38 95 -50 0 -6 4 -10 10 -10 23 0 -7 33
-51 55 -27 14 -50 25 -52 25 -2 0 -12 -9 -22 -20z"/>
<path d="M2245 3681 c-16 -3 -25 -9 -20 -13 10 -6 55 7 55 17 0 3 -1 4 -2 4
-2 -1 -16 -4 -33 -8z"/>
<path d="M3731 3678 c-1 -18 15 -33 22 -21 2 5 2 2 0 -6 -3 -14 13 -31 30 -31
4 0 7 12 6 28 0 23 -2 24 -8 8 -7 -19 -8 -19 -14 3 -3 13 -10 20 -15 17 -6 -3
-13 0 -15 6 -4 8 -6 7 -6 -4z"/>
<path d="M5083 3655 c0 -22 2 -30 4 -17 2 12 2 30 0 40 -3 9 -5 -1 -4 -23z"/>
<path d="M3820 3676 c0 -2 8 -10 18 -17 15 -13 16 -12 3 4 -13 16 -21 21 -21
13z"/>
<path d="M4686 3638 c-12 -81 -15 -138 -6 -133 6 4 10 13 10 21 0 8 5 14 10
14 6 0 10 20 10 45 0 25 -4 45 -9 45 -5 0 -7 9 -4 20 3 11 3 20 0 20 -4 0 -8
-15 -11 -32z"/>
<path d="M3495 3627 c17 -8 32 -13 34 -11 7 7 -3 12 -34 19 l-30 6 30 -14z"/>
<path d="M3955 3550 c44 -44 82 -80 85 -80 2 0 -31 36 -75 80 -44 44 -82 80
-85 80 -2 0 31 -36 75 -80z"/>
<path d="M1470 3611 c0 -6 4 -13 10 -16 6 -3 7 1 4 9 -7 18 -14 21 -14 7z"/>
<path d="M4926 3583 c-6 -14 -5 -15 5 -6 7 7 10 15 7 18 -3 3 -9 -2 -12 -12z"/>
<path d="M1005 3581 c3 -6 20 -17 38 -25 l32 -16 -30 25 c-30 25 -51 33 -40
16z"/>
<path d="M4966 3576 c6 -15 4 -17 -6 -11 -9 6 -11 4 -5 -4 5 -9 10 -10 18 -2
8 8 7 14 -2 24 -10 10 -11 8 -5 -7z"/>
<path d="M3606 3561 c-4 -5 3 -7 14 -4 23 6 26 13 6 13 -8 0 -17 -4 -20 -9z"/>
<path d="M876 3538 c3 -5 10 -6 15 -3 13 9 11 12 -6 12 -8 0 -12 -4 -9 -9z"/>
<path d="M1030 3532 c0 -5 7 -9 15 -9 8 0 12 4 9 9 -3 4 -9 8 -15 8 -5 0 -9
-4 -9 -8z"/>
<path d="M3650 3520 c20 -13 33 -13 25 0 -3 6 -14 10 -23 10 -15 0 -15 -2 -2
-10z"/>
<path d="M4618 3523 c7 -3 16 -2 19 1 4 3 -2 6 -13 5 -11 0 -14 -3 -6 -6z"/>
<path d="M901 3511 c-8 -5 -9 -11 -3 -15 5 -3 12 1 16 9 6 17 6 18 -13 6z"/>
<path d="M4610 3495 c6 -8 9 -19 5 -25 -4 -6 1 -17 11 -24 11 -9 13 -15 6 -20
-6 -4 -17 2 -24 14 -15 24 -24 25 -32 4 -3 -8 -2 -13 3 -10 4 3 17 -4 27 -15
15 -16 16 -22 5 -28 -8 -5 -11 -13 -8 -18 3 -5 0 -10 -8 -10 -8 0 -15 4 -15 9
0 5 -4 6 -10 3 -5 -3 -7 0 -4 8 3 8 0 18 -7 23 -8 5 -10 3 -4 -7 4 -8 -5 -2
-22 14 -36 33 -39 21 -16 -63 19 -65 54 -102 120 -124 91 -31 123 -18 123 49
0 30 -8 50 -31 78 -32 38 -31 44 2 27 34 -19 21 7 -20 40 -22 17 -43 41 -47
53 -8 26 -22 37 -48 37 -15 0 -16 -3 -6 -15z m-71 -135 c0 -9 -6 -4 -14 10 -8
14 -14 32 -14 40 0 9 6 4 14 -10 8 -14 14 -32 14 -40z m131 39 c0 -5 -7 -9
-15 -9 -15 0 -20 12 -9 23 8 8 24 -1 24 -14z"/>
<path d="M5055 3460 c4 -14 14 -36 21 -50 12 -22 13 -23 14 -5 0 11 -9 34 -21
50 -19 28 -20 28 -14 5z"/>
<path d="M4115 3378 c22 -25 43 -47 48 -47 16 -2 3 16 -41 54 l-47 40 40 -47z"/>
<path d="M4587 3403 c-4 -3 -7 -11 -7 -17 0 -6 5 -5 12 2 6 6 9 14 7 17 -3 3
-9 2 -12 -2z"/>
<path d="M4805 3365 l5 -30 -15 25 -15 25 5 -30 c3 -16 5 -72 6 -124 0 -93 11
-135 45 -168 21 -21 37 -15 32 12 -3 13 -1 22 3 19 12 -7 11 37 -1 56 -9 13
-10 13 -10 0 0 -13 -1 -13 -10 0 -12 18 -13 33 -2 26 4 -2 9 5 9 17 2 17 0 19
-8 7 -6 -10 -9 6 -7 52 2 36 0 64 -3 62 -4 -2 -10 3 -13 12 -9 24 -7 31 4 14
5 -8 10 -10 10 -5 0 14 -19 42 -21 30 0 -5 -5 -1 -10 10 -7 16 -8 14 -4 -10z"/>
<path d="M698 3373 c7 -3 16 -2 19 1 4 3 -2 6 -13 5 -11 0 -14 -3 -6 -6z"/>
<path d="M620 3332 c0 -4 11 -19 24 -34 14 -14 23 -28 20 -31 -2 -2 6 -4 18
-4 43 -1 49 -3 42 -15 -4 -7 -3 -8 4 -4 18 11 17 12 -43 56 -55 41 -65 46 -65
32z"/>
<path d="M4170 3313 c0 -5 23 -31 52 -58 l52 -50 -43 52 c-45 55 -61 70 -61
56z"/>
<path d="M1179 3274 c-10 -12 -6 -17 20 -27 17 -6 31 -17 31 -25 0 -7 12 -24
28 -38 15 -14 28 -30 28 -35 1 -5 2 -17 3 -28 1 -12 11 -21 34 -25 24 -5 29
-9 17 -16 -12 -7 -12 -12 4 -29 10 -11 15 -25 10 -32 -4 -7 -3 -10 3 -6 6 4
13 -3 16 -14 3 -12 10 -18 16 -14 6 3 11 -1 11 -9 0 -9 5 -16 11 -16 5 0 7 -5
3 -12 -4 -6 -3 -8 3 -5 5 3 15 -10 22 -29 13 -35 31 -46 31 -18 0 8 -4 12 -10
9 -5 -3 -7 0 -5 8 3 7 -3 22 -15 32 -11 10 -20 23 -20 29 0 6 13 -4 29 -23 16
-20 33 -31 39 -27 17 11 15 46 -3 46 -9 0 -18 7 -22 16 -5 13 -8 13 -15 2 -6
-9 -7 -5 -3 11 5 17 4 22 -5 16 -9 -5 -11 -4 -6 4 4 6 12 9 17 6 5 -4 9 0 9 7
0 8 -12 15 -27 16 -15 1 -36 10 -46 21 -17 16 -17 19 -3 34 9 8 16 26 16 39 0
18 2 20 10 8 7 -11 10 -11 10 -2 0 7 5 10 12 6 6 -4 8 -3 4 4 -3 6 -2 13 4 17
5 3 10 11 10 17 0 6 -8 2 -17 -8 -15 -17 -36 -23 -45 -14 -7 7 -47 6 -43 -1 3
-4 1 -10 -5 -14 -5 -3 -10 3 -10 14 0 14 -5 19 -20 16 -14 -3 -20 2 -20 15 0
11 -10 22 -22 26 -24 7 -49 34 -42 45 8 14 -36 16 -47 3z m207 -129 c1 -8 -1
-17 -5 -19 -4 -3 -7 6 -7 19 0 25 8 25 12 0z m21 -121 c-7 -7 -37 7 -37 17 0
6 9 5 21 -1 11 -7 19 -14 16 -16z m13 -24 c0 -5 -2 -10 -4 -10 -3 0 -8 5 -11
10 -3 6 -1 10 4 10 6 0 11 -4 11 -10z"/>
<path d="M1405 3240 c3 -5 8 -10 11 -10 2 0 4 5 4 10 0 6 -5 10 -11 10 -5 0
-7 -4 -4 -10z"/>
<path d="M760 3221 c0 -6 5 -13 10 -16 6 -3 10 1 10 9 0 9 -4 16 -10 16 -5 0
-10 -4 -10 -9z"/>
<path d="M790 3211 c0 -6 4 -13 10 -16 6 -3 7 1 4 9 -7 18 -14 21 -14 7z"/>
<path d="M1085 3171 c-9 -16 6 -90 21 -102 8 -6 14 -19 14 -28 0 -14 2 -14 10
-1 8 13 10 12 15 -1 9 -24 33 -19 40 8 5 23 2 32 -40 100 -19 32 -48 43 -60
24z"/>
<path d="M5040 3171 c0 -6 5 -13 10 -16 6 -4 8 -10 5 -15 -3 -5 -1 -11 5 -15
6 -4 8 -10 5 -15 -3 -4 2 -7 11 -6 17 3 34 24 34 43 0 7 -7 10 -15 7 -9 -4
-15 0 -15 10 0 9 -8 16 -20 16 -11 0 -20 -4 -20 -9z"/>
<path d="M1546 3064 c-4 -9 -4 -19 -1 -22 2 -3 7 3 11 12 4 9 4 19 1 22 -2 3
-7 -3 -11 -12z"/>
<path d="M1025 3023 c27 -30 33 -77 13 -90 -22 -13 -77 -11 -71 3 3 9 -2 11
-17 7 l-21 -6 23 -15 c13 -9 26 -21 30 -28 4 -6 29 -17 55 -23 27 -7 65 -17
86 -22 41 -11 57 -6 57 17 0 8 4 13 9 9 6 -3 7 10 4 32 -3 21 -10 40 -15 42
-5 2 -13 14 -18 27 -11 27 -30 32 -30 9 0 -13 -4 -13 -22 -3 -13 7 -25 15 -28
18 -14 16 -64 50 -72 50 -5 0 3 -12 17 -27z m60 -62 c3 -5 1 -12 -5 -16 -5 -3
-10 1 -10 9 0 18 6 21 15 7z"/>
<path d="M5060 3040 c0 -5 5 -10 10 -10 6 0 10 5 10 10 0 6 -4 10 -10 10 -5 0
-10 -4 -10 -10z"/>
<path d="M855 3030 c-3 -5 -1 -10 4 -10 6 0 11 5 11 10 0 6 -2 10 -4 10 -3 0
-8 -4 -11 -10z"/>
<path d="M1467 3017 c-3 -8 -2 -20 3 -26 5 -9 8 -4 8 13 0 29 -3 32 -11 13z"/>
<path d="M4410 3020 c0 -5 5 -10 10 -10 6 0 10 5 10 10 0 6 -4 10 -10 10 -5 0
-10 -4 -10 -10z"/>
<path d="M4483 2933 c27 -35 50 -63 53 -63 7 0 -65 97 -83 111 -10 8 4 -14 30
-48z"/>
<path d="M877 2959 c7 -7 15 -10 18 -7 3 3 -2 9 -12 12 -14 6 -15 5 -6 -5z"/>
<path d="M3245 2950 c10 -11 20 -20 23 -20 3 0 -3 9 -13 20 -10 11 -20 20 -23
20 -3 0 3 -9 13 -20z"/>
<path d="M1514 2908 c-58 -64 -77 -88 -72 -88 3 0 29 27 58 60 55 63 65 83 14
28z"/>
<path d="M1831 2872 c-7 -14 -5 -18 9 -18 10 0 17 3 14 7 -2 4 1 9 8 11 8 3 6
7 -5 11 -11 4 -20 0 -26 -11z"/>
<path d="M1608 2873 c7 -3 16 -2 19 1 4 3 -2 6 -13 5 -11 0 -14 -3 -6 -6z"/>
<path d="M1550 2855 c0 -10 29 -24 34 -17 3 6 -3 12 -14 15 -11 3 -20 4 -20 2z"/>
<path d="M3145 2850 c-3 -5 -1 -10 4 -10 6 0 11 5 11 10 0 6 -2 10 -4 10 -3 0
-8 -4 -11 -10z"/>
<path d="M3162 2837 c-9 -11 -10 -17 -2 -22 15 -9 23 -1 18 21 -3 15 -4 16
-16 1z"/>
<path d="M1181 2806 c-9 -10 -8 -15 3 -19 10 -4 14 0 13 14 -2 23 -1 23 -16 5z"/>
<path d="M1414 2788 l-19 -23 23 19 c21 18 27 26 19 26 -2 0 -12 -10 -23 -22z"/>
<path d="M1379 2743 c-13 -16 -12 -17 4 -4 16 13 21 21 13 21 -2 0 -10 -8 -17
-17z"/>
<path d="M3461 2757 c2 -2 29 -25 59 -52 l55 -49 -50 52 c-27 29 -54 52 -59
52 -5 0 -7 -1 -5 -3z"/>
<path d="M4940 2732 c0 -14 48 -33 55 -22 4 6 -6 15 -20 20 -32 12 -35 12 -35
2z"/>
<path d="M1171 2693 c-2 -18 10 -43 20 -43 5 0 9 7 9 16 0 8 -4 13 -9 9 -5 -3
-12 3 -14 12 -3 10 -5 13 -6 6z"/>
<path d="M4660 2689 c0 -5 5 -7 10 -4 6 3 10 8 10 11 0 2 -4 4 -10 4 -5 0 -10
-5 -10 -11z"/>
<path d="M5020 2687 c0 -15 48 -37 81 -37 32 0 21 16 -18 29 -21 7 -44 15 -50
17 -7 3 -13 -1 -13 -9z"/>
<path d="M1147 2671 c-4 -17 -3 -21 5 -13 5 5 8 16 6 23 -3 8 -7 3 -11 -10z"/>
<path d="M1397 2664 c-11 -11 3 -24 26 -23 12 0 16 3 9 6 -6 2 -10 9 -6 14 6
10 -19 13 -29 3z"/>
<path d="M4039 2661 c7 -5 11 -13 8 -17 -3 -5 1 -18 10 -29 12 -16 14 -17 11
-3 -2 9 2 17 7 17 6 0 9 -9 7 -19 -3 -17 2 -19 30 -17 18 2 38 6 45 10 6 4 15
3 18 -3 5 -8 11 -8 20 0 13 10 54 8 75 -5 13 -8 13 -35 0 -35 -5 0 -7 7 -3 16
4 11 2 15 -6 13 -7 -3 -12 -9 -11 -14 1 -5 -5 -12 -13 -15 -11 -4 -10 -9 5
-25 18 -19 19 -19 12 -1 -9 22 6 16 44 -17 12 -11 22 -16 22 -10 0 6 -7 13
-15 17 -8 3 -15 13 -14 23 0 14 2 15 6 3 4 -8 13 -20 21 -26 10 -7 13 -18 9
-30 -6 -17 -5 -17 5 -3 14 16 53 35 44 20 -3 -5 1 -14 9 -21 12 -10 15 -9 15
8 0 25 -72 92 -132 120 -35 18 -67 24 -127 25 -54 1 -82 6 -86 15 -2 6 -10 12
-17 12 -10 0 -10 -2 1 -9z"/>
<path d="M2326 2641 c-4 -5 3 -7 14 -4 23 6 26 13 6 13 -8 0 -17 -4 -20 -9z"/>
<path d="M348 2623 c6 -2 9 -10 6 -15 -4 -7 -2 -8 5 -4 13 9 5 26 -12 25 -9 0
-8 -2 1 -6z"/>
<path d="M1415 2620 c4 -6 11 -8 16 -5 14 9 11 15 -7 15 -8 0 -12 -5 -9 -10z"/>
<path d="M1450 2616 c0 -2 7 -7 16 -10 8 -3 12 -2 9 4 -6 10 -25 14 -25 6z"/>
<path d="M1494 2608 c-3 -4 4 -8 15 -8 11 0 22 4 25 8 2 4 -4 8 -15 8 -11 0
-23 -4 -25 -8z"/>
<path d="M3633 2599 c9 -14 9 -24 1 -36 -12 -20 -7 -46 7 -37 6 3 7 -6 4 -23
-6 -26 -5 -27 7 -7 7 12 19 19 28 16 11 -4 11 0 -3 19 -26 36 -31 50 -19 58 6
4 1 11 -13 17 -22 11 -23 10 -12 -7z"/>
<path d="M2330 2601 c0 -7 -4 -9 -10 -6 -5 3 -7 0 -4 -8 3 -8 1 -18 -5 -22
-14 -8 -14 -45 -1 -45 6 0 11 7 11 15 2 19 4 25 14 48 4 10 5 21 1 24 -3 4 -6
1 -6 -6z"/>
<path d="M4213 2589 c11 -7 23 -7 28 -2 5 5 -3 9 -19 11 -24 1 -25 0 -9 -9z"/>
<path d="M1471 2586 c9 -9 69 -13 75 -5 3 5 -14 9 -37 9 -23 0 -40 -2 -38 -4z"/>
<path d="M2401 2582 c-1 -7 -9 -12 -18 -10 -10 1 -20 -2 -22 -7 -2 -6 -11 -16
-20 -23 -14 -11 -10 -12 24 -7 71 11 104 25 98 41 -5 13 -7 13 -14 2 -11 -18
-32 -17 -41 2 -5 10 -7 11 -7 2z"/>
<path d="M1450 2560 c0 -5 5 -10 10 -10 6 0 10 5 10 10 0 6 -4 10 -10 10 -5 0
-10 -4 -10 -10z"/>
<path d="M1475 2553 c-3 -10 -2 -19 4 -21 17 -6 0 -31 -18 -27 -10 2 -18 -3
-18 -10 0 -8 3 -12 7 -10 12 7 43 -33 35 -45 -3 -6 -1 -9 7 -8 7 2 12 -3 10
-11 -3 -15 16 -41 29 -41 12 0 -25 72 -45 89 -9 7 -13 18 -10 23 4 6 17 -3 31
-18 22 -26 23 -27 9 -3 -9 14 -13 29 -9 34 5 4 2 4 -6 0 -11 -6 -13 -4 -8 8 3
9 1 19 -5 23 -7 4 -6 9 2 14 8 5 8 10 2 14 -5 3 -13 -2 -17 -11z"/>
<path d="M1539 2559 c-6 -4 1 -6 15 -6 15 0 28 2 30 6 3 4 -4 7 -15 7 -11 0
-25 -3 -30 -7z"/>
<path d="M1590 2531 c0 -6 4 -13 10 -16 6 -3 7 1 4 9 -7 18 -14 21 -14 7z"/>
<path d="M1538 2523 c7 -3 16 -2 19 1 4 3 -2 6 -13 5 -11 0 -14 -3 -6 -6z"/>
<path d="M1209 2503 c-13 -16 -12 -17 4 -4 9 7 17 15 17 17 0 8 -8 3 -21 -13z"/>
<path d="M3906 2496 c3 -7 20 -12 39 -12 41 0 39 5 -8 16 -26 5 -34 4 -31 -4z"/>
<path d="M3991 2473 c-1 -6 -4 -20 -7 -30 -5 -17 -5 -17 6 0 6 10 9 23 6 30
-3 9 -5 9 -5 0z"/>
<path d="M1545 2450 c3 -5 8 -10 11 -10 2 0 4 5 4 10 0 6 -5 10 -11 10 -5 0
-7 -4 -4 -10z"/>
<path d="M1536 2427 c3 -10 9 -15 12 -12 3 3 0 11 -7 18 -10 9 -11 8 -5 -6z"/>
<path d="M1832 2398 c-7 -7 -12 -24 -12 -38 0 -14 -7 -35 -15 -46 -14 -18 -14
-18 -15 8 0 28 -21 50 -28 30 -7 -23 -61 -97 -72 -98 -5 -1 -16 -2 -22 -3 -9
-1 -8 -4 2 -11 10 -6 11 -10 3 -10 -7 0 -18 9 -25 20 -7 11 -17 20 -22 20 -4
0 -3 -7 4 -15 11 -14 7 -19 -13 -16 -4 1 -2 -8 5 -18 7 -11 16 -17 21 -14 5 3
4 -4 -2 -15 -6 -11 -8 -28 -4 -38 4 -11 2 -15 -6 -13 -7 3 -12 9 -12 14 0 6
-7 17 -15 27 -9 9 -14 22 -13 30 3 28 -1 48 -12 48 -6 0 -9 -7 -5 -15 3 -8 1
-15 -4 -15 -6 0 -11 16 -11 35 -2 47 -3 52 -11 61 -13 12 -8 -87 7 -149 13
-54 39 -92 57 -81 5 3 8 0 8 -6 0 -7 7 -9 16 -6 8 3 13 2 10 -3 -6 -10 61 -31
79 -25 19 8 75 142 75 180 0 19 5 34 11 34 6 0 9 -10 7 -23 -3 -13 0 -24 6
-25 6 -1 23 -3 39 -6 15 -2 27 0 27 5 0 5 -8 9 -17 9 -15 0 -16 2 -3 9 8 6 17
8 21 5 4 -2 11 1 15 7 5 9 0 10 -14 7 -26 -7 -41 9 -18 18 19 7 22 44 4 44 -9
0 -8 4 2 10 13 8 12 10 -2 10 -21 0 -24 16 -5 23 7 3 4 6 -6 6 -10 1 -16 5
-13 9 2 4 1 13 -3 20 -5 9 -10 9 -19 0z m-246 -199 c1 -32 1 -32 -12 -8 -9 18
-9 26 -1 31 7 4 12 8 12 8 0 0 1 -14 1 -31z"/>
<path d="M1560 2388 c0 -9 5 -20 10 -23 13 -8 13 5 0 25 -8 13 -10 13 -10 -2z"/>
<path d="M4358 2373 c7 -3 16 -2 19 1 4 3 -2 6 -13 5 -11 0 -14 -3 -6 -6z"/>
<path d="M1150 2341 c-16 -39 -11 -45 17 -21 19 15 20 20 9 35 -11 16 -14 15
-26 -14z"/>
<path d="M1522 2333 c0 -30 2 -34 8 -18 11 26 12 55 2 55 -5 0 -9 -17 -10 -37z"/>
<path d="M4439 2363 c-5 -29 -4 -63 2 -63 13 0 23 24 12 27 -6 2 -9 13 -6 23
3 11 3 20 -1 20 -3 0 -7 -3 -7 -7z"/>
<path d="M1196 2345 c4 -8 8 -15 11 -15 2 0 11 7 19 15 14 13 13 15 -10 15
-18 0 -24 -4 -20 -15z"/>
<path d="M1263 2343 c9 -2 23 -2 30 0 6 3 -1 5 -18 5 -16 0 -22 -2 -12 -5z"/>
<path d="M1563 2321 c8 -23 13 -28 15 -16 2 10 -3 25 -12 33 -14 15 -15 13 -3
-17z"/>
<path d="M4330 2339 c-12 -8 -10 -9 9 -4 17 5 21 4 16 -5 -5 -8 0 -11 16 -9
13 2 30 0 37 -4 6 -5 12 -4 12 1 0 10 -44 32 -63 32 -7 0 -19 -5 -27 -11z"/>
<path d="M1258 2323 c7 -3 16 -2 19 1 4 3 -2 6 -13 5 -11 0 -14 -3 -6 -6z"/>
<path d="M1590 2321 c0 -5 5 -13 10 -16 6 -3 10 -2 10 4 0 5 -4 13 -10 16 -5
3 -10 2 -10 -4z"/>
<path d="M1163 2305 c-3 -9 -3 -19 1 -22 3 -4 6 2 6 11 0 12 5 16 15 12 8 -3
15 -1 15 4 0 16 -30 11 -37 -5z"/>
<path d="M1294 2309 c-3 -5 6 -9 20 -9 31 0 34 6 6 13 -11 3 -23 1 -26 -4z"/>
<path d="M1903 2298 c-2 -27 13 -30 24 -5 9 19 8 23 -6 23 -9 0 -18 -8 -18
-18z"/>
<path d="M1345 2280 l-30 -8 27 -1 c15 0 30 4 33 9 3 6 5 9 3 9 -2 -1 -16 -5
-33 -9z"/>
<path d="M1369 2253 c-13 -16 -12 -17 3 -5 15 12 22 11 48 -8 16 -12 30 -18
30 -13 0 12 -14 28 -25 30 -5 1 -17 4 -26 8 -9 3 -22 -2 -30 -12z"/>
<path d="M1210 2237 c-12 -20 -12 -21 2 -9 13 10 17 10 21 0 4 -9 6 -7 6 4 1
26 -14 29 -29 5z"/>
<path d="M2140 2236 c0 -2 8 -10 18 -17 15 -13 16 -12 3 4 -13 16 -21 21 -21
13z"/>
<path d="M1460 2212 c0 -10 22 -32 32 -32 15 0 8 15 -12 28 -11 7 -20 9 -20 4z"/>
<path d="M1250 2207 c0 -4 7 -21 15 -36 8 -16 11 -32 7 -36 -4 -5 -1 -4 7 0
11 6 13 4 8 -9 -4 -10 -3 -15 3 -11 6 3 10 -1 10 -9 0 -8 -4 -17 -9 -21 -6 -3
-4 -17 5 -33 7 -15 14 -39 14 -54 0 -15 5 -30 12 -34 6 -4 8 -3 5 3 -4 6 0 25
9 42 8 17 13 40 9 51 -8 25 -25 17 -26 -13 0 -21 -1 -21 -9 -2 -8 21 15 59 31
49 16 -9 9 10 -12 36 -20 24 -20 24 -9 2 6 -13 9 -26 7 -29 -5 -4 -32 35 -65
92 -6 11 -12 16 -12 12z m70 -111 c0 -2 -8 -10 -17 -17 -16 -13 -17 -12 -4 4
13 16 21 21 21 13z m14 -70 c-3 -15 -8 -25 -11 -23 -2 3 -1 17 3 31 3 15 8 25
11 23 2 -3 1 -17 -3 -31z"/>
<path d="M2266 2185 c-15 -23 -15 -28 -1 -47 8 -13 15 -17 15 -10 0 17 15 15
34 -4 11 -10 16 -11 16 -3 0 7 9 1 21 -12 l21 -24 -7 30 c-6 27 -5 28 8 13 15
-19 33 -25 22 -9 -13 22 46 2 81 -27 21 -18 43 -32 49 -31 5 0 4 3 -2 6 -7 2
-13 9 -13 15 0 6 6 5 15 -2 9 -7 14 -19 11 -27 -3 -7 -1 -13 3 -13 5 0 18 -3
28 -6 15 -5 15 -4 3 5 -13 9 -13 11 0 11 9 0 11 3 4 8 -6 4 -13 15 -17 25 -5
14 -3 16 12 8 10 -6 21 -7 25 -3 4 3 4 -2 0 -12 -6 -16 -3 -17 24 -11 24 5 33
2 41 -13 6 -11 8 -21 6 -24 -2 -2 5 -4 15 -5 13 -1 26 9 35 28 17 32 42 38 52
12 5 -14 8 -13 14 5 5 12 15 22 24 22 8 0 15 5 15 10 0 6 -7 10 -15 10 -8 0
-15 -4 -15 -10 0 -16 -27 -12 -34 5 -7 19 -26 20 -26 1 0 -9 -7 -12 -20 -9
-11 3 -20 9 -20 12 0 4 -15 6 -32 5 -30 -3 -30 -3 -8 5 23 8 22 9 -15 15 -22
4 -48 10 -59 13 -12 3 -16 1 -12 -6 5 -7 -4 -11 -26 -10 -28 0 -30 2 -13 10
16 8 14 8 -10 5 -39 -6 -256 15 -250 24 3 4 16 5 30 2 15 -2 25 0 25 7 0 6 -9
11 -21 11 -11 0 -17 5 -14 10 14 22 -4 8 -19 -15z m347 -62 c-7 -2 -19 -2 -25
0 -7 3 -2 5 12 5 14 0 19 -2 13 -5z m88 -67 c14 8 11 -2 -4 -14 -10 -8 -13 -6
-14 11 0 12 1 16 4 9 3 -6 9 -10 14 -6z"/>
<path d="M2170 2196 c0 -2 8 -10 18 -17 15 -13 16 -12 3 4 -13 16 -21 21 -21
13z"/>
<path d="M2445 2160 c-3 -5 3 -10 15 -10 12 0 18 5 15 10 -3 6 -10 10 -15 10
-5 0 -12 -4 -15 -10z"/>
<path d="M2203 2147 c1 -7 -5 -10 -13 -8 -8 2 -26 5 -40 6 -14 1 -17 0 -7 -2
9 -2 15 -8 12 -13 -3 -5 -1 -11 5 -15 18 -11 10 -25 -15 -25 -14 0 -25 -4 -25
-10 0 -5 7 -10 15 -10 8 0 18 -1 22 -1 4 -1 15 11 23 27 22 39 35 40 61 2 l24
-33 -33 24 c-18 13 -36 21 -39 18 -9 -10 6 -39 17 -32 6 4 9 1 8 -6 -2 -7 2
-13 9 -14 6 0 15 -4 20 -9 5 -5 3 -6 -4 -2 -20 11 -15 -9 6 -28 14 -13 21 -14
27 -5 4 7 3 10 -4 5 -6 -3 -13 -2 -17 4 -3 5 -2 10 4 10 6 0 8 8 4 18 -3 9 7
0 22 -21 16 -20 29 -36 31 -35 1 2 -3 26 -10 53 -10 41 -18 53 -44 64 -18 8
-32 20 -32 27 0 6 -7 14 -15 18 -8 3 -14 0 -12 -7z"/>
<path d="M1503 2113 c-28 -29 -30 -33 -13 -33 11 0 20 -4 20 -10 0 -5 -8 -7
-17 -4 -15 5 -15 4 -3 -5 11 -7 20 -5 34 7 11 9 16 12 13 6 -7 -13 19 -28 33
-19 11 7 0 45 -19 70 -16 20 -16 20 -48 -12z m62 -43 c3 -5 1 -10 -4 -10 -6 0
-11 5 -11 10 0 6 2 10 4 10 3 0 8 -4 11 -10z"/>
<path d="M2067 2113 c-3 -5 18 -9 47 -9 41 -1 45 0 21 6 -41 11 -63 11 -68 3z"/>
<path d="M2425 2100 c28 -12 37 -12 30 0 -3 6 -16 10 -28 9 -21 0 -21 -1 -2
-9z"/>
<path d="M2874 2103 c4 -7 -4 -13 -21 -16 -26 -4 -25 -4 5 -6 19 0 31 -5 27
-11 -3 -5 6 -12 20 -16 13 -3 23 -10 20 -14 -3 -5 4 -6 15 -3 11 3 23 10 27
16 4 6 0 8 -10 4 -10 -3 -17 -2 -17 2 0 5 -9 7 -20 4 -11 -3 -20 -1 -20 4 0 5
-7 18 -16 29 -8 10 -13 14 -10 7z"/>
<path d="M2930 2086 c0 -2 7 -7 16 -10 8 -3 12 -2 9 4 -6 10 -25 14 -25 6z"/>
<path d="M1365 2056 c10 -14 19 -26 22 -26 7 0 -17 39 -28 46 -6 3 -3 -5 6
-20z"/>
<path d="M2176 2065 c-9 -26 -7 -32 5 -12 6 10 9 21 6 23 -2 3 -7 -2 -11 -11z"/>
<path d="M2375 2060 c-3 -5 -1 -10 4 -10 6 0 11 5 11 10 0 6 -2 10 -4 10 -3 0
-8 -4 -11 -10z"/>
<path d="M2130 2035 c0 -9 -9 -15 -25 -15 -14 0 -25 -4 -25 -10 0 -5 7 -10 16
-10 8 0 13 -4 9 -10 -3 -5 -13 -6 -23 -3 -15 6 -15 5 -3 -11 12 -14 12 -19 2
-25 -10 -7 -10 -9 2 -14 13 -5 29 21 65 105 2 5 -1 8 -7 8 -6 0 -11 -7 -11
-15z"/>
<path d="M777 2030 c-16 -5 -43 -10 -60 -11 -18 -2 -38 -7 -44 -12 -7 -5 -13
-6 -13 -2 0 4 -7 2 -15 -5 -8 -7 -24 -10 -35 -7 -10 3 -19 2 -18 -2 2 -11 -14
-41 -23 -41 -4 0 -5 8 -2 18 4 10 -3 6 -19 -10 -14 -16 -32 -28 -41 -28 -25 0
-28 -16 -7 -35 19 -17 20 -17 21 1 0 11 3 13 6 7 8 -20 22 -15 16 6 -3 10 1
22 8 26 7 5 10 4 6 -2 -4 -6 3 -8 19 -5 18 3 24 10 22 25 -2 13 3 21 16 23 29
4 230 56 235 60 8 7 -43 2 -72 -6z"/>
<path d="M2215 2020 c5 -22 5 -23 -8 -8 -16 20 -46 18 -58 -3 -5 -11 1 -23 19
-41 l27 -25 1 22 c1 14 -4 22 -14 21 -8 0 -17 6 -19 14 -4 13 -3 13 6 0 9 -13
11 -12 11 5 0 15 3 16 9 7 4 -7 16 -14 26 -16 9 -1 24 -13 32 -27 l14 -24 -7
25 c-4 14 -10 27 -14 30 -4 3 -12 14 -19 25 -11 19 -12 18 -6 -5z"/>
<path d="M810 2012 c-53 -13 -60 -17 -40 -23 14 -3 31 -1 38 4 8 6 17 5 28 -3
12 -11 15 -11 12 1 -2 8 2 13 9 12 6 -1 14 4 17 12 3 8 4 15 3 14 -1 0 -31 -8
-67 -17z"/>
<path d="M620 2010 c0 -5 5 -10 11 -10 5 0 7 5 4 10 -3 6 -8 10 -11 10 -2 0
-4 -4 -4 -10z"/>
<path d="M2030 2000 c0 -5 5 -10 10 -10 6 0 10 5 10 10 0 6 -4 10 -10 10 -5 0
-10 -4 -10 -10z"/>
<path d="M718 1983 c7 -3 16 -2 19 1 4 3 -2 6 -13 5 -11 0 -14 -3 -6 -6z"/>
<path d="M954 1960 c7 -36 22 -60 38 -60 6 0 8 7 4 15 -9 25 3 43 27 38 l22
-5 -21 15 c-11 9 -33 19 -49 23 -27 7 -28 6 -21 -26z"/>
<path d="M678 1973 c7 -3 16 -2 19 1 4 3 -2 6 -13 5 -11 0 -14 -3 -6 -6z"/>
<path d="M2045 1970 c3 -5 8 -10 11 -10 2 0 4 5 4 10 0 6 -5 10 -11 10 -5 0
-7 -4 -4 -10z"/>
<path d="M2102 1914 c-25 -51 -29 -64 -16 -64 8 0 12 5 9 10 -3 6 -4 10 -1 10
3 0 10 -10 17 -21 8 -15 8 -19 0 -15 -18 11 -13 -9 9 -36 10 -14 18 -27 17
-29 -1 -2 4 2 10 10 10 12 10 19 -2 38 -8 13 -22 34 -31 48 -9 14 -14 28 -11
32 3 3 18 -15 33 -40 30 -49 58 -58 75 -22 10 19 9 19 -5 2 -14 -18 -15 -17
-31 12 -9 18 -20 29 -24 26 -5 -2 -14 2 -21 10 -10 12 -10 18 0 30 6 8 8 19 4
26 -4 7 -2 10 7 7 8 -3 13 -12 11 -22 -2 -9 2 -16 7 -16 13 0 5 37 -11 54 -11
11 -19 3 -46 -50z"/>
<path d="M1795 1961 c-3 -6 -10 -9 -15 -6 -4 3 -10 -4 -13 -15 -3 -11 -4 -20
-3 -20 9 0 48 41 44 46 -3 3 -9 0 -13 -5z"/>
<path d="M1065 1934 c20 -16 20 -16 -2 -11 -16 4 -20 1 -16 -11 5 -11 2 -13
-8 -8 -8 4 -5 0 6 -8 20 -17 42 -16 38 2 -2 8 5 8 25 1 l27 -10 -21 19 c-11
11 -31 25 -45 31 -23 12 -23 12 -4 -5z"/>
<path d="M2050 1909 c0 -5 5 -7 12 -3 7 4 8 3 4 -5 -4 -6 -11 -9 -15 -7 -4 3
-13 1 -21 -5 -11 -6 -8 -9 12 -9 17 0 31 7 38 20 9 17 8 20 -10 20 -11 0 -20
-5 -20 -11z"/>
<path d="M2018 1903 c7 -3 16 -2 19 1 4 3 -2 6 -13 5 -11 0 -14 -3 -6 -6z"/>
<path d="M2180 1886 c0 -14 5 -28 10 -31 6 -3 10 5 10 19 0 14 -4 28 -10 31
-6 3 -10 -5 -10 -19z"/>
<path d="M2760 1906 c0 -3 9 -10 20 -16 11 -6 20 -8 20 -6 0 3 -9 10 -20 16
-11 6 -20 8 -20 6z"/>
<path d="M962 1862 c0 -24 2 -42 4 -40 8 9 11 57 4 69 -6 8 -9 -2 -8 -29z"/>
<path d="M990 1869 c0 -11 4 -18 10 -14 5 3 7 12 3 20 -7 21 -13 19 -13 -6z"/>
<path d="M1862 1786 c-2 -95 -4 -107 -17 -96 -9 7 -15 8 -15 2 0 -5 6 -12 14
-15 10 -4 17 -29 22 -77 4 -39 8 -69 9 -68 2 2 -1 84 -5 183 -6 151 -7 162 -8
71z"/>
<path d="M870 1869 c0 -5 5 -7 10 -4 6 3 10 8 10 11 0 2 -4 4 -10 4 -5 0 -10
-5 -10 -11z"/>
<path d="M2519 1879 c0 -2 -2 -12 -4 -21 -4 -20 24 -33 39 -18 8 8 7 11 -4 8
-8 -2 -14 2 -15 9 0 11 -14 31 -16 22z"/>
<path d="M2040 1860 c0 -5 5 -10 10 -10 6 0 10 5 10 10 0 6 -4 10 -10 10 -5 0
-10 -4 -10 -10z"/>
<path d="M1580 1856 c0 -2 8 -10 18 -17 15 -13 16 -12 3 4 -13 16 -21 21 -21
13z"/>
<path d="M2427 1839 c21 -22 -3 -39 -40 -28 -21 6 -35 5 -42 -3 -7 -7 -7 -9 1
-5 21 12 67 -8 69 -31 1 -11 -2 -19 -7 -16 -4 3 -8 0 -8 -5 0 -6 7 -11 16 -11
9 0 25 -9 35 -21 16 -18 18 -19 27 -4 8 15 12 13 34 -15 l26 -33 -13 49 c-8
31 -9 55 -3 67 5 11 5 17 -2 17 -5 0 -10 6 -10 14 0 14 -29 30 -38 21 -3 -3 0
-5 7 -5 13 0 31 -40 24 -52 -7 -12 -55 24 -50 37 3 6 -5 17 -16 24 -18 11 -20
11 -10 0z m38 -80 c-8 -12 -35 -12 -35 0 0 11 22 20 33 14 4 -2 5 -9 2 -14z"/>
<path d="M1628 1826 c-14 -10 -15 -15 -5 -25 10 -11 7 -12 -12 -6 -22 7 -23 5
-16 -24 7 -31 6 -32 -21 -25 -19 5 -25 4 -20 -5 4 -6 12 -8 18 -5 6 4 8 3 5
-3 -8 -13 14 -73 27 -73 5 0 6 3 3 7 -4 3 -2 12 3 18 9 11 42 146 37 151 -1 1
-10 -3 -19 -10z m-11 -68 c-3 -8 -6 -5 -6 6 -1 11 2 17 5 13 3 -3 4 -12 1 -19z"/>
<path d="M2026 1825 c4 -8 7 -15 9 -15 2 0 5 7 9 15 3 9 0 15 -9 15 -9 0 -12
-6 -9 -15z"/>
<path d="M2060 1831 c0 -6 4 -13 10 -16 6 -3 7 1 4 9 -7 18 -14 21 -14 7z"/>
<path d="M1010 1822 c0 -7 -4 -11 -9 -7 -5 3 -12 1 -15 -4 -4 -5 -2 -12 4 -16
6 -4 7 -11 4 -17 -4 -7 -2 -8 5 -4 6 4 9 11 6 16 -3 5 0 12 6 16 8 5 10 -1 7
-20 -5 -25 -4 -26 9 -13 14 13 14 18 -1 38 -9 13 -16 18 -16 11z"/>
<path d="M2555 1822 c-5 -4 -11 -14 -12 -22 -1 -8 -4 -25 -7 -37 -4 -20 -3
-21 15 -10 10 6 15 13 9 15 -5 2 -10 8 -10 13 0 6 4 8 9 5 5 -4 12 0 14 6 3 8
6 6 6 -4 1 -10 6 -18 12 -18 5 0 7 4 4 10 -4 6 2 7 17 1 27 -10 31 -11 60 -11
21 0 21 0 2 -16 -18 -14 -18 -15 5 -4 21 11 26 9 46 -14 19 -23 26 -25 49 -16
16 6 26 6 26 0 0 -5 7 -7 15 -4 8 4 17 -1 21 -10 5 -13 9 -14 20 -5 8 6 14 7
14 2 0 -5 12 -10 27 -11 15 -1 32 -7 37 -12 12 -12 26 -13 26 -1 0 9 -85 36
-107 34 -7 0 -13 3 -13 7 0 4 -63 26 -140 50 -86 27 -135 47 -127 52 6 4 8 8
2 8 -5 0 -14 -4 -20 -8z m215 -86 c0 -3 -4 -8 -10 -11 -5 -3 -10 -1 -10 4 0 6
5 11 10 11 6 0 10 -2 10 -4z"/>
<path d="M2604 1815 c11 -8 26 -15 33 -15 22 0 14 8 -19 19 -30 10 -31 9 -14
-4z"/>
<path d="M557 1795 c-15 -6 -25 -14 -22 -18 3 -4 -1 -3 -7 3 -18 15 -90 12
-112 -5 -15 -11 -16 -15 -5 -15 8 0 21 6 29 13 8 6 6 2 -4 -10 -18 -22 -18
-22 3 -18 29 5 27 -3 -4 -15 -22 -8 -24 -12 -15 -36 9 -22 8 -25 -3 -16 -8 7
-17 9 -20 6 -3 -3 -11 -3 -17 1 -9 6 -9 10 1 16 8 5 9 9 4 9 -6 0 -23 -12 -40
-27 -16 -15 -40 -29 -54 -31 -34 -4 -72 -26 -96 -53 l-20 -23 29 22 c15 12 33
19 38 16 5 -3 16 2 24 12 9 11 12 12 8 4 -6 -12 -4 -13 6 -3 11 10 17 10 28 0
12 -9 16 -9 19 0 2 7 12 9 21 6 13 -4 13 -2 -2 9 -19 15 -19 16 2 27 18 9 22
9 22 -3 0 -15 27 -30 49 -27 7 1 10 -2 6 -9 -9 -14 13 -40 34 -39 11 0 10 3
-6 11 -13 6 -23 15 -23 20 0 10 30 11 30 1 0 -5 10 -19 21 -33 11 -14 18 -19
14 -12 -5 9 -1 12 10 10 10 -2 20 3 23 11 3 10 0 12 -12 8 -9 -4 -15 -3 -12 1
3 5 28 8 55 7 46 -2 51 0 52 19 0 11 3 15 6 9 7 -20 31 -15 38 7 4 13 14 19
28 17 13 -1 21 3 19 11 -1 6 5 12 14 12 11 0 14 6 9 20 -4 13 -2 20 7 20 12 0
-85 53 -127 69 -11 5 -32 3 -48 -4z m-13 -97 c-1 -13 -3 -27 -3 -32 -1 -5 -7
-3 -15 3 -16 13 -10 51 8 51 7 0 12 -10 10 -22z m-116 -43 c3 -3 -4 -4 -16 -2
-12 2 -24 6 -28 10 -4 3 4 4 16 2 12 -2 25 -7 28 -10z m57 -16 c11 -17 -2 -22
-22 -8 -26 20 -29 43 -4 29 11 -5 23 -15 26 -21z m-155 5 c0 -8 -19 -13 -24
-6 -3 5 1 9 9 9 8 0 15 -2 15 -3z"/>
<path d="M1217 1793 c6 -16 5 -16 -10 -4 -11 9 -17 10 -17 2 0 -6 -8 -11 -17
-11 -16 0 -16 2 -3 11 12 9 12 10 -3 5 -10 -3 -20 -6 -22 -6 -12 0 11 -40 24
-41 9 0 3 -5 -13 -10 -17 -4 -39 -7 -50 -4 -12 2 -27 4 -33 4 -7 1 -13 8 -13
16 0 28 -17 15 -27 -20 -6 -19 -8 -33 -3 -30 4 3 11 -7 14 -21 5 -18 12 -24
22 -20 10 4 18 -1 21 -14 6 -21 25 -29 21 -8 -5 20 -27 40 -38 33 -5 -3 -15 6
-20 20 -13 35 -13 48 3 38 6 -4 28 -8 48 -10 19 -1 51 -9 70 -17 19 -9 24 -13
11 -10 -48 12 -122 14 -122 3 0 -7 11 -9 25 -7 14 3 28 2 31 -3 2 -4 12 -5 22
-2 14 6 15 4 5 -8 -10 -13 -10 -16 2 -17 8 -1 22 -3 30 -4 8 -1 17 -8 20 -16
4 -11 8 -12 20 -2 13 11 15 7 14 -21 -1 -31 -2 -32 -8 -9 -6 23 -8 23 -14 6
-9 -22 -12 -19 35 -41 21 -9 40 -26 43 -36 4 -11 11 -16 17 -13 6 4 5 10 -3
15 -8 5 -10 9 -6 9 4 0 3 9 -3 19 -5 11 -15 54 -21 96 -5 42 -19 91 -31 110
-22 38 -31 46 -21 18z"/>
<path d="M2675 1790 c11 -5 27 -9 35 -9 13 -1 13 0 0 9 -8 5 -24 9 -35 9 l-20
0 20 -9z"/>
<path d="M2386 1775 c-3 -8 -1 -15 3 -15 5 0 11 7 15 15 3 8 1 15 -3 15 -5 0
-11 -7 -15 -15z"/>
<path d="M2730 1785 c0 -5 56 -35 65 -35 3 0 5 5 5 12 0 6 -3 8 -7 5 -3 -4
-11 -3 -17 2 -14 10 -46 22 -46 16z"/>
<path d="M2641 1734 c0 -11 3 -14 6 -6 3 7 2 16 -1 19 -3 4 -6 -2 -5 -13z"/>
<path d="M2828 1743 c7 -3 16 -2 19 1 4 3 -2 6 -13 5 -11 0 -14 -3 -6 -6z"/>
<path d="M2385 1708 c-4 -13 -13 -36 -20 -53 -59 -130 -58 -126 -45 -150 10
-18 15 -21 25 -12 13 12 -3 39 -17 30 -5 -2 -8 0 -8 5 0 20 14 19 38 -3 29
-27 44 -25 19 3 -10 10 -17 22 -17 27 0 13 48 -42 54 -62 2 -10 4 -4 3 12 -1
17 -14 43 -29 60 -15 16 -25 32 -22 34 3 3 16 -8 30 -24 l24 -30 17 24 c18 25
27 54 14 47 -11 -7 -67 41 -58 50 4 4 17 -2 30 -13 21 -19 23 -19 38 -3 16 17
15 19 -7 29 -14 6 -26 7 -29 1 -9 -14 -34 0 -28 16 3 8 10 11 17 7 6 -4 5 1
-3 10 -17 22 -18 21 -26 -5z m62 -54 c-9 -9 -28 6 -21 18 4 6 10 6 17 -1 6 -6
8 -13 4 -17z"/>
<path d="M2676 1717 c3 -10 9 -15 12 -12 3 3 0 11 -7 18 -10 9 -11 8 -5 -6z"/>
<path d="M2206 1693 c-6 -14 -5 -15 5 -6 7 7 10 15 7 18 -3 3 -9 -2 -12 -12z"/>
<path d="M735 1680 c-42 -81 -85 -174 -85 -186 0 -8 6 -11 15 -8 8 4 15 1 15
-5 0 -6 6 -11 14 -11 8 0 17 -8 19 -17 4 -14 5 -13 6 4 0 12 -4 23 -10 25 -8
3 -9 12 -4 28 l9 25 7 -25 c7 -24 7 -24 8 6 1 16 -4 35 -11 42 -9 9 -9 15 0
24 7 7 12 24 12 38 0 14 7 35 15 47 8 12 12 24 7 27 -4 2 -12 -4 -17 -14z"/>
<path d="M2228 1682 c-4 -12 1 -18 13 -18 23 0 23 3 5 21 -12 12 -15 12 -18
-3z"/>
<path d="M1981 1683 c-1 -17 16 -25 25 -12 4 7 3 9 -4 5 -5 -3 -13 0 -15 6 -4
9 -6 10 -6 1z"/>
<path d="M752 1645 c-15 -32 -15 -47 -1 -22 12 20 27 14 39 -17 5 -12 9 -15 9
-6 1 8 -7 27 -17 43 l-19 27 -11 -25z"/>
<path d="M2925 1631 c-3 -5 -1 -12 5 -16 5 -3 10 1 10 9 0 18 -6 21 -15 7z"/>
<path d="M1176 1614 c-17 -12 -17 -14 -4 -14 9 0 20 5 23 11 11 17 2 18 -19 3z"/>
<path d="M1077 1608 c21 -35 28 -146 11 -188 -7 -19 -12 -45 -10 -57 l3 -23
30 22 c21 16 32 19 40 11 6 -6 18 -9 27 -5 11 4 14 1 9 -10 -7 -20 32 -57 56
-53 15 3 18 -1 13 -18 -3 -12 -2 -28 3 -35 8 -14 22 2 51 58 l13 25 -25 -23
c-22 -20 -26 -21 -32 -7 -3 9 -11 13 -18 9 -7 -5 -9 -1 -6 13 6 21 -5 25 -28
10 -18 -11 -24 3 -13 31 6 15 7 23 3 19 -4 -4 -12 3 -19 16 -7 14 -18 21 -31
19 -17 -3 -18 -2 -2 10 15 12 14 17 -11 70 -15 32 -32 54 -36 50 -5 -4 -5 1
-2 11 8 20 -8 57 -24 57 -6 0 -7 -6 -2 -12z m95 -217 c-4 -10 -7 -11 -10 -3
-2 7 -8 10 -12 7 -5 -3 -11 -2 -14 3 -2 4 6 8 19 8 16 0 21 -4 17 -15z m55
-73 c-3 -8 -6 -5 -6 6 -1 11 2 17 5 13 3 -3 4 -12 1 -19z"/>
<path d="M3226 1605 c-3 -8 -1 -15 4 -15 6 0 10 7 10 15 0 8 -2 15 -4 15 -2 0
-6 -7 -10 -15z"/>
<path d="M413 1594 c3 -4 -3 -15 -15 -25 -11 -11 -17 -19 -12 -19 5 0 2 -5 -6
-10 -13 -9 -13 -10 0 -10 13 0 13 -1 0 -10 -21 -13 -43 -12 -34 2 4 7 3 8 -5
4 -8 -6 -9 -12 -2 -20 6 -7 7 -16 3 -21 -4 -4 16 8 43 27 28 19 58 38 68 41
10 4 15 11 12 17 -4 6 -11 8 -16 5 -5 -4 -9 -2 -9 3 0 6 -8 13 -17 16 -10 4
-14 4 -10 0z m7 -43 c0 -5 -7 -11 -14 -14 -10 -4 -13 -1 -9 9 6 15 23 19 23 5z"/>
<path d="M1142 1533 c36 -81 36 -81 34 -50 0 14 -5 23 -10 19 -5 -3 -7 2 -3
11 3 10 2 17 -4 17 -6 0 -8 9 -4 21 5 13 3 19 -3 15 -5 -3 -13 1 -16 10 -3 8
-2 12 4 9 6 -3 10 -1 10 4 0 6 -9 11 -19 11 -18 0 -18 -5 11 -67z"/>
<path d="M1977 1593 c-4 -3 -7 -11 -7 -17 0 -6 5 -5 12 2 6 6 9 14 7 17 -3 3
-9 2 -12 -2z"/>
<path d="M2914 1586 c11 -9 27 -16 35 -15 14 0 14 1 1 6 -8 3 -24 10 -35 15
-20 9 -20 9 -1 -6z"/>
<path d="M1173 1575 c0 -8 4 -12 9 -9 4 3 8 9 8 15 0 5 -4 9 -8 9 -5 0 -9 -7
-9 -15z"/>
<path d="M164 1554 c-18 -14 -18 -15 4 -4 12 6 22 13 22 15 0 8 -5 6 -26 -11z"/>
<path d="M1236 1562 c-3 -6 1 -15 8 -21 8 -7 17 -8 20 -3 3 6 -1 15 -8 21 -8
7 -17 8 -20 3z"/>
<path d="M1695 1560 c3 -5 8 -10 11 -10 2 0 4 5 4 10 0 6 -5 10 -11 10 -5 0
-7 -4 -4 -10z"/>
<path d="M566 1543 c-6 -14 -5 -15 5 -6 7 7 10 15 7 18 -3 3 -9 -2 -12 -12z"/>
<path d="M3058 1543 c7 -3 16 -2 19 1 4 3 -2 6 -13 5 -11 0 -14 -3 -6 -6z"/>
<path d="M3007 1513 c-4 -3 -7 -11 -7 -17 0 -6 4 -5 9 3 8 13 12 13 28 0 16
-13 17 -13 4 4 -14 18 -24 21 -34 10z"/>
<path d="M2290 1490 c0 -6 5 -10 11 -10 5 0 8 -4 5 -8 -3 -5 1 -9 8 -9 8 0 12
6 9 13 -6 16 -33 27 -33 14z"/>
<path d="M2742 1493 c-17 -7 4 -33 27 -33 13 1 13 2 -3 11 -15 9 -16 13 -5 20
15 9 2 11 -19 2z"/>
<path d="M2257 1470 c-3 -11 -2 -20 3 -20 4 0 10 9 13 20 3 11 2 20 -3 20 -4
0 -10 -9 -13 -20z"/>
<path d="M2356 1457 c3 -10 9 -15 12 -12 3 3 0 11 -7 18 -10 9 -11 8 -5 -6z"/>
<path d="M2664 1461 c3 -5 -1 -14 -9 -21 -7 -6 -11 -18 -8 -27 4 -11 8 -12 13
-3 10 16 31 4 24 -14 -3 -7 2 -19 11 -26 8 -7 15 -9 15 -4 0 4 7 -1 15 -12 14
-18 14 -17 3 9 -7 17 -14 23 -18 16 -6 -8 -9 -8 -14 0 -4 6 -5 15 -2 20 6 9
-21 71 -30 71 -3 0 -3 -4 0 -9z"/>
<path d="M2723 1457 c9 -8 17 -20 17 -26 0 -7 5 -9 10 -6 17 10 11 21 -17 34
-24 10 -26 10 -10 -2z"/>
<path d="M2770 1430 c0 -5 5 -10 10 -10 6 0 10 5 10 10 0 6 -4 10 -10 10 -5 0
-10 -4 -10 -10z"/>
<path d="M223 1413 c-13 -8 -23 -22 -23 -29 0 -16 7 -17 35 -3 18 9 18 9 -3 5
-19 -4 -21 -2 -11 10 6 7 16 11 22 7 5 -3 7 -1 3 5 -3 5 0 13 6 15 7 3 9 6 3
6 -5 0 -20 -7 -32 -16z"/>
<path d="M1506 1413 c-6 -14 -5 -15 5 -6 7 7 10 15 7 18 -3 3 -9 -2 -12 -12z"/>
<path d="M2846 1406 c5 -12 54 -29 61 -22 2 1 -13 10 -32 19 -26 13 -33 13
-29 3z"/>
<path d="M702 1380 c0 -14 2 -19 5 -12 2 6 2 18 0 25 -3 6 -5 1 -5 -13z"/>
<path d="M1471 1386 c-9 -10 -8 -15 2 -19 8 -3 13 3 14 14 2 23 -1 24 -16 5z"/>
<path d="M171 1376 c-7 -9 -17 -13 -22 -10 -5 3 -9 -2 -9 -10 0 -9 3 -16 8
-16 15 1 44 29 40 40 -2 8 -8 7 -17 -4z"/>
<path d="M1640 1364 l-35 -14 34 5 c18 3 37 5 42 5 5 0 9 5 9 10 0 13 -7 12
-50 -6z"/>
<path d="M2673 1335 c0 -14 2 -27 6 -29 3 -2 6 9 6 25 1 16 -2 29 -6 29 -3 0
-6 -11 -6 -25z"/>
<path d="M1146 1333 c-6 -14 -5 -15 5 -6 7 7 10 15 7 18 -3 3 -9 -2 -12 -12z"/>
<path d="M3030 1340 c8 -5 20 -10 25 -10 6 0 3 5 -5 10 -8 5 -19 10 -25 10 -5
0 -3 -5 5 -10z"/>
<path d="M691 1305 c1 -40 1 -40 10 -10 5 18 5 33 -1 39 -7 7 -10 -4 -9 -29z"/>
<path d="M1790 1330 c0 -13 18 -22 24 -11 3 5 -1 11 -9 15 -8 3 -15 1 -15 -4z"/>
<path d="M834 1303 c1 -19 5 -28 10 -23 6 6 5 18 -1 32 -10 21 -10 21 -9 -9z"/>
<path d="M886 1315 c-3 -9 -6 -24 -5 -33 0 -9 5 -4 10 12 9 32 6 48 -5 21z"/>
<path d="M1849 1308 c-12 -8 -11 -9 1 -6 23 7 50 -24 51 -57 1 -16 5 -41 9
-55 6 -16 7 -1 3 40 -3 36 -7 68 -9 71 -7 12 -42 17 -55 7z"/>
<path d="M1166 1296 c3 -9 1 -16 -5 -16 -6 0 -11 5 -11 10 0 6 -6 10 -12 10
-7 0 0 -12 16 -26 15 -14 31 -22 34 -19 4 3 0 10 -7 14 -10 7 -10 10 -1 13 9
3 7 8 -4 17 -14 12 -16 12 -10 -3z"/>
<path d="M1958 1293 c7 -3 16 -2 19 1 4 3 -2 6 -13 5 -11 0 -14 -3 -6 -6z"/>
<path d="M610 1244 c-28 -26 -50 -53 -50 -60 0 -17 37 -10 60 11 21 19 33 55
18 55 -6 0 0 9 13 20 13 10 20 19 16 20 -4 0 -30 -21 -57 -46z"/>
<path d="M1838 1276 c-10 -7 -18 -17 -18 -21 0 -4 7 -2 15 5 8 7 21 10 29 7
10 -4 13 -1 9 9 -6 17 -13 17 -35 0z"/>
<path d="M3278 1263 c6 -2 9 -10 6 -15 -4 -7 -2 -8 5 -4 13 9 5 26 -12 25 -9
0 -8 -2 1 -6z"/>
<path d="M2211 1228 c-14 -38 -11 -41 23 -29 29 12 31 18 12 44 -18 24 -22 22
-35 -15z"/>
<path d="M3307 1243 c-3 -5 6 -9 19 -9 13 -1 21 2 18 7 -6 11 -31 12 -37 2z"/>
<path d="M2276 1228 c3 -5 10 -6 15 -3 13 9 11 12 -6 12 -8 0 -12 -4 -9 -9z"/>
<path d="M2674 1223 c3 -16 16 -22 16 -8 0 3 0 10 0 15 0 6 -4 10 -9 10 -5 0
-8 -8 -7 -17z"/>
<path d="M656 1215 c-3 -8 -1 -15 4 -15 6 0 10 7 10 15 0 8 -2 15 -4 15 -2 0
-6 -7 -10 -15z"/>
<path d="M1750 1209 c0 -5 5 -7 10 -4 6 3 10 8 10 11 0 2 -4 4 -10 4 -5 0 -10
-5 -10 -11z"/>
<path d="M2630 1196 c0 -2 7 -9 15 -16 12 -10 15 -10 15 4 0 9 -7 16 -15 16
-8 0 -15 -2 -15 -4z"/>
<path d="M652 1155 c0 -16 2 -22 5 -12 2 9 2 23 0 30 -3 6 -5 -1 -5 -18z"/>
<path d="M1616 1163 c-6 -14 -5 -15 5 -6 7 7 10 15 7 18 -3 3 -9 -2 -12 -12z"/>
<path d="M671 1154 c0 -11 3 -14 6 -6 3 7 2 16 -1 19 -3 4 -6 -2 -5 -13z"/>
<path d="M3140 1155 c0 -14 91 -53 147 -62 18 -3 48 -2 69 1 28 6 34 10 25 19
-17 17 -54 15 -68 -3 -10 -13 -11 -13 -11 0 2 33 -3 50 -13 50 -6 0 -9 -7 -5
-15 4 -11 -1 -14 -21 -13 -14 2 -28 9 -31 16 -3 10 -7 10 -12 2 -5 -8 -17 -8
-44 4 -30 12 -36 13 -36 1z"/>
<path d="M1568 1142 c-10 -2 -18 -8 -18 -13 0 -11 11 -11 30 1 18 11 11 18
-12 12z"/>
<path d="M1530 1090 c-13 -8 -12 -10 3 -10 9 0 17 5 17 10 0 12 -1 12 -20 0z"/>
<path d="M583 1064 c4 -7 -1 -18 -10 -25 -15 -12 -16 -12 -10 4 3 9 4 17 2 17
-8 0 -32 -54 -43 -95 -11 -40 -11 -40 8 -17 13 16 20 18 24 10 4 -7 4 -3 2 9
-3 15 0 20 10 16 8 -3 17 2 20 11 3 9 10 14 14 11 4 -3 14 3 21 13 13 16 13
16 -5 2 -17 -14 -18 -13 -12 6 4 14 1 26 -11 35 -9 8 -14 9 -10 3z m10 -29
c-3 -9 -8 -14 -10 -11 -3 3 -2 9 2 15 9 16 15 13 8 -4z"/>
<path d="M1475 1043 c-14 -14 -37 -31 -52 -38 l-25 -13 31 -16 c34 -18 41 -12
14 11 -17 13 -16 14 5 10 12 -3 20 -1 17 3 -3 5 11 22 30 38 20 16 29 29 21
29 -8 0 -27 -11 -41 -24z"/>
<path d="M2381 1000 c-12 -42 -12 -152 1 -144 21 13 20 -105 -1 -130 -16 -20
-2 -21 24 -2 11 7 31 17 45 21 96 29 159 90 146 140 -4 17 -11 23 -19 18 -7
-4 -21 -6 -31 -4 -13 2 -17 -2 -13 -12 4 -12 0 -14 -20 -11 -35 7 -43 12 -44
32 0 14 -2 14 -10 -3 -7 -16 -8 -13 -4 14 5 31 4 32 -12 20 -16 -12 -15 -10 1
16 l19 30 -23 -20 c-13 -11 -20 -15 -17 -9 6 10 -18 84 -27 84 -1 0 -8 -18
-15 -40z"/>
<path d="M2546 982 c-2 -4 -1 -14 5 -22 7 -12 9 -10 9 8 0 23 -5 28 -14 14z"/>
<path d="M1903 917 c-16 -10 -18 -14 -8 -24 7 -7 17 -8 26 -2 8 5 10 9 4 9 -5
0 -4 4 4 9 21 14 -2 21 -26 8z"/>
<path d="M521 904 c0 -11 3 -14 6 -6 3 7 2 16 -1 19 -3 4 -6 -2 -5 -13z"/>
<path d="M1985 900 c3 -5 12 -7 20 -3 21 7 19 13 -6 13 -11 0 -18 -4 -14 -10z"/>
<path d="M2030 906 c0 -2 7 -7 16 -10 8 -3 12 -2 9 4 -6 10 -25 14 -25 6z"/>
<path d="M1715 890 c3 -6 1 -10 -6 -10 -7 0 -10 -3 -6 -6 3 -3 13 -2 22 4 16
8 16 9 1 15 -10 4 -15 3 -11 -3z"/>
<path d="M1835 890 c3 -5 8 -10 11 -10 2 0 4 5 4 10 0 6 -5 10 -11 10 -5 0 -7
-4 -4 -10z"/>
<path d="M2360 826 c0 -20 17 -29 26 -15 5 8 3 9 -6 4 -10 -6 -12 -4 -7 8 3
10 2 17 -3 17 -6 0 -10 -6 -10 -14z"/>
<path d="M1762 767 c-17 -18 -19 -26 -10 -35 15 -15 28 -15 28 -1 0 5 -4 7
-10 4 -15 -9 -12 2 6 30 20 31 14 32 -14 2z"/>
<path d="M1790 760 c0 -5 5 -10 11 -10 5 0 7 5 4 10 -3 6 -8 10 -11 10 -2 0
-4 -4 -4 -10z"/>
<path d="M2120 766 c0 -2 8 -10 18 -17 15 -13 16 -12 3 4 -13 16 -21 21 -21
13z"/>
<path d="M1704 688 l-19 -23 23 19 c12 11 22 21 22 23 0 8 -8 2 -26 -19z"/>
<path d="M2457 654 c-12 -13 -7 -26 7 -21 15 6 16 -17 1 -30 -4 -4 -5 -2 -1 5
4 6 5 12 2 12 -3 0 -10 -10 -17 -21 -6 -12 -7 -19 -1 -15 15 9 35 -21 29 -45
-4 -16 -3 -18 8 -9 10 8 15 2 23 -27 8 -32 10 -34 11 -12 3 76 -39 186 -62
163z m43 -94 c0 -13 -1 -13 -10 0 -5 8 -10 22 -10 30 0 13 1 13 10 0 5 -8 10
-22 10 -30z"/>
<path d="M2380 640 c8 -5 20 -10 25 -10 6 0 3 5 -5 10 -8 5 -19 10 -25 10 -5
0 -3 -5 5 -10z"/>
<path d="M1658 627 c-10 -6 -8 -7 4 -4 9 3 18 1 21 -6 2 -7 6 -5 9 4 7 18 -14
21 -34 6z"/>
<path d="M1982 620 c7 -10 14 -18 15 -16 6 6 -9 36 -18 36 -5 0 -4 -9 3 -20z"/>
<path d="M2240 636 c0 -2 8 -10 18 -17 15 -13 16 -12 3 4 -13 16 -21 21 -21
13z"/>
<path d="M1845 610 c-3 -5 -1 -10 4 -10 6 0 11 5 11 10 0 6 -2 10 -4 10 -3 0
-8 -4 -11 -10z"/>
<path d="M2445 560 c-3 -5 1 -10 10 -10 9 0 13 5 10 10 -3 6 -8 10 -10 10 -2
0 -7 -4 -10 -10z"/>
<path d="M1574 456 c-8 -11 -14 -24 -14 -28 0 -10 60 -10 61 0 0 4 2 16 4 27
6 28 -32 28 -51 1z m31 5 c3 -5 2 -12 -3 -15 -5 -3 -9 1 -9 9 0 17 3 19 12 6z"/>
<path d="M2520 430 c0 -11 -5 -20 -11 -20 -8 0 -7 -5 1 -15 9 -11 10 -19 3
-26 -8 -8 -13 -7 -18 2 -6 8 -4 10 5 4 9 -5 11 -4 6 4 -4 6 -12 9 -17 6 -5 -4
-9 -1 -9 6 0 7 -3 10 -6 6 -4 -3 8 -25 25 -49 l31 -42 0 72 c0 40 -2 72 -5 72
-3 0 -5 -9 -5 -20z"/>
<path d="M2151 194 c0 -11 3 -14 6 -6 3 7 2 16 -1 19 -3 4 -6 -2 -5 -13z"/>
<path d="M2076 58 c9 -55 10 -56 37 -30 13 13 16 22 9 22 -8 0 -10 5 -6 12 4
7 3 8 -5 4 -6 -4 -9 -11 -6 -16 3 -5 1 -12 -5 -15 -6 -4 -10 -3 -9 2 4 25 -2
63 -11 63 -6 0 -8 -16 -4 -42z"/>
</g>
</svg>
