<?xml version="1.0" standalone="no"?>
<!DOCTYPE svg PUBLIC "-//W3C//DTD SVG 20010904//EN"
 "http://www.w3.org/TR/2001/REC-SVG-20010904/DTD/svg10.dtd">
<svg version="1.0" xmlns="http://www.w3.org/2000/svg"
 width="1024.000000pt" height="465.000000pt" viewBox="0 0 1024.000000 465.000000"
 preserveAspectRatio="xMidYMid meet">

<g transform="translate(0.000000,465.000000) scale(0.100000,-0.100000)"
fill="#000000" stroke="none">
<path d="M0 4634 c0 -8 5 -12 10 -9 6 4 8 11 5 16 -9 14 -15 11 -15 -7z"/>
<path d="M23 4644 c4 -4 0 -15 -9 -25 -10 -11 -14 -31 -12 -56 3 -34 6 -38 28
-35 29 3 38 11 43 37 10 51 20 74 30 68 5 -3 7 -2 4 3 -3 6 -25 11 -49 13 -23
1 -39 -1 -35 -5z m57 -13 c0 -5 -8 -15 -17 -22 -10 -7 -15 -9 -11 -5 4 5 4 14
-2 20 -6 8 -3 12 11 13 10 1 19 -2 19 -6z"/>
<path d="M243 4624 c0 -17 2 -22 7 -13 5 6 6 18 3 26 -8 19 -10 16 -10 -13z"/>
<path d="M269 4648 c0 -2 -2 -12 -4 -23 -2 -11 -12 -26 -22 -34 -16 -12 -16
-13 -1 -8 10 4 17 3 17 -1 -1 -4 -1 -19 0 -34 1 -24 5 -28 30 -28 17 0 32 -4
35 -9 3 -5 -2 -8 -12 -7 -10 0 -16 -5 -14 -13 2 -11 0 -12 -11 -3 -21 18 -83
20 -79 3 2 -11 0 -12 -11 -3 -8 7 -18 8 -22 4 -5 -4 -5 -1 -1 6 5 8 0 12 -13
12 -24 0 -27 10 -8 29 6 7 8 12 2 11 -22 -5 -27 1 -15 15 9 11 15 13 20 5 5
-8 9 -7 13 3 7 18 -17 17 -35 -1 -9 -9 -16 -8 -28 3 -14 13 -17 13 -17 0 0 -8
4 -12 8 -10 3 3 12 -2 18 -9 8 -9 8 -16 2 -20 -5 -4 -12 -2 -16 4 -11 17 -25
11 -25 -11 0 -17 -5 -20 -25 -17 -14 3 -28 1 -31 -4 -3 -4 -10 -6 -15 -3 -5 4
-9 -27 -9 -74 0 -47 4 -81 10 -81 6 0 10 -5 10 -11 0 -15 26 -36 74 -58 37
-18 41 -18 100 -1 90 26 116 39 173 91 29 26 66 50 83 54 16 4 28 12 27 18 -1
7 5 11 13 9 8 -2 11 0 7 4 -11 11 -58 13 -51 2 3 -4 10 -5 16 -2 7 5 8 2 3 -6
-6 -10 -12 -8 -25 8 -10 12 -21 18 -25 14 -5 -4 -5 -1 -1 6 4 7 18 10 32 8 25
-5 25 -5 7 18 -10 13 -38 51 -63 84 -41 55 -48 61 -82 61 -21 1 -38 0 -39 -1z
m20 -45 c-6 -7 -9 -19 -6 -28 4 -8 3 -17 -2 -19 -4 -3 -8 10 -8 28 0 20 5 33
14 33 9 0 10 -4 2 -14z m51 -139 c0 -8 -19 -13 -24 -6 -3 5 1 9 9 9 8 0 15 -2
15 -3z"/>
<path d="M1351 4616 c19 -18 42 -37 51 -42 15 -8 14 -10 -8 -21 -13 -6 -24 -7
-24 -2 0 5 6 9 13 9 8 0 7 4 -3 10 -15 10 -40 -12 -40 -34 0 -6 4 -5 9 3 6 9
11 10 15 2 4 -6 23 -11 42 -11 39 0 43 -11 14 -42 -11 -12 -20 -16 -20 -10 0
7 -4 12 -8 12 -5 0 -9 -7 -9 -16 0 -12 7 -14 36 -9 41 7 67 28 56 44 -3 6 -11
9 -16 6 -5 -4 -9 -2 -9 4 0 6 13 9 30 8 23 -2 30 -7 30 -24 0 -18 4 -21 28
-17 27 5 56 24 36 24 -6 0 -11 6 -11 14 0 12 5 11 25 -2 24 -16 25 -16 11 7
-11 18 -21 22 -51 19 -21 -2 -38 -1 -38 3 0 10 28 19 43 14 6 -3 28 9 47 25
19 16 29 30 23 30 -7 0 -13 -4 -13 -10 0 -5 -8 -10 -17 -10 -15 0 -14 2 3 14
10 8 29 12 42 9 12 -3 22 -1 22 4 0 5 13 10 28 11 21 1 32 -4 41 -21 16 -31
31 -30 59 5 19 22 20 28 8 28 -9 0 -16 -5 -16 -10 0 -7 -6 -7 -18 -1 -10 5
-62 9 -117 9 -90 0 -129 -8 -146 -31 -3 -5 -9 1 -12 12 -5 19 -12 21 -88 21
l-82 0 34 -34z m218 -20 c0 -6 -3 -6 -6 2 -4 10 -8 10 -17 -3 -10 -13 -13 -13
-25 7 -13 21 -13 22 2 9 16 -13 22 -8 18 13 -1 5 5 4 13 -4 9 -7 16 -18 15
-24z m-75 -34 c-7 -23 -28 -30 -39 -12 -3 6 1 10 9 10 10 0 16 9 16 22 0 14 3
19 10 12 5 -5 7 -19 4 -32z m53 -38 c-3 -3 -12 -4 -19 -1 -8 3 -5 6 6 6 11 1
17 -2 13 -5z m-87 -34 c0 -5 -4 -10 -10 -10 -5 0 -10 5 -10 10 0 6 5 10 10 10
6 0 10 -4 10 -10z"/>
<path d="M1923 4638 c-19 -25 -26 -41 -15 -34 6 3 17 0 25 -8 8 -8 18 -11 23
-7 5 5 33 16 61 26 29 9 55 21 58 26 10 14 -141 11 -152 -3z"/>
<path d="M2240 4630 c-6 -11 -8 -25 -5 -30 7 -12 -81 -64 -95 -55 -6 3 -7 0
-4 -10 5 -11 2 -14 -10 -9 -14 5 -129 -23 -181 -45 -106 -45 -178 -85 -160
-89 11 -2 29 -11 40 -18 25 -18 79 -18 94 0 7 8 31 14 61 14 74 1 134 41 113
74 -3 7 -1 8 5 4 7 -4 12 -4 12 1 0 4 26 8 58 9 31 0 66 1 77 2 11 0 42 0 68
-1 48 -1 49 -1 125 81 51 54 73 83 64 87 -8 3 -67 5 -132 5 -109 0 -120 -2
-130 -20z"/>
<path d="M3213 4589 l32 -62 9 31 c13 48 -4 86 -42 90 l-31 3 32 -62z"/>
<path d="M5284 4630 c0 -13 4 -16 10 -10 7 7 7 13 0 20 -6 6 -10 3 -10 -10z"/>
<path d="M5350 4635 c-12 -15 -11 -16 12 -19 6 0 12 -7 14 -14 1 -7 0 -8 -3
-2 -2 5 -9 8 -14 4 -5 -3 -3 -15 6 -27 21 -30 19 -53 -7 -72 -23 -15 -22 -15
9 -9 29 6 34 3 43 -21 9 -23 1 -161 -15 -260 -2 -11 -4 -39 -4 -61 -1 -39 -3
-42 -35 -48 -18 -4 -54 -20 -79 -37 -40 -26 -45 -34 -37 -50 9 -15 8 -17 -5
-13 -9 4 -3 -6 13 -22 16 -16 31 -34 33 -39 2 -6 16 -20 30 -32 l25 -23 -2 28
c-1 15 5 33 12 40 12 11 14 10 11 -5 -1 -10 -7 -24 -11 -32 -7 -10 -5 -12 4
-6 9 5 10 2 6 -13 -4 -11 -2 -23 4 -27 5 -3 10 -16 10 -28 1 -52 20 13 24 82
2 40 7 75 10 79 3 3 6 20 6 39 0 37 6 41 27 16 8 -10 12 -13 9 -7 -3 7 1 17 9
24 11 9 12 17 5 30 -7 13 -7 21 0 25 14 9 30 -3 25 -18 -3 -7 7 -20 20 -30 24
-17 24 -17 18 0 -6 16 -5 16 10 4 9 -7 14 -18 10 -24 -3 -6 -1 -7 6 -3 8 5 9
12 3 19 -5 7 -8 20 -7 30 2 9 0 15 -5 12 -4 -3 -7 6 -6 19 0 13 4 22 8 20 4
-2 9 0 13 6 3 5 -1 10 -9 10 -8 0 -18 -5 -21 -10 -4 -6 -11 -8 -16 -5 -5 3 -6
-1 -2 -10 5 -13 7 -14 14 -3 6 9 9 9 9 1 0 -6 -4 -14 -10 -18 -5 -3 -7 -12 -3
-20 3 -8 1 -15 -5 -15 -6 0 -9 8 -7 18 4 29 -13 40 -49 32 -19 -4 -39 -10 -45
-14 -17 -11 -14 36 5 62 20 28 34 28 35 0 l0 -23 11 23 c14 27 25 28 33 2 3
-11 10 -20 15 -20 14 0 21 18 10 25 -5 3 -10 14 -10 24 0 10 -7 24 -15 31 -7
6 -17 32 -21 57 -3 24 -13 47 -20 50 -10 4 -11 10 -4 23 5 10 7 33 4 52 l-6
33 28 -35 c16 -19 50 -57 77 -85 l49 -50 -33 43 c-77 100 -87 123 -51 118 9
-2 3 2 -14 7 -33 10 -104 104 -104 136 0 17 -18 41 -31 41 -4 0 -12 -7 -19
-15z m86 -363 c-12 -12 -18 8 -10 35 l8 28 4 -28 c2 -16 1 -31 -2 -35z m24
-177 c0 -12 -19 -12 -23 0 -4 9 -1 12 9 8 7 -3 14 -7 14 -8z m-95 -95 c3 -6
-1 -7 -9 -4 -18 7 -21 14 -7 14 6 0 13 -4 16 -10z"/>
<path d="M6396 4625 c8 -37 19 -50 29 -36 3 6 -3 23 -15 38 l-22 28 8 -30z"/>
<path d="M6515 4640 c-3 -5 -1 -10 4 -10 6 0 11 5 11 10 0 6 -2 10 -4 10 -3 0
-8 -4 -11 -10z"/>
<path d="M6623 4638 c-13 -6 -23 -15 -23 -20 0 -5 5 -6 12 -2 6 4 8 3 5 -3 -4
-6 -18 -8 -32 -5 -15 2 -25 0 -25 -7 0 -7 4 -9 10 -6 6 4 7 -1 3 -11 -5 -13
-3 -15 7 -9 8 5 11 4 6 -3 -3 -5 0 -13 6 -15 9 -4 9 -6 1 -6 -6 -1 -19 6 -27
15 -9 9 -16 11 -16 4 0 -6 -4 -8 -10 -5 -20 13 -9 -11 14 -27 14 -10 41 -16
70 -16 26 1 42 4 35 8 -8 5 -5 10 10 15 11 3 25 4 31 0 10 -6 85 29 95 45 3 5
0 7 -8 4 -8 -3 -20 2 -27 11 -7 8 -9 15 -5 15 4 0 2 7 -5 15 -24 29 -67 17
-61 -18 1 -5 -3 -6 -8 -2 -6 3 -8 12 -4 20 6 18 -21 19 -54 3z m117 -22 c0 -3
-4 -8 -10 -11 -5 -3 -10 -1 -10 4 0 6 5 11 10 11 6 0 10 -2 10 -4z m-90 -11
c0 -2 -10 -9 -22 -15 -22 -11 -22 -10 -4 4 21 17 26 19 26 11z m54 -29 c-7
-18 -57 -31 -62 -17 -2 6 -9 8 -14 5 -7 -4 -8 -2 -4 4 5 8 13 9 24 3 21 -11
56 5 46 21 -4 7 -2 8 4 4 6 -4 9 -13 6 -20z m-91 -31 c17 5 19 4 7 -4 -22 -16
-46 -13 -61 6 -13 15 -12 15 9 4 12 -7 33 -9 45 -6z"/>
<path d="M6755 4640 c4 -6 11 -8 16 -5 14 9 11 15 -7 15 -8 0 -12 -5 -9 -10z"/>
<path d="M6840 4639 c0 -5 5 -7 10 -4 6 3 10 8 10 11 0 2 -4 4 -10 4 -5 0 -10
-5 -10 -11z"/>
<path d="M8071 4634 c0 -11 3 -14 6 -6 3 7 2 16 -1 19 -3 4 -6 -2 -5 -13z"/>
<path d="M9210 4640 c10 -6 11 -10 3 -10 -15 0 -13 -19 5 -38 14 -16 16 -46 2
-37 -5 3 -10 -1 -10 -10 0 -13 4 -14 20 -5 11 6 17 16 14 22 -5 7 -2 8 5 4 7
-5 10 -15 7 -25 -4 -11 -2 -10 9 4 10 12 15 36 14 61 -3 41 -3 41 -43 42 -30
1 -37 -1 -26 -8z m45 -50 c-3 -5 -11 -10 -16 -10 -6 0 -7 5 -4 10 3 6 11 10
16 10 6 0 7 -4 4 -10z"/>
<path d="M6345 4621 c-3 -5 -2 -12 3 -15 5 -3 9 1 9 9 0 17 -3 19 -12 6z"/>
<path d="M3750 4569 c-25 -52 -31 -112 -14 -129 6 -6 24 4 49 29 22 20 48 40
57 44 9 3 22 16 29 28 10 19 9 21 -5 16 -15 -6 -21 8 -17 36 2 12 -11 8 -32
-10 -18 -16 -20 -16 -14 -2 4 13 1 16 -16 11 -20 -5 -20 -4 -8 11 7 9 9 17 4
17 -5 0 -20 -23 -33 -51z m83 -4 c-3 -9 -8 -14 -10 -11 -3 3 -2 9 2 15 9 16
15 13 8 -4z m-69 -50 c-2 -14 0 -25 6 -25 5 0 10 8 11 18 0 10 3 12 6 4 2 -6
-7 -26 -21 -43 -28 -33 -33 -31 -14 4 10 20 10 21 -5 8 -15 -11 -17 -11 -17 2
0 8 7 17 15 21 8 3 15 9 14 13 -2 12 1 23 5 23 3 0 3 -11 0 -25z"/>
<path d="M5312 4608 c-6 -6 -12 -21 -12 -32 0 -20 0 -20 15 0 14 18 15 17 4
-8 -7 -15 -16 -25 -20 -22 -12 7 -11 -7 1 -26 6 -10 13 -11 19 -5 12 12 32 97
21 90 -5 -3 -10 0 -12 5 -2 7 -8 6 -16 -2z"/>
<path d="M1782 4583 c-26 -32 -28 -48 -7 -39 13 4 13 2 5 -14 -5 -10 -10 -39
-10 -63 0 -42 2 -45 23 -39 12 3 24 8 27 12 3 3 28 17 55 30 69 32 106 60 99
72 -4 7 -9 6 -14 -2 -6 -9 -10 -6 -15 9 -3 11 -10 21 -15 21 -5 0 -7 -8 -4
-17 5 -15 4 -15 -4 -3 -6 8 -9 17 -6 21 2 4 0 10 -6 14 -5 3 -10 2 -10 -3 0
-5 -10 -12 -22 -15 -20 -5 -21 -4 -7 6 22 17 13 35 -16 29 -24 -4 -42 -19 -44
-34 -1 -5 -3 -8 -6 -8 -3 0 -7 0 -10 0 -3 0 2 11 11 25 22 34 3 32 -24 -2z"/>
<path d="M8271 4575 c12 -19 22 -35 23 -35 9 0 -4 54 -15 61 -26 16 -28 9 -8
-26z"/>
<path d="M5040 4565 c-19 -19 -30 -38 -26 -42 11 -11 58 19 67 44 13 36 -5 35
-41 -2z"/>
<path d="M234 4544 c0 -13 4 -24 8 -24 4 0 8 9 8 19 0 11 -4 22 -8 25 -4 2 -8
-6 -8 -20z"/>
<path d="M2888 4563 c6 -2 12 -9 12 -14 0 -6 -6 -7 -12 -3 -10 6 -10 5 -1 -8
7 -8 10 -17 8 -20 -3 -3 5 -12 17 -19 27 -16 77 -19 80 -4 3 14 -80 75 -100
74 -11 0 -12 -2 -4 -6z m32 -44 c0 -5 -4 -9 -8 -9 -5 0 -9 7 -9 15 0 8 4 12 9
9 4 -3 8 -9 8 -15z m46 -16 c-6 -6 -36 9 -36 18 0 5 9 4 20 -3 10 -7 18 -14
16 -15z"/>
<path d="M194 4543 c15 -4 16 -7 5 -14 -11 -7 -11 -9 4 -9 9 0 17 7 17 15 0 9
-9 15 -22 14 -20 -1 -20 -2 -4 -6z"/>
<path d="M5875 4520 c-55 -44 -98 -104 -102 -143 -3 -29 0 -35 19 -40 22 -6
22 -5 4 8 -10 7 -15 19 -11 25 5 8 11 7 22 -2 14 -11 15 -10 9 8 -4 15 -2 21
9 21 12 0 14 -8 9 -36 -4 -20 -3 -33 0 -29 4 3 10 21 13 40 3 18 7 35 10 38 3
3 3 -7 1 -22 -3 -16 0 -36 7 -45 11 -14 12 -11 10 24 -2 32 1 40 11 36 8 -3
14 -19 14 -37 0 -20 3 -27 9 -18 4 8 7 24 5 38 -1 13 2 22 6 19 5 -3 6 -13 3
-22 -4 -11 -2 -14 5 -9 7 4 6 -4 -3 -20 -7 -15 -11 -33 -8 -42 5 -11 3 -13 -7
-7 -9 5 -11 4 -6 -3 4 -7 2 -12 -5 -12 -7 0 -9 -3 -6 -6 10 -11 38 18 33 33
-3 7 -1 13 5 13 6 0 8 4 4 9 -3 5 0 13 7 17 7 4 10 4 6 -1 -4 -4 -2 -15 5 -23
9 -13 9 -14 0 -8 -8 4 -13 1 -13 -9 0 -9 5 -13 11 -9 7 4 10 1 7 -7 -3 -8 -10
-13 -16 -12 -6 2 -9 -4 -5 -13 4 -11 8 -12 13 -4 5 8 9 7 14 -5 3 -9 10 -14
15 -10 6 3 20 -5 32 -17 l21 -23 -11 23 c-11 20 -23 26 -43 23 -15 -2 -8 17 8
23 8 3 12 2 9 -4 -3 -6 1 -10 10 -10 9 0 13 5 10 10 -3 6 -1 10 5 10 6 0 9 4
5 9 -3 6 3 14 12 20 16 9 16 10 1 11 -9 0 -20 12 -26 28 -5 15 -26 47 -46 70
-20 24 -36 52 -36 63 0 12 -5 16 -15 13 -18 -7 -19 0 -5 27 14 26 9 24 -35
-11z m31 -97 c-8 -9 -21 -3 -21 10 -1 6 -7 11 -14 9 -7 -1 -9 2 -6 8 5 8 13 6
26 -6 11 -9 17 -19 15 -21z m84 -103 c5 8 9 6 14 -6 4 -10 4 -15 0 -11 -4 4
-17 -1 -28 -10 -12 -10 -16 -11 -9 -4 6 7 10 19 9 25 -2 6 -1 7 2 2 2 -4 8 -3
12 4z"/>
<path d="M6723 4519 c1 -6 -4 -14 -12 -17 -9 -3 -11 0 -6 8 6 9 3 9 -13 1 -12
-6 -24 -16 -28 -22 -4 -8 0 -8 15 0 16 9 21 9 21 0 0 -8 7 -6 18 4 10 10 24
17 30 17 7 0 12 5 12 10 0 6 -9 10 -20 10 -11 0 -19 -5 -17 -11z"/>
<path d="M8675 4519 c-4 -6 -5 -12 -2 -15 2 -3 7 2 10 11 7 17 1 20 -8 4z"/>
<path d="M1320 4511 c0 -5 5 -13 10 -16 6 -3 10 -2 10 4 0 5 -4 13 -10 16 -5
3 -10 2 -10 -4z"/>
<path d="M1395 4510 c-3 -5 1 -10 9 -10 9 0 16 5 16 10 0 6 -4 10 -9 10 -6 0
-13 -4 -16 -10z"/>
<path d="M5215 4511 c-3 -5 -1 -12 5 -16 6 -4 8 -11 5 -16 -4 -5 -1 -9 4 -9
14 0 14 17 1 25 -6 4 -8 11 -5 16 4 5 4 9 1 9 -3 0 -7 -4 -11 -9z"/>
<path d="M910 4501 c0 -11 43 -127 50 -134 4 -5 1 25 -8 66 -10 47 -20 74 -29
74 -7 0 -13 -3 -13 -6z"/>
<path d="M490 4496 c0 -2 7 -6 15 -10 8 -3 15 -1 15 4 0 6 -7 10 -15 10 -8 0
-15 -2 -15 -4z"/>
<path d="M1355 4491 c-3 -5 -2 -12 3 -15 5 -3 9 1 9 9 0 17 -3 19 -12 6z"/>
<path d="M2555 4469 c-43 -38 -52 -59 -69 -156 -12 -67 -12 -72 5 -76 10 -3
26 -23 35 -46 9 -23 20 -41 26 -41 5 0 6 5 2 12 -4 6 -3 8 4 5 16 -10 41 3 36
18 -4 8 3 15 18 17 16 2 23 9 22 24 0 15 5 20 16 17 8 -2 26 7 39 21 19 20 21
29 13 39 -17 20 -43 95 -50 147 -6 39 -11 45 -34 48 -18 2 -37 -7 -63 -29z"/>
<path d="M2670 4481 c0 -6 4 -13 10 -16 6 -3 7 1 4 9 -7 18 -14 21 -14 7z"/>
<path d="M2914 4476 c23 -18 46 -21 46 -5 0 6 -6 9 -12 6 -7 -2 -22 0 -33 5
-20 9 -20 9 -1 -6z"/>
<path d="M5097 4479 c7 -7 15 -10 18 -7 3 3 -2 9 -12 12 -14 6 -15 5 -6 -5z"/>
<path d="M5149 4473 c-6 -7 -18 -13 -25 -13 -8 0 -14 -4 -14 -9 0 -5 -12 -12
-27 -16 -16 -4 -28 -6 -28 -4 0 1 -10 -3 -22 -10 -13 -6 -23 -17 -23 -23 0 -7
4 -7 13 0 12 9 77 22 77 15 0 -2 -10 -8 -22 -12 -22 -9 -22 -10 11 -24 26 -11
43 -12 69 -5 54 15 103 50 98 71 -3 11 2 17 12 17 10 1 28 7 40 14 24 13 24
13 -7 13 -16 0 -28 -4 -25 -8 5 -9 -52 -23 -65 -15 -5 4 -12 0 -14 -6 -3 -7
-6 -4 -6 8 -1 23 -26 28 -42 7z m96 -34 c-4 -6 -9 -8 -12 -5 -3 2 -16 1 -29
-4 -14 -6 -24 -6 -24 0 0 9 22 17 53 19 11 1 15 -4 12 -10z"/>
<path d="M8266 4477 c3 -10 9 -15 12 -12 3 3 0 11 -7 18 -10 9 -11 8 -5 -6z"/>
<path d="M1275 4470 c4 -7 -5 -9 -25 -5 -29 5 -79 -17 -72 -31 4 -7 -29 -28
-70 -45 -16 -6 -28 -15 -28 -21 0 -5 -3 -7 -7 -5 -5 3 -14 -2 -22 -10 -12 -13
-11 -14 9 -8 17 5 21 4 17 -6 -2 -8 -9 -13 -15 -12 -7 2 -9 -4 -5 -14 4 -11 8
-13 11 -5 2 7 9 9 14 6 7 -5 8 -2 3 7 -7 11 -6 12 7 2 8 -7 17 -11 20 -8 2 3
5 -2 5 -10 0 -8 -4 -12 -9 -9 -4 3 -8 0 -8 -5 0 -6 4 -11 9 -11 4 0 8 -10 7
-22 0 -11 5 -23 13 -26 8 -3 11 0 7 7 -4 6 -2 11 4 11 6 0 10 -7 8 -16 -2 -12
5 -17 25 -18 30 -2 33 3 15 24 -11 12 -10 12 2 3 16 -11 80 -8 89 5 4 4 22 9
41 10 19 2 40 8 47 14 7 5 16 7 21 4 4 -3 26 1 48 9 33 11 39 18 39 42 1 35
13 56 27 47 7 -4 8 -2 4 5 -6 9 -11 9 -23 -1 -12 -10 -18 -8 -34 12 -24 32
-24 37 1 45 41 13 7 24 -55 18 -37 -3 -70 -2 -77 4 -20 15 -50 24 -43 13z
m-168 -107 c-4 -3 -1 -13 6 -21 10 -13 9 -14 -12 -3 -19 10 -21 15 -10 22 17
10 25 12 16 2z"/>
<path d="M5037 4466 c-17 -13 -16 -14 15 -13 18 1 32 7 31 12 -3 16 -26 16
-46 1z m40 -2 c-3 -3 -12 -4 -19 -1 -8 3 -5 6 6 6 11 1 17 -2 13 -5z"/>
<path d="M6745 4470 c-3 -6 1 -7 9 -4 18 7 21 14 7 14 -6 0 -13 -4 -16 -10z"/>
<path d="M657 4457 c-4 -11 -4 -24 0 -29 3 -6 1 -8 -5 -4 -5 3 -13 0 -15 -6
-3 -8 -6 -6 -6 4 -1 10 -11 22 -23 29 -19 10 -20 9 -13 -7 4 -11 11 -32 16
-49 5 -16 15 -43 23 -60 8 -16 25 -55 39 -86 26 -59 47 -83 47 -53 0 10 3 14
7 11 3 -4 20 4 37 17 17 13 50 33 73 44 52 27 61 41 37 59 -10 7 -32 25 -48
40 l-29 27 7 -24 c3 -14 3 -19 0 -12 -3 6 -10 10 -15 7 -5 -4 -8 5 -7 19 1 15
7 26 12 26 24 0 -8 14 -37 16 -17 2 -33 8 -36 15 -2 8 -6 7 -13 -2 -7 -10 -8
-7 -4 11 l5 25 -19 -23 -19 -22 -3 22 c-3 21 -4 21 -11 5z"/>
<path d="M2193 4457 c-23 -9 -30 -16 -24 -26 5 -7 6 -22 4 -32 -4 -14 0 -19
16 -19 22 0 27 -10 12 -25 -6 -6 0 -25 15 -50 16 -25 23 -31 19 -16 -5 15 -3
21 3 17 6 -3 13 -2 16 3 4 5 -2 8 -11 6 -24 -3 -38 6 -22 15 7 5 23 4 35 0 14
-6 26 -5 29 1 4 5 3 9 -2 8 -27 -5 -33 1 -21 21 10 16 9 23 -10 43 -16 17 -18
24 -8 24 8 0 13 -3 11 -7 -2 -3 7 -6 19 -6 12 0 23 5 23 12 0 6 -9 11 -20 10
-11 -1 -22 5 -25 13 -3 9 0 11 8 6 9 -5 11 -4 6 3 -9 15 -31 14 -73 -1z m64
-81 c0 -8 -6 -12 -15 -9 -11 5 -11 7 0 14 7 5 13 9 14 9 0 0 1 -6 1 -14z m-27
-26 c0 -5 -4 -10 -10 -10 -5 0 -10 5 -10 10 0 6 5 10 10 10 6 0 10 -4 10 -10z"/>
<path d="M8571 4448 c-1 -15 4 -30 9 -33 12 -7 12 12 0 40 -8 18 -9 17 -9 -7z"/>
<path d="M3702 4445 c4 -4 3 -14 -2 -20 -8 -9 -6 -14 4 -18 9 -4 18 -1 22 5 5
7 2 8 -6 3 -10 -6 -12 -4 -7 8 3 9 1 19 -6 23 -7 4 -9 4 -5 -1z"/>
<path d="M1505 4420 c3 -5 8 -10 11 -10 2 0 4 5 4 10 0 6 -5 10 -11 10 -5 0
-7 -4 -4 -10z"/>
<path d="M2946 4418 c3 -4 9 -8 15 -8 5 0 9 4 9 8 0 5 -7 9 -15 9 -8 0 -12 -4
-9 -9z"/>
<path d="M6647 4410 c-9 -11 -14 -20 -11 -20 4 0 -1 -11 -10 -25 -16 -24 -15
-28 8 -78 29 -60 67 -100 111 -114 23 -8 33 -7 43 3 9 10 9 14 1 14 -8 0 -8 4
1 15 10 12 10 15 0 15 -10 0 -10 3 -1 14 9 11 9 16 1 21 -7 4 -10 18 -7 31 2
14 0 21 -6 17 -7 -4 -8 1 -3 12 6 16 4 16 -11 4 -9 -8 -14 -9 -10 -2 4 6 3 22
-2 35 -6 12 -10 17 -10 11 -1 -7 -5 -13 -10 -13 -5 0 -8 11 -7 24 3 27 -15 41
-32 24 -8 -8 -14 -5 -19 10 -8 22 -9 22 -26 2z m120 -125 c0 -8 -4 -12 -9 -9
-5 3 -6 10 -3 15 9 13 12 11 12 -6z"/>
<path d="M2670 4415 c0 -7 30 -13 34 -7 3 4 -4 9 -15 9 -10 1 -19 0 -19 -2z"/>
<path d="M2986 4412 c-3 -5 1 -9 9 -9 8 0 12 4 9 9 -3 4 -7 8 -9 8 -2 0 -6 -4
-9 -8z"/>
<path d="M2943 4380 c-10 -15 -7 -20 30 -34 51 -19 64 -20 71 -3 3 6 4 3 3 -8
-2 -12 -9 -19 -19 -17 -9 1 -20 -3 -24 -9 -5 -8 -3 -9 5 -5 7 5 18 0 26 -10
13 -18 14 -17 20 8 8 32 0 62 -14 54 -5 -4 -11 -3 -14 1 -2 5 -2 2 0 -6 3 -11
-2 -10 -17 4 -11 10 -20 14 -20 10 0 -4 -8 1 -18 13 -17 20 -19 20 -29 2z"/>
<path d="M1511 4350 c0 -8 4 -22 9 -30 12 -18 12 -2 0 25 -6 13 -9 15 -9 5z"/>
<path d="M970 4322 c0 -12 -14 -43 -30 -69 -17 -26 -33 -64 -36 -84 -8 -47
-10 -50 -64 -81 -58 -35 -106 -80 -141 -137 -22 -33 -26 -47 -17 -53 10 -6 10
-10 0 -20 -15 -15 -16 -58 -1 -58 5 0 7 -4 4 -10 -3 -5 -1 -27 5 -49 8 -29 19
-44 42 -55 38 -19 38 -19 38 -3 0 8 7 28 16 46 9 17 17 38 18 45 1 8 8 21 15
30 7 9 11 16 7 16 -4 0 3 18 13 39 11 21 19 47 17 58 -3 13 2 19 14 19 17 0
17 -18 -1 -41 -14 -18 -60 -165 -54 -174 2 -5 -2 -14 -10 -21 -8 -7 -14 -22
-14 -34 1 -14 3 -16 6 -5 2 10 13 14 31 12 42 -5 102 35 129 87 13 25 31 55
39 67 13 20 19 62 15 101 0 7 -11 17 -23 23 -20 8 -19 9 6 4 25 -5 28 -4 18 8
-19 23 -4 45 35 49 l35 4 61 -126 c85 -173 87 -179 94 -228 4 -32 2 -46 -8
-53 -28 -18 -94 -9 -154 21 -77 38 -152 41 -202 8 -18 -13 -33 -31 -33 -40 0
-13 -8 -18 -30 -18 -16 0 -30 -4 -30 -10 0 -5 11 -10 25 -10 18 0 25 -5 25
-20 0 -11 -7 -20 -15 -20 -18 0 -19 -9 0 -34 7 -10 19 -15 25 -11 9 6 9 2 0
-15 -9 -16 -17 -20 -36 -16 -15 4 -24 2 -24 -5 0 -7 3 -10 6 -6 4 3 13 0 20
-8 7 -7 31 -16 53 -20 22 -3 42 -13 45 -21 3 -8 10 -14 16 -14 6 0 8 5 4 12
-5 8 5 9 34 5 40 -5 41 -4 21 11 -11 10 -21 27 -22 39 -1 15 -7 20 -19 18 -10
-2 -16 0 -13 6 4 5 11 7 16 4 5 -4 9 1 9 9 0 14 2 14 19 -1 11 -9 17 -21 14
-26 -3 -6 -1 -7 6 -3 6 4 9 17 7 30 -3 15 1 23 10 23 10 0 11 -4 2 -14 -9 -11
-7 -13 15 -9 14 2 28 1 32 -2 4 -4 11 -8 16 -8 5 -1 11 -3 14 -4 3 -1 10 -3
17 -4 6 0 12 -7 14 -14 1 -7 0 -8 -3 -2 -8 16 -33 -8 -26 -26 4 -10 -2 -14
-23 -13 -24 1 -25 2 -6 6 12 2 20 8 17 13 -3 5 -13 7 -23 4 -13 -5 -14 -4 -3
4 11 8 9 11 -8 17 -12 3 -18 11 -15 17 5 7 2 8 -6 3 -11 -7 -10 -10 1 -19 18
-14 18 -38 0 -44 -10 -3 -12 0 -8 11 3 9 1 19 -5 23 -7 4 -8 3 -4 -4 4 -7 2
-12 -5 -12 -8 0 -8 -4 1 -15 7 -9 19 -14 26 -11 7 3 16 1 19 -5 4 -5 11 -7 16
-4 5 4 9 1 9 -5 0 -8 6 -8 20 0 11 6 20 9 20 6 0 -3 14 -1 30 4 30 9 31 8 29
-28 -3 -49 -8 -57 -26 -35 -13 17 -13 17 -4 -3 7 -15 7 -24 -1 -32 -8 -8 -8
-12 -1 -12 6 0 16 7 23 15 18 22 27 19 34 -11 5 -20 10 -24 19 -15 19 19 27
12 27 -26 0 -28 -3 -34 -10 -23 -5 8 -7 24 -4 35 4 18 4 18 -6 3 -8 -13 -6
-26 10 -55 16 -31 20 -56 20 -145 0 -66 -4 -109 -11 -114 -6 -3 -9 -17 -6 -30
2 -12 0 -28 -4 -36 -4 -7 -3 -19 4 -27 10 -12 9 -13 -8 -4 -22 12 -55 9 -64
-5 -10 -14 -71 -32 -112 -32 -20 0 -58 -9 -82 -19 -25 -11 -59 -22 -77 -24
-17 -3 -37 -10 -45 -17 -10 -8 -15 -8 -20 1 -5 8 -9 8 -14 0 -6 -9 -91 -26
-195 -37 -22 -2 -42 -8 -45 -13 -6 -8 -78 -27 -146 -37 -22 -3 -46 -11 -52
-16 -7 -6 -13 -8 -13 -5 0 3 -12 0 -26 -8 -15 -7 -32 -11 -39 -8 -7 2 -39 -8
-72 -22 -32 -15 -65 -28 -74 -30 -35 -7 -105 -28 -126 -38 -19 -9 -23 -18 -23
-59 0 -43 2 -47 17 -39 48 24 163 62 200 65 24 2 48 7 55 13 17 12 111 39 165
48 23 4 44 12 47 20 5 13 162 54 291 76 39 6 81 17 95 24 33 17 348 97 380 97
14 0 32 4 40 8 9 5 43 11 75 15 33 4 75 10 94 15 30 8 33 7 28 -11 -4 -16 -3
-18 8 -9 8 7 17 20 20 31 4 12 25 24 57 34 52 15 88 20 55 6 -16 -6 -13 -12
27 -49 25 -23 55 -42 67 -42 11 0 37 -7 56 -17 31 -15 34 -19 29 -47 -4 -22
-3 -27 4 -16 9 13 10 13 10 0 0 -13 2 -13 9 0 6 8 7 18 4 24 -3 5 -2 6 4 3 6
-4 6 -25 0 -61 -6 -30 -14 -53 -19 -50 -5 4 -4 -3 4 -15 12 -20 13 -19 25 17
7 20 17 44 22 53 5 9 9 43 10 76 0 78 36 189 63 197 21 5 68 -19 68 -36 0 -5
-5 -6 -10 -3 -29 18 -99 -56 -86 -90 10 -27 87 -13 108 19 17 24 8 73 -17 96
-14 13 -25 30 -25 37 0 8 -4 12 -8 9 -11 -6 -53 40 -45 48 3 3 12 -2 19 -12
12 -15 13 -15 14 9 0 33 14 45 82 70 72 28 81 28 89 -1 6 -21 7 -22 8 -5 1 12
-4 26 -10 32 -13 13 94 87 151 104 53 16 75 8 155 -57 l70 -57 -70 65 -70 65
33 20 c39 24 20 40 -22 18 -14 -8 -26 -10 -26 -6 0 4 11 14 25 21 14 7 25 17
25 22 0 4 6 8 14 8 7 0 19 7 26 15 17 20 123 79 138 77 7 -2 11 2 10 9 -2 6
16 27 40 45 42 33 46 34 145 36 l102 2 -82 3 c-46 2 -83 8 -83 13 0 4 38 32
85 61 47 29 89 57 92 63 8 12 -54 -23 -177 -101 -47 -30 -73 -43 -59 -30 14
13 28 28 30 34 9 24 102 114 144 139 25 14 48 30 51 35 10 16 -90 -41 -120
-69 l-29 -27 22 32 c12 18 30 37 39 43 16 9 16 9 0 10 -12 0 -18 8 -18 21 0
17 5 20 25 17 14 -3 25 -2 25 2 0 4 21 13 47 20 57 14 74 26 66 47 -5 13 -2
13 26 -1 17 -9 31 -14 31 -11 0 8 -60 115 -83 148 -10 15 -49 42 -85 59 -55
26 -82 33 -150 36 -45 2 -98 1 -117 -2 -39 -8 -74 -50 -80 -96 -4 -30 -4 -30
48 -31 50 -1 123 -15 102 -19 -5 -1 -43 -1 -84 0 -49 1 -71 -2 -66 -9 9 -15
-4 -33 -18 -24 -7 4 -23 9 -37 11 -13 2 -31 8 -38 15 -11 8 -16 7 -23 -6 -6
-9 -18 -17 -28 -17 -28 0 -51 -33 -53 -74 -1 -28 6 -44 29 -69 l31 -32 -18
-125 c-26 -191 -25 -187 -63 -183 -30 3 -31 2 -9 -8 12 -7 22 -16 22 -22 0 -5
-7 -4 -15 3 -17 14 -37 4 -33 -18 2 -9 -2 -17 -9 -17 -23 0 -22 -11 1 -11 19
0 23 5 21 23 -1 12 2 20 6 17 5 -3 7 -15 5 -27 -3 -12 -5 -25 -5 -29 -1 -4
-13 -8 -28 -10 -16 -2 -28 -9 -28 -16 0 -7 -13 -21 -30 -32 -49 -32 -17 -23
39 11 47 29 51 19 6 -19 -17 -15 -164 -86 -199 -97 -24 -7 -24 -7 -18 54 3 33
2 63 -2 65 -4 3 -8 -25 -9 -62 -2 -49 -7 -70 -19 -77 -8 -5 -26 -20 -39 -32
-13 -13 -29 -23 -37 -23 -8 0 -23 -8 -35 -17 -11 -10 -30 -26 -42 -36 -11 -10
-25 -15 -30 -12 -6 4 -10 2 -10 -4 0 -5 -13 -12 -30 -16 -16 -4 -30 -10 -30
-14 0 -4 -7 -8 -15 -8 -20 0 -98 -25 -109 -35 -14 -12 -68 -10 -61 2 3 6 2 10
-3 10 -6 0 -12 -7 -16 -15 -6 -16 -36 -21 -36 -5 0 5 7 13 15 18 13 7 11 12
-10 32 -21 20 -36 24 -83 24 -31 1 -65 -3 -74 -8 -16 -7 -18 -1 -18 66 0 91
17 119 71 117 33 -2 33 -2 5 -6 -16 -3 -36 -12 -45 -20 -14 -15 -13 -16 11
-11 21 4 25 2 21 -11 -5 -12 -3 -13 6 -5 18 17 51 5 51 -18 0 -14 5 -18 16
-14 9 3 24 6 35 6 10 0 19 7 19 15 0 8 -4 15 -10 15 -5 0 -10 9 -10 20 0 11
-3 19 -7 19 -21 -3 -33 3 -33 17 0 8 -7 22 -15 30 -8 9 -15 11 -15 5 0 -6 -5
-11 -11 -11 -6 0 -9 6 -6 13 4 10 -5 13 -33 11 -44 -3 -47 4 -50 111 -1 33 -3
98 -5 145 -2 67 1 93 16 124 11 22 19 45 19 52 0 7 21 23 48 36 45 22 46 23
19 26 -16 2 -35 -2 -44 -10 -14 -11 -15 -9 -8 22 4 19 18 61 32 93 13 33 22
64 20 70 -5 12 -43 -67 -80 -163 l-21 -55 -7 35 c-24 108 -27 165 -12 243 6
26 6 47 1 47 -4 0 -8 5 -8 11 0 5 4 8 9 5 5 -3 21 7 37 22 15 15 24 21 20 14
-5 -8 8 -3 27 9 19 13 33 27 31 31 -3 5 1 8 7 8 7 0 30 17 51 37 l38 37 0 -38
c0 -20 -5 -47 -11 -58 -7 -13 -7 -18 -1 -14 6 3 17 -3 25 -14 7 -11 17 -17 22
-12 5 4 5 1 1 -6 -7 -11 65 -140 102 -184 18 -22 82 -55 151 -79 64 -22 67
-23 53 -6 -14 17 0 133 22 175 9 17 16 40 16 52 0 12 5 18 10 15 6 -3 10 -2
10 3 0 6 7 13 16 16 8 3 12 2 9 -4 -4 -6 7 -10 25 -10 17 0 29 -4 26 -8 -2 -4
7 -9 21 -10 l27 -2 -24 25 -23 24 33 -4 c18 -2 38 -9 43 -14 15 -15 47 -14 47
2 1 7 6 5 14 -5 7 -10 16 -15 19 -11 4 3 7 0 7 -8 0 -12 2 -11 11 1 9 12 10
10 6 -8 -5 -19 -3 -21 9 -11 14 11 15 10 18 -13 0 -6 7 -13 15 -16 10 -3 12 0
7 13 -5 15 -4 16 9 5 26 -22 25 -6 -2 29 -40 50 -118 81 -206 81 -50 0 -80 -5
-95 -16 -27 -18 -38 -13 -47 23 -13 52 -66 153 -81 153 -7 0 -14 3 -14 8 0 11
-51 32 -77 32 -12 0 -38 -9 -58 -20 -30 -17 -36 -18 -41 -5 -4 8 -10 12 -15 9
-5 -3 -12 3 -16 13 -6 16 -8 15 -13 -7 -4 -14 -3 -30 2 -36 5 -7 -1 -17 -16
-28 -30 -19 -37 -20 -35 -3 4 32 -2 55 -17 61 -21 8 -33 -2 -15 -13 9 -6 -2
-9 -30 -9 -24 0 -55 -3 -69 -6 -14 -3 -44 -9 -67 -14 -24 -5 -48 -14 -55 -19
-7 -6 -23 -9 -36 -7 -13 2 -33 -3 -45 -11 -25 -17 -47 -20 -47 -5 0 6 12 10
28 10 l27 0 -24 19 c-23 18 -31 34 -34 73 -1 9 -5 14 -10 11 -4 -2 -5 -14 -2
-26 5 -19 5 -20 -5 -4 -12 19 -35 24 -24 5 4 -7 -3 -4 -15 7 l-22 19 5 -29 c6
-29 6 -29 -4 -5 -8 18 -8 31 0 49 10 22 9 23 -4 11 -13 -10 -19 -10 -31 0 -13
10 -15 9 -15 -8z m630 -112 c0 -5 -4 -10 -10 -10 -5 0 -10 5 -10 10 0 6 5 10
10 10 6 0 10 -4 10 -10z m110 -26 c0 -2 -7 -4 -15 -4 -8 0 -15 4 -15 10 0 5 7
7 15 4 8 -4 15 -8 15 -10z m-46 -6 c-3 -5 -9 -6 -14 -3 -17 10 -22 -17 -6 -34
9 -10 16 -24 16 -32 0 -8 5 -20 11 -26 6 -6 9 -17 6 -25 -4 -9 -8 -5 -12 10
-4 12 -14 22 -22 22 -11 0 -14 7 -11 25 5 23 -2 30 -24 26 -4 0 -5 6 -2 14 4
9 0 15 -7 15 -10 0 -11 2 -2 8 15 10 73 10 67 0z m-164 -88 c0 -5 -5 -10 -11
-10 -5 0 -7 5 -4 10 3 6 8 10 11 10 2 0 4 -4 4 -10z m590 -34 c0 -2 -7 -7 -16
-10 -8 -3 -12 -2 -9 4 6 10 25 14 25 6z m-1160 -16 c0 -5 -2 -10 -4 -10 -3 0
-8 5 -11 10 -3 6 -1 10 4 10 6 0 11 -4 11 -10z m1205 0 c3 -6 -1 -7 -9 -4 -18
7 -21 14 -7 14 6 0 13 -4 16 -10z m-901 -37 c-6 -46 -20 -62 -29 -34 -3 12
-11 21 -16 21 -6 0 -7 -9 -4 -20 7 -23 5 -23 -28 -11 -14 5 -29 22 -34 38
l-10 28 49 -4 c28 -2 55 2 61 8 16 16 16 15 11 -26z m1606 2 c0 -1 -10 -2 -22
-1 -12 1 -22 8 -24 18 -2 16 0 16 22 1 13 -8 24 -16 24 -18z m-1840 15 c0 -5
-2 -10 -4 -10 -3 0 -8 5 -11 10 -3 6 -1 10 4 10 6 0 11 -4 11 -10z m-80 -13
c0 -7 -10 -18 -22 -26 -21 -13 -22 -13 -9 2 7 10 10 17 5 17 -5 0 -2 5 6 10
19 12 20 12 20 -3z m-135 -46 c3 -5 2 -12 -3 -15 -5 -3 -9 1 -9 9 0 17 3 19
12 6z m1914 -47 c2 -2 -7 -4 -22 -4 -14 0 -29 5 -32 10 -6 10 42 4 54 -6z m44
-11 c-7 -2 -19 -2 -25 0 -7 3 -2 5 12 5 14 0 19 -2 13 -5z m-1539 -29 c11 -28
6 -38 -9 -18 -8 10 -15 22 -15 27 0 13 18 7 24 -9z m1193 4 c0 -7 3 -24 8 -38
7 -22 6 -23 -9 -11 -16 14 -23 61 -8 61 5 0 9 -6 9 -12z m203 -58 c25 -16 50
-30 55 -30 6 0 27 -5 48 -11 33 -9 37 -13 37 -42 0 -38 -18 -92 -44 -129 -21
-32 -33 -35 -53 -10 -13 15 -14 15 -10 -10 3 -23 -5 -36 -52 -80 -31 -28 -61
-53 -68 -54 -7 -1 -26 -12 -42 -23 -16 -12 -33 -21 -38 -21 -4 0 -30 -18 -57
-40 -26 -22 -52 -40 -57 -40 -15 0 19 352 37 369 2 2 14 -5 27 -16 12 -11 38
-29 58 -40 l36 -20 26 61 c18 40 27 79 27 114 0 62 7 64 70 22z m-1386 -216
c11 -4 16 -19 16 -48 -1 -39 -2 -40 -16 -21 -8 11 -26 32 -40 48 l-26 27 25 0
c14 0 32 -3 41 -6z m-309 -34 c3 -6 -1 -7 -9 -4 -18 7 -21 14 -7 14 6 0 13 -4
16 -10z m55 -20 c0 -5 -7 -7 -15 -4 -8 4 -15 8 -15 10 0 2 7 4 15 4 8 0 15 -4
15 -10z m128 -30 c58 -13 88 -38 31 -26 -19 4 -43 9 -53 11 -11 3 -24 9 -30
15 -5 5 -18 10 -29 10 -10 0 -15 5 -12 10 4 6 13 7 23 1 9 -4 41 -14 70 -21z
m175 -78 c3 -4 -5 -17 -17 -29 l-21 -22 0 38 c0 34 2 38 17 30 9 -5 19 -12 21
-17z m-13 -73 c0 -4 2 -13 5 -21 3 -7 -3 -18 -12 -24 -16 -10 -18 -7 -20 21
-1 22 3 32 13 32 8 0 14 -4 14 -8z m655 -384 c0 -11 -11 -25 -25 -32 -20 -10
-21 -13 -6 -13 14 0 17 -5 12 -22 -3 -13 -6 -29 -6 -36 0 -7 -4 -10 -10 -7 -5
3 -10 15 -10 26 0 10 -7 19 -15 19 -8 0 -18 14 -23 33 -10 39 8 58 53 54 22
-1 30 -7 30 -22z m-539 3 c4 -6 3 -9 -2 -6 -15 9 -47 -7 -50 -25 -1 -9 2 -17
8 -17 6 0 7 8 4 18 -5 14 -3 13 9 -3 14 -18 14 -20 -2 -27 -11 -4 1 -7 30 -7
27 -1 57 3 67 9 14 8 18 6 16 -7 -2 -9 -11 -18 -22 -21 -37 -8 -134 -6 -132 3
2 6 5 9 8 8 3 -1 4 13 2 31 -3 26 1 34 20 43 30 15 35 15 44 1z"/>
<path d="M1595 4329 c-4 -6 -5 -12 -2 -15 2 -3 7 2 10 11 7 17 1 20 -8 4z"/>
<path d="M6110 4330 c-23 -7 -23 -8 -3 -9 12 -1 25 4 28 9 3 6 5 10 3 9 -2 -1
-14 -5 -28 -9z"/>
<path d="M2717 4313 c4 -9 10 -10 24 -2 24 13 24 14 -5 14 -14 0 -22 -5 -19
-12z"/>
<path d="M2940 4316 c7 -7 13 -7 20 0 6 6 3 10 -10 10 -13 0 -16 -4 -10 -10z"/>
<path d="M2979 4313 c-13 -16 -12 -17 4 -4 16 13 21 21 13 21 -2 0 -10 -8 -17
-17z"/>
<path d="M5075 4319 c-4 -6 -4 -13 -1 -16 3 -4 6 -1 6 5 0 7 12 12 26 12 23 0
26 -3 22 -25 -6 -29 -5 -30 16 -10 13 13 16 13 30 -1 9 -8 14 -19 11 -24 -3
-4 2 -11 11 -14 12 -5 14 -1 8 16 -6 21 -6 21 11 5 20 -20 15 -29 -16 -31 -23
-1 -37 -36 -14 -36 7 0 18 -7 25 -15 7 -8 18 -15 24 -15 6 0 3 7 -6 14 -10 7
-18 17 -18 21 0 4 7 2 15 -5 15 -13 65 -23 65 -13 0 18 -39 64 -80 93 -27 19
-49 38 -50 41 0 11 -79 9 -85 -2z"/>
<path d="M5094 4291 c0 -11 4 -17 8 -15 4 3 8 12 8 20 0 8 -4 14 -8 14 -4 0
-8 -9 -8 -19z"/>
<path d="M8870 4289 c0 -5 5 -7 10 -4 6 3 10 8 10 11 0 2 -4 4 -10 4 -5 0 -10
-5 -10 -11z"/>
<path d="M2731 4276 c-9 -10 -8 -15 5 -20 9 -3 20 -4 25 0 5 3 9 1 9 -4 0 -5
7 -9 15 -9 19 0 20 0 -14 25 -24 17 -31 19 -40 8z"/>
<path d="M5155 4270 c3 -5 11 -10 16 -10 6 0 7 5 4 10 -3 6 -11 10 -16 10 -6
0 -7 -4 -4 -10z"/>
<path d="M5776 4253 c-6 -14 -5 -15 5 -6 7 7 10 15 7 18 -3 3 -9 -2 -12 -12z"/>
<path d="M3426 4238 c-6 -27 -4 -44 13 -123 7 -33 15 -70 17 -82 4 -19 7 -21
22 -12 21 13 22 80 3 120 -11 22 -11 23 3 5 14 -18 16 -18 49 3 20 12 37 32
39 46 4 20 3 23 -8 14 -21 -17 -18 10 4 34 16 19 16 19 -8 12 -14 -4 -33 -18
-43 -31 -21 -28 -53 -33 -43 -8 4 10 -1 22 -11 30 -25 19 -32 17 -37 -8z m54
-163 c0 -8 -2 -15 -4 -15 -2 0 -6 7 -10 15 -3 8 -1 15 4 15 6 0 10 -7 10 -15z"/>
<path d="M5140 4250 c0 -5 7 -10 16 -10 8 0 12 5 9 10 -3 6 -10 10 -16 10 -5
0 -9 -4 -9 -10z"/>
<path d="M8304 4245 c11 -8 25 -15 30 -15 6 0 2 7 -8 15 -11 8 -25 15 -30 15
-6 0 -2 -7 8 -15z"/>
<path d="M2410 4236 c0 -9 -8 -16 -17 -16 -16 -1 -16 -2 1 -12 15 -8 21 -8 24
0 2 7 8 10 13 6 14 -8 10 6 -6 22 -13 14 -15 14 -15 0z"/>
<path d="M2693 4231 c-3 -11 -11 -17 -18 -14 -8 2 -20 -5 -27 -16 -7 -12 -18
-21 -25 -21 -7 0 -12 -6 -10 -12 1 -7 -6 -12 -15 -10 -11 2 -18 -3 -18 -13 0
-8 6 -15 13 -15 8 0 7 -3 -3 -10 -11 -7 -8 -11 15 -20 40 -16 132 -6 158 17
14 12 18 13 12 3 -8 -13 -7 -13 10 0 18 14 17 15 -6 19 -23 3 -23 4 -4 12 15
7 11 8 -17 6 -20 -2 -35 0 -32 4 2 4 -2 10 -8 12 -19 8 19 7 80 -2 28 -4 52
-4 52 1 0 4 -14 8 -31 8 -18 0 -28 4 -24 10 4 6 11 7 17 4 6 -4 8 -2 5 3 -4 6
-19 8 -33 5 -19 -3 -25 -1 -20 7 6 10 -19 16 -46 12 -4 0 -5 6 -2 14 4 8 1 15
-6 15 -6 0 -14 -9 -17 -19z m0 -48 c-7 -2 -21 -2 -30 0 -10 3 -4 5 12 5 17 0
24 -2 18 -5z"/>
<path d="M3055 4227 c-44 -26 -45 -28 -35 -47 7 -13 6 -21 -5 -30 -18 -15 -36
-4 -28 17 5 13 2 15 -11 10 -10 -4 -20 -7 -22 -7 -13 0 -1 -20 16 -25 11 -4
33 -17 48 -30 20 -17 29 -20 29 -10 0 8 -4 12 -9 9 -12 -8 -10 10 3 23 8 8 6
18 -6 36 -10 17 -13 27 -6 32 6 3 11 3 11 -1 0 -4 9 1 20 11 16 14 23 16 32 7
7 -7 16 -12 22 -12 5 0 1 7 -10 15 -22 17 -23 17 -49 2z m-20 -86 c-3 -6 -11
-11 -17 -11 -6 0 -6 6 2 15 14 17 26 13 15 -4z"/>
<path d="M9438 4214 c-3 -12 -2 -28 3 -35 7 -12 9 -12 9 0 0 11 5 9 22 -5 12
-10 18 -13 14 -7 -5 9 -2 11 11 6 15 -5 16 -3 6 8 -7 7 -13 18 -13 24 0 5 4 4
9 -3 6 -10 10 -10 21 3 11 13 9 15 -10 15 -13 0 -29 -8 -36 -17 -12 -16 -13
-16 -8 7 4 21 3 22 -4 5 l-9 -20 -5 20 c-4 19 -4 19 -10 -1z"/>
<path d="M2340 4195 c0 -14 2 -25 4 -25 2 0 6 11 8 25 3 14 1 25 -3 25 -5 0
-9 -11 -9 -25z"/>
<path d="M5040 4211 c0 -6 4 -13 10 -16 6 -3 7 1 4 9 -7 18 -14 21 -14 7z"/>
<path d="M9545 4199 c-6 -17 -9 -19 -16 -8 -5 8 -9 12 -10 9 0 -3 -2 -12 -3
-20 -3 -11 7 -16 35 -17 41 -3 45 2 29 27 -6 10 -10 11 -10 3 0 -7 -5 -13 -10
-13 -7 0 -7 6 0 20 7 12 7 20 1 20 -5 0 -13 -10 -16 -21z"/>
<path d="M9615 4206 c-12 -12 -8 -46 5 -46 13 0 30 26 23 34 -4 4 1 4 10 0 17
-6 17 -8 -2 -26 -25 -22 -26 -36 -7 -64 8 -11 16 -33 18 -49 4 -39 45 -46 54
-10 3 14 4 35 1 46 -4 15 -2 18 7 10 9 -8 12 2 9 46 -1 31 -6 59 -9 62 -4 3
-5 -6 -2 -21 3 -15 1 -25 -3 -22 -5 3 -9 15 -9 27 0 16 -3 18 -9 8 -7 -11 -9
-11 -14 0 -4 11 -6 11 -6 1 -1 -10 -6 -10 -21 -2 -11 6 -20 7 -20 3 0 -4 -4
-3 -8 3 -5 9 -10 9 -17 0z"/>
<path d="M2963 4193 c9 -2 23 -2 30 0 6 3 -1 5 -18 5 -16 0 -22 -2 -12 -5z"/>
<path d="M5728 4175 c5 -11 19 -28 30 -39 12 -10 18 -24 15 -32 -3 -10 2 -14
20 -14 17 0 27 -7 31 -22 6 -22 7 -22 20 -5 7 9 20 17 29 17 9 0 19 5 22 10 4
7 -3 9 -20 6 -19 -4 -35 3 -60 26 -19 16 -32 35 -28 41 3 6 1 7 -5 3 -6 -4
-23 1 -38 11 -26 17 -27 17 -16 -2z"/>
<path d="M4364 4149 c-4 -8 -3 -10 4 -5 7 4 12 3 12 -3 0 -5 -4 -13 -10 -16
-5 -3 -8 -16 -6 -28 3 -12 5 -25 5 -29 1 -5 4 -7 9 -7 26 4 43 -3 41 -18 -3
-31 1 -43 12 -43 8 0 7 6 -2 18 -12 16 -12 16 5 1 9 -9 18 -25 19 -36 1 -17 4
-19 19 -9 10 6 16 16 14 23 -3 7 1 10 7 7 8 -3 22 14 35 41 l22 45 -22 20
c-22 20 -54 28 -43 10 3 -6 -1 -7 -9 -4 -9 3 -13 10 -10 15 3 6 -6 7 -23 4
-21 -5 -24 -4 -13 4 13 9 11 11 -7 11 -12 0 -28 3 -36 6 -8 3 -18 0 -23 -7z"/>
<path d="M5553 4148 c2 -7 10 -12 16 -10 6 1 11 -5 11 -15 0 -9 3 -14 6 -10
10 10 -7 47 -23 47 -8 0 -13 -6 -10 -12z"/>
<path d="M9484 4148 c-3 -5 -12 -7 -20 -4 -8 3 -11 0 -8 -9 3 -8 12 -11 20 -8
10 4 12 0 8 -10 -3 -10 4 -26 19 -41 29 -28 20 -42 -23 -38 -18 2 -21 0 -11
-6 7 -6 10 -15 7 -21 -4 -6 -2 -19 4 -28 9 -15 10 -14 5 7 -5 19 -4 22 4 10 6
-8 11 -24 12 -35 0 -20 0 -20 8 0 7 17 8 17 13 -8 6 -32 0 -41 -19 -25 -11 8
-12 7 -7 -5 3 -8 12 -18 20 -21 9 -3 12 -1 9 4 -3 6 -1 10 4 10 6 0 11 14 11
30 0 17 5 30 11 30 5 0 8 -4 5 -8 -3 -5 2 -18 10 -30 17 -24 44 -19 44 8 0 11
4 21 8 24 5 3 8 -3 8 -12 -1 -9 3 -17 9 -17 5 0 9 7 7 15 -3 13 -2 13 7 0 6
-8 11 -11 11 -6 0 6 -10 20 -22 33 l-21 23 22 0 c13 0 21 3 19 8 -3 4 -10 22
-17 40 -11 26 -19 32 -44 33 l-32 1 29 7 c28 6 28 6 10 28 -20 24 -109 40
-120 21z m109 -204 c-4 -12 -8 -13 -14 -3 -9 15 -2 32 11 24 5 -3 6 -13 3 -21z"/>
<path d="M2904 4140 c-5 -5 -22 -10 -38 -12 -37 -4 -45 -25 -13 -37 13 -5 31
-25 41 -45 19 -41 96 -93 108 -73 5 8 8 8 8 1 0 -7 14 -11 30 -10 47 1 35 13
-22 21 -36 6 -45 10 -29 13 13 2 31 10 38 18 8 8 20 11 26 7 7 -3 8 -2 4 3 -5
5 -13 9 -18 9 -5 0 -9 5 -8 10 0 6 8 9 17 8 9 -1 11 0 5 3 -7 3 -15 5 -18 4
-3 0 -17 13 -31 29 -15 18 -31 28 -39 24 -8 -3 -17 2 -21 10 -7 19 -29 28 -40
17z m35 -34 c-2 -2 -17 -6 -34 -10 -22 -5 -26 -4 -15 4 14 9 59 15 49 6z m75
-42 c5 -12 2 -15 -10 -10 -9 4 -22 3 -28 -1 -7 -5 -3 0 7 10 23 21 23 21 31 1z
m-19 -34 c-3 -5 -2 -10 4 -10 5 0 12 5 14 10 3 6 4 5 3 -2 -1 -7 -12 -14 -24
-14 -18 -1 -20 2 -11 12 13 16 23 19 14 4z"/>
<path d="M545 4130 c28 -12 45 -12 45 0 0 6 -15 10 -32 9 -28 0 -30 -2 -13 -9z"/>
<path d="M8814 4127 c3 -10 2 -16 -3 -12 -13 7 -42 -5 -36 -15 3 -5 0 -12 -6
-16 -7 -4 -9 -3 -6 3 7 11 -42 38 -51 28 -3 -3 -1 -5 5 -5 6 0 9 -8 6 -19 -3
-10 1 -22 7 -26 9 -5 10 -1 5 14 -4 12 -2 21 4 21 6 0 11 -11 11 -25 0 -14 5
-25 10 -25 6 0 20 -11 32 -25 25 -29 43 -32 57 -7 9 15 10 15 11 0 0 -9 -5
-18 -12 -20 -19 -7 3 -30 23 -25 11 3 17 1 14 -3 -3 -5 7 -17 22 -28 23 -17
26 -23 16 -33 -11 -11 -13 -10 -13 2 0 9 -10 21 -22 28 -47 25 -68 38 -88 56
-18 16 -20 16 -26 1 -3 -9 -3 -28 1 -44 9 -35 0 -26 -20 21 -14 34 -14 36 2
30 16 -6 16 -5 4 10 -7 9 -17 15 -21 12 -4 -3 -17 18 -28 45 -12 28 -26 50
-31 50 -13 0 -15 -27 -2 -32 5 -1 30 -52 56 -113 26 -60 57 -130 68 -155 11
-25 26 -58 33 -75 7 -16 13 -24 14 -17 0 7 -7 29 -15 48 -15 37 -13 54 8 54 9
0 8 -3 -1 -8 -9 -6 -5 -12 13 -20 34 -16 191 -16 201 0 5 8 2 9 -11 4 -15 -5
-16 -4 -6 8 9 11 9 16 0 21 -6 4 -15 1 -21 -6 -7 -12 -8 -11 -6 1 3 17 -29 53
-56 63 -9 4 -15 11 -11 16 7 12 35 3 35 -10 0 -16 51 -31 65 -19 9 8 15 8 20
0 3 -6 11 -8 16 -5 5 3 6 -2 2 -11 -6 -16 -7 -16 -18 0 -11 15 -13 15 -19 1
-3 -8 0 -15 7 -16 7 0 20 -2 30 -4 11 -2 17 3 17 14 0 27 -48 115 -80 150 -31
31 -53 44 -30 16 9 -11 9 -15 1 -15 -6 0 -20 14 -30 31 -13 20 -21 26 -24 17
-5 -10 -8 -9 -17 4 -6 10 -17 15 -26 11 -9 -3 -14 0 -12 8 2 10 -5 13 -22 11
-22 -4 -23 -2 -10 15 14 17 14 17 -3 4 -10 -8 -16 -20 -13 -28 3 -8 1 -11 -5
-8 -5 4 -7 14 -5 23 3 10 1 24 -5 32 -9 13 -10 12 -5 -3z m76 -90 c-18 -17
-20 -17 -9 -3 13 18 12 19 -4 13 -11 -4 -16 -3 -12 4 4 6 13 8 21 5 8 -3 14 0
14 6 0 6 3 8 7 4 4 -3 -4 -17 -17 -29z m63 -6 c3 -13 1 -18 -9 -14 -7 2 -10
11 -7 19 7 19 10 18 16 -5z m-29 -33 c-3 -4 -11 -8 -17 -7 -9 0 -9 2 0 5 7 3
9 13 6 22 -4 14 -3 14 5 2 6 -8 8 -18 6 -22z m90 -15 c3 -8 11 -11 18 -7 10 6
11 4 1 -7 -18 -19 -16 -34 3 -19 8 8 14 9 13 4 -1 -5 -1 -18 0 -29 1 -15 3
-17 10 -7 6 11 10 10 15 -4 3 -9 4 -19 1 -22 -3 -3 -5 -1 -5 5 0 15 -28 12
-34 -4 -3 -8 -11 -11 -17 -8 -6 4 -8 13 -5 21 4 9 -2 14 -17 15 l-22 2 22 4
c19 4 21 8 13 22 -5 10 -6 21 -3 25 3 3 -1 6 -10 6 -9 0 -17 4 -17 8 0 14 29
10 34 -5z m-202 -108 c9 -20 9 -20 -6 -1 -9 11 -16 27 -15 35 0 14 1 14 6 1 3
-8 10 -24 15 -35z"/>
<path d="M9023 3908 c-2 -18 0 -20 7 -8 12 18 13 30 2 30 -4 0 -9 -10 -9 -22z"/>
<path d="M3655 4120 c-3 -5 -2 -10 4 -10 5 0 13 5 16 10 3 6 2 10 -4 10 -5 0
-13 -4 -16 -10z"/>
<path d="M5700 4110 c0 -6 9 -10 20 -10 19 0 24 -9 21 -36 -1 -6 6 -17 14 -24
13 -11 15 -9 15 12 0 25 -21 50 -52 61 -10 4 -18 2 -18 -3z"/>
<path d="M6522 4089 c-24 -10 -53 -21 -65 -23 -39 -9 -82 -24 -69 -25 7 -1 10
-5 7 -11 -3 -5 3 -10 14 -10 32 0 94 -32 120 -63 13 -15 41 -37 63 -48 l39
-20 28 20 c16 12 36 38 44 60 9 22 21 42 27 46 11 7 -139 96 -157 94 -5 0 -28
-9 -51 -20z"/>
<path d="M5710 4078 c0 -7 5 -20 10 -28 8 -12 10 -9 10 13 0 15 -4 27 -10 27
-5 0 -10 -6 -10 -12z"/>
<path d="M6245 4078 c-25 -11 -53 -63 -29 -54 23 9 16 -4 -8 -14 -19 -8 -20
-10 -3 -7 10 1 29 16 40 33 13 18 28 30 39 28 24 -3 34 -14 13 -14 -9 0 -16
-6 -14 -12 1 -7 -4 -12 -11 -10 -8 1 -11 -2 -7 -8 4 -7 19 0 39 17 21 18 30
32 25 39 -11 14 -57 15 -84 2z m75 -8 c0 -5 -2 -10 -4 -10 -3 0 -8 5 -11 10
-3 6 -1 10 4 10 6 0 11 -4 11 -10z"/>
<path d="M5671 4064 c0 -11 3 -14 6 -6 3 7 2 16 -1 19 -3 4 -6 -2 -5 -13z"/>
<path d="M5908 4073 c7 -3 16 -2 19 1 4 3 -2 6 -13 5 -11 0 -14 -3 -6 -6z"/>
<path d="M6121 4059 c-17 -10 -31 -23 -31 -28 0 -5 -8 -12 -17 -14 -10 -3 -6
-4 9 -4 15 1 25 4 22 8 -5 9 9 19 38 24 l21 4 -21 -20 c-24 -22 -30 -38 -7
-19 8 6 20 8 26 4 8 -5 9 -3 4 6 -6 10 -4 12 9 7 13 -5 17 -3 13 7 -4 9 1 16
10 18 9 2 3 7 -15 14 -26 10 -36 9 -61 -7z"/>
<path d="M9283 4019 c-18 -5 -35 -15 -39 -22 -4 -6 -4 -9 1 -5 4 4 15 3 24 -1
9 -5 31 -11 49 -14 18 -3 44 -12 57 -21 22 -15 24 -14 22 4 -1 11 -5 20 -9 20
-4 0 -7 3 -5 8 1 4 -2 7 -8 7 -5 0 -9 -4 -7 -8 1 -5 -2 -6 -7 -3 -5 3 -7 15
-4 26 4 16 1 20 -18 19 -13 0 -38 -5 -56 -10z"/>
<path d="M2081 4004 c0 -11 3 -14 6 -6 3 7 2 16 -1 19 -3 4 -6 -2 -5 -13z"/>
<path d="M3486 4007 c-14 -10 -16 -16 -7 -22 15 -9 35 8 30 24 -3 8 -10 7 -23
-2z"/>
<path d="M3054 3998 c-4 -7 -4 -10 1 -6 4 4 14 3 21 -3 9 -7 14 -6 20 3 4 7 4
10 -1 6 -4 -4 -14 -3 -21 3 -9 7 -14 6 -20 -3z"/>
<path d="M5716 3990 c-5 -14 -10 -34 -11 -45 -1 -11 -6 -19 -10 -17 -5 2 -12
-5 -16 -15 -4 -10 -6 5 -5 34 2 39 -1 50 -11 46 -7 -3 -11 -9 -8 -13 3 -5 -1
-15 -10 -23 -8 -8 -16 -21 -17 -28 -2 -7 -11 -21 -21 -31 -10 -10 -15 -23 -12
-28 4 -6 -4 -14 -17 -19 -13 -6 -17 -10 -10 -10 7 -1 11 -5 7 -11 -8 -12 96
-10 113 3 7 6 41 18 75 28 50 14 58 19 40 25 -24 7 -29 29 -14 53 12 19 -2 64
-21 67 -10 1 -15 -3 -12 -11 3 -7 1 -16 -5 -20 -6 -3 -12 -16 -13 -28 0 -12
-4 -2 -7 23 -6 41 -7 43 -15 20z"/>
<path d="M7473 3981 c-8 -13 -9 -22 -3 -26 6 -4 9 -1 8 5 -2 7 5 14 15 15 11
2 22 7 25 11 4 4 -1 4 -10 1 -9 -3 -18 -2 -20 4 -2 5 -9 0 -15 -10z"/>
<path d="M405 3970 c3 -5 11 -10 16 -10 6 0 7 5 4 10 -3 6 -11 10 -16 10 -6 0
-7 -4 -4 -10z"/>
<path d="M8713 3965 c0 -8 6 -16 14 -19 11 -4 11 -1 3 14 -13 24 -17 25 -17 5z"/>
<path d="M9255 3972 c-11 -11 -4 -24 9 -19 9 4 12 0 9 -12 -6 -22 67 -95 121
-123 23 -11 48 -27 57 -34 18 -16 129 -30 154 -20 15 5 15 9 4 23 -13 15 -12
15 8 4 19 -10 22 -9 17 4 -4 8 -10 16 -15 16 -5 1 -13 3 -19 4 -5 1 -16 3 -22
4 -10 1 -10 3 0 10 10 6 7 10 -12 15 -18 4 -24 11 -19 23 4 10 2 14 -5 9 -6
-3 -13 -2 -16 3 -3 4 -20 12 -38 16 -18 4 -35 8 -38 9 -28 8 -90 42 -90 49 0
5 -6 4 -14 -2 -11 -9 -16 -9 -23 2 -8 14 -58 28 -68 19z m325 -172 c0 -5 -2
-10 -4 -10 -3 0 -8 5 -11 10 -3 6 -1 10 4 10 6 0 11 -4 11 -10z"/>
<path d="M9422 3960 c0 -14 2 -19 5 -12 2 6 2 18 0 25 -3 6 -5 1 -5 -13z"/>
<path d="M435 3950 c-3 -6 1 -7 9 -4 18 7 21 14 7 14 -6 0 -13 -4 -16 -10z"/>
<path d="M7493 3948 c-12 -16 -13 -49 -1 -42 5 3 6 9 4 13 -3 4 -1 13 5 21 7
12 9 12 9 1 0 -7 6 -11 15 -7 17 6 45 -19 45 -42 0 -13 2 -14 9 -3 7 10 12 8
25 -10 9 -13 16 -18 16 -12 0 16 -52 73 -68 73 -8 0 -10 5 -6 13 6 9 5 9 -7 0
-11 -9 -19 -9 -26 -2 -7 7 -13 6 -20 -3z"/>
<path d="M8140 3899 c-46 -68 -71 -155 -49 -171 19 -12 264 -1 264 12 0 1 19
3 43 5 56 5 114 24 107 36 -4 5 1 9 9 9 42 0 77 80 41 94 -9 3 -12 -5 -10 -30
1 -19 0 -34 -1 -34 -5 0 -35 59 -33 66 0 3 -2 9 -6 12 -4 4 -5 0 -3 -8 2 -8
-3 -14 -9 -13 -12 3 -18 -17 -14 -40 1 -5 -3 -6 -8 -3 -5 3 -7 16 -3 28 3 14
1 19 -6 14 -6 -4 -22 -4 -36 0 l-26 6 23 19 c15 14 6 11 -32 -8 -29 -15 -57
-36 -61 -47 -7 -17 -9 -18 -9 -4 -1 11 -6 15 -16 12 -9 -4 -15 0 -15 9 0 12
-30 27 -62 31 -3 1 -10 5 -15 10 -8 9 28 3 63 -11 13 -5 15 -3 9 7 -5 9 -4 11
4 6 6 -4 9 -12 6 -17 -9 -14 19 -11 40 5 18 13 17 14 -7 11 -16 -2 -35 5 -47
16 -12 11 -21 15 -21 9 0 -5 -5 -10 -11 -10 -5 0 -8 4 -4 9 3 6 -4 8 -15 6
-11 -2 -20 0 -20 5 0 4 -7 10 -14 13 -10 4 -29 -14 -56 -54z m138 -51 c4 2 8
-1 10 -7 2 -6 -4 -11 -13 -11 -14 0 -15 -3 -6 -14 9 -11 9 -16 -1 -22 -7 -4
-10 -4 -6 1 11 11 -12 36 -25 28 -5 -3 -7 -1 -3 5 3 6 -2 13 -11 15 -10 2 -8
3 5 2 13 -1 21 2 19 9 -3 6 -10 10 -16 8 -7 -1 -9 2 -6 8 5 8 14 5 27 -7 11
-10 23 -17 26 -15z m97 12 c-3 -5 -12 -10 -18 -10 -7 0 -6 4 3 10 19 12 23 12
15 0z"/>
<path d="M464 3942 c-6 -4 -11 -14 -11 -23 0 -15 5 -17 46 -21 15 -2 17 -6 10
-15 -6 -7 -8 -17 -5 -22 4 -5 2 -12 -4 -16 -5 -3 -10 -11 -10 -17 0 -7 4 -7
13 1 10 8 14 7 14 -4 0 -7 -5 -13 -11 -12 -5 1 -11 -5 -11 -13 -2 -23 15 -51
26 -45 5 4 9 -1 9 -9 0 -20 7 -20 26 -2 17 17 19 30 2 20 -7 -5 -8 -3 -3 5 5
9 10 10 18 2 7 -7 6 -15 -2 -25 -7 -9 -8 -16 -2 -20 24 -15 24 81 0 111 -12
15 -12 16 1 8 24 -14 -33 56 -66 81 -16 13 -34 20 -40 16z m39 -35 c-3 -5 -9
-3 -14 4 -5 8 -9 10 -9 6 0 -5 -5 -5 -10 -2 -6 4 -8 10 -5 15 4 6 14 5 25 -2
10 -7 16 -16 13 -21z m37 -31 c0 -3 -4 -8 -10 -11 -5 -3 -10 -1 -10 4 0 6 5
11 10 11 6 0 10 -2 10 -4z"/>
<path d="M2216 3938 c5 -7 3 -8 -5 -4 -7 5 -18 0 -26 -10 -9 -11 -14 -14 -15
-6 0 18 -30 15 -30 -4 0 -8 -4 -13 -9 -10 -11 7 -21 -17 -21 -51 0 -26 0 -26
-21 -7 -12 10 -22 19 -24 19 -9 0 -44 -39 -40 -45 3 -4 -2 -10 -10 -14 -8 -3
-15 -13 -15 -21 0 -9 5 -13 10 -10 6 3 10 2 10 -3 0 -5 6 -9 13 -10 6 0 27 -3
45 -6 28 -4 39 1 72 31 22 19 40 41 40 48 0 8 11 27 25 43 28 34 33 72 9 72
-9 0 -12 -5 -8 -12z m-150 -100 c4 -7 4 -10 -1 -6 -4 4 -15 2 -24 -5 -14 -11
-14 -10 -2 6 16 20 18 21 27 5z m4 -22 c0 -2 -7 -7 -16 -10 -8 -3 -12 -2 -9 4
6 10 25 14 25 6z"/>
<path d="M9440 3946 c0 -2 8 -10 18 -17 15 -13 16 -12 3 4 -13 16 -21 21 -21
13z"/>
<path d="M9645 3930 c-16 -11 -25 -20 -19 -20 11 0 64 39 54 40 -3 0 -18 -9
-35 -20z"/>
<path d="M4393 3915 c-13 -15 -17 -27 -11 -31 6 -4 5 -10 -3 -15 -10 -6 -11
-9 -1 -9 6 0 12 -4 12 -10 0 -5 -8 -7 -17 -4 -15 5 -16 4 -3 -5 10 -7 11 -11
3 -11 -7 0 -10 -7 -7 -15 9 -21 21 -10 29 26 5 23 10 28 16 18 4 -7 4 -18 0
-24 -9 -11 -21 -65 -15 -65 2 0 11 15 19 33 l15 32 -6 -34 c-7 -37 10 -36 27
3 8 18 9 17 4 -6 -3 -16 -1 -28 5 -28 10 0 15 24 10 45 -1 6 -4 19 -5 30 -5
29 -34 95 -43 95 -4 0 -17 -11 -29 -25z"/>
<path d="M6127 3919 c7 -7 15 -10 18 -7 3 3 -2 9 -12 12 -14 6 -15 5 -6 -5z"/>
<path d="M3275 3898 c-6 -14 -38 -37 -80 -59 -115 -58 -155 -81 -161 -91 -3
-5 8 -3 24 6 38 20 58 21 45 4 -6 -7 -13 -24 -16 -38 -7 -26 9 -155 20 -174 4
-6 8 -13 8 -16 1 -13 33 -49 38 -43 10 9 9 25 -1 19 -5 -3 -9 2 -9 10 0 9 6
13 14 9 8 -3 16 -5 18 -5 2 0 1 -10 -2 -22 -4 -22 -4 -22 11 -4 15 18 36 14
36 -7 0 -7 -4 -6 -10 3 -7 12 -9 10 -7 -7 1 -20 3 -21 17 -8 9 8 20 12 23 8 4
-3 7 1 7 10 0 9 -5 19 -12 23 -7 5 -8 3 -3 -6 6 -9 4 -11 -5 -5 -10 6 -10 11
3 20 24 17 21 203 -2 223 -9 8 -11 11 -4 7 7 -3 17 4 23 16 10 17 9 20 -1 14
-7 -5 -26 -9 -43 -10 l-31 -2 35 15 c25 11 30 17 18 19 -9 3 -27 -1 -40 -7
-21 -10 -21 -10 -5 3 10 8 43 26 72 39 30 12 55 29 55 36 0 6 -4 12 -9 12 -5
0 -11 7 -13 16 -2 11 -6 9 -13 -8z"/>
<path d="M2080 3900 c12 -8 12 -12 2 -18 -10 -7 -10 -11 3 -22 13 -11 15 -8
15 19 0 23 -5 31 -17 31 -15 0 -16 -2 -3 -10z"/>
<path d="M7527 3882 c-10 -11 -13 -22 -7 -31 6 -11 9 -8 12 10 2 13 9 23 16
21 8 -1 11 2 7 8 -8 13 -9 13 -28 -8z"/>
<path d="M8435 3890 c-8 -13 5 -13 25 0 13 8 13 10 -2 10 -9 0 -20 -4 -23 -10z"/>
<path d="M8741 3889 c-1 -9 7 -23 17 -30 15 -12 16 -12 6 1 -6 8 -14 22 -17
30 -5 13 -6 12 -6 -1z"/>
<path d="M464 3881 c8 -12 -19 -33 -29 -23 -5 4 -4 0 1 -8 5 -8 9 -18 9 -22 0
-3 3 -10 7 -14 4 -3 5 3 3 15 -2 12 0 19 4 16 5 -2 7 -18 6 -34 -1 -16 1 -35
6 -43 6 -9 9 -6 10 12 0 14 2 37 4 52 3 21 0 26 -13 21 -14 -5 -15 -3 -4 8 15
16 16 29 1 29 -5 0 -8 -4 -5 -9z"/>
<path d="M6100 3881 c0 -5 7 -12 16 -15 14 -5 15 -4 4 9 -14 17 -20 19 -20 6z"/>
<path d="M6175 3880 c-3 -5 3 -10 15 -10 12 0 18 5 15 10 -3 6 -10 10 -15 10
-5 0 -12 -4 -15 -10z"/>
<path d="M6240 3877 c0 -18 12 -23 72 -32 40 -6 46 -5 51 14 3 12 4 21 4 21
-1 1 -30 4 -64 7 -52 4 -63 3 -63 -10z"/>
<path d="M1 3739 l-2 -140 23 12 c67 35 158 115 158 137 0 23 -78 92 -127 113
-24 10 -46 19 -48 19 -2 0 -4 -63 -4 -141z"/>
<path d="M5106 3850 c-13 -68 -7 -118 16 -134 14 -10 26 -12 33 -6 7 5 15 7
19 3 4 -4 4 1 0 11 -5 14 -4 17 4 12 7 -4 12 -2 12 4 0 6 5 8 10 5 14 -9 13 8
-2 23 -9 9 -8 16 5 30 9 10 17 24 17 31 0 7 5 9 10 6 6 -3 10 -2 10 3 0 5 -10
12 -22 15 -13 3 -34 9 -47 13 -17 5 -22 4 -17 -4 8 -14 -26 -3 -35 11 -3 5 -9
-6 -13 -23z"/>
<path d="M7576 3858 c3 -5 10 -6 15 -3 13 9 11 12 -6 12 -8 0 -12 -4 -9 -9z"/>
<path d="M4281 3834 c0 -11 3 -14 6 -6 3 7 2 16 -1 19 -3 4 -6 -2 -5 -13z"/>
<path d="M9740 3837 c0 -6 -22 -36 -50 -65 -27 -29 -50 -50 -50 -46 0 4 -18
-21 -41 -56 -85 -131 -156 -173 -184 -107 l-14 32 3 -35 c2 -19 8 -48 15 -64
6 -16 10 -34 7 -40 -2 -6 -7 -3 -11 7 -7 16 -8 16 -19 1 -11 -14 -39 -17 -191
-19 -224 -4 -234 -1 -275 87 -30 66 -41 74 -15 11 25 -59 21 -73 -22 -74 l-38
0 45 -18 44 -18 -99 -13 c-55 -7 -119 -11 -142 -9 -24 3 -43 2 -43 -2 0 -4
-25 -10 -56 -14 -53 -6 -61 -4 -135 34 -44 23 -79 40 -79 37 0 -2 25 -19 55
-37 30 -18 55 -36 55 -40 0 -4 -39 -10 -87 -14 -150 -10 -144 -14 17 -11 85 2
142 1 125 -1 -16 -3 -35 -9 -41 -14 -16 -13 -153 -59 -176 -59 -18 0 -18 -1 2
-22 11 -12 20 -26 20 -30 0 -14 -29 -21 -43 -10 -6 5 -43 13 -81 17 -59 6 -68
5 -63 -8 11 -29 -6 -26 -30 6 l-25 32 4 -101 c3 -75 8 -107 21 -125 9 -13 28
-41 42 -61 27 -41 123 -108 191 -134 39 -15 45 -15 77 1 20 9 43 27 51 41 16
23 15 24 -41 61 -31 21 -59 45 -61 53 -4 13 -2 13 14 -1 10 -9 40 -27 66 -42
l48 -26 6 25 6 25 12 -23 c7 -13 20 -22 29 -22 9 1 14 -2 11 -7 -3 -5 -2 -9 3
-9 22 1 32 20 34 62 2 26 5 45 8 43 5 -3 6 -58 2 -95 -1 -5 -8 -10 -16 -10
-17 0 -20 -26 -5 -35 6 -4 17 -2 24 4 9 7 16 7 24 -1 16 -16 54 -1 80 32 22
29 23 33 11 80 -12 46 -11 52 7 72 25 28 94 126 94 133 0 15 -18 0 -40 -33
-60 -90 -90 -120 -90 -89 0 21 -61 108 -71 101 -5 -3 -6 -10 -3 -16 4 -7 2 -8
-5 -4 -19 12 -92 -54 -113 -102 -11 -24 -25 -42 -31 -40 -7 2 -22 23 -34 46
-12 24 -40 59 -63 80 -41 37 -41 37 -26 67 20 39 63 81 99 94 40 15 47 14 47
-10 0 -12 4 -17 11 -13 6 3 9 14 6 23 -2 10 2 17 12 18 31 1 121 29 115 35 -3
4 6 4 21 0 28 -8 171 1 218 13 37 10 36 -12 -6 -78 -47 -73 -49 -77 -43 -77 2
0 24 21 48 46 42 43 45 45 59 27 13 -16 13 -17 -3 -4 -11 8 -18 9 -18 3 0 -22
24 -24 40 -4 10 12 19 20 21 18 2 -2 10 3 18 11 12 13 11 14 -10 9 -20 -6 -21
-5 -6 4 9 6 15 16 11 21 -4 6 -11 6 -20 -2 -12 -10 -13 -9 -8 5 7 18 20 21 28
7 3 -5 19 -11 35 -13 17 -2 28 -1 26 3 -3 3 14 7 36 7 73 1 55 12 -22 13 -70
1 -72 2 -34 11 23 5 87 7 150 3 135 -8 197 -7 209 5 4 4 21 4 37 0 16 -5 29
-5 29 -1 0 12 143 4 240 -13 100 -17 122 -25 114 -37 -3 -6 5 -7 19 -4 14 4
28 2 32 -4 3 -6 10 -9 15 -6 14 8 87 -13 104 -30 8 -9 25 -19 38 -24 16 -7 18
-10 6 -10 -9 -1 -24 -14 -35 -31 l-19 -29 -13 22 c-13 21 -13 21 4 7 17 -14
18 -13 12 3 -4 10 -7 20 -7 23 0 2 -7 0 -17 -3 -11 -4 -14 -3 -9 5 4 7 15 12
24 12 25 0 -32 28 -65 32 -15 1 -32 7 -36 13 -6 7 -10 6 -13 -2 -3 -7 -12 -9
-19 -6 -12 4 -13 0 -4 -27 13 -35 89 -89 127 -90 12 0 22 -3 22 -7 0 -6 -58
-113 -66 -122 -7 -7 -72 57 -66 65 4 5 -2 2 -12 -6 -17 -14 -18 -13 -12 7 6
18 1 25 -23 37 -44 23 -51 20 -44 -16 6 -36 21 -60 32 -53 4 2 8 -2 8 -9 0 -8
-8 -11 -19 -8 -24 6 -23 -15 2 -30 11 -7 20 -21 20 -30 0 -10 3 -18 8 -17 4 1
17 -2 28 -6 19 -6 21 -11 13 -43 -4 -20 -13 -38 -18 -40 -6 -2 -11 -10 -11
-18 0 -8 -9 -32 -19 -52 -11 -20 -24 -48 -31 -62 -38 -86 -84 -150 -107 -150
-7 0 -16 -7 -19 -15 -4 -11 -21 -15 -55 -15 -54 0 -66 -15 -19 -25 28 -6 29
-8 15 -28 -8 -12 -37 -40 -64 -62 -27 -22 -54 -48 -60 -58 -11 -17 -11 -17 16
-1 15 10 52 38 82 63 108 93 103 94 67 -13 -22 -63 -45 -108 -70 -137 -20 -24
-34 -49 -32 -56 3 -7 1 -15 -4 -18 -4 -3 -11 1 -13 7 -3 7 -6 8 -6 3 -1 -6
-18 -9 -38 -7 -21 2 -67 -4 -103 -13 -126 -31 -117 -31 -100 -10 13 17 13 18
0 10 -8 -4 2 8 22 28 21 19 33 37 28 39 -6 2 -11 30 -12 63 -1 33 -3 64 -5 68
-3 4 -5 38 -6 75 -2 62 -5 71 -46 127 -60 80 -113 131 -98 92 7 -19 -50 -98
-111 -152 l-53 -48 -27 24 c-14 13 -33 32 -40 42 -19 24 -30 21 -25 -7 4 -18
1 -24 -11 -22 -8 1 -19 6 -23 11 -4 4 -2 5 5 1 6 -4 12 -3 12 2 0 5 -11 15
-25 22 -13 7 -23 16 -21 19 2 3 -5 15 -15 25 -18 18 -18 18 -14 -5 4 -23 4
-23 -10 -4 -8 11 -21 27 -30 36 -11 12 -13 19 -5 24 14 9 -3 31 -30 38 -46 12
-10 -84 56 -150 51 -51 112 -83 157 -83 18 0 36 -2 39 -5 3 -4 1 -25 -4 -48
-18 -73 -12 -144 17 -193 14 -24 32 -44 40 -44 8 0 15 -5 15 -11 0 -7 17 -10
46 -7 38 3 44 1 41 -14 -3 -11 0 -15 9 -11 9 3 14 -1 14 -12 0 -14 2 -14 13
-3 8 7 16 20 18 27 3 8 17 15 31 17 26 2 26 2 12 -31 -9 -22 -10 -36 -4 -40
15 -9 12 -25 -4 -19 -23 9 -46 -55 -36 -99 7 -35 6 -37 -16 -37 -13 0 -24 -4
-24 -10 0 -5 5 -10 10 -10 6 0 10 -4 10 -10 0 -5 -8 -6 -17 -3 -16 6 -16 4 -5
-9 11 -14 10 -16 -7 -11 -12 3 -18 9 -15 14 3 5 0 9 -6 9 -14 0 -9 -31 5 -31
6 0 17 -6 25 -13 33 -28 40 -28 30 -2 -6 17 -6 26 1 26 5 0 12 -7 15 -15 4 -8
13 -15 21 -15 12 0 12 3 -2 16 -28 29 -7 28 35 -1 21 -15 42 -36 46 -47 5 -17
8 -18 16 -7 7 11 11 11 15 1 2 -6 9 -10 14 -6 5 3 9 -3 9 -13 0 -10 3 -14 8
-8 4 6 14 10 22 10 8 0 18 4 22 9 3 5 44 9 90 8 45 -1 77 1 71 4 -15 7 -17 30
-3 39 6 3 7 -1 4 -9 -3 -9 -2 -16 4 -16 6 0 9 8 7 18 -1 9 -8 16 -15 14 -8 -2
-10 3 -6 13 3 9 2 13 -4 10 -6 -3 -10 -2 -10 3 0 5 9 12 20 15 11 3 18 2 16
-2 -3 -4 -1 -13 5 -21 7 -12 9 -11 9 5 1 17 2 17 11 -4 7 -18 6 -27 -3 -33 -9
-5 -7 -8 7 -8 18 -1 18 -2 -2 -10 -31 -13 -29 -22 2 -14 21 5 25 3 26 -17 0
-23 1 -23 9 -3 4 12 30 34 57 49 26 16 63 44 80 62 18 18 38 33 45 34 31 1
105 10 128 16 14 3 29 5 33 4 12 -2 117 62 117 72 0 5 9 20 20 34 11 14 20 34
20 44 0 11 4 19 9 19 5 0 8 8 6 18 -1 9 1 22 5 27 9 12 -18 85 -31 85 -8 0
-18 -8 -79 -64 -28 -26 -60 -40 -60 -26 0 5 11 12 25 16 14 3 23 9 21 13 -6 8
54 77 62 73 4 -2 8 1 10 7 2 5 -6 8 -17 6 -12 -2 -21 0 -21 4 0 5 -21 11 -47
15 -42 6 -53 2 -124 -40 -61 -35 -84 -56 -106 -92 -15 -26 -26 -53 -25 -61 2
-8 -1 -10 -9 -5 -8 4 -10 3 -5 -5 4 -6 11 -9 16 -6 4 3 10 -4 13 -16 5 -19 4
-20 -19 -4 -13 8 -24 13 -24 10 0 -3 -14 2 -31 10 l-31 16 6 97 c4 53 9 135
12 182 5 84 27 150 49 150 6 0 32 -13 58 -30 26 -17 52 -30 57 -30 6 0 10 -5
10 -11 0 -5 -6 -7 -12 -3 -35 21 45 -66 86 -93 54 -37 123 -45 146 -18 15 18
37 20 43 3 4 -10 7 -10 18 0 11 11 10 14 -9 19 -27 7 -24 24 6 38 24 11 27 26
11 57 -8 15 -8 19 0 14 6 -4 11 -2 11 5 0 8 6 6 18 -4 10 -10 21 -17 25 -17
14 0 -8 36 -37 61 -16 14 -35 41 -42 60 -7 19 -13 26 -13 17 -1 -22 -15 -23
-35 -3 -20 20 -21 19 -20 -15 2 -48 3 -52 15 -44 8 4 8 0 0 -15 -14 -25 -23
-28 -14 -3 6 16 5 16 -14 -1 -16 -14 -23 -15 -29 -6 -4 7 -3 10 3 6 17 -10 22
17 8 36 -7 9 -16 17 -20 17 -4 0 -2 -6 4 -14 9 -10 8 -15 -3 -19 -9 -4 -23 4
-34 18 -11 13 -22 22 -25 18 -3 -3 -4 7 -1 21 4 25 3 26 -16 16 -21 -11 -21
-12 6 -48 16 -20 32 -39 36 -40 10 -4 31 -42 24 -42 -3 0 -18 12 -34 28 -16
15 -43 38 -60 52 -17 14 -31 31 -32 38 0 17 9 15 28 -6 10 -10 13 -13 9 -6 -4
7 -3 15 3 19 6 3 8 11 5 16 -3 5 2 6 11 2 13 -5 15 -3 9 8 -7 11 -6 12 6 2 8
-6 19 -12 24 -12 6 -1 10 -14 10 -30 0 -16 3 -32 7 -36 3 -3 6 0 5 7 -1 40 4
68 13 63 5 -3 7 -12 4 -19 -3 -8 -1 -16 3 -19 5 -3 9 5 8 18 0 29 -40 61 -88
70 -20 4 -37 10 -37 14 0 13 41 51 55 51 8 0 17 5 21 12 4 7 3 8 -4 4 -7 -4
-12 -1 -12 6 -1 9 -5 7 -14 -4 -19 -26 -22 -23 -18 26 2 24 -1 53 -7 65 -7 12
-8 21 -2 21 5 0 11 -5 13 -11 2 -6 4 6 5 28 3 62 88 227 123 238 11 3 17 12
14 19 -3 7 2 16 10 19 9 4 16 14 16 24 0 14 2 15 9 4 5 -8 16 -11 25 -8 8 3
18 1 22 -5 5 -7 2 -8 -6 -3 -9 5 -11 4 -6 -3 4 -7 14 -12 22 -12 8 0 12 5 9
10 -4 7 2 9 19 4 24 -6 26 -4 26 28 0 36 -1 37 -164 79 -21 5 -57 18 -79 29
-22 11 -47 20 -54 20 -9 0 -11 5 -7 13 6 9 5 9 -8 0 -8 -7 -18 -10 -21 -6 -4
3 1 12 11 19 9 7 12 14 6 14 -5 0 -19 -7 -30 -15 -22 -17 -90 -20 -99 -5 -4 6
-16 8 -28 5 -12 -2 -16 -2 -9 1 16 8 15 59 -2 92 -8 15 -30 40 -50 56 -22 18
-32 34 -29 44 5 11 3 13 -7 7 -10 -6 -12 -4 -7 9 4 10 7 22 7 27 0 6 4 8 9 5
5 -3 11 1 15 9 3 8 0 17 -6 21 -6 4 -8 3 -5 -3 6 -9 -12 -23 -30 -23 -7 0 25
49 49 74 10 11 18 25 18 32 0 6 11 19 25 28 14 9 23 21 20 26 -9 14 -25 12
-25 -3z m-190 -296 c-9 -17 -8 -21 5 -21 11 0 14 -8 11 -32 -3 -30 -7 -33 -38
-36 -39 -3 -62 16 -52 43 5 11 14 15 30 12 13 -2 24 0 24 4 0 5 -8 9 -17 9
-13 0 -10 7 12 30 31 32 45 27 25 -9z m-1131 -245 c-14 -12 -69 -35 -69 -28 0
4 12 13 28 19 28 11 48 16 41 9z m1502 -227 c7 -14 4 -21 -12 -30 -12 -6 -19
-7 -15 -1 3 6 -8 15 -24 21 -17 5 -30 12 -30 14 0 9 40 0 54 -12 21 -18 20 -2
-1 29 -16 24 -16 24 1 11 9 -8 21 -22 27 -32z m-1582 -9 c6 0 11 -4 11 -10 0
-5 -2 -10 -4 -10 -9 0 -56 47 -56 56 1 5 9 -1 19 -13 11 -13 24 -23 30 -23z
m308 18 c-3 -8 -6 -5 -6 6 -1 11 2 17 5 13 3 -3 4 -12 1 -19z m-444 -62 c10
-8 14 -17 9 -20 -5 -3 -17 3 -27 14 -21 23 -9 26 18 6z m182 4 c3 -5 2 -10 -4
-10 -5 0 -13 5 -16 10 -3 6 -2 10 4 10 5 0 13 -4 16 -10z m1548 -118 c-4 -9
-17 -32 -29 -49 -17 -26 -23 -29 -28 -17 -12 31 -6 44 19 44 20 0 25 5 25 26
0 14 4 23 10 19 5 -3 6 -13 3 -23z m-63 -98 c0 -13 -22 -44 -31 -44 -6 0 -8 4
-4 9 3 5 0 13 -7 17 -8 5 -6 10 8 15 24 10 34 11 34 3z m145 -84 c3 -6 -1 -7
-9 -4 -18 7 -21 14 -7 14 6 0 13 -4 16 -10z m-187 -67 c0 -24 6 -41 18 -50 15
-11 15 -13 2 -13 -8 0 -27 9 -42 21 -27 21 -28 46 -4 76 16 20 26 6 26 -34z
m-1007 -10 c15 -4 17 -8 8 -14 -14 -8 -49 30 -48 53 0 7 4 2 10 -10 5 -13 18
-26 30 -29z m1239 -109 c0 -14 -3 -14 -15 -4 -8 7 -15 14 -15 16 0 2 7 4 15 4
8 0 15 -7 15 -16z m46 -45 c19 -22 19 -22 -3 -8 -13 8 -23 17 -23 21 0 12 6 9
26 -13z m-931 -68 c-3 -11 -2 -22 4 -25 5 -3 8 -14 6 -24 -2 -9 -4 -20 -4 -24
-1 -5 -5 -8 -10 -8 -14 0 -22 31 -12 44 6 7 6 18 1 26 -10 16 -4 30 11 30 6 0
8 -9 4 -19z m512 -58 c-4 -17 -4 -17 -12 0 -4 9 -4 25 0 35 8 16 8 16 12 0 3
-10 3 -26 0 -35z m-532 -43 c10 16 35 12 29 -5 -3 -8 -13 -13 -22 -11 -41 9
-62 19 -62 28 0 6 11 3 24 -6 15 -10 27 -12 31 -6z m465 -30 c0 -11 5 -20 10
-20 6 0 10 7 10 15 0 20 14 19 31 -2 11 -13 13 -29 8 -53 -3 -19 -7 -30 -8
-24 0 6 -19 19 -41 29 -49 22 -54 29 -40 55 14 26 30 26 30 0z m-440 -20 c0
-5 -4 -10 -10 -10 -5 0 -10 5 -10 10 0 6 5 10 10 10 6 0 10 -4 10 -10z m820
-54 c0 -10 -60 -63 -65 -58 -3 3 -18 -7 -34 -22 -18 -17 -34 -25 -42 -21 -8 6
0 14 25 27 20 10 36 23 36 28 0 6 8 10 18 10 9 0 23 9 30 20 11 17 32 28 32
16z m-169 -31 c11 6 11 5 2 -5 -12 -14 -33 -6 -33 13 0 8 3 7 9 -2 5 -8 14
-10 22 -6z m183 -31 c3 -8 2 -12 -4 -9 -6 3 -10 10 -10 16 0 14 7 11 14 -7z
m-694 -20 c28 -9 25 -8 65 -18 17 -4 38 -11 47 -17 10 -5 31 -9 47 -9 16 0 34
-6 40 -14 9 -11 7 -13 -11 -11 -13 1 -24 4 -25 5 -2 1 -6 3 -10 4 -5 2 -27 8
-51 15 -24 7 -57 14 -73 16 -17 2 -37 9 -45 16 -8 6 -14 8 -14 3 0 -4 -5 -3
-11 3 -6 6 -8 17 -4 23 5 7 10 8 14 2 3 -5 17 -13 31 -18z m685 -33 c3 -5 2
-12 -3 -15 -5 -3 -9 1 -9 9 0 17 3 19 12 6z m-395 -40 c0 -15 -14 -20 -26 -10
-18 15 -29 -8 -12 -29 12 -15 11 -16 -4 -3 -10 7 -18 10 -18 7 0 -4 -6 -4 -12
1 -7 4 -16 8 -20 8 -3 0 -9 3 -13 7 -9 8 16 5 31 -5 7 -4 14 0 18 8 3 8 1 15
-4 15 -6 0 -10 4 -10 8 0 4 16 6 35 4 19 -2 35 -7 35 -11z m-25 -70 c-9 -8
-36 -10 -30 -2 2 4 11 8 20 8 8 0 13 -3 10 -6z m62 -48 c-3 -10 -5 -4 -5 12 0
17 2 24 5 18 2 -7 2 -21 0 -30z m-84 -6 c3 -8 1 -20 -4 -28 -5 -8 -9 -9 -10
-4 0 6 -2 18 -4 28 -4 20 10 23 18 4z"/>
<path d="M9540 3500 c0 -5 5 -10 10 -10 6 0 10 5 10 10 0 6 -4 10 -10 10 -5 0
-10 -4 -10 -10z"/>
<path d="M8060 3830 c-9 -6 -10 -10 -3 -10 6 0 15 5 18 10 8 12 4 12 -15 0z"/>
<path d="M5860 3823 c0 -4 5 -15 10 -23 8 -13 10 -13 10 2 0 9 -4 20 -10 23
-5 3 -10 3 -10 -2z"/>
<path d="M9330 3770 c0 -65 23 -112 53 -108 18 2 23 11 25 43 3 45 -30 107
-61 113 -14 3 -17 -5 -17 -48z"/>
<path d="M1975 3791 c-3 -5 -2 -12 3 -15 5 -3 9 1 9 9 0 17 -3 19 -12 6z"/>
<path d="M3387 3789 c7 -7 15 -10 18 -7 3 3 -2 9 -12 12 -14 6 -15 5 -6 -5z"/>
<path d="M5371 3743 c-1 -36 3 -63 9 -63 12 0 12 30 1 85 -8 38 -9 37 -10 -22z"/>
<path d="M7965 3792 c2 -2 -12 -18 -31 -35 -24 -20 -34 -37 -31 -49 3 -10 0
-21 -5 -25 -7 -3 -8 -1 -4 5 13 21 0 13 -42 -26 -23 -21 -35 -39 -27 -39 8 0
12 3 10 6 -2 4 11 15 28 25 18 9 26 12 20 5 -10 -10 -9 -16 4 -31 9 -10 11
-18 5 -18 -6 0 -16 8 -21 18 -9 14 -12 15 -20 2 -5 -8 -7 -18 -5 -22 3 -4 -2
-5 -11 -1 -15 5 -15 3 -4 -15 7 -11 16 -19 20 -16 8 5 22 -14 25 -34 1 -6 -2
-10 -7 -6 -5 3 -7 9 -4 14 3 5 1 11 -5 15 -5 3 -10 -2 -10 -12 0 -14 -5 -11
-21 12 -23 33 -23 37 1 -50 7 -26 16 -18 11 9 -1 5 5 4 13 -4 18 -14 22 -25 6
-15 -13 8 -13 -16 1 -35 9 -13 10 -13 6 2 -6 17 8 19 31 4 7 -4 12 -4 11 1 -3
19 2 34 10 29 13 -8 21 19 10 33 -6 8 -5 8 3 1 19 -16 25 -12 38 20 11 26 10
33 -5 50 -10 11 -13 20 -8 20 6 0 13 -7 17 -15 3 -8 10 -15 16 -15 5 0 10 7
10 15 0 8 5 15 10 15 15 0 12 -12 -9 -39 -10 -14 -17 -31 -14 -38 3 -7 1 -13
-5 -13 -11 0 -56 -80 -44 -80 4 0 0 -5 -8 -10 -8 -5 -16 -18 -16 -30 -1 -20 7
-26 20 -13 13 13 35 11 48 -5 11 -13 11 -14 -2 -7 -24 15 -40 14 -40 -1 0 -9
4 -13 9 -9 5 3 12 1 15 -3 5 -8 -86 -7 -126 2 -18 4 -30 -15 -20 -30 4 -5 91
-7 202 -4 150 3 176 5 112 10 l-84 5 26 30 c15 17 29 41 33 55 3 14 14 41 24
60 32 64 24 117 -24 162 -33 30 -44 28 -58 -9 -9 -26 -33 -27 -35 -2 -2 35 -5
40 -14 34 -6 -4 -10 -3 -9 2 3 18 -1 34 -9 29 -4 -2 -9 5 -9 17 -2 20 -1 20 8
4 6 -9 14 -15 20 -12 5 3 6 0 3 -8 -3 -8 1 -19 8 -25 11 -9 14 -4 14 23 0 18
-5 31 -10 28 -5 -4 -7 3 -3 16 4 18 3 20 -9 10 -12 -9 -13 -9 -9 2 4 10 -1 15
-14 15 -11 0 -18 -2 -16 -4z m-8 -77 c0 -8 -4 -12 -9 -9 -5 3 -6 10 -3 15 9
13 12 11 12 -6z m-7 -69 c0 -6 -7 -1 -15 10 -8 10 -15 23 -15 28 0 6 7 1 15
-10 8 -10 15 -23 15 -28z m184 -36 c4 -18 2 -16 -9 8 -18 38 -27 42 -21 7 3
-14 1 -23 -5 -20 -5 4 -9 20 -9 38 0 29 -1 30 -15 11 -8 -10 -15 -14 -15 -7 0
6 5 15 10 18 6 4 7 12 4 18 -4 7 7 -1 24 -18 16 -16 33 -41 36 -55z"/>
<path d="M6066 3780 c-19 -6 -19 -7 2 -28 12 -12 21 -25 21 -29 -1 -5 16 -16
37 -27 22 -10 46 -24 55 -32 24 -21 30 -5 12 30 -28 55 -93 99 -127 86z"/>
<path d="M3284 3763 c2 -10 -1 -28 -7 -40 -7 -16 -6 -27 3 -38 11 -14 11 -16
-1 -13 -22 5 -24 -51 -2 -68 17 -13 17 -14 -1 -7 -18 6 -19 2 -13 -46 3 -29
11 -59 17 -65 5 -7 6 -16 2 -20 -4 -4 0 -6 8 -4 10 2 15 -4 14 -19 -1 -13 3
-20 7 -17 5 3 6 10 3 16 -4 6 -1 9 7 6 8 -3 14 -14 13 -26 0 -19 1 -19 22 -4
12 10 20 19 19 21 -2 2 2 20 10 40 16 41 25 130 14 137 -4 2 -12 -4 -18 -13
-6 -10 -11 -13 -11 -6 0 6 6 18 14 25 8 8 16 23 18 34 2 10 9 18 15 17 8 -2 9
7 3 27 -12 42 -14 45 -24 42 -5 -2 -13 3 -19 10 -6 9 -7 8 -3 -4 3 -10 1 -18
-5 -18 -6 0 -7 -5 -3 -12 4 -6 3 -8 -4 -5 -5 4 -8 15 -5 26 5 19 -10 28 -54
37 -16 3 -21 0 -19 -13z m40 -1 c2 -4 -5 -9 -17 -9 -17 -2 -19 0 -7 7 18 12
18 12 24 2z m83 -37 c0 -8 -4 -12 -9 -9 -4 3 -8 -2 -8 -11 0 -9 5 -13 10 -10
6 3 10 1 10 -6 0 -14 -63 -4 -68 11 -2 6 -9 7 -14 4 -7 -4 -8 -2 -4 4 5 9 14
7 32 -4 23 -15 24 -15 24 4 0 11 6 23 13 25 6 3 12 6 13 6 0 1 1 -6 1 -14z
m-103 -3 c3 -5 -1 -9 -9 -9 -8 0 -12 4 -9 9 3 4 7 8 9 8 2 0 6 -4 9 -8z m83
-192 c-1 -14 -5 -16 -13 -9 -7 6 -12 19 -11 29 1 14 5 16 13 9 7 -6 12 -19 11
-29z m-73 -32 c-5 -8 11 -12 29 -9 5 1 6 -3 2 -9 -3 -6 -10 -8 -15 -5 -4 3
-11 -1 -13 -7 -3 -8 -6 -6 -6 5 -1 9 -6 16 -12 15 -6 -2 -13 2 -15 7 -2 6 4
11 15 11 11 0 17 -4 15 -8z"/>
<path d="M2210 3754 c-14 -7 -33 -14 -42 -14 -9 0 -20 -5 -23 -10 -4 -6 -10
-8 -15 -5 -19 12 -29 -21 -17 -57 13 -36 13 -36 30 -15 14 17 17 18 17 5 0 -9
-5 -20 -10 -23 -14 -9 -9 -37 9 -51 8 -6 14 -26 14 -43 l0 -32 20 30 c10 17
23 31 27 31 13 0 28 57 35 133 7 73 3 78 -45 51z m-23 -196 c-3 -8 -6 -5 -6 6
-1 11 2 17 5 13 3 -3 4 -12 1 -19z"/>
<path d="M5785 3713 c-42 -55 -50 -81 -39 -131 4 -20 8 -39 8 -42 1 -3 14 -19
29 -36 15 -17 34 -39 43 -50 18 -22 15 -14 -11 39 -12 23 -27 37 -40 38 -19 1
-19 2 -1 6 12 3 25 -3 36 -17 17 -23 17 -23 15 14 -2 19 1 33 6 30 5 -3 6 -10
3 -16 -5 -7 -2 -8 5 -4 7 5 10 15 6 24 -3 9 -3 14 0 10 4 -3 14 0 23 8 10 7
26 21 37 29 11 8 16 15 10 14 -24 -3 -27 2 -9 22 19 22 19 22 -3 8 -16 -9 -21
-20 -17 -34 4 -18 4 -18 -6 -2 -11 17 -13 16 -37 -3 -14 -11 -33 -20 -42 -19
-11 0 -8 3 7 9 12 5 27 21 34 34 6 14 15 23 19 20 5 -3 9 5 9 18 0 18 -2 20
-10 8 -5 -8 -10 -11 -10 -6 0 6 -6 2 -13 -8 -12 -16 -14 -16 -14 -2 0 9 4 16
9 16 4 0 8 7 8 16 0 8 5 12 10 9 6 -3 10 -1 10 4 0 14 -16 14 -41 0 -20 -10
-20 -10 -4 15 29 43 8 29 -30 -21z m-28 -115 c-3 -7 -5 -2 -5 12 0 14 2 19 5
13 2 -7 2 -19 0 -25z m113 18 c0 -2 -8 -10 -17 -17 -16 -13 -17 -12 -4 4 13
16 21 21 21 13z"/>
<path d="M435 3722 c3 -3 0 -11 -7 -19 -8 -11 -7 -12 5 -7 21 7 29 31 11 31
-8 0 -12 -3 -9 -5z"/>
<path d="M463 3707 c-9 -19 -8 -23 8 -23 13 0 15 3 7 13 -7 9 -7 13 1 13 6 0
11 5 11 10 0 18 -17 10 -27 -13z"/>
<path d="M508 3713 c7 -3 16 -2 19 1 4 3 -2 6 -13 5 -11 0 -14 -3 -6 -6z"/>
<path d="M1700 3710 c0 -7 24 -20 36 -20 13 0 1 19 -16 23 -11 3 -20 2 -20 -3z"/>
<path d="M550 3701 c13 -9 10 -15 -18 -41 -18 -16 -30 -30 -26 -30 3 0 24 16
45 35 22 19 35 35 30 35 -5 0 -18 3 -28 6 -15 5 -15 4 -3 -5z"/>
<path d="M5101 3654 c0 -11 3 -14 6 -6 3 7 2 16 -1 19 -3 4 -6 -2 -5 -13z"/>
<path d="M9422 3658 c-7 -7 -12 -18 -12 -25 0 -7 -4 -13 -10 -13 -5 0 -10 -7
-10 -16 0 -8 4 -13 9 -9 5 3 12 1 16 -5 12 -20 71 -11 100 16 l29 27 -23 18
c-26 21 -81 25 -99 7z"/>
<path d="M3413 3645 c-3 -9 -3 -18 -1 -21 3 -3 8 4 11 16 6 23 -1 27 -10 5z"/>
<path d="M4685 3652 c-41 -5 -53 -17 -90 -92 -17 -36 -37 -66 -43 -67 -7 -2
-9 4 -5 15 6 15 5 15 -10 3 -9 -7 -15 -17 -12 -21 3 -5 0 -12 -6 -16 -8 -4 -9
-3 -5 4 4 7 3 12 -3 12 -5 0 -12 -4 -15 -8 -3 -5 -19 -7 -35 -4 -26 4 -32 0
-41 -24 -15 -37 -19 -84 -9 -84 5 0 9 11 9 25 0 15 6 25 14 25 12 0 12 -5 3
-30 -9 -23 -20 -32 -52 -39 l-40 -9 40 0 c22 -1 59 3 83 7 23 5 45 5 48 0 3
-5 -7 -9 -23 -9 -27 -1 -28 -1 -6 -13 17 -9 20 -16 12 -27 -8 -13 -11 -13 -23
3 -7 9 -21 17 -32 17 -17 0 -17 0 1 -13 12 -9 14 -16 7 -21 -12 -7 -35 27 -25
38 3 3 -1 6 -10 6 -9 0 -17 -6 -17 -12 1 -22 26 -48 46 -48 10 0 30 -12 44
-26 33 -35 60 -44 133 -43 l62 1 -41 11 c-23 7 -50 19 -60 27 -10 9 -15 10
-10 3 4 -7 3 -13 -3 -13 -5 0 -12 6 -14 13 -3 7 -6 5 -6 -6 -1 -16 -3 -16 -31
-2 -30 16 -32 35 -4 35 15 0 19 12 7 24 -13 13 -11 35 4 40 12 5 13 9 4 20 -9
11 -5 15 19 19 17 4 30 13 30 21 0 10 -6 13 -17 9 -15 -6 -16 -5 -3 9 8 9 17
12 18 7 10 -25 35 -2 63 56 17 36 34 64 36 61 3 -3 2 -13 -2 -23 -5 -10 -9
-20 -9 -23 -1 -3 -5 -10 -9 -16 -4 -7 1 -18 10 -25 10 -8 14 -9 10 -2 -4 6 -3
14 2 18 6 3 8 12 5 19 -4 9 2 13 18 11 21 -2 24 1 22 26 -1 16 2 27 6 24 4 -3
13 2 20 10 7 8 16 12 21 9 5 -3 9 2 9 11 0 9 -4 14 -9 10 -6 -3 -7 6 -2 22 10
34 -9 59 -29 40 -8 -7 -10 -7 -7 -1 6 11 2 12 -48 6z m26 -25 c-10 -9 -11 -8
-5 6 3 10 9 15 12 12 3 -3 0 -11 -7 -18z m-24 -69 c-3 -7 -5 -2 -5 12 0 14 2
19 5 13 2 -7 2 -19 0 -25z m-127 -88 c0 -5 -2 -10 -4 -10 -3 0 -8 5 -11 10 -3
6 -1 10 4 10 6 0 11 -4 11 -10z m-16 -47 c-7 -31 -21 -50 -29 -41 -5 5 26 68
33 68 1 0 -1 -12 -4 -27z m-34 -143 c-8 -5 -19 -10 -25 -10 -5 0 -3 5 5 10 8
5 20 10 25 10 6 0 3 -5 -5 -10z"/>
<path d="M4818 3643 c7 -3 16 -2 19 1 4 3 -2 6 -13 5 -11 0 -14 -3 -6 -6z"/>
<path d="M9257 3637 c-16 -11 -16 -14 -2 -35 11 -14 26 -22 45 -22 27 0 28 -1
20 -31 -9 -30 -8 -31 17 -24 23 5 52 30 53 45 0 15 -19 32 -30 25 -9 -5 -11
-4 -6 3 10 16 -30 52 -57 52 -13 0 -31 -6 -40 -13z"/>
<path d="M4782 3590 c2 -22 -1 -34 -8 -33 -20 4 -44 -31 -34 -47 8 -12 10 -11
10 7 0 17 5 21 20 18 11 -2 18 0 15 4 -2 5 2 14 10 21 12 10 12 17 3 34 -9 18
-9 19 3 9 11 -9 19 -8 33 3 11 8 15 14 10 14 -6 0 -16 -6 -23 -12 -11 -11 -13
-10 -8 4 4 12 1 16 -14 15 -16 -1 -19 -8 -17 -37z"/>
<path d="M3797 3560 c-3 -11 -2 -22 2 -24 4 -3 8 6 9 20 2 29 -4 31 -11 4z"/>
<path d="M7796 3560 c3 -14 10 -29 15 -34 14 -16 10 6 -7 34 l-15 25 7 -25z"/>
<path d="M1676 3551 c-4 -6 0 -26 9 -43 l15 -32 -49 -43 c-51 -44 -87 -105
-75 -126 4 -6 4 -9 -1 -5 -14 13 -45 -39 -45 -77 0 -33 -2 -36 -15 -25 -9 7
-14 19 -11 27 5 11 1 11 -16 2 -18 -10 -20 -9 -15 5 5 13 3 15 -12 7 -10 -6
-22 -7 -27 -3 -5 4 -3 0 4 -9 6 -9 8 -20 4 -24 -4 -5 1 -6 10 -2 16 6 33 -17
23 -33 -3 -4 2 -11 11 -14 10 -4 13 -13 9 -26 -9 -28 9 -25 25 5 15 28 32 32
50 10 7 -8 30 -18 52 -21 37 -6 39 -8 33 -36 -5 -23 9 -88 19 -88 1 0 25 11
54 25 59 28 82 64 82 125 0 44 0 44 -48 30 l-34 -9 26 26 c15 14 28 36 30 47
2 12 9 46 16 76 17 74 17 137 2 152 -7 7 -30 13 -51 13 -29 0 -37 3 -33 13 3
8 0 17 -5 21 -5 3 -14 14 -20 25 -7 12 -13 15 -17 7z m4 -275 c0 -3 -4 -8 -10
-11 -5 -3 -10 -1 -10 4 0 6 5 11 10 11 6 0 10 -2 10 -4z m-20 -46 c0 -5 -4
-10 -10 -10 -5 0 -10 5 -10 10 0 6 5 10 10 10 6 0 10 -4 10 -10z m-20 -32 c-1
-18 -28 -76 -29 -62 -2 24 12 74 20 74 5 0 9 -6 9 -12z m50 -152 c0 -3 -4 -8
-10 -11 -5 -3 -10 -1 -10 4 0 6 5 11 10 11 6 0 10 -2 10 -4z"/>
<path d="M3851 3554 c-1 -7 -12 -19 -26 -28 -23 -15 -25 -15 -42 3 -15 16 -21
17 -35 7 -16 -12 -16 -14 6 -26 13 -7 29 -9 35 -6 6 4 11 2 11 -3 0 -6 5 -11
11 -11 5 0 8 4 5 9 -3 5 1 11 9 15 8 3 15 1 15 -4 0 -6 8 -5 18 1 10 7 19 18
19 25 0 7 -4 11 -8 8 -4 -2 -10 2 -12 8 -4 8 -6 9 -6 2z m-81 -30 c0 -8 -5
-12 -10 -9 -6 4 -8 11 -5 16 9 14 15 11 15 -7z"/>
<path d="M5866 3538 c3 -4 -1 -8 -9 -8 -22 0 -28 -40 -11 -64 15 -20 15 -20 8
7 -5 21 -1 34 15 51 16 17 18 23 7 23 -8 0 -13 -4 -10 -9z"/>
<path d="M9206 3503 c-4 -9 -2 -20 4 -25 5 -4 8 -5 5 -2 -3 4 0 13 6 20 6 7 6
14 1 18 -6 3 -13 -2 -16 -11z"/>
<path d="M3880 3500 c8 -5 22 -9 30 -9 10 0 8 3 -5 9 -27 12 -43 12 -25 0z"/>
<path d="M4961 3495 c-1 -17 -3 -18 -11 -5 -8 13 -10 12 -10 -3 0 -11 -5 -16
-12 -12 -7 4 -5 0 4 -8 16 -13 16 -15 0 -30 -10 -10 -12 -17 -4 -17 16 0 44
57 39 78 -4 14 -5 13 -6 -3z"/>
<path d="M10134 3492 c4 -3 14 -7 22 -8 9 -1 13 0 10 4 -4 3 -14 7 -22 8 -9 1
-13 0 -10 -4z"/>
<path d="M1040 3481 c0 -10 39 -31 44 -23 2 4 -7 12 -20 19 -13 6 -24 8 -24 4z"/>
<path d="M3878 3473 c7 -3 16 -2 19 1 4 3 -2 6 -13 5 -11 0 -14 -3 -6 -6z"/>
<path d="M7881 3464 c0 -11 3 -14 6 -6 3 7 2 16 -1 19 -3 4 -6 -2 -5 -13z"/>
<path d="M745 3463 c-34 -8 -36 -19 -5 -21 21 -2 30 2 30 13 0 8 -1 14 -2 14
-2 -1 -12 -3 -23 -6z"/>
<path d="M4035 3439 c-10 -15 74 -99 100 -99 20 0 66 36 83 65 4 9 18 17 30
18 12 1 22 4 22 8 0 11 -57 21 -80 14 -27 -8 -103 -9 -129 0 -10 3 -22 1 -26
-6z m106 -69 c6 0 7 -4 4 -10 -13 -22 -25 -8 -24 28 2 30 3 32 6 10 2 -16 9
-28 14 -28z"/>
<path d="M4705 3440 c-3 -5 -2 -10 4 -10 5 0 13 5 16 10 3 6 2 10 -4 10 -5 0
-13 -4 -16 -10z"/>
<path d="M3184 3418 c-12 -7 -39 -23 -62 -35 -22 -12 -46 -28 -53 -36 -8 -7
-30 -24 -49 -37 -94 -65 -130 -103 -130 -135 0 -14 -4 -24 -9 -20 -17 10 -8
-58 10 -76 17 -17 18 -17 16 1 -1 10 -4 17 -8 14 -4 -2 -7 5 -6 15 1 18 3 19
18 5 12 -11 19 -12 24 -4 5 8 11 7 23 -2 15 -12 16 -11 4 4 -23 29 -10 36 62
29 4 -1 6 -8 2 -16 -11 -29 3 -15 29 28 28 48 32 65 12 48 -10 -8 -14 -7 -14
4 0 7 5 13 11 12 6 -1 10 4 8 11 -1 8 2 11 8 7 6 -3 7 -12 3 -18 -4 -7 2 -5
12 3 13 10 19 11 22 4 2 -7 13 -10 23 -7 12 3 20 0 20 -6 0 -7 -4 -9 -10 -6
-5 3 -10 0 -10 -7 0 -8 12 -15 27 -16 15 -1 30 -8 35 -15 6 -9 8 -9 8 1 0 6 7
12 15 12 8 0 15 5 15 11 0 8 4 8 14 0 11 -9 14 -9 13 1 -1 7 2 42 6 78 10 88
-8 154 -43 158 -14 1 -35 -3 -46 -10z m-74 -92 c0 -2 -7 -7 -16 -10 -8 -3 -12
-2 -9 4 6 10 25 14 25 6z m4 -34 c3 -5 -1 -9 -9 -9 -8 0 -12 4 -9 9 3 4 7 8 9
8 2 0 6 -4 9 -8z m70 -21 c-3 -3 -7 -4 -9 -1 -2 3 -15 -6 -29 -19 -25 -23 -26
-23 -26 -4 0 26 4 29 40 29 16 0 27 -2 24 -5z m-14 -31 c0 -6 11 -15 25 -20
14 -5 25 -15 25 -22 0 -9 -3 -10 -8 -2 -4 6 -15 10 -25 8 -11 -1 -16 0 -13 3
3 4 -1 15 -11 25 -9 11 -11 18 -5 18 7 0 12 -5 12 -10z"/>
<path d="M2062 3408 c-17 -17 -15 -28 6 -24 25 5 72 25 72 31 0 10 -66 5 -78
-7z"/>
<path d="M9198 3374 c-8 -7 8 -64 22 -78 16 -16 22 0 15 43 -6 37 -21 51 -37
35z"/>
<path d="M9529 3357 c-19 -12 -42 -38 -52 -57 l-17 -35 42 -12 c32 -8 36 -11
18 -12 -29 -1 -78 -42 -105 -89 -11 -17 -24 -32 -30 -32 -12 0 -55 -78 -55
-98 0 -6 12 -20 28 -32 51 -41 185 -14 240 48 12 14 22 22 22 18 0 -12 55 22
70 43 8 12 18 21 22 21 9 0 23 -41 20 -60 -3 -13 -2 -13 7 0 6 8 11 11 11 5 0
-5 4 -5 10 1 6 6 6 21 1 42 -7 23 -6 30 1 26 6 -4 8 -1 6 7 -3 8 -12 13 -19
11 -8 -2 -6 4 6 18 19 21 19 21 -1 14 -10 -4 -24 -11 -30 -16 -12 -9 -26 5
-37 35 -9 24 -22 21 -45 -8 -11 -14 -24 -25 -30 -25 -6 0 -12 -5 -14 -11 -2
-7 -9 -10 -16 -8 -7 2 8 20 33 39 49 39 55 55 25 65 -20 6 -20 7 5 27 14 10
25 28 25 38 0 14 5 18 18 13 13 -4 11 0 -6 16 -35 34 -109 38 -153 8z m31
-227 c0 -5 -4 -10 -10 -10 -5 0 -10 5 -10 10 0 6 5 10 10 10 6 0 10 -4 10 -10z"/>
<path d="M9292 3326 c-17 -24 -28 -47 -25 -50 4 -3 11 2 17 13 6 10 19 30 30
45 10 15 16 29 13 32 -2 3 -18 -15 -35 -40z"/>
<path d="M7375 3330 c-18 -8 -17 -9 8 -9 15 -1 27 4 27 9 0 12 -8 12 -35 0z"/>
<path d="M4534 3318 c-4 -6 -2 -14 4 -16 7 -2 10 -7 7 -12 -3 -4 1 -10 8 -13
8 -3 14 1 14 9 0 8 -4 14 -8 14 -5 0 -6 7 -3 15 7 18 -12 20 -22 3z"/>
<path d="M8244 3274 c-10 -8 -13 -12 -5 -8 8 4 28 11 45 15 29 6 29 7 5 8 -14
1 -34 -6 -45 -15z"/>
<path d="M2020 3271 c0 -18 43 -61 61 -61 17 0 18 3 8 23 -20 36 -69 64 -69
38z"/>
<path d="M9035 3230 c3 -6 12 -10 19 -10 8 0 26 -6 42 -14 21 -12 32 -12 48
-4 20 11 19 12 -14 19 -89 17 -101 18 -95 9z"/>
<path d="M3100 3178 c-10 -21 -10 -22 3 -5 11 14 16 15 20 5 4 -8 6 -7 6 5 1
24 -16 21 -29 -5z"/>
<path d="M945 3171 c-3 -5 -2 -12 3 -15 5 -3 9 1 9 9 0 17 -3 19 -12 6z"/>
<path d="M7956 3165 c-18 -14 -18 -14 0 -13 11 0 26 -2 35 -6 9 -4 21 -1 28 7
9 12 8 16 -5 21 -12 4 -15 2 -10 -9 6 -17 4 -18 -19 -9 -13 5 -14 8 -3 15 7 5
9 9 3 9 -5 -1 -18 -7 -29 -15z"/>
<path d="M8023 3136 c3 -8 1 -17 -6 -19 -8 -3 -5 -10 8 -21 11 -8 16 -15 10
-16 -15 0 -31 13 -38 30 -4 12 -6 12 -6 -2 -1 -9 -5 -19 -10 -23 -6 -3 -8 3
-6 14 2 14 -1 18 -11 14 -8 -3 -14 1 -14 8 0 7 -3 9 -6 6 -4 -4 1 -17 9 -31
12 -17 22 -23 37 -19 11 3 20 1 20 -5 0 -6 8 -13 18 -15 9 -2 3 -3 -14 0 -43
5 -48 -5 -19 -43 14 -18 25 -37 25 -42 0 -13 87 -45 100 -37 6 3 8 11 4 16 -3
5 -10 7 -15 4 -5 -3 -6 2 -2 11 4 10 2 15 -4 11 -6 -4 -7 7 -3 31 7 42 -7 95
-23 85 -6 -4 -7 -1 -3 6 5 7 0 21 -10 32 -20 22 -49 26 -41 5z"/>
<path d="M8957 3135 c-4 -8 -3 -16 1 -19 4 -3 9 4 9 15 2 23 -3 25 -10 4z"/>
<path d="M940 3131 c0 -6 4 -12 8 -15 5 -3 9 1 9 9 0 8 -4 15 -9 15 -4 0 -8
-4 -8 -9z"/>
<path d="M2967 3129 c7 -7 15 -10 18 -7 3 3 -2 9 -12 12 -14 6 -15 5 -6 -5z"/>
<path d="M3001 3124 c0 -11 3 -14 6 -6 3 7 2 16 -1 19 -3 4 -6 -2 -5 -13z"/>
<path d="M8910 3124 c-14 -9 -40 -37 -57 -62 -18 -26 -40 -57 -49 -69 -19 -27
-20 -26 76 -40 36 -6 66 -6 68 -2 2 5 8 7 13 3 5 -3 9 -1 9 5 0 5 -6 12 -12
14 -10 4 -10 6 0 6 6 1 12 13 12 29 0 15 -4 23 -8 17 -10 -14 -42 -18 -42 -5
0 5 7 10 16 10 9 0 18 9 21 20 3 11 9 18 13 15 14 -9 4 23 -13 43 -9 10 -14
22 -10 25 12 13 -12 7 -37 -9z"/>
<path d="M1370 3120 c0 -6 7 -10 15 -10 8 0 15 2 15 4 0 2 -7 6 -15 10 -8 3
-15 1 -15 -4z"/>
<path d="M2577 3064 l63 -60 -33 -1 c-39 -1 -169 -61 -161 -74 3 -5 2 -9 -3
-8 -20 3 -22 -2 -6 -21 21 -25 34 -26 27 -2 -5 13 -4 14 4 3 6 -8 17 -11 27
-8 9 4 14 3 11 -2 -8 -12 61 -20 149 -18 40 1 71 -1 68 -5 -2 -5 12 -8 32 -8
30 0 34 2 23 14 -7 8 -16 12 -20 9 -5 -2 -8 1 -8 7 0 7 -10 21 -22 32 -20 17
-19 17 7 -1 17 -12 46 -33 66 -46 26 -17 37 -31 37 -49 0 -14 -5 -26 -10 -26
-5 0 -6 -5 -2 -12 5 -8 11 -6 20 7 7 10 11 22 8 26 -3 5 2 6 11 3 12 -5 13
-10 5 -20 -10 -10 -7 -11 14 -1 29 13 29 29 0 37 -19 5 -43 23 -98 74 l-31 28
30 -18 c22 -13 27 -14 18 -2 -7 8 -10 17 -7 20 2 3 -2 8 -10 11 -9 4 -18 2
-21 -3 -12 -19 -25 -9 -21 15 3 13 1 27 -4 30 -5 3 -7 -4 -5 -15 2 -11 1 -20
-4 -20 -7 0 -138 98 -192 143 -14 12 3 -5 38 -39z m108 -104 c10 -11 13 -20 7
-20 -6 0 -16 9 -22 20 -6 11 -9 20 -7 20 2 0 12 -9 22 -20z"/>
<path d="M593 3099 c9 -6 15 -14 12 -20 -4 -5 0 -9 8 -9 8 0 15 -6 14 -12 -1
-36 4 -49 16 -42 6 4 9 4 5 -1 -4 -4 -2 -17 5 -29 6 -11 12 -28 12 -36 0 -17
33 -20 53 -6 17 12 42 72 42 101 0 13 8 26 18 30 23 10 -84 34 -153 34 -39 0
-46 -2 -32 -10z"/>
<path d="M7926 3051 c-3 -4 4 -19 16 -32 16 -18 20 -20 15 -6 -4 10 -7 25 -7
33 0 15 -16 19 -24 5z"/>
<path d="M2037 3020 c-24 -28 -22 -67 4 -81 14 -7 19 -7 15 0 -4 5 5 4 19 -3
31 -16 57 -11 81 15 32 35 -19 64 -67 39 -15 -9 -19 -7 -19 7 0 34 -15 44 -33
23z"/>
<path d="M1635 3020 c3 -5 8 -10 11 -10 2 0 4 5 4 10 0 6 -5 10 -11 10 -5 0
-7 -4 -4 -10z"/>
<path d="M3325 3020 c-3 -6 1 -7 9 -4 18 7 21 14 7 14 -6 0 -13 -4 -16 -10z"/>
<path d="M7920 2998 c13 -16 13 -31 0 -23 -6 4 -9 1 -8 -5 2 -7 -5 -14 -15
-15 -30 -5 -33 -15 -4 -15 35 0 56 36 33 56 -9 8 -11 9 -6 2z"/>
<path d="M3 2951 c0 -28 2 -49 5 -46 3 3 11 0 19 -7 11 -8 12 -7 7 6 -3 9 -2
22 4 29 7 8 4 20 -13 41 l-23 29 1 -52z m37 -5 c0 -3 -4 -8 -10 -11 -5 -3 -10
-1 -10 4 0 6 5 11 10 11 6 0 10 -2 10 -4z"/>
<path d="M7967 2988 c-2 -7 -5 -17 -5 -22 0 -5 -6 -13 -14 -17 -11 -7 -10 -11
2 -19 22 -14 30 -12 24 5 -4 9 0 15 10 15 19 0 20 9 2 33 -10 13 -15 14 -19 5z"/>
<path d="M9395 2950 c-4 -6 -3 -24 0 -42 8 -36 25 -20 25 25 0 27 -13 36 -25
17z"/>
<path d="M10220 2901 c-6 -11 -6 -22 -1 -25 5 -3 11 5 13 19 6 30 2 32 -12 6z"/>
<path d="M8150 2896 c0 -7 7 -19 16 -26 8 -8 20 -22 25 -32 8 -16 2 -14 -33 8
-24 15 -48 34 -55 42 -10 12 -12 11 -10 -6 0 -11 6 -20 12 -19 5 1 9 -6 7 -15
-2 -13 2 -16 14 -11 13 5 15 2 10 -15 -4 -11 -2 -23 4 -27 6 -4 9 -3 8 2 -2 4
1 9 7 10 5 2 10 -7 10 -20 0 -16 7 -23 25 -25 20 -2 22 -1 10 7 -13 9 -13 11
3 11 9 0 17 -4 17 -10 0 -5 7 -7 16 -3 13 5 12 9 -8 31 l-23 26 29 -22 c30
-23 56 -29 56 -13 0 5 10 7 21 4 l22 -6 -24 -17 c-12 -10 -28 -16 -35 -13 -7
3 -19 1 -26 -4 -7 -4 -20 -8 -28 -9 -50 -3 -52 -4 -46 -20 5 -14 4 -15 -9 -4
-13 11 -15 7 -17 -31 0 -24 -2 -48 -3 -54 -2 -5 -3 -16 -4 -24 -1 -11 -4 -11
-18 0 -17 12 -17 12 -2 -5 15 -16 15 -21 2 -47 -28 -57 6 -83 82 -64 39 10 60
24 93 61 24 26 49 59 56 73 14 29 10 154 -5 145 -5 -3 -9 4 -9 15 0 12 -6 21
-12 21 -9 0 -8 4 2 10 12 9 9 15 -20 40 -19 16 -48 32 -65 35 -16 4 -39 9 -50
12 l-20 5 20 -17 c19 -16 19 -16 -7 -1 -33 20 -38 20 -38 2z"/>
<path d="M8858 2900 c-15 -4 -39 -18 -54 -29 -15 -12 -33 -21 -40 -21 -15 0
-39 -38 -30 -48 3 -3 6 0 6 6 0 7 5 12 11 12 5 0 7 -4 4 -10 -12 -20 6 -30 23
-13 16 16 17 15 20 -7 3 -18 6 -20 13 -9 6 10 9 10 9 2 0 -7 5 -13 11 -13 5 0
7 5 4 10 -6 9 0 11 23 9 4 0 9 10 12 22 3 12 11 24 18 27 16 5 16 -25 0 -31
-10 -3 -10 -8 1 -18 8 -8 11 -9 7 -2 -8 14 29 27 46 17 10 -6 10 -5 0 8 -10
12 -10 18 2 27 17 15 29 0 20 -24 -6 -15 -4 -16 15 -6 12 7 25 10 29 7 4 -2 7
7 7 20 0 14 -7 27 -17 30 -10 3 -18 9 -18 13 0 12 -48 31 -73 30 -12 0 -34 -4
-49 -9z"/>
<path d="M699 2898 c-3 -8 -8 -60 -5 -57 16 18 25 49 16 54 -5 3 -11 5 -11 3z"/>
<path d="M2050 2871 c0 -37 19 -69 53 -90 36 -22 77 -28 77 -11 0 15 -50 93
-69 107 -26 20 -61 16 -61 -6z"/>
<path d="M7831 2860 c-9 -28 -8 -35 7 -46 9 -7 21 -14 25 -14 5 0 5 -5 1 -12
-5 -8 0 -9 15 -5 19 5 20 3 9 -11 -8 -9 -8 -13 -1 -9 6 4 14 1 16 -5 3 -7 6
-3 6 8 1 12 -6 27 -14 34 -9 7 -14 19 -11 26 3 8 0 13 -6 11 -7 -1 -12 3 -13
8 0 6 -5 18 -11 29 -10 17 -12 15 -23 -14z m11 -22 c-8 -8 -9 -4 -5 13 4 13 8
18 11 10 2 -7 -1 -18 -6 -23z"/>
<path d="M3260 2871 c0 -5 9 -7 20 -4 11 3 20 7 20 9 0 2 -9 4 -20 4 -11 0
-20 -4 -20 -9z"/>
<path d="M2400 2858 c0 -13 64 -69 108 -96 33 -19 46 -22 52 -12 4 7 10 8 13
3 5 -8 33 -9 80 -4 4 1 7 6 7 12 0 8 -4 8 -13 0 -10 -8 -14 -7 -14 3 0 19 24
14 42 -10 8 -10 15 -15 15 -10 0 5 8 2 17 -5 9 -8 14 -9 11 -4 -3 6 0 16 8 23
9 8 14 9 14 2 0 -6 5 -8 10 -5 6 4 7 11 4 17 -4 7 -2 8 4 4 6 -4 9 -13 6 -20
-6 -17 12 -31 21 -16 4 6 10 8 14 5 5 -2 6 7 3 22 -3 17 0 29 12 35 14 8 14
11 2 24 -18 18 -50 19 -40 2 4 -7 -1 -5 -12 4 -26 22 -187 36 -210 17 -12 -10
-15 -10 -12 2 2 11 -12 14 -69 14 -40 0 -73 -3 -73 -7z m54 -19 c-3 -5 -10 -7
-15 -3 -5 3 -7 10 -3 15 3 5 10 7 15 3 5 -3 7 -10 3 -15z m51 -11 l-6 -23 13
22 c13 22 14 22 26 3 10 -16 9 -18 -3 -14 -8 4 -15 1 -15 -5 0 -13 -46 -15
-54 -2 -10 16 6 41 26 41 15 0 18 -5 13 -22z m73 -51 c6 -5 12 -15 12 -21 0
-6 -5 -3 -11 7 -5 9 -17 17 -25 17 -8 0 -12 -4 -9 -10 3 -5 2 -10 -3 -10 -12
0 -23 26 -15 33 6 7 33 -2 51 -16z m131 7 c4 3 8 -1 8 -9 0 -8 -3 -13 -5 -10
-3 3 -12 -1 -21 -7 -9 -7 -13 -8 -9 -4 4 5 2 16 -5 24 -9 13 -9 14 1 8 7 -4
12 -2 13 6 0 10 2 10 6 0 2 -6 8 -10 12 -8z m-93 -9 c-1 -8 -5 -17 -8 -21 -5
-4 -4 16 1 34 3 9 9 -1 7 -13z"/>
<path d="M2477 2833 c-10 -9 -9 -23 2 -23 5 0 11 7 15 15 5 15 -5 20 -17 8z"/>
<path d="M8040 2846 c0 -2 8 -10 18 -17 15 -13 16 -12 3 4 -13 16 -21 21 -21
13z"/>
<path d="M9035 2841 c-6 -11 13 -26 22 -17 4 3 1 6 -6 6 -7 0 -9 5 -6 10 3 6
4 10 1 10 -3 0 -7 -4 -11 -9z"/>
<path d="M8945 2830 c-3 -5 -1 -10 4 -10 6 0 11 5 11 10 0 6 -2 10 -4 10 -3 0
-8 -4 -11 -10z"/>
<path d="M7916 2821 c-3 -5 1 -11 9 -14 9 -4 12 -1 8 9 -6 16 -10 17 -17 5z"/>
<path d="M8089 2808 c11 -15 11 -21 0 -35 -11 -15 -11 -16 1 -5 19 16 31 15
24 -3 -4 -9 0 -15 8 -15 34 0 25 19 -27 60 -19 14 -19 14 -6 -2z"/>
<path d="M8347 2805 c3 -8 9 -12 14 -9 12 7 11 11 -5 17 -10 4 -13 1 -9 -8z"/>
<path d="M9280 2781 c0 -5 7 -14 15 -21 12 -10 15 -10 15 3 0 8 -7 17 -15 21
-8 3 -15 2 -15 -3z"/>
<path d="M7847 2762 c-3 -4 3 -18 14 -31 10 -13 19 -19 19 -13 0 5 -7 15 -15
22 -8 7 -12 16 -9 21 3 5 3 9 0 9 -3 0 -7 -3 -9 -8z"/>
<path d="M7920 2756 c0 -8 4 -17 9 -20 5 -4 7 3 4 14 -6 23 -13 26 -13 6z"/>
<path d="M1992 2725 c-45 -20 -92 -54 -92 -67 0 -6 6 -6 15 2 13 11 14 10 10
-2 -4 -9 0 -18 9 -21 9 -4 15 -1 13 5 -1 6 4 13 12 16 8 3 11 0 7 -7 -4 -6 -2
-11 4 -11 7 0 9 -7 6 -16 -5 -13 -1 -14 22 -10 36 8 104 16 173 20 31 2 65 9
77 15 14 7 23 8 27 1 4 -6 11 -8 16 -4 5 3 7 9 4 14 -3 5 0 12 6 16 8 4 9 3 5
-4 -4 -7 -1 -12 8 -12 30 0 16 16 -37 44 -46 23 -69 28 -153 32 -73 3 -108 0
-132 -11z m283 -35 c3 -5 2 -10 -4 -10 -5 0 -13 5 -16 10 -3 6 -2 10 4 10 5 0
13 -4 16 -10z m-255 -54 c0 -2 -7 -6 -15 -10 -8 -3 -15 -1 -15 4 0 6 7 10 15
10 8 0 15 -2 15 -4z"/>
<path d="M8110 2701 c0 -17 2 -31 4 -31 8 0 13 51 5 56 -5 3 -9 -9 -9 -25z"/>
<path d="M1121 2704 c0 -11 3 -14 6 -6 3 7 2 16 -1 19 -3 4 -6 -2 -5 -13z"/>
<path d="M1360 2690 c0 -5 7 -7 15 -4 8 4 15 8 15 10 0 2 -7 4 -15 4 -8 0 -15
-4 -15 -10z"/>
<path d="M9987 2685 c-4 -8 -2 -17 3 -20 6 -4 10 3 10 14 0 25 -6 27 -13 6z"/>
<path d="M3430 2686 c0 -3 9 -10 20 -16 11 -6 20 -8 20 -6 0 3 -9 10 -20 16
-11 6 -20 8 -20 6z"/>
<path d="M7801 2671 c-1 -31 37 -98 60 -104 15 -4 16 -1 9 19 -6 14 -6 26 1
29 5 4 6 11 3 17 -4 6 -7 20 -8 31 -1 11 -7 22 -15 25 -8 3 -11 0 -8 -5 3 -5
1 -15 -5 -23 -8 -12 -9 -12 -4 2 3 10 1 20 -4 23 -6 4 -10 -2 -11 -12 0 -16
-1 -16 -9 2 -8 19 -9 18 -9 -4z"/>
<path d="M10063 2661 c0 -11 5 -18 9 -15 4 3 5 11 1 19 -7 21 -12 19 -10 -4z"/>
<path d="M8430 2657 c0 -7 4 -18 9 -25 7 -11 9 -10 15 3 3 9 11 13 17 9 7 -4
9 -3 6 3 -10 16 -47 23 -47 10z"/>
<path d="M3673 2645 c0 -8 4 -12 8 -10 3 3 9 -4 12 -15 3 -11 11 -20 19 -19
10 0 10 2 1 6 -7 2 -13 10 -13 18 0 7 -6 18 -13 24 -10 8 -14 7 -14 -4z"/>
<path d="M2299 2640 c-6 -4 -20 -5 -32 -2 -16 4 -19 2 -14 -11 3 -8 0 -18 -8
-21 -9 -3 -12 0 -8 10 3 9 -2 14 -15 14 -11 0 -22 -7 -26 -15 -3 -8 -2 -14 2
-13 16 3 41 -15 35 -26 -4 -6 2 -4 12 4 17 14 18 13 12 -3 -5 -14 -3 -16 11
-8 24 13 72 58 72 69 0 10 -25 11 -41 2z"/>
<path d="M8500 2628 c-12 -22 -12 -22 6 -6 10 10 15 20 12 24 -4 3 -12 -5 -18
-18z"/>
<path d="M2150 2610 c8 -5 20 -10 25 -10 6 0 3 5 -5 10 -8 5 -19 10 -25 10 -5
0 -3 -5 5 -10z"/>
<path d="M3447 2599 c4 -15 8 -17 19 -8 18 15 18 16 -5 22 -14 3 -17 0 -14
-14z"/>
<path d="M3640 2606 c0 -2 7 -7 16 -10 8 -3 12 -2 9 4 -6 10 -25 14 -25 6z"/>
<path d="M2030 2590 c-18 -6 -20 -8 -7 -9 22 -1 43 -21 41 -38 -3 -26 -5 -27
-14 -7 -5 12 -19 23 -33 26 -23 4 -23 3 -17 -34 l7 -38 -21 22 c-13 13 -20 28
-18 33 3 6 1 6 -4 2 -5 -5 -9 -12 -9 -15 0 -4 -4 -13 -9 -21 -6 -10 -5 -12 3
-7 6 4 14 0 17 -8 3 -9 12 -16 19 -16 29 0 27 -24 -4 -49 -30 -24 -31 -29 -23
-66 5 -24 14 -40 22 -40 9 0 14 -9 13 -22 -2 -12 8 -34 22 -49 14 -15 22 -31
18 -37 -4 -6 -1 -7 6 -2 9 5 10 10 2 18 -13 13 -15 30 -2 23 5 -3 16 15 25 40
13 39 13 48 1 60 -7 8 -18 14 -23 14 -13 0 -46 39 -39 46 8 8 59 -23 70 -43
12 -20 52 -16 100 9 23 13 51 26 62 30 14 5 11 7 -12 5 -26 -3 -30 -1 -22 10
9 10 7 13 -10 13 -11 0 -21 5 -21 10 0 6 -6 10 -14 10 -23 0 -29 20 -12 39 17
19 22 36 7 27 -8 -5 -25 29 -22 46 0 4 -11 3 -25 -2 -33 -13 -37 -13 -28 2 4
6 3 8 -4 4 -6 -3 -13 -2 -16 3 -4 5 2 12 11 14 12 3 13 5 3 5 -8 0 -26 -4 -40
-8z m98 -56 c2 -14 1 -16 -6 -6 -5 8 -12 13 -16 13 -23 -3 -30 0 -16 9 20 13
34 7 38 -16z m-98 -9 c11 -13 10 -14 -4 -9 -9 3 -16 10 -16 15 0 13 6 11 20
-6z m4 -237 c-3 -4 1 -8 8 -9 10 0 10 -2 1 -6 -23 -9 -26 -8 -28 8 -2 9 3 16
11 16 7 0 11 -4 8 -9z"/>
<path d="M3130 2580 c6 -11 15 -20 21 -20 6 0 6 7 -1 20 -6 11 -15 20 -21 20
-6 0 -6 -7 1 -20z"/>
<path d="M3480 2585 c-11 -13 -10 -14 4 -9 9 3 16 10 16 15 0 13 -6 11 -20 -6z"/>
<path d="M1816 2572 c-8 -24 -3 -37 12 -31 4 2 5 15 2 29 l-6 25 -8 -23z"/>
<path d="M2174 2565 c-18 -14 -18 -14 4 -8 12 3 22 9 22 14 0 12 -3 11 -26 -6z"/>
<path d="M2806 2572 c-2 -4 -1 -14 5 -22 7 -12 9 -10 9 8 0 23 -5 28 -14 14z"/>
<path d="M3526 2565 c10 -8 23 -15 28 -15 6 0 1 7 -10 15 -10 8 -23 15 -28 15
-6 0 -1 -7 10 -15z"/>
<path d="M8085 2570 c-3 -5 -1 -10 4 -10 6 0 11 5 11 10 0 6 -2 10 -4 10 -3 0
-8 -4 -11 -10z"/>
<path d="M3517 2539 c12 -12 24 -21 27 -18 2 2 -8 13 -22 23 l-27 19 22 -24z"/>
<path d="M2190 2540 c-8 -5 -10 -10 -5 -10 6 0 17 5 25 10 8 5 11 10 5 10 -5
0 -17 -5 -25 -10z"/>
<path d="M8521 2524 c-1 -6 5 -17 12 -23 10 -8 14 -7 14 4 0 8 -4 12 -8 9 -4
-2 -10 2 -12 8 -4 8 -6 9 -6 2z"/>
<path d="M8564 2508 c1 -13 -5 -28 -14 -35 -18 -15 -34 -17 -25 -4 3 5 0 13
-7 17 -7 4 -10 4 -6 -1 9 -9 -11 -37 -21 -30 -4 2 -5 -10 -3 -26 4 -29 5 -30
26 -12 21 18 21 18 3 -4 -12 -14 -15 -23 -8 -28 6 -3 11 -11 11 -17 0 -5 -9 0
-20 13 -17 21 -19 22 -20 6 0 -11 -5 -15 -11 -11 -8 5 -8 1 0 -14 6 -11 16
-23 23 -25 8 -3 6 -6 -4 -6 -10 -1 -18 4 -18 9 0 6 -6 9 -12 8 -7 -2 -12 5
-12 14 1 10 -1 17 -5 16 -3 -1 -26 2 -51 6 -32 5 -58 3 -90 -9 -25 -9 -67 -23
-93 -31 -39 -12 -47 -19 -42 -32 4 -9 16 -39 26 -67 10 -27 30 -60 44 -72 27
-24 69 -30 80 -12 4 6 13 8 21 5 8 -3 14 -1 14 4 0 5 10 12 22 16 25 8 48 28
48 42 0 14 83 21 93 8 6 -8 10 -7 14 1 4 10 9 10 26 1 28 -15 34 -17 137 -34
100 -17 218 -27 230 -19 4 3 -12 26 -37 51 -38 40 -49 45 -76 41 -21 -3 -46 4
-76 19 -24 13 -53 24 -65 24 -23 -1 -59 -24 -51 -32 12 -12 -33 -1 -67 17 -43
21 -50 38 -13 29 24 -6 26 -5 19 21 -5 20 -4 26 5 21 15 -10 14 7 -1 23 -11
10 -10 11 3 6 14 -5 16 3 15 54 -1 33 -5 63 -8 66 -3 3 -5 -5 -4 -17z m2 -58
c0 -11 -5 -21 -12 -24 -9 -3 -13 27 -5 42 5 10 17 -2 17 -18z m-40 -2 c4 -7 3
-8 -4 -4 -7 4 -12 2 -12 -5 0 -7 -3 -10 -6 -6 -6 5 3 27 11 27 2 0 7 -5 11
-12z"/>
<path d="M3578 2503 c6 -2 9 -10 6 -15 -4 -7 -2 -8 5 -4 13 9 5 26 -12 25 -9
0 -8 -2 1 -6z"/>
<path d="M954 2454 c-26 -29 -41 -54 -39 -65 2 -11 0 -19 -6 -19 -5 0 -9 -7
-9 -15 0 -8 5 -15 10 -15 6 0 4 -14 -5 -32 -12 -26 -13 -29 -1 -15 10 13 15
15 18 5 8 -21 80 61 89 101 12 52 11 101 -3 101 -6 0 -30 -21 -54 -46z"/>
<path d="M0 2364 c0 -54 4 -82 15 -94 12 -13 13 -23 3 -51 -6 -20 -13 -138
-15 -280 -4 -216 -2 -247 11 -252 9 -4 15 -3 15 1 -3 19 2 25 11 12 8 -13 13
-12 37 7 15 11 27 28 27 37 -1 9 2 14 6 11 4 -2 12 7 18 20 7 14 16 25 21 25
15 0 39 -28 46 -53 12 -43 40 -95 56 -105 15 -9 14 -5 -2 39 -25 66 -24 69 15
69 43 0 60 20 52 63 -9 51 -46 79 -103 82 -57 2 -59 6 -43 106 7 49 7 75 0 84
-5 6 -8 14 -6 16 6 6 -27 98 -50 138 -10 19 -31 49 -46 66 -16 18 -28 37 -28
41 0 5 4 3 9 -5 6 -9 13 1 25 35 19 58 19 54 1 54 -8 0 -15 -6 -15 -14 0 -8
-11 -13 -26 -13 -17 0 -24 4 -20 13 3 7 1 16 -4 19 -6 4 -10 -24 -10 -71z m71
-156 c7 -13 20 -29 31 -36 20 -14 25 -52 6 -52 -6 0 -3 -9 8 -21 14 -15 15
-20 4 -17 -8 2 -18 7 -21 12 -4 5 -10 -5 -14 -23 -6 -29 -14 -35 -42 -32 -7 1
-13 -3 -13 -10 0 -10 26 -10 70 2 11 3 15 -5 15 -31 0 -26 5 -37 20 -42 14 -4
8 -6 -19 -7 -22 -1 -53 4 -70 10 l-31 11 7 115 c3 63 9 121 12 129 8 21 24 17
37 -8z m6 -301 c16 -12 7 -27 -16 -27 -22 0 -45 25 -37 39 7 11 32 5 53 -12z"/>
<path d="M2240 2389 c0 -5 -3 -8 -8 -5 -4 2 -23 -3 -42 -12 -37 -16 -44 -19
-60 -21 -15 -2 -12 -18 6 -25 8 -3 13 -2 10 3 -3 5 3 11 14 14 18 5 25 -4 21
-26 -1 -5 3 -6 8 -3 5 3 7 15 4 25 -3 10 1 22 8 26 8 5 10 4 5 -3 -4 -7 -3
-19 1 -27 7 -12 14 -7 31 25 11 22 17 40 11 40 -5 0 -9 -5 -9 -11z"/>
<path d="M2253 2363 c-3 -10 -8 -22 -11 -27 -3 -5 0 -6 6 -2 18 11 35 46 22
46 -6 0 -13 -8 -17 -17z"/>
<path d="M2089 2323 c-6 -35 -4 -50 5 -50 6 0 19 -4 28 -8 20 -8 19 9 -2 43
-15 22 -29 29 -31 15z m37 -40 c-7 -7 -26 7 -26 19 0 6 6 6 15 -2 9 -7 13 -15
11 -17z"/>
<path d="M1975 2310 c-3 -5 -1 -10 4 -10 6 0 11 5 11 10 0 6 -2 10 -4 10 -3 0
-8 -4 -11 -10z"/>
<path d="M3075 2278 c4 -18 11 -40 16 -48 7 -13 8 -13 9 1 0 32 -13 79 -22 79
-6 0 -7 -14 -3 -32z"/>
<path d="M2195 2290 c-3 -5 -2 -10 4 -10 5 0 13 5 16 10 3 6 2 10 -4 10 -5 0
-13 -4 -16 -10z"/>
<path d="M9710 2286 c0 -2 8 -10 18 -17 15 -13 16 -12 3 4 -13 16 -21 21 -21
13z"/>
<path d="M8151 2255 c0 -18 28 -61 29 -44 0 8 -7 24 -15 35 -8 10 -14 15 -14
9z"/>
<path d="M394 2174 c1 -35 -17 -51 -21 -18 -3 18 -2 18 6 -1 8 -16 10 -17 10
-3 1 9 -4 20 -10 24 -13 8 -30 -16 -22 -30 3 -5 1 -6 -5 -2 -14 8 0 41 20 49
7 3 3 6 -9 6 -12 1 -32 -9 -44 -21 -12 -13 -19 -17 -15 -10 4 6 3 12 -2 12 -6
0 -12 -7 -16 -15 -3 -8 -11 -15 -19 -15 -7 0 -27 -15 -45 -33 -36 -37 -44 -95
-17 -117 10 -9 15 -9 15 -1 0 6 4 11 10 11 5 0 7 -6 4 -14 -9 -23 44 -34 115
-25 62 9 85 20 150 78 13 11 32 21 41 21 21 0 53 61 48 93 -3 24 -45 34 -45
11 0 -7 5 -12 10 -11 5 1 11 -4 13 -11 1 -7 0 -8 -2 -3 -3 5 -14 7 -24 4 -11
-3 -18 -9 -15 -13 3 -4 -4 -10 -15 -13 -24 -6 -26 11 -3 28 13 9 13 14 3 20
-9 6 -11 4 -5 -5 6 -10 4 -12 -8 -7 -10 3 -17 2 -17 -2 0 -5 -8 -12 -17 -16
-14 -5 -15 -3 -6 6 14 14 -13 47 -44 53 -16 4 -19 -1 -19 -30z m50 1 c3 -10
-1 -15 -12 -15 -13 0 -14 -2 -4 -9 7 -4 12 -12 11 -17 -4 -23 3 -26 21 -9 16
14 20 15 20 4 0 -8 -15 -20 -33 -27 -39 -14 -58 -15 -38 -3 16 10 24 41 11 41
-4 0 -10 11 -12 25 -4 19 -1 25 12 25 10 0 20 -7 24 -15z m-54 -94 c0 -5 -9
-11 -21 -14 -16 -4 -18 -3 -8 9 13 16 29 19 29 5z m-60 -30 c0 -5 -8 -11 -17
-14 -10 -2 -26 -8 -35 -12 -11 -4 -18 -3 -18 5 0 6 4 9 9 6 4 -3 17 1 27 9 22
17 34 19 34 6z"/>
<path d="M2602 2173 c-16 -16 -8 -83 10 -83 6 0 8 12 4 33 -4 19 -3 27 3 19 6
-10 10 -7 15 13 4 15 5 30 1 33 -3 3 -5 -3 -6 -14 0 -16 -1 -17 -7 -3 -6 15
-9 15 -20 2z"/>
<path d="M8681 2169 c0 -9 -8 -22 -16 -29 -8 -6 -13 -17 -12 -23 1 -7 -2 -11
-8 -11 -71 11 -93 11 -105 4 -13 -8 -13 -13 0 -37 12 -21 25 -29 50 -31 25 -3
30 -6 19 -13 -11 -7 -8 -9 10 -9 13 0 39 10 59 22 l35 21 -24 19 c-12 11 -24
26 -25 33 -3 19 22 39 31 25 3 -5 2 -10 -3 -10 -5 0 -9 -6 -9 -14 0 -8 5 -14
11 -13 6 1 10 -4 9 -10 -2 -7 2 -13 7 -13 13 0 13 13 0 26 -8 8 -6 15 4 23 12
10 14 9 9 -9 -4 -16 0 -23 16 -27 11 -3 21 -10 21 -15 0 -5 -9 -7 -20 -3 -15
5 -18 3 -14 -8 3 -8 13 -18 22 -21 9 -3 24 -9 32 -12 13 -5 13 -4 0 5 -13 9
-12 11 3 11 39 0 88 33 107 71 11 21 20 40 20 41 0 2 -35 5 -77 6 -43 2 -85 5
-94 8 -9 2 -24 -2 -32 -11 -14 -13 -16 -13 -20 3 -4 14 -5 14 -6 1z"/>
<path d="M2634 2123 c-3 -10 -9 -25 -14 -34 -4 -9 -2 -25 6 -40 13 -24 13 -24
14 -2 0 13 11 30 25 39 26 17 26 17 6 35 -25 23 -30 24 -37 2z"/>
<path d="M2650 2055 c0 -6 6 -17 13 -24 8 -10 8 -12 0 -7 -6 3 -14 2 -18 -4
-3 -5 -1 -10 5 -10 6 0 8 -5 4 -12 -5 -8 0 -7 11 2 10 8 20 14 22 12 3 -2 7
-1 11 2 3 3 0 6 -7 6 -7 0 -10 4 -7 8 2 4 1 14 -5 22 -7 13 -9 13 -9 0 0 -13
-1 -13 -10 0 -5 8 -10 10 -10 5z"/>
<path d="M8823 2048 c-34 -16 -28 -29 7 -17 17 6 30 15 30 20 0 11 -9 11 -37
-3z"/>
<path d="M9130 2040 c0 -5 5 -10 10 -10 6 0 10 5 10 10 0 6 -4 10 -10 10 -5 0
-10 -4 -10 -10z"/>
<path d="M8810 2003 c-42 -13 -60 -28 -60 -49 0 -13 5 -26 10 -29 6 -4 -4 -21
-22 -39 -36 -36 -78 -85 -78 -92 0 -2 12 -4 26 -4 16 0 23 -4 18 -12 -4 -7 -3
-8 4 -4 11 7 26 10 84 21 23 4 26 2 23 -15 -2 -12 0 -18 6 -15 5 4 7 11 4 16
-4 5 -1 9 4 9 6 0 11 -6 11 -14 0 -21 49 -27 60 -7 8 14 9 14 10 -1 0 -10 4
-18 9 -18 16 0 41 12 41 19 0 11 -79 33 -90 26 -6 -3 -10 -2 -10 3 0 5 -8 9
-17 9 -10 0 -27 1 -38 2 l-20 2 20 8 c23 9 81 3 107 -10 9 -5 33 -9 52 -9 40
0 40 0 25 -34 -9 -20 -9 -29 2 -43 11 -15 11 -16 -1 -5 -8 6 -22 12 -31 12
-19 0 -35 -30 -21 -39 5 -3 15 -17 21 -31 13 -24 12 -24 -12 3 -26 29 -42 36
-34 13 4 -11 1 -13 -10 -9 -13 5 -15 2 -11 -15 4 -12 2 -25 -3 -28 -5 -3 -8 0
-7 7 2 6 -3 14 -10 16 -10 4 -10 -1 -1 -21 7 -14 17 -23 23 -19 6 3 8 3 4 -2
-4 -4 2 -23 13 -41 11 -19 18 -38 15 -43 -4 -5 -2 -12 4 -16 5 -3 10 -13 10
-21 0 -8 -5 -12 -11 -9 -6 4 -8 10 -5 13 3 3 1 11 -6 19 -6 7 -8 16 -5 19 3 3
-3 14 -14 25 -22 22 -34 25 -23 7 4 -7 3 -9 -1 -5 -14 12 -15 38 -2 31 7 -3 4
1 -5 9 -10 8 -15 17 -11 20 3 4 1 7 -5 7 -19 0 -19 -24 -1 -54 10 -16 16 -33
13 -38 -3 -4 -1 -8 5 -8 5 0 12 6 15 13 3 6 3 2 0 -11 -3 -13 0 -29 6 -37 6
-8 9 -19 5 -25 -9 -15 -25 -12 -19 3 2 7 -4 22 -16 32 -11 10 -20 24 -20 31 0
7 -4 15 -9 18 -5 3 -8 -5 -7 -18 0 -13 3 -23 6 -21 3 2 11 -3 17 -11 8 -8 9
-15 3 -19 -11 -7 -50 12 -63 29 -6 7 -7 6 -5 -3 2 -8 13 -19 24 -25 10 -6 22
-15 27 -21 4 -6 10 -5 16 3 7 11 9 11 14 -1 3 -9 25 -18 50 -22 35 -5 53 -2
88 15 54 28 168 132 191 174 20 38 24 92 10 127 -29 71 -36 110 -22 119 8 5
17 6 20 3 3 -3 -1 -8 -7 -10 -13 -5 -18 -33 -7 -33 4 0 13 8 21 18 8 9 12 11
8 5 -4 -9 -1 -11 11 -6 23 9 -4 30 -116 89 -32 16 -51 38 -26 28 11 -4 16 0
16 14 0 13 -8 21 -24 24 -26 5 -45 -17 -23 -26 9 -3 9 -5 0 -5 -6 -1 -19 9
-27 21 -16 22 -16 22 -16 1 0 -25 15 -39 53 -48 15 -4 27 -11 27 -16 0 -12
-27 -12 -34 0 -4 5 -60 8 -126 6 -66 -1 -122 0 -124 4 -1 3 0 17 5 31 l7 25 1
-27 c1 -21 5 -25 20 -21 23 6 24 43 1 43 -13 0 -13 1 0 10 13 9 13 10 0 9 -8
0 -22 -3 -30 -6z m165 -83 c3 -5 1 -10 -4 -10 -6 0 -11 5 -11 10 0 6 2 10 4
10 3 0 8 -4 11 -10z m148 -10 c3 -10 2 -19 -2 -18 -20 2 -31 -4 -31 -19 -1
-17 -1 -17 -11 0 -8 13 -14 15 -29 7 -13 -7 -21 -7 -26 2 -4 7 -3 8 4 4 7 -4
12 -2 12 5 0 6 -8 9 -20 6 -11 -3 -22 -1 -25 3 -3 5 17 7 44 5 35 -3 53 1 62
11 15 18 16 18 22 -6z m-93 -46 c14 -1 28 -3 32 -3 3 -1 4 -10 1 -20 -3 -13
-10 -18 -21 -14 -12 5 -14 1 -9 -16 3 -15 1 -21 -6 -18 -7 2 -11 14 -10 26 2
11 -1 21 -5 22 -4 0 -20 3 -35 5 -21 4 -27 2 -21 -7 4 -8 3 -9 -5 -5 -6 4 -9
11 -6 16 3 5 -4 12 -17 14 -59 13 -58 15 7 9 39 -3 81 -7 95 -9z m-143 -89 c0
-8 -4 -12 -9 -9 -4 3 -8 9 -8 15 0 5 4 9 8 9 5 0 9 -7 9 -15z"/>
<path d="M2690 1972 c6 -13 14 -21 18 -18 3 4 -2 14 -12 24 -18 16 -18 16 -6
-6z"/>
<path d="M8710 1960 c0 -5 6 -10 13 -10 8 0 8 -3 2 -8 -13 -9 -13 -32 0 -32 5
0 11 13 13 30 2 22 -1 30 -12 30 -9 0 -16 -4 -16 -10z"/>
<path d="M9234 1898 c-4 -7 -4 -10 1 -6 4 4 14 0 21 -10 7 -9 14 -12 14 -6 0
6 -6 17 -14 23 -11 9 -16 9 -22 -1z"/>
<path d="M9950 1872 c0 -8 -24 -10 -131 -12 -52 0 -70 -5 -84 -20 -16 -18 -16
-18 5 -13 11 3 20 2 19 -3 -4 -22 2 -35 14 -28 9 5 9 4 1 -5 -13 -14 -7 -51 8
-51 6 0 8 7 5 14 -4 10 -1 13 9 9 8 -3 13 -12 10 -20 -3 -8 -6 -19 -6 -24 0
-5 -7 -9 -15 -9 -8 0 -15 -5 -15 -11 0 -5 5 -7 10 -4 6 3 10 1 10 -4 0 -6 7
-11 15 -11 8 0 15 -5 15 -11 0 -5 5 -7 10 -4 6 3 10 2 10 -4 0 -5 -6 -12 -12
-14 -8 -3 -6 -6 5 -6 9 -1 17 -7 17 -13 0 -8 8 -4 17 7 15 19 15 19 9 -10 -6
-27 -5 -28 7 -12 20 25 37 21 37 -8 0 -22 19 -37 21 -17 0 4 2 18 5 32 8 52
17 260 10 260 -3 0 -6 -4 -6 -8z"/>
<path d="M10094 1856 c11 -9 24 -16 30 -16 12 0 7 5 -24 19 -24 11 -24 11 -6
-3z"/>
<path d="M2966 1815 c-9 -26 -7 -32 5 -12 6 10 9 21 6 23 -2 3 -7 -2 -11 -11z"/>
<path d="M9636 1803 c-2 -10 -8 -34 -11 -53 -4 -19 -11 -40 -16 -46 -6 -8 -5
-14 4 -17 24 -9 32 6 35 71 4 60 -2 80 -12 45z"/>
<path d="M2936 1791 c-3 -5 1 -11 9 -14 9 -4 12 -1 8 9 -6 16 -10 17 -17 5z"/>
<path d="M8775 1729 c-3 -4 2 -6 10 -5 21 3 28 13 10 13 -9 0 -18 -4 -20 -8z"/>
<path d="M8828 1719 c-17 -18 -17 -19 2 -19 11 0 20 -4 20 -10 0 -18 22 -10
27 9 3 12 11 17 19 14 8 -3 14 0 14 7 0 7 -8 10 -20 7 -10 -3 -21 0 -24 7 -3
6 -3 -1 -1 -17 2 -16 0 -25 -6 -22 -5 4 -6 11 -3 17 4 7 2 8 -4 4 -8 -5 -10
-2 -6 8 8 20 3 19 -18 -5z"/>
<path d="M8645 1669 c-4 -6 -5 -12 -2 -15 2 -3 7 2 10 11 7 17 1 20 -8 4z"/>
<path d="M8783 1657 c-3 -6 -1 -7 5 -3 6 3 17 0 24 -7 11 -12 16 -12 26 0 7 7
9 14 5 14 -36 6 -54 5 -60 -4z"/>
<path d="M186 1620 c-17 -44 -30 -50 -45 -21 -17 31 -43 34 -92 9 -42 -20 -46
-26 -47 -60 -1 -24 3 -38 11 -38 8 0 7 -4 -3 -11 -12 -8 -12 -10 5 -7 11 2 22
14 25 27 l6 24 18 -28 c11 -17 13 -25 5 -20 -8 5 -11 5 -7 0 4 -4 3 -13 -2
-20 -7 -8 -5 -12 5 -12 8 0 11 5 8 10 -4 6 1 8 11 4 16 -6 17 -3 13 20 -4 16
-4 22 -1 15 4 -8 11 -5 25 10 21 25 -34 -105 -56 -132 -7 -8 -16 -25 -19 -37
-4 -12 -16 -25 -27 -28 -16 -5 -18 -10 -8 -21 6 -8 8 -14 3 -14 -5 0 -10 -15
-11 -33 -2 -29 1 -27 42 38 25 39 45 65 45 60 0 -6 -5 -16 -12 -23 -7 -7 -9
-12 -5 -12 9 0 67 86 67 100 0 7 -9 2 -20 -11 l-19 -24 16 42 c9 23 20 40 26
36 6 -3 7 -1 3 6 -11 17 12 80 45 125 29 40 37 66 20 66 -5 0 -16 -18 -25 -40z"/>
<path d="M8740 1654 c0 -9 59 -33 64 -26 2 4 -11 12 -30 18 -19 6 -34 10 -34
8z"/>
<path d="M826 1601 c-3 -4 -23 -11 -43 -14 -50 -8 -128 -59 -152 -98 -23 -38
-37 -143 -23 -179 l9 -25 8 24 c5 18 9 21 16 10 11 -18 12 -32 1 -25 -4 2 -9
-4 -9 -15 -2 -24 19 -21 23 3 1 8 5 26 9 39 5 19 4 21 -4 9 -9 -13 -11 -13
-11 3 0 9 5 17 11 17 6 0 1 9 -12 21 l-24 20 28 -17 c22 -13 30 -14 42 -4 12
10 13 16 3 29 -8 10 -5 9 10 -3 12 -11 22 -15 22 -10 0 5 5 2 10 -6 8 -12 10
-11 10 8 0 28 20 29 27 1 4 -16 8 -18 14 -7 7 11 11 10 19 -2 8 -12 10 -12 10
-1 0 9 8 12 25 9 14 -3 28 -1 31 4 3 4 9 6 14 3 5 -3 11 -1 15 4 3 6 -3 8 -15
6 -11 -2 -20 1 -20 6 0 6 -6 7 -12 3 -7 -4 -9 -3 -5 1 8 10 30 15 63 17 14 0
20 7 20 24 0 12 -4 20 -8 18 -4 -3 -8 -1 -8 5 0 6 -8 7 -17 4 -15 -6 -16 -5
-3 9 11 11 17 12 22 4 15 -22 8 10 -8 44 l-17 33 -18 -24 c-18 -23 -23 -36
-20 -51 0 -5 -6 -8 -14 -8 -8 0 -15 -5 -15 -12 0 -6 -3 -8 -7 -5 -3 4 2 16 12
27 10 11 15 20 11 20 -4 0 0 7 8 16 18 18 19 23 6 44 -8 13 -11 13 -22 1 -7
-8 -8 -11 -3 -8 6 3 12 -3 12 -14 2 -18 0 -18 -14 -3 -13 13 -14 20 -5 35 7
10 10 19 8 19 -3 0 -7 -4 -10 -9z m-14 -149 c-7 -2 -12 -13 -12 -23 0 -13 4
-18 12 -13 6 4 8 3 5 -4 -7 -10 -37 -11 -38 -1 -2 15 26 57 34 52 8 -5 7 -8
-1 -11z"/>
<path d="M311 1543 c12 -21 29 -45 37 -53 7 -8 0 9 -18 38 -17 28 -34 52 -37
52 -2 0 5 -17 18 -37z"/>
<path d="M922 1558 c7 -15 15 -23 17 -17 2 6 -4 18 -13 27 -15 15 -15 15 -4
-10z"/>
<path d="M10180 1548 c-19 -6 -56 -10 -81 -11 -36 0 -46 -4 -45 -16 0 -9 -4
-15 -11 -14 -13 3 -10 -50 8 -157 14 -83 28 -113 45 -99 8 7 14 6 20 -2 5 -8
3 -9 -6 -4 -9 5 -11 4 -6 -4 6 -8 12 -9 20 -2 8 7 16 7 23 0 11 -11 15 16 6
41 -10 27 -11 40 -3 35 5 -3 12 4 15 15 5 14 10 18 18 12 21 -17 57 -24 57
-12 0 6 -4 9 -8 6 -5 -3 -18 4 -30 14 -12 11 -23 20 -25 20 -3 0 -21 15 -41
34 -28 26 -34 35 -22 39 11 4 13 1 9 -11 -3 -9 -2 -14 2 -10 5 5 15 -1 22 -12
8 -11 18 -18 23 -15 4 2 19 -4 33 -15 14 -11 28 -20 31 -20 3 0 6 45 6 100 0
108 2 106 -60 88z m-110 -53 c-9 -11 -10 -15 -1 -15 7 0 9 -5 5 -11 -4 -8 -10
-6 -17 7 -7 13 -7 19 1 22 7 2 12 11 13 20 0 11 2 13 6 4 3 -7 -1 -19 -7 -27z
m42 1 c7 4 8 2 4 -5 -9 -13 -26 -5 -25 12 0 9 2 8 6 -1 2 -6 10 -9 15 -6z m38
-238 c0 -12 -6 -9 -26 13 -19 22 -19 22 4 8 12 -8 22 -17 22 -21z"/>
<path d="M10020 1529 c0 -5 5 -7 10 -4 6 3 10 8 10 11 0 2 -4 4 -10 4 -5 0
-10 -5 -10 -11z"/>
<path d="M9980 1500 c20 -13 33 -13 25 0 -3 6 -14 10 -23 10 -15 0 -15 -2 -2
-10z"/>
<path d="M360 1462 c0 -10 -10 -12 -35 -9 -43 6 -167 -23 -173 -40 -2 -7 2
-13 10 -13 7 0 22 -13 33 -28 16 -23 17 -25 1 -13 -14 12 -19 12 -25 2 -4 -6
-12 -11 -17 -10 -13 4 -84 -67 -84 -84 0 -7 6 -14 13 -15 6 0 53 -4 102 -7 50
-4 94 -11 99 -15 10 -10 -186 -6 -202 4 -17 10 -24 -11 -12 -34 6 -11 30 -34
52 -51 38 -27 48 -29 109 -27 40 1 65 6 62 12 -4 5 -1 6 8 1 19 -13 49 -14 42
-2 -4 6 5 7 23 3 28 -6 28 -6 9 10 l-20 17 20 -8 c32 -11 57 -16 109 -22 42
-5 48 -4 43 10 -4 11 -2 14 9 10 7 -3 14 0 14 6 0 6 -4 11 -8 11 -5 0 -15 11
-22 25 -7 14 -44 46 -82 72 -37 25 -66 48 -64 51 3 2 17 -5 33 -15 15 -11 45
-27 65 -37 31 -14 60 -44 63 -66 2 -11 64 -70 73 -70 22 0 21 31 -2 40 -25 9
-86 77 -86 95 1 5 12 -3 26 -20 l26 -30 -6 48 c-8 72 -77 159 -136 170 l-30 7
16 -28 16 -27 -19 24 c-38 52 -52 66 -53 53z m111 -124 c16 -29 2 -21 -22 15
-17 23 -18 28 -6 18 10 -8 23 -23 28 -33z"/>
<path d="M50 1439 c0 -9 -7 -22 -15 -29 -8 -7 -15 -20 -15 -29 1 -10 7 -5 16
13 12 20 18 25 24 16 6 -9 10 -6 15 9 4 13 4 25 1 28 -3 4 -6 0 -6 -8 0 -11
-2 -11 -10 1 -8 13 -10 13 -10 -1z"/>
<path d="M10 1350 c0 -5 7 -7 15 -4 8 4 15 8 15 10 0 2 -7 4 -15 4 -8 0 -15
-4 -15 -10z"/>
<path d="M10164 1309 c-18 -21 -18 -22 0 -16 14 6 17 4 12 -10 -6 -17 -5 -17
8 0 9 12 16 14 21 7 3 -5 11 -8 16 -4 5 3 7 10 3 15 -3 5 -9 7 -14 4 -5 -3
-13 2 -17 10 -8 14 -12 13 -29 -6z"/>
<path d="M10174 1219 c-3 -6 -2 -15 3 -20 5 -5 9 -1 9 11 0 23 -2 24 -12 9z"/>
<path d="M10231 1148 c-1 -23 -19 -32 -35 -19 -9 8 -13 7 -13 -4 0 -8 4 -12 8
-10 3 3 12 -1 18 -9 8 -10 8 -15 1 -18 -5 -1 -1 -9 10 -16 12 -7 20 -8 20 -2
0 5 -5 10 -11 10 -8 0 -8 5 1 15 10 12 10 15 -1 15 -12 0 -12 2 -1 9 8 5 12
17 9 27 -4 16 -5 16 -6 2z"/>
<path d="M115 1050 c5 -8 2 -10 -12 -6 -35 11 -111 -92 -81 -110 6 -4 7 -20 4
-37 -6 -30 -6 -30 9 -12 14 19 15 18 5 -8 -8 -22 -6 -36 6 -60 9 -18 21 -35
26 -38 5 -3 10 -10 11 -15 1 -5 6 -8 10 -6 5 1 6 -1 4 -5 -3 -5 1 -19 10 -33
8 -14 12 -17 9 -7 -4 12 -2 17 6 14 7 -2 12 -15 11 -28 -1 -13 1 -19 3 -12 3
7 12 9 20 6 7 -3 11 -10 8 -15 -4 -6 4 -4 17 2 34 18 38 24 12 17 -13 -3 -26
-1 -29 4 -3 5 -2 9 3 8 27 -5 45 2 40 15 -4 10 -1 13 8 10 23 -9 30 42 11 71
-9 14 -21 25 -26 25 -5 0 -7 7 -4 14 6 15 -3 29 -40 66 -11 11 -16 20 -12 20
5 0 3 7 -4 15 -6 8 -20 30 -29 48 -16 31 -16 34 -2 32 9 -2 19 -4 24 -4 4 -1
7 -10 7 -21 0 -10 10 -24 21 -31 13 -6 17 -14 11 -18 -21 -13 17 -44 70 -57
l53 -14 -49 6 c-52 6 -52 6 -16 -48 23 -33 28 -36 68 -34 25 1 48 9 53 17 5 8
9 10 9 4 0 -27 -20 -39 -60 -37 -39 3 -41 2 -30 -19 10 -17 14 -19 21 -8 6 10
9 11 9 2 0 -7 6 -13 14 -13 11 0 13 -10 9 -42 -4 -24 -9 -44 -12 -45 -11 -5 4
-157 17 -180 7 -13 20 -23 28 -23 12 0 15 -7 12 -29 -4 -25 -1 -28 18 -26 16
1 20 -2 17 -16 -3 -12 4 -22 24 -33 15 -8 24 -15 19 -16 -11 0 13 -30 25 -30
5 0 6 7 3 15 -9 21 5 38 20 26 15 -13 27 -4 20 14 -4 9 3 12 25 11 16 -1 28 1
25 5 -2 4 -18 7 -34 7 -20 -1 -30 -6 -30 -17 0 -14 -2 -14 -10 -1 -9 13 -10
13 -10 0 0 -13 -2 -13 -11 0 -9 13 -10 12 -5 -2 6 -21 5 -22 -29 -6 -27 12
-31 23 -13 34 7 4 8 3 4 -5 -9 -14 31 -9 63 9 12 6 21 7 21 3 0 -4 7 0 14 10
8 10 12 27 9 37 -3 12 0 20 6 20 7 0 9 -5 5 -12 -4 -7 -3 -8 5 -4 9 6 9 11 0
23 -10 12 -10 16 2 24 10 6 5 8 -17 6 -17 -2 -46 -14 -65 -26 l-34 -23 35 30
c19 17 38 28 41 26 4 -2 12 3 19 11 7 8 17 12 23 8 6 -3 7 -1 3 6 -4 6 -11 9
-16 6 -4 -3 -11 2 -14 11 -3 8 -2 12 4 9 9 -6 15 8 11 29 -1 5 4 13 11 18 14
10 -39 8 -57 -2 -6 -3 3 7 20 22 19 18 25 28 15 28 -13 0 -13 1 0 10 13 9 13
10 0 11 -10 0 -8 3 5 9 11 5 14 9 7 9 -7 1 -11 5 -7 10 3 6 -3 14 -12 20 -10
6 -12 11 -5 11 6 0 12 7 12 16 0 9 5 12 13 8 6 -4 4 2 -6 13 -14 16 -15 22 -5
26 7 3 3 6 -10 6 -22 1 -22 1 -2 21 22 22 17 52 -8 43 -11 -5 -14 -2 -10 9 4
8 1 15 -7 15 -7 0 -11 -6 -8 -14 4 -9 0 -11 -11 -7 -9 3 -14 10 -11 14 3 5 -4
6 -15 3 -11 -3 -18 -9 -15 -13 3 -5 -6 -7 -20 -6 -13 2 -23 0 -21 -3 3 -3 -2
-15 -11 -26 -13 -19 -14 -18 -8 10 4 18 3 25 -2 18 -6 -8 -14 -9 -23 -3 -13 8
-13 10 1 10 8 0 24 7 35 16 10 8 13 12 5 8 -9 -5 -24 5 -43 27 -17 21 -26 26
-21 14 5 -16 4 -18 -8 -10 -8 6 -27 12 -44 14 -39 4 -46 11 -10 11 27 0 28 1
10 20 -10 12 -15 26 -11 37 4 9 4 14 0 11 -3 -4 -23 1 -43 11 -44 21 -117 29
-106 11z m-45 -54 c0 -2 -8 -10 -17 -17 -16 -13 -17 -12 -4 4 13 16 21 21 21
13z m30 -62 c0 -8 -19 -13 -24 -6 -3 5 1 9 9 9 8 0 15 -2 15 -3z m233 -115
c-8 -8 -13 -7 -18 2 -5 8 -4 10 3 5 7 -4 12 -2 12 5 0 7 3 9 7 6 4 -4 2 -12
-4 -18z m-243 -5 c0 -8 -19 -13 -24 -6 -3 5 1 9 9 9 8 0 15 -2 15 -3z m82 -27
c-7 -8 -10 -16 -7 -19 3 -3 -2 -11 -12 -19 -15 -12 -16 -12 -8 1 6 8 10 17 11
20 3 17 17 40 22 36 3 -3 0 -12 -6 -19z m352 -245 c3 -5 -1 -9 -9 -9 -8 0 -12
4 -9 9 3 4 7 8 9 8 2 0 6 -4 9 -8z m-1 -118 c-4 -12 -8 -13 -14 -3 -9 15 -2
32 11 24 5 -3 6 -13 3 -21z"/>
<path d="M286 981 c10 -10 21 -17 23 -15 6 6 -20 34 -32 34 -6 0 -2 -8 9 -19z"/>
<path d="M850 921 c0 -5 7 -12 16 -15 14 -5 15 -4 4 9 -14 17 -20 19 -20 6z"/>
<path d="M540 910 c-13 -8 -12 -10 3 -10 9 0 17 5 17 10 0 12 -1 12 -20 0z"/>
<path d="M739 798 c-1 -7 -3 -26 -5 -43 -2 -16 2 -48 8 -70 6 -22 12 -56 13
-76 1 -21 10 -45 20 -55 18 -18 18 -18 13 8 -3 15 -1 25 3 22 5 -3 10 -17 10
-32 1 -15 6 7 10 48 11 93 -7 169 -46 194 -19 12 -25 13 -26 4z"/>
<path d="M240 720 c-6 -11 -7 -20 -3 -20 4 0 3 -4 -3 -8 -6 -4 -4 -13 8 -24
10 -10 18 -14 18 -9 0 6 -4 12 -9 15 -4 3 -6 18 -3 33 5 25 6 25 13 8 6 -16 8
-17 8 -3 1 26 -17 31 -29 8z"/>
<path d="M345 440 c3 -5 8 -10 11 -10 2 0 4 5 4 10 0 6 -5 10 -11 10 -5 0 -7
-4 -4 -10z"/>
<path d="M436 308 c10 -14 21 -24 23 -22 3 3 -6 15 -18 27 l-24 22 19 -27z"/>
</g>
</svg>
