<?xml version="1.0" standalone="no"?>
<!DOCTYPE svg PUBLIC "-//W3C//DTD SVG 20010904//EN" "http://www.w3.org/TR/2001/REC-SVG-20010904/DTD/svg10.dtd">
<svg version="1.0" xmlns="http://www.w3.org/2000/svg" width="64.000000pt" height="64.000000pt"
  viewBox="0 0 64.000000 64.000000" preserveAspectRatio="xMidYMid meet">

  <g transform="translate(0.000000,64.000000) scale(0.100000,-0.100000)" fill="#currentColor" stroke="none">
    <path d="M313 520 c-18 -11 -38 -28 -45 -39 -10 -16 -20 -19 -53 -15 -50 6
-102 -23 -118 -66 -7 -18 -19 -30 -30 -30 -28 0 -67 -45 -67 -78 0 -37 32 -78
67 -87 15 -3 42 -20 61 -37 28 -24 41 -29 71 -25 27 3 43 -2 64 -20 52 -42
153 -26 190 31 14 21 22 24 51 19 68 -11 136 49 136 119 0 32 -35 86 -65 100
-14 6 -25 18 -25 27 0 27 -38 80 -72 101 -44 27 -122 27 -165 0z m148 -15 c31
-17 69 -69 69 -96 0 -9 17 -27 38 -40 50 -32 65 -86 35 -127 -30 -41 -69 -57
-110 -44 -31 10 -34 8 -48 -19 -32 -60 -121 -78 -173 -34 -23 19 -36 23 -65
18 -32 -5 -40 -1 -69 28 -18 19 -44 35 -58 36 -29 2 -60 36 -60 64 0 25 35 59
60 59 13 0 24 10 31 27 6 16 17 36 26 45 20 23 75 33 102 19 17 -10 23 -7 38
15 38 59 121 81 184 49z" />
  </g>
</svg>