<?xml version="1.0" standalone="no"?>
<!DOCTYPE svg PUBLIC "-//W3C//DTD SVG 20010904//EN" "http://www.w3.org/TR/2001/REC-SVG-20010904/DTD/svg10.dtd">
<svg version="1.0" xmlns="http://www.w3.org/2000/svg" width="64.000000pt" height="64.000000pt"
  viewBox="0 0 64.000000 64.000000" preserveAspectRatio="xMidYMid meet">

  <g transform="translate(0.000000,64.000000) scale(0.100000,-0.100000)" fill="#currentColor" stroke="none">
    <path d="M331 598 c-36 -49 -39 -80 -11 -108 29 -29 74 -26 99 6 12 15 21 32
21 38 0 17 -58 106 -69 106 -5 0 -23 -19 -40 -42z m69 -24 c19 -29 21 -40 11
-60 -19 -43 -91 -28 -91 19 0 21 36 77 50 77 5 0 18 -16 30 -36z" />
    <path d="M217 477 c-22 -18 -146 -194 -157 -223 -24 -63 -2 -162 47 -206 49
-45 135 -60 196 -34 38 15 94 76 103 111 5 21 12 25 43 25 108 0 178 132 120
227 -23 37 -71 66 -97 60 -12 -2 -6 -8 19 -19 52 -23 79 -62 79 -115 0 -82
-48 -133 -125 -133 -76 0 -128 52 -128 128 0 50 24 89 72 114 43 22 49 28 24
28 -11 0 -37 -12 -58 -26 -29 -19 -40 -22 -46 -12 -12 19 -22 3 -12 -19 5 -10
7 -43 5 -73 l-4 -55 -109 -1 c-60 0 -109 2 -109 4 0 5 117 170 139 195 14 17
16 17 32 -5 21 -27 36 -18 17 11 -16 27 -33 32 -51 18z m127 -283 c24 -22 45
-46 45 -54 2 -29 -39 -79 -80 -101 -109 -55 -239 22 -239 142 0 56 -2 55 143
53 86 -2 88 -2 131 -40z" />
    <path d="M434 299 c-19 -39 -33 -74 -29 -77 9 -9 21 9 53 81 41 89 22 86 -24
-4z" />
    <path d="M374 346 c-10 -26 4 -48 28 -44 33 4 33 52 0 56 -13 2 -25 -3 -28
-12z m36 -16 c0 -5 -4 -10 -10 -10 -5 0 -10 5 -10 10 0 6 5 10 10 10 6 0 10
-4 10 -10z" />
    <path d="M473 293 c-18 -7 -16 -52 2 -59 18 -7 45 12 45 32 0 16 -30 33 -47
27z m24 -39 c-9 -9 -28 6 -21 18 4 6 10 6 17 -1 6 -6 8 -13 4 -17z" />
  </g>
</svg>