<!-- Generated by IcoMoon.io -->
<svg version="1.1" xmlns="http://www.w3.org/2000/svg" width="2544" height="1024" viewBox="0 0 2544 1024">
  <title></title>
  <g id="icomoon-ignore">
  </g>
  <path fill="CurrentColor"
    d="M1249.136 617.314c3.614-18.59-13.474-16.483-14.050-30.882 14.178-25.056 44.769-14.946 58.912 2.782 25.248-5.774 69.086-0.989 89.823-2.782 4.482-48.675-33.059-100.765-87.006-75.744-25.44 11.809-39.967 35.614-87.006 30.882-45.089-4.575-90.592-39.903-98.21-87.006-2.654-16.291 1.257-36.254 0-56.095 4.575-5.727 20.703 0.128 25.248-5.599 9.696-33.885-11.14-59.36-14.050-89.823 61.409-11.937 37.407-85.581 39.263-148.747 40.8-12.962 24.928-73.183 67.357-81.378 23.52-4.511 41.44 13.794 61.729-5.599 10.913-0.669 14.562 6.047 22.431 8.416 55.473 13.218 117.085-0.029 148.747-36.475 10.785-12.385 13.026-30.946 28.065-39.263 19.742 1.443 7.456 29.666 2.782 39.263-0.861 42.278 29.858 76.577 28.065 115.042-0.605 13.346-10.22 17.629-5.599 30.882 10.913-0.349 41.888-4.831 56.095-11.233 20.703 15.779 42.656 30.306 75.756 33.693-0.477 7.008 4.319 8.8 8.416 11.233 2.078 16.099-5.151 22.879-8.416 33.693-4.255 45.537 17.565 79.522 8.416 120.671 41.248 28.321 8.963 107.424-36.475 129.122-23.263 11.105-51.038 3.806-70.174 16.861-53.855-7.392-112.354 7.136-134.686-30.882-23.52 6.431-15.074 26.272-11.233 44.897 3.294 16.058 6.047 38.687 11.233 53.342 8.585 24.224 28.577 36.097 33.693 53.342 19.934 21.279 48.785 22.559 78.561 28.065 8.544 1.566 17.053 6.751 25.248 8.416 22.751 4.575 48.61 2.846 70.174 8.416 13.346 3.486 20.382 6.303 42.080 8.416 12.065 1.182 23.327 5.407 33.693 8.416 38.111 11.105 88.799 26.337 126.305 39.263 14.050-1.822 9.504-22.303 22.431-25.248 38.559 15.685 75.552 32.931 92.576 70.174 19.998-5.279 30.306-31.97 58.912-19.614-2.014 31.057 25.312 41.999 14.050 81.378 22.303 6.367 55.263-9.12 72.991 5.599 58.4-4.127 113.535 2.398 173.984 5.599 21.599 1.182 44.257-1.246 64.546 2.782 21.087 4.255 53.598 12.321 81.378 14.050 20.574 1.257 37.523-0.733 56.095 2.782 21.023 3.998 54.111 7.136 81.378 14.050 6.495 23.071-15.779 34.782-33.693 42.080-7.904 21.727-56.415 55.135-64.546 11.233-13.282-7.456-32.058-8.096-50.525-11.233-16.291-2.782-39.839-2.462-44.897-16.861 31.65-6.559 70.238 2.142 95.393 11.233 7.52-3.678 4.639-17.798 8.416-25.248-24.992-19.102-88.991-22.303-126.305-11.233-4.447 16.611 9.825 14.498 8.416 28.065-22.559 11.105-43.425-5.657-61.729-8.416-17.181-2.59-37.668 1.95-56.136 0-10.849-1.182-20.639-7.072-30.882-8.416-10.977-1.438-24.992 1.374-36.475 0-23.712-2.846-77.601-10.017-112.237-5.599-22.559 2.846-41.12 23.386-75.756 19.614-7.264-0.797-10.145-6.111-16.855-8.416-23.199-7.904-61.729-5.663-89.823-8.416-15.459-1.502-28.769-6.751-47.714 0-47.010-16.611-106.848-3.294-165.603-8.416-11.745 7.904-13.858 25.44-16.855 42.080-45.124 47.394-121.678 5.599-140.32-39.263-43.617 25.632-134.046 46.69-176.801 5.599-37.855 2.91-72.223-11.745-117.854-5.599-17.629 2.398-53.022 13.922-75.744 2.782-12.898 6.751-18.206 21.087-28.065 30.882-31.522 5.279-44.257-8.096-61.729-16.861-13.986 0.349-31.010 12.129-36.475-2.782-14.114 4.575-28.321 9.056-42.080 14.050-10.465 2.974-4.447-10.529-14.050-8.416-47.906-5.663-73.119 19.998-101.022 39.263-6.303 4.383-15.587 5.023-19.626 8.416-12.938 10.913-24.893 27.745-39.263 39.263-11.937 9.568-24.992 29.089-44.897 19.614 0.477-3.248-0.605-4.988-2.782-5.599 0.093-17.693 17.629-17.886 28.065-25.248 18.846-14.818 34.782-32.547 53.342-47.714 13.090-30.882 38.175-49.763 50.525-81.378 29.73-4.703 62.626-1.31 92.617-2.782 7.776-0.349 14.754-4.86 22.431-5.599 21.279-2.078 44.897 3.422 67.357 2.782 7.712-0.221 17.053-5.407 25.248-5.599 5.599-0.157 11.617 3.358 16.861 2.782 14.69-1.502 29.666-7.264 44.897-8.416 48.034-3.678 98.21 9.883 117.854-25.248-19.23-28.705-62.113-11.012-87.006-28.065-12.642-8.672-20.318-26.406-28.065-39.263-8.608-14.306-18.927-27.553-22.431-44.897 28.833-2.782 54.751-24.928 87.006-25.248 25.568-0.221 45.409 9.568 67.357 19.626 2.718-30.114-47.394-31.010-64.546-50.525-42.72-10.465-74.976-17.886-123.488-22.431-28.705-2.718-57.568-10.401-87.006-14.050-26.889-3.294-58.912 2.014-78.561-11.233-40.352 7.229-80.29-8.48-123.488-14.050-32.483-4.191-81.314 6.751-112.237-2.782-7.2-2.206-27.070-5.215-42.080-5.599-41.76-1.117-83.107 0.623-123.488-2.782-34.205-2.91-70.43 4.831-101.022 2.782-5.599-0.349-11.361-5.663-16.861-5.599-12.834 0.093-24.544 5.151-36.475 5.599-7.2 0.285-12.577-2.654-19.626-2.782-17.95-0.349-35.975 7.84-53.342 8.416-7.392 0.221-15.33-3.294-22.431-2.782-21.087 1.502-51.422 8.992-78.561 11.233-11.169 0.925-34.398 2.369-42.080 0-30.451-9.376-33.542-78.305-70.174-84.189-12.834-2.078-26.785 7.712-44.897 5.599 1.502-28.449 38.367-21.471 42.080-47.714-6.367-24.544-27.873-33.821-47.714-44.897 5.023-27.704 43.809-21.663 70.174-28.065 12.77-2.206 5.663-24.288 16.861-28.065 17.42-3.358 11.361 16.675 25.248 16.861 18.014 0.669 33.507-5.151 56.095-5.599 29.218-0.605 31.65 7.776 50.525-19.626 10.913-15.907 23.828-33.821 16.861-58.912-30.050-16.861-64.814-15.587-101.022-22.431-14.882 9.696-31.202 7.328-47.714 0 2.91-59.040-49.955-62.305-70.174-98.21 2.078-35.742-21.151-46.178-30.882-70.174 23.455-9.842 62.562-9.755 84.189 0 7.851-2.398 5.983-14.626 11.233-19.626 12.81-1.566 11.873 10.593 25.248 8.416 20.382-1.117 28.001-15.051 53.342-11.233 14.178-4.511 13.41-23.968 25.248-30.882 16.611-0.733 16.861 14.946 28.065 19.626 11.361-6.111 22.239-5.337 36.475-2.782 5.279-17.181 9.632-35.23 22.431-44.897 13.346-1.182 14.498 9.842 22.431 14.050 50.653-6.944 85.022 22.344 123.488 36.475 24.288-15.971 37.214-43.233 56.136-64.546 16.733 3.806 22.111 19.038 39.263 22.431 27.297-6.623 81.314-14.178 89.823 14.050 21.471-11.233 29.346-36.126 58.912-39.263 5.343 6.815-3.038 13.625 2.782 22.431 47.138 1.502 73.504 23.776 95.393 50.525-1.484 40.608 6.53 90.72-16.861 109.467-8.608-17.822 7.904-32.663 11.233-47.714-4.831-34.718-0.989-61.729-33.693-81.378-9.056-5.471-25.376-6.303-36.475-11.233-10.785-4.767-19.41-9.376-28.065-16.861-14.37 47.074 3.422 81.955 11.233 134.686 3.614 24.48 2.526 47.010 2.782 78.561 0.285 32.675-20.062 73.504-14.050 92.617 3.934 12.38 18.718 16.227 25.248 14.050 22.559-7.648 8.672-48.482 16.861-78.561 6.88-25.463 33.105-56.159 50.525-64.546-1.548 32.419-30.562 49.315-36.475 81.378-3.486 18.91 2.334 39.135-5.599 61.729 7.392 18.91 36.83 24.096 58.912 33.693 35.346 15.307 74.592 35.911 112.237 50.525-1.117 14.946-13.881-7.52-19.626 2.782 15.074 12.962 36.766 19.358 56.136 28.065 1.886-8.48-28.129-9.248-28.065-25.248 111.713 57.632 233.059 105.573 333.982 173.984 6.495 1.117 10.727-0.221 13.986-2.59zM1195.822 597.665c-27.361-0.733-32.803-23.327-58.912-25.248-5.535-6.559-30.754-20.446-33.693-11.233 9.953 12.193 26.144 14.882 39.263 22.431 38.111 21.983 71.583 58.464 112.237 67.357 1.246-28.083-43.745-32.355-58.912-53.331zM645.8 47.613c6.751 3.55-0.989 21.535 11.233 19.626-2.91-11.489 8.672-22.943 0-30.882-2.526 4.959-10.337 4.639-11.233 11.233zM581.23 42.014c-13.474-1.566-55.775 11.745-58.912 14.050-36.83 26.721 2.526 91.552 0 137.503 8.271 10.465 16.291 21.145 16.861 39.263 26.465 24.032 43.553 57.504 67.357 84.189 0.733 11.425 10.465 13.858 8.416 28.065 15.843-0.861 24.928 4.959 42.080 2.782 0.477-57.312 29.474-127.905 14.050-199.267-7.072-32.611-35.102-61.281-36.475-92.617-7.84 2.462-6.658 13.922-16.861 14.050-10.017-11.233-18.59-26.016-36.51-28.065zM454.914 89.729c-0.477 15.266 14.364 23.391 25.248 39.263 9.376 13.666 10.721 33.437 25.248 33.693 12.065-31.842-18.654-66.659-14.050-109.467-0.605-2.206-2.334-3.248-5.599-2.782-12.77 14.26-30.306 21.855-30.882 39.263zM1468.081 53.236c-16.925 27.041-29.73 58.208-81.378 50.525-8.224 13.41-9.056 28.833-28.065 25.248 6.111 20.767-6.559 47.010 0 67.357 22.175-3.038 24.288-26.208 47.714-28.065 8.416-19.87 34.805-31.010 44.897-44.897 17.309-23.84 36.318-45.281 28.065-70.174h-11.233zM317.423 84.1c4.703-4.639 2.206-16.483 2.782-25.248-26.593-16.483-28.769 28.577-2.782 25.248zM513.873 213.216v-16.861c-25.824-21.919-39.455-55.915-58.912-84.189-8.864 1.374-9.889-5.052-19.626-2.782-19.806-31.615-54.559-48.354-103.839-50.525-7.712 18.427 2.014 39.321 2.782 50.525 24.48-0.029 24.288 19.422 36.475 33.693 10.209 11.937 18.014 13.474 22.431 22.431 4.255 8.585 2.27 18.846 5.599 28.065 6.594 18.27 19.166 32.419 28.065 47.714 81.314 0.093 64.738 112.93 157.152 92.617-29.282-34.269-35.032-92.192-70.11-120.671zM280.942 84.1c-9.632 12.449-22.367 10.727-42.080 8.416 6.623 15.651 28.769 27.489 44.897 33.693 16.547 6.367 36.19 7.328 53.342 14.050 9.889 3.87 16.547 14.37 28.065 11.233-15.907-39.327-67.357-43.041-75.756-89.823h-8.416c-6.623 6.559 0.477 13.794 0.029 22.431zM199.529 157.080c53.022 40.48 83.427 103.693 151.518 129.122h25.248c4.383 2.142 4.191 8.928 11.233 8.416 26.080-3.614 32.547 12.333 58.912 8.416 0.157-12.706-14.882-19.934-22.431-30.882-16.547-23.892-29.666-56.351-42.080-84.189-18.014-11.617-32.483-30.754-53.342-39.263-13.154-5.407-32.099-5.983-47.714-11.233-0.733-0.221-1.822-5.087-2.782-5.599-2.974-1.502-8.271 1.502-11.233 0-18.206-9.312-33.629-23.584-47.714-33.693-6.175-6.88-4.703-21.535-16.861-22.431-2.782 20.318 7.712 54.751-2.782 81.378zM1277.23 98.139c14.69-3.056 30.754-4.767 44.897-8.416-9.632-4.319-48.162-15.523-44.897 8.416zM1246.383 117.794c-12.577-2.398-10.273-19.614-22.431-22.431-10.593 10.913-14.242 28.833-25.248 39.263 5.791 11.937 6.245 29.282 8.416 44.897 11.873 20.831 30.626 34.846 42.080 56.095 24.288 11.233 40.224 30.882 58.912 47.714 4.511 10.465 8.416 21.523 19.626 25.248 13.986-11.617 6.047-25.248 2.782-36.475-3.422-11.873-2.654-30.882-5.599-42.080-4.511-17.309-17.309-31.714-25.248-42.080-8.8-11.489-12.775-25.952-22.431-30.882-3.23-3.294-3.166-9.906-2.782-16.861-10.209-5.663-21.535-10.273-25.248-22.431 5.791-1.694 19.486 4.511 16.861-5.599 4.831-8.672-5.855-25.877-19.626-25.248-15.074 9.825 11.489 17.385 0.029 30.882zM1468.081 117.794c11.105-1.053 20.382-3.934 28.065-8.416-0.925-6.559-3.358-11.617-5.599-16.861-18.078-2.206-17.117 14.69-22.431 25.248zM120.938 109.383c1.31 20.231 21.931 19.358 36.475 25.248 12.962 5.232 15.202 18.334 28.065 19.626 4.319-12.513 4.831-28.868 5.599-44.897-17.612-20.19-40.16 6.88-70.174 0zM1274.413 109.383c3.416 37.983 35.038 54.175 50.525 84.189 5.343 10.337 1.764 20.19 14.050 28.065 4.895-39.199 2.747-68.219 8.416-106.656-20.062-10.337-53.406-7.776-72.927-5.599zM36.749 117.794c16.419 17.245 57.504 9.889 67.357 33.693 7.916-2.334 7.264 3.934 14.050 2.782 7.136 15.272 24.864 20.062 36.475 30.882 8.288-6.687 17.629-12.316 19.626-25.248-21.599-16.797-58.208-18.462-67.357-47.714-12.321-2.974-9.213 9.504-19.626 8.416-12.065-12.834-32.099-2.206-50.525-2.782zM1381.103 325.477c-12.257 14.434-34.91 41.44-16.861 58.912 14.946-20.767 37.086-48.739 36.475-75.756-7.264 0.477-13.026 8.992-19.678 16.861zM1364.271 345.12c11.233-47.65 62.882-55.007 81.378-95.393 8.544 0.093 10.913-5.919 16.861-8.416 6.175-20.167 28.833-29.089 36.475-47.714 1.566-3.748 1.053-13.858 2.782-22.431 3.614-17.886 7.904-29.922-2.782-47.714-18.142 0.541-29.439 7.968-44.897 11.233-28.769 40.48-76.128 62.305-103.839 103.839-1.694 32.291-1.507 74.72 0 106.656h14.114zM143.392 196.384c-0.541-7.072-17.629-9.568-14.050-19.626-31.842-11.361-55.711-45.153-92.617-42.080 10.593 10.913 7.2 35.806 14.050 50.525 27.297 11.076 40.992 35.684 61.729 53.342 7.136-2.078 31.202-37.651 30.882-42.080zM1173.38 294.629c40.992 22.623 52.469 74.72 87.006 103.839 34.718 6.431 51.166 31.138 84.189 39.263-3.038-41.824-10.337-94.416-30.882-129.122-5.855-9.883-18.27-13.194-19.614-25.248-33.821-29.794-77.345-49.891-92.617-98.21-10.209-3.806-13.858-14.178-25.248-16.861 2.59 49.443 11.995 85.15-2.846 126.305zM185.508 176.729c-5.599 13.666-27.361 24.288-25.248 36.51 24.393-10.529 46.498 3.998 70.174-2.782-12.525-13.666-19.294-33.123-44.897-33.693zM1476.526 244.069c-15.115 7.328-28.769 16.163-33.693 33.693 26.144-1.886 49.443-6.687 61.729-22.431 29.153-6.408 41.76-29.346 47.714-58.912-44.065-2.91-66.083 16.227-75.744 47.714zM1555.122 218.85c14.562 9.504 19.562-11.297 33.693-11.233-6.047-20.382-35.678-8.544-33.693 11.233zM1470.898 283.361c-20.446 2.654-34.904-1.694-44.897 8.416-15.779 36.603-27.233 77.537-56.136 101.022-2.462 25.877-10.145 52.894 11.233 64.546 34.013-18.206 63.458-47.586 101.022-64.546 8.096-3.661 17.693-2.526 25.248-5.599 29.602-12.129 49.251-35.55 72.991-53.342 2.334-7.008 7.706-11.041 8.416-19.626 40.16-4.831 39.839-64.802 47.714-92.617-73.76-19.934-98.769 53.15-165.603 61.729zM258.441 235.682c-34.269-11.955-131.618-36.603-129.122 25.248 27.553 14.818 72.607 8.288 109.467 11.233 22.175 1.758 42.464 11.489 56.136 2.782-10.017-15.266-26.337-24.16-36.475-39.263zM440.876 255.331c-0.029 5.599-7.648 3.55-5.599 11.233 7.136 14.37 20.254 16.861 30.882 25.248 11.745 9.312 18.142 29.41 36.51 28.065-11.71-30.37-27.297-56.928-61.729-64.546zM303.338 300.205c-2.206 0.605-3.248 2.334-2.782 5.599-1.95 21.087 18.526 42.977 28.065 56.136 8.608 11.809 14.178 30.498 30.882 28.065 4.127-6.175-0.349-20.895 8.416-22.431 5.296 0.605 6.175-3.166 11.233-2.782 8.672 5.36 9.12 18.927 19.626 22.431 3.678 0.733 26.337-3.486 33.693-8.416-2.718-21.279-13.445-36.126-2.782-56.136-18.462-11.809-23.904 10.849-36.475 14.050-28.833-11.553-50.909-44.321-89.823-36.51zM589.611 317.055c-1.117-10.092-4.575-17.886-14.050-19.626 1.31 9.906 4.732 17.693 14.050 19.626zM1585.969 345.12c22.623 0.157 33.251-11.681 50.525-16.861 0.477-12.642 0.605-24.928-8.416-28.065-17.309 11.745-33.123 24.864-42.080 44.897zM1209.901 353.571c-3.614-5.739-6.431-17.245-11.233-22.431-2.014-2.206-9.44-0.669-11.233-2.782-1.95-2.27-1.42-9.12-2.782-11.233-4.703-7.072-15.016-9.056-19.626-14.050-9.825 5.104-18.59 11.361-22.431 22.431 8.078 5.983 10.471 17.565 14.050 28.065 22.495 5.535 45.345 10.762 64.546 19.626 0.623-8.672-6.623-12.257-11.233-19.626zM443.652 319.843c-11.233 11.827-9.184 36.894-2.782 50.525 30.306-1.502 50.781-18.107 75.744-16.861-2.078-8.649 7.712-5.407 5.599-14.050-24.457-8.288-55.915-9.568-78.561-19.626zM600.85 339.492c5.471-6.303 1.502-20.19-8.416-19.626-0.623 10.011 1.886 16.797 8.416 19.626zM289.305 325.477c-11.169-1.822-11.297 7.456-22.431 5.599-7.229 21.791-28.769 29.218-25.248 61.729 25.504 18.462 31.842 56.095 78.561 53.342 13.346-8.16 19.102-23.904 22.431-42.080-21.983-21.983-39.519-48.418-53.342-78.561zM1633.654 342.309c-14.434 14.050-34.398 8.736-50.525 14.050-28.327 9.376-46.818 36.702-78.561 39.263-13.282 15.715-42.4 15.651-53.342 33.693 0.792 5.791 10.465 2.654 11.233 8.416 25.271-8.672 49.699 0.669 72.991 0 4.191-0.093 8.736-5.535 14.050-5.599 10.529-0.093 17.071-0.541 28.065-2.782 6.815-1.374 12.834-1.822 19.626-2.782 9.376-1.374 14.946-9.312 22.431-11.233 14.498-3.678 31.394 4.511 39.263-11.233-0.285-11.873-18.782-5.535-19.626-16.861-4.639-14.574 2.177-27.873 5.599-42.080-5.279 0.605-6.175-3.166-11.233-2.782zM564.381 387.235c-0.477-19.166 3.294-42.592-16.861-42.080-5.855 16.483-0.541 40.2 16.861 42.080zM578.407 353.571c-10.529 9.953-2.206 36.062 5.599 44.897 19.102 4.191 38.047 5.599 56.136 2.782-4.191-32.227-30.37-42.592-61.729-47.714zM477.386 378.784c25.76 16.355 36.062 48.116 61.729 64.546-3.102-25.888-10.017-47.97-8.416-78.561-24.992-1.886-40.352-0.733-53.342 14.050zM1229.551 395.616c-12.525-7.008-22.623-20.19-36.475-25.248-7.712-2.846-26.144-2.27-30.882-5.599-6.431 17.886-12.775 35.87-19.626 53.342 30.498-2.142 68.766 3.87 101.022 8.416 19.614 20.574 56.607 23.84 84.189 36.51-34.333 6.047-61.939-13.282-89.823-22.431-34.077 6.175-55.647 24.8-75.744 44.897v22.431c23.776 20.703 71.071 26.465 98.21 11.233 22.239-12.513 25.184-36.19 61.729-33.693 5.855 0.413 10.785 7.264 16.855 8.416 12.385 2.398 22.431 3.87 30.882-8.416-5.791-12.001-23.071-12.449-33.693-19.626-0.815-7.392 10.913-2.206 8.416-11.233-34.846-22.431-79.202-38.943-114.978-58.912zM1120.113 594.854c-15.459-17.822-36.958-23.648-58.912-36.475-93.793-54.937-197.026-98.851-294.689-145.954h-16.861c-16.291-10.401-62.69-38.751-72.991-19.626-8.032 14.946 10.913 21.535 25.248 30.882 39.071 37.535 5.919 131.147 64.546 145.954 18.654 4.703 47.97-2.526 75.744 0 28.257 2.526 58.144 10.593 81.378 11.233 20.703 0.541 30.946 0.861 44.897 2.782 53.296 7.392 98.141 7.072 151.518 19.626 0.605-2.177 0.093-5.535 2.782-5.599 3.16 8.207 3.038-4.255-2.846-2.782zM572.838 496.673c-15.866-18.206-32.099-33.629-47.714-50.525-15.715-16.989-31.010-37.535-47.714-50.525-0.605-0.477-11.745-7.904-14.050-8.416-21.587-4.703-33.123 14.434-53.342 14.050-12.129-0.221-17.106-12.903-30.882-11.233-4.767 28.769 11.169 53.139 19.626 70.174 3.94 7.968 5.087 17.548 8.416 22.431 16.611 24.48 49.891 30.754 72.991 44.897 4.703 2.846 9.761 5.855 14.050 8.416 8.992 5.343 20.318 9.184 28.065 14.050 2.718 1.7 4.767 8.928 8.416 11.233 6.239 3.934 9.312 1.31 14.050 5.599 28.065-8.928 68.574 7.665 98.21-5.599 3.294-18.334-23.199-21.599-16.861-33.693 24.928-5.663 28.577 47.586 58.912 36.475 8.608-41.312-9.953-72.671-25.248-95.393-8.329-12.385-22.303-36.446-28.065-42.080-15.266-14.946-24.864-6.495-42.080-8.416-17.437-1.95-23.327-21.215-42.080-19.626-13.154 22.303 2.846 44.641 8.416 64.546 13.73 3.102 20.446 13.218 25.248 25.248 13.218 9.248 32.163 12.77 36.475 30.882-16.483 4.511-26.825-19.55-44.961-22.431zM132.183 392.805c-1.566 4.063-4.383 6.85-8.416 8.416 14.434 28.897 32.419 46.754 61.729 50.525 2.526 0.349 7.776-5.855 14.050-5.599 7.904 0.285 5.535 6.751 11.233 5.599 3.742-0.733 9.376-7.072 14.050-8.416 12.77-3.626 24.672-1.502 36.475-5.599-12.001-48.482-82.857-37.831-129.093-44.897zM78.864 412.448c19.422 0.413 24.992 12.193 42.080 5.599-5.983-9.312-32.803-16.861-42.080-5.599zM407.229 493.861c2.718-13.986-11.361-11.105-14.050-19.626-16.163-21.599-9.889-43.745-28.065-58.912-31.714 36.574 12.385 78.753 42.080 78.561zM668.272 457.38c3.614 11.361 8.672 21.232 19.626 25.248 22.175-31.394-7.968-68.638-47.714-64.546 3.614 18.846 19.166 25.76 28.083 39.263zM1580.335 437.731c11.297 18.974 44.321 20.382 67.357 19.626 5.599-11.233 8.16-25.504 11.233-39.263-34.526-1.758-45.409 20.126-78.567 19.626zM160.225 457.38c-2.782-12.874-72.863-40.608-98.21-30.882-1.117-2.91-10.89-9.825-8.416 0-3.102 7.851 16.733 16.861 22.431 25.248 3.678 9.44 4.767 21.407 14.050 25.248 22.815-15.307 78.817 20.446 70.174-19.626zM1136.945 482.657c11.681 0.477 13.858-8.608 25.248-8.416 3.934-24.096 37.022-19.102 47.714-36.475-33.379-24.608-107.29-5.535-72.991 44.897zM1602.801 465.808c-17.565-4.831-35.102-20.574-56.095-22.431-9.44-0.861-25.434 6.687-39.286 5.599-4.383-0.349-7.456-5.599-11.233-5.599-46.626-0.442-80.674 4.767-95.393 36.475 29.218-3.934 42.848 7.712 53.342 22.431 28.769 2.014 74.912 0.797 101.022-2.782 34.077-4.703 67.934-5.529 75.744-30.882-7.52-5.791-18.299-0.093-28.065-2.782zM337.055 465.808c-24.224 8.16-37.983-12.257-61.729-5.599-11.809-15.33-51.678-8.992-58.912 5.599 16.861 32.739 45.217 53.983 89.823 58.912 11.617 12.706 23.84 24.8 36.475 36.51 48.308 0.989 77.345 0.541 109.467 0-12.77-17.181-35.102-24.736-39.263-50.525-38.047-2.206-48.558-31.906-75.744-44.897zM171.463 488.227c-24.16 6.88-69.854-19.23-81.378 8.416 25.184 0.989 43.553 8.864 72.991 5.599 18.91 11.297 51.276 23.199 72.991 22.431-13.41-26.785-15.138-65.315-58.912-61.729-6.751 3.55 1.566 22.111-5.599 25.248zM704.7 566.818h16.861c0.605-22.495-10.657-56.479-14.050-84.189-0.605-2.206-2.334-3.248-5.599-2.782-9.312 23.956-6.367 69.662 2.846 87.006zM182.696 521.909c-12.449-5.215-31.906-12.321-47.714-5.599-12.065-4.674-35.358-18.718-47.714-5.599 14.242 33.251 67.421 9.12 95.393 11.233zM325.845 564.001c-7.392-26.144-41.44-34.654-61.729-39.263-2.142 25.44 38.047 30.562 61.729 39.263zM435.3 527.526c-2.014 8.55 2.846 10.209 2.782 16.861 21.855-2.91 42.656 32.937 58.912 8.416-13.282-14.114-38.047-30.754-61.729-25.248zM1089.26 552.803c-8.608-10.145-30.050-22.239-42.080-19.626 12.898 7.712 20.254 20.831 42.080 19.614zM199.575 541.541c-5.791-0.285-12.385-5.087-16.861-5.599-27.809-3.166-39.199 8.672-64.546 5.599-4.639 21.023 10.145 32.675 22.431 36.475 36.446 11.361 107.168-13.41 143.137-8.416-11.105-32.483-54.151-26.593-84.189-28.129zM1296.925 709.943c4.319 4.639 13.154 5.611 19.626 11.233 5.535 4.767 9.056 12.711 14.050 16.861 12.706 10.465 25.824 20.062 39.263 22.431 6.559 1.182 13.41-5.663 19.626-5.599-0.157 0 4.127 5.215 5.599 5.599 3.422 0.943 7.706-0.605 11.233 0 30.754 5.215 44.513 14.306 67.357 25.248 7.84-21.151-11.745-39.967-14.050-61.729-0.989-9.504 0.879-18.974 0-28.065-2.718-27.873-35.998-59.617-53.342-72.991-32.995-25.44-63.906-23.776-117.854-19.614-14.952-2.782-14.178-21.343-33.693-19.626 15.523 41.952 12.193 94.113 42.144 126.177zM1106.092 614.561c-31.714-6.687-73.376-18.27-109.467-11.233 35.998 2.27 78.881 12.706 109.473 11.233zM1136.945 617.314c-8.771-4.063-26.337-2.974-28.065 0 9.504 4.255 19.742 6.815 28.065 0zM1945.263 819.427c-27.361-33.821-76.617-47.202-120.671-61.729-96.034-31.65-208.8-61.374-314.339-78.561-3.294 1.374-6.367 2.974-8.416 5.599-2.206 0.605-3.248 2.334-2.782 5.599 17.629 11.937 41.248 7.328 61.729 11.233 44.641 8.457 85.598 20.639 126.305 30.882 22.687 5.71 47.301 6.687 67.357 14.050 5.919 2.142 10.529 9.248 16.855 11.233 8.928 2.782 19.486 0.541 28.065 2.782 3.998 1.053 6.751 6.623 11.233 8.416 6.047 2.433 14.050 0.605 19.614 2.782 37.663 14.69 78.753 37.727 101.022 58.912 6.175 5.407 3.166 30.562 14.050 22.431 16.035-3.422 5.471-27.134 0.029-33.757zM1470.898 695.905c-1.438 26.977 13.986 46.317 19.626 67.357 4.447 16.611-2.974 34.968 8.416 50.525 34.333-22.239 15.010-79.138-8.416-98.21-3.678-8.521 0.669-24.992-8.416-28.065-2.782 3.789-7.456 5.599-11.233 8.416zM1266.032 721.188c-20.446-7.473-37.919-26.272-56.095-22.431 13.945 34.974 60.961 50.909 103.839 47.714-3.55-21.791-30.37-18.927-47.65-25.248zM1195.886 707.108c-28.577-10.401-48.226 6.239-70.174 11.233 7.904 14.114 11.425 32.483 25.248 42.080 26.721 18.526 60.193-2.078 87.006 2.782 18.27 3.358 31.906 18.654 47.714 19.614 20.254 1.246 49.763-10.337 53.342-25.248-61.793 4.767-117.598-10.727-143.137-50.485zM1529.839 752.035c3.853 17.693-2.014 34.269-8.416 53.342 5.983 10.849 15.138 18.526 22.431 28.065 64.418 11.425 137.823 2.846 202.078 5.599 32.919 1.385 67.485 14.498 92.576-5.599 5.151-14.626-4.319-23.584-5.599-39.286-97.506-43.745-217.886-64.61-333.982-89.823-0.861 21.279 26.016 25.76 30.818 47.714zM1847.024 738.020v8.416c8.288 7.037 32.034 17.629 42.080 5.599-14.882-2.526-26.721-21.023-42.080-13.986zM1190.258 780.065c24.928 4.703 61.002 26.080 87.006 11.233-22.431-12.449-60.321-26.825-87.006-11.233zM1336.241 903.599c47.778 16.227 152.88-15.016 159.969-44.897 2.462-10.529-1.95-19.806 0-28.065-11.809-8.928-14.946-24.16-28.065-33.693-18.107-13.154-63.138-26.977-95.393-25.248-42.72 2.27-119.902 51.166-126.305 67.357-4.767 12.065-3.294 24.864 0 36.475 15.843 10.977 25.696-2.27 42.080-5.599 15.843 2.718 23.648 25.562 47.65 33.693zM1981.698 780.065c-26.144 1.758-28.257 30.114-22.431 56.136 12.513 6.687 23.135-2.142 39.263 0 9.504-24.096-14.196-35.166-16.797-56.159zM1914.381 839.018c-11.39-20.412-33.315-30.306-58.912-36.475 2.654 27.553 28.897 45.665 58.976 36.51zM1524.205 869.923c-3.422-17.437 7.84-25.568 2.782-36.475-28.001-3.742-21.151 34.333-2.846 36.51zM1760.029 858.667c-53.342-0.733-128.737-3.55-182.435-5.599-2.782-0.029-3.358 2.27-5.599 2.782-0.157 3.614-3.614 3.87-2.782 8.416 47.842 27.041 138.847 4.959 199.267 8.416 15.010 0.861 33.129 14.882 39.263-5.599-7.712-17.99-29.538-8.207-47.65-8.48zM1173.42 855.85c-18.718 1.438-37.791 8.352-42.080 19.626 19.998 19.742 55.007-5.104 89.823 2.782 0.413-3.294-0.477-7.968 2.782-8.416-4.063-14.83-33.501-15.33-50.525-14.050zM1886.287 864.301c-21.855-0.349-53.855-10.529-64.546 8.416 20.639 11.361 74.592 3.678 95.393 5.599 4.255-5.087-1.31-17.356-5.599-22.431-13.922-2.654-15.010 7.52-25.248 8.48zM1948.080 869.923c-0.92 11.169-0.157 20.703 5.599 25.248 22.588-2.654 38.216-12.321 42.080-33.693-14.498-6.047-38.495 0.221-47.714 8.416zM2037.84 864.301c-4.575 4.767-8.771 9.953-14.050 14.050 27.681 11.809 70.174 13.602 95.393-2.782-19.422-11.425-56.479-5.215-81.378-11.233zM2200.625 889.526c23.455 13.026 66.595 6.367 92.617 16.861v-25.248c-26.401-6.88-96.162-27.617-92.576 8.416zM993.837 872.74c-4.703-0.285-3.23 2.142-8.416 2.782-41.504 5.471-78.817-8.032-115.042 5.599 0.477 8.864-7.456 9.376-5.599 19.626 46.172-14.242 98.21-3.038 140.32-11.233 14.434 9.568 31.522 0.477 47.714 5.599 7.008-11.745 35.486-1.886 33.693-22.431-30.946-4.063-65.379 1.63-92.576-0.029zM1507.385 875.557c-1.566 4.063-4.383 6.85-8.416 8.416 2.718 48.098 53.040 62.562 103.839 53.342 9.312-10.401 10.657-31.522 2.782-44.897-22.495-3.789-22.111 15.33-39.263 16.861-23.135-7.776-41.504-20.19-58.976-33.629zM1061.206 909.239c7.264 6.431 18.974 0.349 16.855-11.233-8.835 0.477-16.727 1.95-16.797 11.233zM2481.329 945.674c11.361-9.184 18.206-22.943 22.431-39.263-27.937-23.52-59.553 31.778-22.431 39.263z">
  </path>
</svg>