<?xml version="1.0" standalone="no"?>
<!DOCTYPE svg PUBLIC "-//W3C//DTD SVG 20010904//EN" "http://www.w3.org/TR/2001/REC-SVG-20010904/DTD/svg10.dtd">
<svg version="1.0" xmlns="http://www.w3.org/2000/svg" width="575.000000pt" height="290.000000pt"
  viewBox="0 0 575.000000 290.000000" preserveAspectRatio="xMidYMid meet">

  <g transform="translate(0.000000,290.000000) scale(0.100000,-0.100000)" fill="#currentColor" stroke="none">
    <path d="M4070 1470 l0 -880 205 0 204 0 10 37 c6 21 11 44 11 51 0 19 14 14
41 -14 41 -45 98 -75 172 -91 109 -22 212 0 286 63 96 83 103 128 99 659 -3
408 -4 421 -25 460 -11 22 -34 52 -50 67 -114 109 -374 100 -483 -17 l-25 -27
-5 284 -5 283 -217 3 -218 2 0 -880z m561 151 l24 -19 0 -370 c0 -400 1 -395
-55 -407 -46 -10 -68 2 -80 43 -17 58 -9 734 9 755 18 23 73 21 102 -2z" />
    <path d="M1300 1450 l0 -880 200 0 200 0 2 563 3 562 78 -545 c44 -300 81
-553 84 -562 4 -16 20 -18 147 -18 l142 0 75 557 74 557 5 -554 5 -555 200 0
200 0 3 878 2 877 -302 -2 -302 -3 -52 -395 c-29 -217 -53 -393 -53 -390 -1 3
-28 181 -59 395 l-57 390 -298 3 -297 2 0 -880z" />
    <path d="M2870 1451 l0 -881 308 0 c357 1 492 10 560 40 65 29 118 84 144 150
22 54 23 63 26 610 2 347 -1 584 -7 632 -23 170 -112 264 -290 305 -49 11
-155 16 -403 20 l-338 5 0 -881z m532 569 c71 -20 68 2 67 -550 0 -356 -3
-505 -12 -530 -13 -39 -46 -60 -94 -60 l-33 0 0 575 c0 644 -7 587 72 565z" />
    <path d="M690 1440 l0 -880 230 0 230 0 0 880 0 880 -230 0 -230 0 0 -880z" />
  </g>
</svg>