<?xml version="1.0" standalone="no"?>
<!DOCTYPE svg PUBLIC "-//W3C//DTD SVG 20010904//EN" "http://www.w3.org/TR/2001/REC-SVG-20010904/DTD/svg10.dtd">
<svg version="1.0" xmlns="http://www.w3.org/2000/svg" width="688.000000pt" height="418.000000pt"
  viewBox="0 0 688.000000 418.000000" preserveAspectRatio="xMidYMid meet">

  <g transform="translate(0.000000,418.000000) scale(0.100000,-0.100000)" fill="CurrentColor" stroke="none">
    <path d="M8 4156 c-4 -18 -1 -29 8 -33 8 -3 14 -10 14 -15 0 -6 -7 -8 -15 -4
-12 4 -15 -4 -15 -42 1 -46 1 -47 15 -21 23 42 29 101 12 123 -13 18 -14 18
-19 -8z" />
    <path d="M242 4166 c23 -17 13 -26 -27 -26 -18 0 -45 -10 -60 -22 -30 -23 -64
-90 -65 -125 0 -16 -6 -23 -20 -23 -25 0 -25 0 1 61 12 27 19 52 16 55 -3 3
-8 -5 -12 -18 -4 -13 -16 -41 -25 -63 -25 -54 -53 -145 -48 -151 3 -2 10 15
17 38 25 82 48 88 104 26 22 -25 36 -35 32 -23 -3 11 -3 16 1 12 4 -4 14 -1
22 6 13 9 14 9 8 0 -4 -7 -3 -13 3 -13 5 0 12 6 14 13 3 7 6 6 6 -5 1 -9 6
-20 13 -24 7 -5 8 -3 3 7 -8 12 -6 12 8 0 9 -7 17 -18 17 -23 0 -6 9 -23 21
-39 11 -16 18 -29 14 -29 -16 0 -79 32 -111 56 -35 27 -37 27 -77 13 -51 -17
-83 -62 -92 -129 -13 -93 42 -132 179 -132 75 1 83 -1 110 -26 22 -21 26 -22
18 -7 -7 15 -6 23 3 32 11 10 18 5 36 -25 12 -20 22 -43 22 -50 0 -7 6 -11 14
-8 7 3 28 -4 46 -15 22 -14 25 -19 10 -14 -36 10 -27 -10 10 -23 40 -14 91
-16 82 -3 -9 16 15 24 31 10 14 -12 14 -14 -3 -20 -14 -6 -15 -8 -2 -8 31 -2
76 20 86 42 44 97 48 148 15 195 l-23 31 23 12 c12 6 32 15 45 18 21 6 12 14
-77 76 -56 38 -97 71 -90 73 11 4 104 -53 147 -91 22 -20 23 -20 32 4 9 21 10
22 11 4 2 -41 34 39 34 85 -1 68 -25 104 -107 157 -39 26 -74 48 -76 49 -1 2
-1 8 1 15 3 8 11 5 25 -10 12 -13 26 -20 32 -17 5 4 12 2 16 -4 3 -5 14 -10
23 -10 14 1 13 4 -7 20 -13 11 -31 20 -41 20 -10 0 -23 13 -30 30 l-12 30
-182 0 c-152 -1 -178 -3 -164 -14z m304 -54 c-10 -2 -26 3 -35 12 -15 15 -13
16 19 4 26 -9 30 -13 16 -16z m169 -141 c-6 -5 -25 10 -25 20 0 5 6 4 14 -3 8
-7 12 -15 11 -17z m-99 -288 c1 -19 -1 -20 -22 -11 -13 6 -24 15 -24 20 0 5
-5 6 -12 2 -7 -4 -8 -3 -4 5 5 7 20 11 34 9 20 -2 27 -9 28 -25z" />
    <path d="M744 4115 c29 -55 32 -65 18 -66 -9 0 -2 -5 16 -10 23 -7 38 -7 47 1
10 8 14 7 17 -2 3 -7 17 14 32 47 17 37 23 61 16 63 -8 3 -7 8 1 18 10 12 -3
14 -85 14 l-97 0 35 -65z" />
    <path d="M954 4155 c-34 -26 -64 -89 -64 -131 0 -13 -7 -27 -15 -30 -11 -4 -4
-12 22 -25 42 -22 46 -23 39 -10 -4 5 38 8 99 5 67 -2 104 0 100 6 -3 6 -1 10
4 10 6 0 11 -4 11 -10 0 -5 10 -10 23 -9 21 0 21 1 2 9 -16 7 -17 9 -3 9 21 1
68 -59 68 -87 0 -11 11 -29 25 -39 23 -17 55 -107 55 -158 0 -11 9 -34 19 -51
15 -24 17 -35 8 -44 -10 -10 -8 -11 8 -6 12 4 2 -10 -24 -34 l-43 -40 17 -52
c24 -72 27 -138 7 -130 -12 4 -14 1 -9 -12 4 -10 7 -20 7 -22 0 -2 11 -4 25
-4 14 0 25 -5 25 -10 0 -21 -51 -111 -66 -117 -18 -7 -231 25 -256 38 -10 5
-23 9 -28 9 -6 0 -59 20 -117 45 -59 25 -127 50 -152 56 -59 13 -91 34 -91 60
0 37 32 119 52 133 14 10 16 15 7 18 -11 4 -11 12 0 47 7 24 10 45 8 47 -2 3
-10 -16 -17 -41 -7 -25 -17 -45 -22 -45 -5 0 -7 -4 -4 -9 8 -12 -33 -128 -50
-142 -12 -9 -43 -8 -152 10 -75 11 -151 21 -168 21 -17 0 -34 3 -37 7 -6 5
-95 36 -225 78 l-42 13 0 -103 0 -104 43 -3 42 -4 -43 -8 -42 -9 0 -266 0
-266 65 67 66 67 -16 38 c-9 21 -29 60 -45 86 -17 27 -30 50 -30 52 0 11 93
57 160 79 41 14 76 26 78 26 1 0 2 7 2 15 0 8 5 15 10 15 6 0 10 -3 10 -6 0
-4 14 -72 30 -152 17 -80 28 -147 26 -150 -3 -2 -21 9 -41 27 -64 56 -136 38
-170 -44 -29 -69 -75 -233 -75 -266 0 -26 3 -31 20 -26 27 7 25 -3 -15 -83
-47 -94 -60 -99 -52 -23 4 33 2 64 -2 69 -5 5 -11 18 -14 29 -3 11 -5 -125 -6
-303 l-1 -323 23 6 c18 6 91 51 143 90 27 20 23 -5 -16 -87 -21 -46 -47 -117
-57 -156 -16 -65 -20 -72 -43 -72 -14 0 -32 -5 -40 -11 -12 -8 -8 -9 15 -6 27
5 28 4 10 -9 -10 -8 -22 -14 -27 -14 -13 0 -9 -240 4 -277 10 -27 10 -38 0
-53 -7 -11 -12 -32 -12 -47 l0 -28 24 30 c13 17 26 28 28 25 3 -3 19 -26 36
-51 45 -67 102 -114 168 -139 32 -12 64 -26 71 -31 9 -8 16 3 27 42 9 29 16
65 16 81 0 33 12 35 48 10 55 -38 142 -67 225 -76 15 -2 50 -22 77 -45 53 -44
63 -49 54 -26 -13 33 18 8 168 -139 87 -85 158 -149 158 -142 0 16 -56 133
-81 168 -12 16 -38 40 -59 53 -30 19 -44 39 -68 97 -17 40 -29 75 -27 77 8 7
130 -21 153 -36 13 -8 31 -12 40 -9 10 3 53 41 97 83 70 68 85 89 116 163 32
76 39 85 60 82 13 -1 53 -4 89 -6 71 -3 61 4 137 -104 10 -14 22 -21 32 -17 8
3 12 3 8 -1 -3 -4 5 -20 18 -36 14 -16 25 -37 25 -46 0 -26 43 -81 73 -93 34
-14 53 -1 78 58 10 24 23 43 29 43 19 0 97 58 165 121 46 44 74 62 101 66 44
7 40 -8 -7 -33 -17 -8 -36 -29 -43 -45 -7 -17 -23 -36 -36 -42 -38 -20 -84
-122 -88 -199 -5 -83 0 -105 33 -140 18 -19 36 -28 58 -28 18 0 43 -9 57 -20
41 -32 83 -23 127 29 26 29 27 40 12 95 -14 51 -5 81 30 102 16 10 35 28 42
41 14 25 39 31 39 9 0 -8 -7 -48 -16 -88 -27 -129 5 -240 79 -274 18 -8 47
-24 65 -34 28 -17 40 -19 71 -10 85 23 141 134 141 279 0 160 -58 265 -176
317 -30 13 -57 30 -59 37 -10 28 -20 259 -11 264 5 4 7 78 3 179 -5 167 -4
173 15 180 19 6 47 -18 48 -41 0 -5 4 -4 8 2 6 10 16 7 40 -10 17 -13 29 -27
25 -31 -4 -4 -1 -4 8 -1 9 3 39 -11 71 -35 31 -22 60 -40 65 -40 4 0 19 -12
32 -25 18 -20 21 -28 12 -39 -12 -15 -11 -52 2 -74 9 -14 0 -52 -12 -52 -5 0
-25 7 -44 15 -50 21 -116 19 -182 -6 l-55 -20 0 -47 c0 -26 7 -56 15 -66 8
-11 15 -16 15 -11 0 4 9 0 20 -10 18 -16 20 -16 26 -1 6 15 7 15 20 -1 11 -14
13 -15 14 -3 0 8 7 2 15 -14 13 -24 13 -31 3 -39 -9 -6 -8 -7 4 -3 21 6 61
-32 54 -51 -3 -7 -1 -13 4 -13 6 0 10 5 10 12 0 6 3 8 6 5 4 -4 1 -13 -6 -22
-9 -11 -9 -15 -1 -15 7 0 11 -10 9 -23 -3 -22 24 -62 34 -51 3 3 3 -6 1 -18
-2 -13 2 -36 11 -52 8 -16 12 -34 9 -39 -3 -6 -1 -7 5 -4 11 8 5 44 -9 53 -5
3 -9 13 -9 22 0 10 6 5 16 -13 8 -16 22 -34 30 -38 11 -7 12 -12 4 -22 -8 -10
-7 -15 8 -19 10 -4 19 -13 19 -21 0 -19 -1 -19 -37 0 -45 24 -36 11 23 -29 38
-26 67 -37 108 -42 72 -8 155 11 174 40 29 44 17 198 -21 258 -13 21 -24 40
-24 43 0 12 31 4 36 -10 4 -8 12 -15 20 -15 17 0 18 -22 3 -37 -19 -19 51 -53
110 -53 96 0 138 43 150 155 l6 50 59 -77 c32 -43 63 -75 69 -71 6 3 7 1 3 -5
-7 -11 9 -33 72 -101 30 -32 32 -40 25 -71 -13 -57 -6 -173 14 -219 16 -39 21
-42 48 -38 69 11 179 44 183 55 6 19 18 14 18 -7 0 -10 -6 -17 -12 -14 -14 5
-80 -128 -100 -202 -29 -105 -13 -213 40 -279 17 -21 67 -19 123 5 18 7 35 10
38 7 4 -4 1 -42 -6 -85 -21 -133 -14 -203 26 -282 43 -86 89 -136 138 -149 35
-10 42 -8 82 19 55 37 92 81 128 153 30 59 30 56 25 231 -3 80 0 135 9 165 12
39 11 56 -3 123 -10 44 -25 88 -34 100 -15 19 -21 20 -44 9 -14 -6 -26 -7 -26
-2 0 20 22 64 38 76 10 8 12 14 5 14 -6 0 -15 -4 -18 -10 -3 -5 -17 -10 -30
-10 l-25 0 17 38 c23 49 22 49 34 32 9 -12 9 -11 4 5 -4 11 -10 45 -14 75 -10
74 -58 160 -90 160 -11 0 -10 4 5 15 18 13 17 14 -16 13 -19 -1 -56 -1 -82 0
-44 2 -48 4 -48 27 0 37 27 95 43 95 8 0 17 7 21 15 10 28 23 16 42 -41 10
-30 20 -51 22 -46 1 5 -6 34 -18 63 -11 30 -20 67 -20 82 0 37 -25 96 -45 103
-21 9 -19 34 4 34 10 0 24 -7 31 -15 14 -17 35 -21 25 -5 -10 17 0 11 31 -15
28 -24 30 -25 44 -7 17 21 42 21 120 0 30 -7 69 -14 87 -13 17 0 29 -3 26 -8
-2 -4 0 -7 6 -7 5 0 12 6 14 13 3 6 6 1 6 -13 2 -46 43 -104 91 -127 61 -32
141 -32 164 -1 12 16 18 19 22 11 11 -26 24 -12 24 25 0 23 3 32 9 24 4 -7 5
-33 1 -57 -8 -51 -2 -54 45 -25 l33 20 -5 -60 c-3 -33 -2 -60 3 -60 16 0 35
41 29 61 -5 16 -3 20 12 17 14 -2 17 2 15 19 -2 13 2 23 8 23 6 0 8 5 5 10 -3
6 -2 10 4 10 15 0 19 -23 9 -44 -7 -12 -7 -16 0 -12 25 15 24 -70 0 -101 -5
-7 -6 -18 -2 -24 4 -8 3 -9 -4 -5 -7 4 -12 1 -12 -7 0 -8 -7 -18 -16 -21 -11
-4 -13 -11 -7 -19 4 -6 8 -33 8 -59 0 -27 4 -48 9 -48 6 0 1 -7 -10 -16 -18
-15 -17 -15 7 -1 29 17 39 14 39 -14 0 -21 -16 -33 -31 -23 -8 4 -7 9 2 16 11
8 11 9 -1 5 -10 -2 -15 -17 -15 -46 0 -35 -2 -39 -12 -24 -16 21 -17 6 -3 -34
6 -17 22 -36 36 -43 21 -12 28 -11 54 8 16 12 31 22 33 22 3 0 7 -13 10 -29 4
-16 12 -35 20 -42 10 -10 12 -23 6 -49 -16 -65 -10 -128 15 -178 23 -45 101
-121 139 -135 21 -8 57 8 57 24 0 6 16 26 36 46 27 25 33 38 25 46 -6 6 -11
20 -11 31 0 28 39 106 53 106 15 1 77 122 77 149 0 27 17 36 28 14 14 -29 4
-205 -13 -220 -4 -5 -5 -3 -1 4 4 7 -2 17 -15 24 -31 16 -39 -2 -39 -91 0
-123 38 -217 125 -305 45 -45 70 -56 78 -32 2 6 3 4 2 -5 -4 -25 16 -35 27
-14 5 9 14 16 19 16 6 0 7 -4 4 -10 -3 -5 -1 -10 5 -10 6 0 9 -4 6 -8 -3 -5 1
-9 9 -9 8 0 12 5 8 10 -3 5 3 6 15 3 15 -5 26 1 45 26 43 59 66 148 42 168 -8
6 -19 27 -25 46 -6 19 -16 34 -21 34 -15 0 -42 50 -44 81 -1 16 2 29 7 29 4 0
7 6 5 13 -1 7 10 12 31 12 31 0 32 1 26 35 -11 65 -166 278 -234 324 l-40 26
-1 -22 c-1 -17 -2 -19 -6 -5 -6 23 -20 22 -28 -3 -10 -31 -22 -16 -30 37 -4
26 -13 60 -21 75 -8 16 -11 28 -6 28 11 0 68 -61 75 -80 3 -9 6 -10 6 -2 2 25
49 13 69 -19 12 -20 22 -27 27 -20 4 8 25 -3 61 -34 53 -46 54 -46 48 -18 -12
59 -10 68 14 71 13 2 28 -1 35 -6 8 -7 24 -6 48 2 31 11 35 10 36 -6 1 -10 -3
-20 -8 -23 -5 -4 -7 -11 -3 -16 4 -7 -7 -9 -30 -5 -28 5 -36 3 -36 -9 0 -8 7
-15 15 -15 19 0 19 -14 0 -30 -12 -10 -19 -10 -27 -2 -7 7 -16 12 -20 12 -7 0
15 -23 115 -114 16 -15 33 -24 38 -21 5 4 9 2 9 -3 0 -4 10 -19 22 -31 19 -21
23 -22 33 -8 14 19 54 12 56 -9 1 -8 3 -18 4 -24 1 -5 3 -15 4 -21 0 -5 6 -7
11 -4 6 3 10 1 10 -6 0 -10 3 -10 11 -2 6 6 17 9 24 7 7 -3 16 -1 19 5 4 6 14
7 24 4 14 -6 15 -4 5 8 -10 13 -10 16 2 16 8 0 12 -3 10 -7 -5 -8 4 -20 34
-45 l24 -20 -5 23 c-4 12 -2 20 3 16 8 -5 7 5 -8 44 -3 9 -7 22 -8 28 -10 44
-211 254 -243 254 -12 0 -22 4 -22 8 0 7 -50 24 -115 38 -16 4 -40 15 -52 26
-25 24 -83 21 -175 -8 l-58 -17 -63 59 c-136 127 -144 132 -174 110 -9 -5 -13
-4 -13 4 0 9 -7 8 -25 -4 -13 -9 -29 -16 -34 -16 -9 0 -4 109 6 120 3 3 20
-13 39 -35 18 -22 34 -36 34 -31 0 5 -27 37 -60 73 -33 35 -60 68 -60 73 0 16
-93 74 -117 73 -13 -1 -30 -1 -38 -2 -25 -2 -64 -50 -60 -73 3 -16 2 -18 -10
-8 -12 10 -11 16 5 38 11 15 26 49 35 77 14 47 13 50 -7 72 -19 21 -20 26 -9
63 6 22 9 44 6 49 -9 15 -65 24 -79 12 -18 -15 -28 -1 -13 18 11 14 10 15 -8
1 -11 -8 -23 -19 -27 -25 -5 -6 -8 -6 -8 1 0 12 -43 34 -67 34 -13 0 -11 -4 6
-19 13 -11 20 -24 17 -30 -4 -5 -1 -13 5 -17 8 -5 9 -3 4 6 -5 9 -4 11 4 6 9
-6 9 -11 -1 -24 -8 -9 -8 -13 -2 -9 7 4 14 1 16 -6 4 -11 4 -100 0 -182 l-2
-30 -24 35 c-13 19 -44 50 -70 69 -25 19 -46 38 -46 41 0 11 -89 52 -100 45
-6 -3 -26 -31 -45 -61 -19 -30 -38 -54 -42 -54 -3 0 -4 3 0 6 10 10 -22 36
-34 28 -8 -5 -9 -3 -4 6 6 10 4 12 -8 7 -11 -4 -14 -2 -11 7 6 16 -13 31 -41
31 -16 0 -20 7 -20 35 0 19 -4 38 -10 42 -6 5 -3 8 7 8 10 0 15 7 14 18 -2 9
4 22 13 29 14 10 12 12 -12 18 -37 10 -148 -18 -186 -46 -26 -19 -71 -100 -71
-127 0 -15 -37 -21 -51 -8 -9 8 -10 8 -5 -1 11 -19 -9 -16 -46 7 -78 47 -163
12 -242 -101 l-16 -24 -40 46 c-45 53 -95 81 -129 72 -18 -5 -31 2 -57 31 -27
30 -40 36 -76 37 -24 1 -47 1 -52 0 -4 -1 -23 3 -41 9 -38 13 -47 40 -33 103
11 52 7 70 -33 131 -25 38 -29 50 -19 56 9 6 25 -1 47 -21 19 -16 40 -29 47
-29 8 0 17 -7 20 -16 5 -14 16 -16 61 -11 33 3 57 1 61 -5 3 -5 15 -8 25 -5
30 8 32 -10 5 -56 -30 -51 -35 -120 -11 -154 18 -26 100 -53 159 -53 59 1 113
29 187 97 35 33 74 65 86 71 20 11 23 8 49 -58 15 -39 29 -68 32 -66 4 5 -43
154 -59 188 -5 10 -4 18 4 21 7 3 2 6 -10 6 -13 1 -23 7 -23 14 0 9 -2 9 -9
-1 -7 -11 -10 -10 -15 3 -8 23 -8 27 4 20 6 -3 10 -1 10 4 0 6 7 11 15 11 11
0 15 11 15 40 0 35 3 40 23 40 12 0 28 -4 36 -9 11 -7 10 -12 -8 -22 -29 -19
-30 -89 -1 -107 11 -7 20 -8 20 -4 0 5 22 8 49 8 38 -1 47 2 39 12 -8 9 -6 12
5 12 8 0 18 -6 20 -12 4 -10 6 -10 6 0 1 6 8 12 16 12 8 0 15 3 16 8 0 4 2 15
4 24 2 10 -1 21 -6 24 -6 3 -5 12 3 22 12 15 11 16 -5 2 -17 -13 -19 -12 -15
10 1 14 8 28 13 32 6 4 2 8 -9 8 -13 0 -16 -5 -11 -17 5 -15 4 -16 -6 -5 -10
9 -10 15 -2 23 8 8 37 6 108 -8 l97 -19 -4 28 c-4 26 -2 28 27 28 17 0 40 -7
51 -15 10 -8 27 -15 36 -15 9 0 49 -16 89 -35 39 -19 76 -32 81 -29 4 3 8 1 8
-4 0 -5 8 -9 18 -9 9 0 35 -8 57 -19 l40 -19 -80 -3 c-48 -2 -104 3 -140 12
-92 23 -135 28 -135 17 0 -6 12 -13 28 -16 93 -19 202 -50 232 -66 19 -10 55
-27 80 -39 45 -21 45 -21 20 0 -14 11 -40 28 -58 37 -18 9 -30 19 -25 24 11
10 174 -1 167 -12 -3 -5 -16 -9 -30 -9 -17 0 -24 -6 -24 -19 0 -24 26 -51 49
-51 10 0 32 -7 49 -15 17 -9 55 -21 85 -27 52 -11 56 -10 103 18 31 18 75 33
119 40 39 7 57 12 41 13 -16 0 -37 7 -45 15 -9 8 -29 17 -46 21 l-30 7 30 -21
c17 -11 26 -21 21 -21 -14 0 -160 82 -164 91 -2 5 -10 9 -17 9 -27 0 -3 -35
36 -52 46 -19 50 -40 12 -58 l-28 -12 25 -10 c23 -8 23 -10 7 -19 -26 -15 -62
-7 -61 14 2 19 4 19 -53 8 -40 -8 -43 -7 -43 14 0 22 24 40 40 30 18 -11 30
98 16 143 -8 25 6 29 24 7 25 -30 167 -108 243 -133 71 -23 80 -24 118 -12 22
8 52 27 65 43 l26 30 -29 13 c-15 7 -22 13 -15 13 10 1 10 6 2 21 -10 19 -8
20 35 20 55 0 113 -26 96 -43 -20 -20 -12 -46 19 -62 17 -9 30 -12 30 -8 0 5
11 -5 24 -22 l24 -30 11 26 c14 37 4 71 -20 64 -12 -4 -21 1 -29 15 -8 16 -8
20 4 20 8 0 24 16 36 35 25 41 30 42 74 13 29 -19 33 -27 29 -53 -5 -33 -7
-31 80 -69 47 -20 46 -20 40 7 -4 19 -3 20 9 7 19 -21 92 -70 105 -70 21 0 24
19 9 55 -8 19 -21 34 -28 33 -8 -2 -13 8 -13 27 l0 30 -75 3 c-65 2 -80 7
-110 31 -19 15 -56 40 -82 55 -27 15 -48 30 -48 33 0 3 16 3 35 1 22 -3 35 0
35 8 0 12 -28 40 -39 38 -14 -2 -61 23 -55 29 4 4 14 1 23 -5 13 -10 14 -10 4
2 -20 22 -16 30 30 50 26 12 35 19 22 19 -11 0 -29 -6 -39 -14 -11 -8 -30 -15
-43 -15 -21 0 -22 3 -13 20 6 11 8 20 4 20 -10 0 -43 -40 -49 -61 -4 -11 -12
-19 -18 -19 -7 0 -6 -5 3 -11 13 -9 12 -10 -3 -5 -10 3 -50 -8 -89 -24 -84
-36 -86 -36 -62 -8 14 16 9 14 -19 -7 -33 -25 -40 -26 -53 -14 -12 13 -11 20
6 54 34 67 25 82 -42 76 -9 -1 -19 3 -23 9 -4 6 8 10 33 10 21 0 66 3 100 6
l61 7 11 -42 c6 -22 15 -41 20 -41 11 0 70 49 95 79 11 14 26 41 33 60 12 33
11 37 -10 53 -13 10 -39 22 -58 28 -40 12 -163 24 -140 14 23 -10 27 -22 24
-65 -2 -27 2 -42 13 -47 24 -14 -72 -24 -104 -11 -46 18 -66 19 -82 6 -12 -10
-13 -9 -7 1 7 11 4 12 -11 3 -11 -6 -23 -7 -27 -4 -3 3 -6 1 -6 -6 0 -7 -4 -9
-10 -6 -6 3 -10 1 -10 -5 0 -6 -4 -8 -10 -5 -6 3 -10 2 -10 -3 0 -9 -110 -8
-156 2 -11 2 -40 -4 -63 -15 -27 -12 -68 -19 -114 -20 -65 -1 -74 -4 -99 -31
-17 -18 -25 -35 -21 -46 4 -13 2 -12 -10 3 -14 18 -17 19 -34 4 -19 -17 -27
-16 -82 9 -32 15 -34 15 -53 -9 l-20 -24 6 26 c7 30 -6 39 -54 39 -28 0 -28
-1 -18 -36 5 -20 6 -40 1 -44 -17 -16 -177 -50 -187 -40 -12 12 0 26 29 33 18
4 18 5 -5 16 -23 10 -22 11 13 6 34 -6 37 -4 37 20 0 18 5 25 20 25 27 0 25
11 -10 64 -26 38 -37 46 -81 55 -86 19 -99 15 -147 -36 -24 -27 -53 -65 -64
-86 -11 -22 -21 -37 -23 -35 -6 6 -13 55 -20 143 -8 89 -69 265 -92 265 -8 0
-30 7 -51 16 -33 14 -35 17 -17 24 29 12 37 12 29 -2 -6 -10 -4 -10 8 0 11 9
18 10 23 2 3 -6 11 -8 16 -4 14 8 1 23 -19 19 -9 -1 -25 2 -36 7 -13 7 -16 7
-12 -1 4 -6 1 -11 -7 -11 -9 0 -13 9 -12 25 2 14 -1 23 -6 19 -5 -3 -9 0 -9 6
0 6 -4 8 -10 5 -5 -3 -10 -15 -10 -26 0 -14 -7 -19 -26 -19 -23 0 -24 2 -11
20 8 11 28 36 45 54 17 19 28 36 25 39 -3 3 5 5 18 4 13 0 28 -6 32 -12 5 -6
7 -3 3 7 -4 14 0 17 18 16 14 -1 22 -7 19 -14 -2 -7 1 -15 6 -19 6 -3 9 -11 5
-16 -3 -5 -2 -9 3 -8 22 4 34 -2 27 -13 -5 -8 0 -7 11 2 11 9 16 10 11 3 -4
-8 -2 -13 6 -13 8 0 6 -5 -5 -11 -18 -11 -14 -29 6 -29 7 0 6 4 -3 11 -11 7
-6 9 22 6 20 -3 41 0 47 6 6 6 11 7 11 2 0 -6 9 3 19 19 11 17 17 34 14 39 -3
6 -1 7 6 3 6 -4 8 -12 5 -18 -4 -7 -2 -8 4 -4 12 7 5 36 -8 36 -5 0 -7 8 -6
18 3 17 61 32 102 26 12 -2 14 0 6 8 -7 7 -25 12 -42 13 -16 1 -33 5 -37 10
-5 4 -1 5 7 0 11 -6 12 -5 4 4 -9 10 -30 9 -95 -4 -46 -9 -100 -18 -119 -21
-19 -3 -47 -12 -62 -20 -15 -8 -34 -11 -42 -8 -11 4 -16 0 -16 -11 0 -9 -13
-30 -30 -47 -16 -16 -30 -32 -30 -35 0 -17 -78 -78 -100 -78 -22 0 -25 -5 -28
-37 -3 -38 -44 -84 -63 -72 -5 3 -9 -1 -9 -9 0 -10 -8 -13 -26 -9 -16 3 -21 7
-14 12 18 11 4 42 -29 64 -33 23 -95 123 -80 131 5 4 9 13 9 21 0 11 -16 14
-73 14 -41 0 -77 3 -80 7 -9 9 13 34 24 27 5 -3 9 -1 9 5 0 22 -63 69 -122 91
-134 48 -233 110 -156 97 76 -12 198 -50 198 -61 0 -11 207 -93 222 -89 4 2
16 -10 27 -26 11 -15 37 -41 57 -56 l37 -28 19 23 18 22 49 -21 c28 -11 57
-21 65 -21 23 0 65 51 72 87 4 19 12 33 20 33 25 0 53 58 44 91 -5 16 -6 29
-3 29 3 0 -1 8 -8 17 -13 15 -12 16 9 11 18 -5 22 -2 22 17 0 20 -7 25 -37 31
-21 3 -66 12 -101 20 -35 8 -81 14 -102 14 -40 0 -93 -18 -88 -30 4 -10 93
-87 166 -144 34 -27 62 -50 62 -52 0 -13 -39 10 -73 45 -41 39 -46 41 -85 35
-48 -8 -64 2 -89 53 -9 20 -31 42 -54 53 -21 11 -44 28 -51 38 -25 34 -142 91
-202 98 -94 11 -72 21 44 20 64 -1 112 3 115 9 3 6 4 1 2 -10 -3 -17 2 -20 39
-20 30 0 50 7 67 23 29 27 35 28 39 1 2 -17 8 -13 31 22 33 52 36 79 7 72 -13
-4 -20 0 -20 9 0 17 -50 20 -62 3 -5 -6 -8 -5 -8 3 0 28 -20 9 -21 -20 -1 -18
-3 -25 -6 -15 -5 20 -8 20 -33 7 -14 -8 -25 -4 -48 15 -16 13 -41 29 -55 34
-23 9 -59 53 -40 50 20 -3 34 2 28 10 -3 5 0 13 6 17 8 5 9 3 4 -5 -5 -9 -1
-12 11 -10 11 2 29 -2 40 -9 12 -6 24 -9 26 -6 3 2 11 -2 18 -11 13 -16 37 -8
72 22 16 14 16 17 -5 45 -24 32 -82 72 -94 65 -5 -3 -30 -1 -57 3 -39 6 -46 5
-34 -4 14 -10 13 -14 -8 -33 -20 -18 -24 -19 -27 -4 -4 14 -5 14 -6 -1 -1 -19
-10 -22 -35 -12 -9 3 -13 11 -9 17 4 7 0 8 -12 3 -16 -6 -16 -4 -4 11 8 9 9
14 2 10 -6 -4 -14 -3 -18 3 -3 5 -1 10 5 10 8 0 8 6 0 20 -6 11 -16 20 -23 19
-9 0 -9 -2 1 -6 6 -2 12 -9 12 -15 0 -6 -7 -5 -16 3 -15 12 -14 15 6 31 12 10
19 18 15 18 -13 0 -51 -23 -77 -47 l-27 -25 5 42 c4 29 1 47 -10 59 -8 9 -31
35 -51 58 -37 43 -50 48 -149 59 -42 4 -61 3 -66 -6 -6 -10 -14 -7 -31 9 -19
18 -21 25 -12 40 17 26 1 45 -32 37 -25 -6 -26 -6 -11 9 17 18 22 40 6 30 -5
-3 -10 -1 -10 6 0 8 -5 8 -17 -2 -17 -13 -17 -13 0 7 9 11 17 26 17 32 0 7 5
12 10 12 6 0 10 4 10 9 0 12 -48 5 -73 -12 -13 -8 -32 -17 -42 -20 -18 -4 -17
-5 3 -6 40 -2 41 -44 2 -53 -8 -2 -20 -9 -26 -17 -9 -11 -12 -12 -19 -1 -5 9
-4 11 3 6 7 -4 12 -2 12 3 0 6 -4 11 -10 11 -5 0 -10 7 -10 15 0 8 -7 15 -16
15 -8 0 -12 5 -9 10 3 6 -4 10 -17 10 -16 0 -19 3 -10 9 10 6 10 10 -2 20 -9
7 -21 11 -28 8 -7 -3 -4 -6 7 -7 20 -1 20 -1 1 -15 -23 -17 -40 -20 -31 -5 3
6 2 10 -3 10 -5 0 -18 -17 -27 -37 -15 -31 -19 -34 -29 -21 -10 14 -15 13 -41
-9 -17 -15 -31 -21 -33 -14 -4 13 36 71 50 71 5 0 -13 23 -42 50 -29 28 -57
50 -63 50 -7 0 -20 -14 -29 -30 -21 -37 -36 -38 -44 -5 -3 14 -8 25 -9 25 -2
0 -25 -11 -52 -24 -49 -25 -129 -48 -170 -48 -14 0 -26 -10 -34 -30 -6 -16
-10 -30 -8 -31 4 -2 24 -11 129 -55 22 -10 21 -10 -10 -5 -19 3 -37 6 -40 6
-3 0 -30 -3 -61 -7 -37 -5 -56 -13 -56 -22 0 -7 3 -11 6 -9 4 2 15 -3 26 -11
17 -13 15 -14 -26 -14 -24 0 -65 -7 -91 -15 l-48 -14 0 49 c0 28 3 50 8 50 4
0 29 -11 57 -24 27 -14 52 -23 54 -20 6 6 -27 30 -76 54 -29 15 -43 29 -48 49
-6 28 20 105 33 97 4 -2 8 17 10 44 l3 48 -43 -5 c-38 -4 -47 0 -83 31 -22 20
-35 36 -28 36 6 0 13 -6 16 -12 2 -7 8 -9 13 -5 5 5 1 14 -9 21 -9 7 -18 25
-19 40 -2 27 -12 34 -24 15 -7 -12 -66 45 -77 74 -8 22 -86 23 -128 2 -27 -14
-28 -17 -14 -31 8 -9 15 -19 15 -24 0 -4 24 -19 53 -33 42 -21 47 -26 27 -27
-20 0 -22 -2 -10 -10 13 -8 13 -10 -2 -10 -20 0 -17 -34 7 -60 8 -9 15 -22 15
-29 0 -6 28 -38 61 -70 48 -45 58 -59 46 -64 -9 -3 -23 0 -31 8 -7 8 -16 11
-20 8 -3 -4 -13 2 -20 13 -10 13 -11 21 -3 26 6 3 -11 9 -36 13 -53 8 -85 31
-81 58 1 11 0 16 -3 13 -3 -3 -14 6 -25 19 -10 13 -34 30 -53 36 -27 10 -36
20 -40 43 -6 40 -3 69 10 78 6 5 5 8 -4 8 -10 0 -11 3 -2 13 17 22 -29 37
-112 37 -61 0 -77 -4 -103 -25z m531 -115 c3 -6 -1 -7 -9 -4 -18 7 -21 14 -7
14 6 0 13 -4 16 -10z m35 -240 c0 -5 -4 -10 -10 -10 -5 0 -10 5 -10 10 0 6 5
10 10 10 6 0 10 -4 10 -10z m74 -5 c-4 -8 -8 -15 -10 -15 -2 0 -4 7 -4 15 0 8
4 15 10 15 5 0 7 -7 4 -15z m-34 -15 c0 -5 -2 -10 -4 -10 -3 0 -8 5 -11 10 -3
6 -1 10 4 10 6 0 11 -4 11 -10z m30 -40 c12 -23 12 -24 -3 -11 -10 7 -17 20
-17 29 0 18 3 16 20 -18z m448 -52 c10 -12 10 -18 1 -24 -8 -4 -9 -3 -5 4 4 7
2 12 -3 12 -6 0 -11 8 -11 17 0 9 1 14 3 12 1 -2 8 -11 15 -21z m532 -18 c15
-8 17 -16 10 -40 -8 -27 -5 -31 26 -51 22 -13 33 -27 30 -35 -3 -8 -1 -14 3
-14 5 0 12 -7 15 -16 3 -8 2 -12 -4 -9 -6 4 -10 -5 -10 -20 0 -24 -2 -25 -15
-11 -8 8 -24 18 -35 21 -11 3 -20 11 -20 17 0 6 -3 9 -6 5 -3 -3 -15 3 -27 13
-11 11 -24 17 -29 14 -4 -3 -8 0 -8 5 0 6 -4 11 -9 11 -11 0 -4 -61 10 -100
10 -27 69 -72 99 -77 10 -1 31 4 46 12 24 12 32 12 62 -1 34 -14 44 -23 91
-83 47 -62 95 -24 85 66 -3 24 1 45 10 56 12 16 17 17 38 5 12 -7 26 -17 30
-23 5 -6 8 -6 8 -1 0 6 7 1 16 -10 8 -10 12 -12 8 -4 -4 9 -3 12 2 7 5 -5 9
-18 9 -29 0 -12 7 -23 15 -25 13 -4 13 -3 0 6 -8 6 -10 11 -4 11 6 0 17 -7 24
-16 8 -8 9 -14 4 -13 -22 4 -32 -3 -44 -32 -12 -28 -16 -30 -56 -28 -24 2 -49
-2 -55 -8 -12 -12 -31 -78 -31 -110 0 -13 -4 -23 -10 -23 -5 0 -6 6 -3 13 3 6
-2 2 -11 -10 -9 -13 -23 -23 -31 -23 -11 0 -11 -2 -1 -14 11 -11 18 -10 42 11
19 16 37 23 50 19 12 -3 44 -6 71 -6 33 0 45 -3 36 -9 -8 -5 -24 -7 -37 -5
-48 9 -133 -76 -134 -133 0 -18 -6 -23 -24 -23 -23 0 -24 2 -14 31 6 16 8 32
5 35 -3 3 -8 -8 -12 -25 -4 -17 -11 -33 -16 -36 -5 -4 -9 -18 -8 -33 0 -15 3
-21 6 -14 6 16 51 34 64 26 5 -3 0 -19 -11 -35 -12 -16 -24 -45 -27 -64 -4
-26 -11 -35 -25 -35 -18 0 -20 5 -14 48 8 68 -1 42 -27 -78 -21 -97 -24 -105
-47 -108 -14 -1 -43 4 -65 12 l-40 15 33 0 c70 2 118 96 94 184 -9 30 -7 38 9
53 11 9 17 20 14 22 -3 3 -54 5 -113 5 -98 -1 -102 0 -47 8 33 5 82 8 110 8
l49 0 -19 23 c-11 12 -26 28 -32 36 -18 19 -18 19 37 47 28 14 51 31 52 38 4
37 2 77 -4 77 -5 0 -8 6 -8 13 0 8 -9 22 -20 32 -12 10 -18 25 -15 32 2 8 1
11 -4 8 -6 -3 -14 1 -18 10 -5 8 -32 24 -61 34 -29 11 -50 15 -47 10 4 -5 -1
-6 -9 -3 -9 3 -13 11 -10 16 4 6 -4 4 -17 -3 -23 -12 -23 -11 -9 6 9 11 10 16
3 11 -7 -4 -13 -3 -13 3 0 6 -8 7 -17 4 -16 -6 -16 -5 -4 11 12 15 12 17 0 14
-8 -2 -13 3 -11 10 2 10 -2 10 -20 1 -22 -12 -22 -11 -8 6 8 10 10 16 3 12
-18 -11 -25 9 -8 23 8 7 15 18 15 24 0 6 -4 5 -9 -3 -11 -18 -25 4 -17 26 4 9
-1 26 -9 39 -28 43 -119 29 -173 -25 -21 -21 -28 -41 -31 -95 -1 -16 -14 3
-27 40 -16 46 -1 102 29 114 16 6 18 9 5 9 -9 1 -23 -6 -32 -14 -20 -20 -23
-19 -28 9 -4 19 3 33 26 55 18 17 35 31 38 31 3 0 9 -18 13 -40 7 -44 12 -46
130 -42 84 3 96 8 85 38 -13 34 -14 33 23 49 39 17 43 18 67 5z m-479 -29 c13
-10 31 -21 39 -24 11 -4 11 -6 -4 -6 -10 -1 -31 10 -48 24 -34 29 -23 34 13 6z
m-598 -45 c6 -16 -44 -117 -55 -110 -4 3 -6 10 -2 15 3 5 0 8 -7 7 -15 -4 -27
33 -28 88 l-1 41 44 -14 c25 -8 47 -20 49 -27z m454 18 c3 -8 12 -13 20 -9 11
3 13 1 9 -10 -3 -9 0 -15 9 -15 20 0 29 -20 16 -33 -9 -9 -11 -8 -6 6 4 9 5
17 2 17 -3 0 -7 -7 -10 -15 -4 -9 17 -28 66 -59 40 -25 66 -46 59 -46 -12 0
-69 34 -152 93 -19 13 -48 32 -64 42 l-29 18 29 13 c39 17 44 17 51 -2z m-417
-24 c24 -24 26 -42 5 -34 -8 4 -15 12 -15 20 0 8 -4 14 -10 14 -5 0 -10 5 -10
10 0 15 8 12 30 -10z m33 -63 c15 -12 27 -28 27 -35 0 -7 4 -12 9 -12 5 0 14
-14 20 -32 11 -30 10 -30 -7 -15 -24 22 -34 21 -82 -3 -40 -20 -40 -20 -40 -1
0 11 -4 22 -9 26 -15 9 21 95 40 95 9 0 28 -10 42 -23z m641 -137 c14 -6 16
-9 5 -9 -18 -1 -59 35 -59 52 0 6 7 1 16 -11 9 -13 26 -27 38 -32z m-433 27
c-1 -12 -15 -9 -19 4 -3 6 1 10 8 8 6 -3 11 -8 11 -12z m-310 -14 c13 -16 12
-17 -3 -4 -10 7 -18 15 -18 17 0 8 8 3 21 -13z m1749 7 c-8 -5 -19 -10 -25
-10 -5 0 -3 5 5 10 8 5 20 10 25 10 6 0 3 -5 -5 -10z m71 -7 c12 -16 12 -17
-1 -7 -8 7 -24 14 -35 17 -19 4 -19 5 1 6 12 0 28 -7 35 -16z m-3067 -8 c25
-11 42 -27 51 -48 l14 -32 1 33 c0 38 6 38 126 21 l77 -12 -52 -24 c-57 -28
-81 -62 -81 -118 0 -44 -26 -48 -41 -7 -16 46 -97 101 -164 112 -71 12 -88 25
-23 18 63 -7 80 11 44 47 -22 22 -23 25 -7 25 10 0 35 -7 55 -15z m2040 -33
c4 -7 -59 -82 -69 -82 -15 0 -1 38 22 62 28 29 38 34 47 20z m51 -1 c-3 -5 -1
-12 5 -16 5 -3 10 -2 10 4 0 6 24 2 55 -9 39 -13 55 -15 56 -7 0 9 2 9 6 0 2
-7 13 -13 23 -13 10 0 20 -6 23 -12 3 -10 7 -10 19 -1 12 10 15 10 15 -2 0 -8
-2 -13 -4 -11 -3 2 -18 0 -35 -5 -37 -10 -100 2 -163 32 -48 23 -56 35 -27 42
9 3 18 5 20 6 2 0 1 -3 -3 -8z m-836 -23 c0 -14 -16 -35 -41 -55 -22 -18 -35
-33 -29 -33 8 0 9 -5 1 -19 -14 -27 -13 -84 2 -99 15 -15 3 -15 -39 0 -20 7
-33 19 -33 30 0 26 31 98 42 98 5 0 7 4 3 10 -7 12 16 50 31 50 7 0 22 9 35
20 30 24 29 24 28 -2z m456 -46 c15 -13 41 -24 59 -25 25 -2 32 -6 32 -22 -1
-15 5 -19 22 -18 17 2 22 -2 22 -20 0 -16 3 -18 9 -8 7 11 10 9 16 -8 3 -11
10 -21 15 -21 4 0 10 -9 13 -20 3 -11 1 -18 -4 -14 -5 3 -9 -4 -9 -15 0 -11
-19 -47 -42 -80 -41 -59 -41 -61 -29 -102 7 -22 10 -43 7 -46 -2 -3 -18 5 -34
17 -33 25 -33 24 8 115 12 27 27 45 38 46 9 0 12 3 6 5 -18 7 -4 45 20 54 21
9 21 9 0 9 -16 1 -29 -18 -64 -90 -24 -50 -50 -94 -58 -97 -8 -3 -48 5 -88 16
-86 26 -94 26 -94 8 0 -8 25 -20 63 -30 34 -10 154 -63 266 -119 194 -96 205
-103 222 -141 l19 -41 0 33 c0 26 4 32 21 32 51 0 309 -75 402 -116 164 -73
195 -93 190 -116 -3 -11 -11 -17 -19 -14 -8 3 -36 8 -63 12 -37 5 -58 15 -82
38 -22 21 -30 25 -26 12 7 -18 6 -18 -18 -2 -14 9 -30 14 -35 11 -6 -3 -10 -1
-10 5 0 6 -4 9 -9 6 -11 -7 -22 20 -15 38 3 9 -9 17 -39 26 -38 10 -54 9 -99
-4 -76 -22 -118 -73 -118 -144 0 -30 35 -72 61 -72 10 0 22 -7 26 -15 5 -8 20
-16 33 -17 34 -4 40 -15 28 -50 -7 -21 -7 -37 1 -54 10 -23 8 -25 -29 -40 -22
-9 -54 -34 -71 -55 -33 -42 -55 -49 -62 -21 -3 9 -8 60 -12 112 -3 52 -8 114
-11 137 -5 34 -3 42 13 46 15 4 14 5 -4 6 -17 1 -23 7 -23 23 0 12 -2 19 -5
16 -3 -2 3 -80 11 -172 9 -91 14 -169 11 -173 -4 -3 -22 6 -41 20 -61 47 -104
59 -184 49 -40 -5 -72 -7 -72 -6 0 2 33 24 73 50 92 60 145 109 167 157 17 36
16 40 -1 74 -28 56 -70 75 -61 28 3 -19 -9 -44 -53 -103 -84 -113 -108 -137
-115 -116 -5 13 -17 7 -68 -35 -34 -29 -62 -56 -62 -61 0 -5 -6 -15 -14 -23
-8 -7 -28 -42 -45 -76 -18 -34 -38 -65 -47 -68 -16 -6 -42 -52 -54 -93 -7 -24
-8 -23 -18 15 -7 22 -21 55 -32 73 -11 19 -16 31 -11 28 11 -7 -30 80 -51 107
-13 18 -16 16 -49 -21 -18 -21 -53 -66 -76 -98 -58 -80 -112 -142 -113 -127 0
6 11 25 25 41 91 109 213 392 198 463 -5 26 -3 30 13 27 14 -2 20 4 22 21 4
28 54 78 91 92 13 5 21 12 18 16 -3 3 -14 2 -24 -2 -10 -5 -22 -9 -26 -9 -5
-1 -15 -10 -23 -21 -13 -17 -16 -18 -24 -5 -5 8 -10 21 -10 28 0 8 -15 12 -42
12 l-43 -1 28 -22 c57 -47 25 -118 -78 -172 -31 -16 -81 -53 -111 -82 -31 -29
-59 -53 -64 -53 -5 0 2 24 15 53 41 92 41 94 -2 106 -60 17 -117 13 -146 -9
-18 -14 -37 -19 -68 -17 -44 4 -87 -5 -122 -24 -20 -11 -37 -4 -37 15 0 8 -7
19 -15 26 -20 17 -20 41 1 33 9 -3 19 -1 23 6 4 6 15 9 24 5 9 -3 14 -10 11
-16 -3 -5 0 -8 7 -7 8 1 27 -3 42 -9 45 -19 51 -15 86 53 42 81 51 146 25 166
-22 16 -30 40 -12 36 19 -3 32 -19 50 -57 9 -19 29 -46 45 -60 l28 -25 -22 26
c-13 14 -23 29 -23 34 0 5 -7 17 -17 27 -24 26 -11 32 20 8 18 -15 27 -17 30
-8 3 7 6 4 6 -6 1 -19 1 -19 14 -1 13 17 14 17 20 -4 3 -11 1 -21 -4 -21 -5 0
-9 -4 -9 -9 0 -5 15 -9 34 -8 22 1 32 6 29 15 -3 6 -12 12 -20 12 -8 0 -11 5
-7 12 4 7 3 8 -4 4 -7 -4 -12 -5 -12 -2 0 2 -3 12 -7 22 -5 13 -3 16 10 11 9
-3 17 -2 17 4 0 5 -7 12 -15 15 -8 4 -12 10 -9 15 3 5 0 9 -6 9 -6 0 -9 4 -6
8 14 22 -92 92 -139 92 -26 0 -75 -39 -75 -60 0 -5 -9 -10 -20 -10 -13 0 -20
7 -20 20 0 11 -12 68 -26 125 -29 113 -27 150 4 121 28 -25 117 -38 213 -31
59 5 89 3 93 -4 4 -6 14 -11 22 -11 8 0 12 5 9 10 -4 6 -10 8 -15 5 -4 -3 -10
2 -14 10 -8 21 5 25 47 15 34 -7 37 -6 32 11 -4 12 -1 21 9 25 9 3 12 12 9 22
-10 26 47 -29 58 -56 6 -15 5 -29 -3 -41 -16 -26 12 -67 51 -76 74 -16 160
124 148 241 -7 63 -11 62 122 40 46 -7 91 -11 101 -9 23 6 34 33 20 47 -13 13
-13 29 0 21 6 -3 10 3 10 14 0 14 -6 21 -20 21 -13 0 -20 -7 -20 -19 0 -30
-19 -35 -48 -14 -55 40 -98 152 -53 135 11 -4 31 -17 46 -30z m737 -3 c-11 -4
-18 -1 -21 9 -2 9 -5 11 -10 4 -4 -7 -18 -7 -41 -2 l-35 9 33 -3 c18 -1 35 1
37 5 3 4 16 2 30 -4 20 -10 22 -13 7 -18z m-902 11 c0 -5 -4 -10 -10 -10 -5 0
-10 5 -10 10 0 6 5 10 10 10 6 0 10 -4 10 -10z m0 -49 c0 -17 -18 -21 -24 -6
-3 9 0 15 9 15 8 0 15 -4 15 -9z m1630 -11 c0 -5 -7 -10 -16 -10 -8 0 -13 -4
-9 -9 3 -6 14 -8 25 -6 12 2 18 0 15 -6 -4 -5 -11 -6 -17 -3 -8 5 -9 1 -4 -11
5 -15 2 -14 -16 5 -23 25 -23 25 -3 37 25 15 25 15 25 3z m-2445 -48 c32 -18
56 -39 68 -62 l19 -35 -5 34 -4 33 69 -4 c79 -6 90 -12 60 -34 -29 -20 -45
-50 -51 -99 -8 -52 -34 -59 -48 -13 -6 18 -11 25 -12 15 -1 -12 -5 -15 -13
-10 -7 4 -19 8 -27 8 -8 0 -19 9 -25 19 -6 11 -15 25 -19 30 -5 6 -17 26 -28
44 -17 30 -22 32 -36 20 -15 -11 -16 -11 -10 5 5 14 0 17 -31 17 -47 0 -112
-18 -112 -30 0 -6 -7 -10 -15 -10 -20 0 -74 -60 -75 -82 0 -15 -9 -18 -46 -18
-93 0 -131 -22 -196 -112 -11 -15 -20 -20 -26 -13 -11 11 -63 257 -56 265 3 2
11 0 18 -5 75 -55 95 -58 251 -37 97 13 102 14 142 35 18 10 35 17 38 17 73
-3 77 -1 73 31 -4 28 -3 30 21 24 14 -4 49 -19 76 -33z m1355 13 c0 -2 -9 -9
-20 -15 -16 -9 -20 -8 -20 5 0 8 9 15 20 15 11 0 20 -2 20 -5z m-817 -55 c7
-17 17 -28 24 -26 9 4 10 -1 3 -18 -5 -13 -6 -28 -2 -32 4 -5 0 -3 -8 2 -8 6
-27 14 -42 18 -16 3 -28 11 -28 16 0 5 8 6 18 3 14 -6 15 -4 5 8 -13 16 -7 59
9 59 5 0 15 -14 21 -30z m1017 -2 c-14 -11 -24 -25 -22 -29 1 -5 -6 -9 -15 -9
-13 0 -8 9 17 34 19 19 37 32 40 29 3 -2 -6 -14 -20 -25z m120 -148 c0 -5 -2
-10 -4 -10 -3 0 -8 5 -11 10 -3 6 -1 10 4 10 6 0 11 -4 11 -10z m-1536 -147
c14 -56 26 -108 26 -116 0 -25 -77 20 -100 59 -12 18 -41 51 -65 72 l-44 39
57 26 c70 32 85 36 94 28 4 -3 18 -52 32 -108z m-698 -93 c36 -195 37 -200 18
-200 -10 0 -43 26 -76 58 -51 52 -58 63 -58 98 0 22 -5 45 -12 52 -9 9 -1 23
33 61 24 27 51 48 59 48 10 -2 20 -35 36 -117z m35 88 c8 -18 32 -45 53 -62
32 -27 44 -30 92 -28 36 2 53 -1 49 -8 -4 -6 -12 -7 -18 -3 -7 4 -5 -2 3 -13
22 -29 24 -30 17 -12 -5 13 -2 17 12 15 11 -2 26 -9 35 -16 8 -7 20 -10 26 -6
5 3 10 2 10 -3 0 -6 11 -20 25 -33 31 -30 32 -42 3 -33 -21 6 -21 5 4 -15 29
-23 73 -29 63 -8 -4 6 -1 5 7 -4 23 -28 54 -38 122 -41 64 -2 82 -10 51 -21
-14 -6 -13 -43 1 -56 4 -3 4 2 1 12 -4 9 -2 17 3 17 6 0 10 -9 10 -19 0 -13
-6 -19 -19 -18 -11 0 -18 4 -15 8 2 4 0 10 -5 13 -5 4 -13 2 -16 -4 -9 -15 14
-40 31 -33 8 3 14 0 14 -5 0 -23 -18 -19 -70 18 -113 80 -136 94 -184 112 -27
11 -77 19 -112 20 -57 1 -70 -3 -108 -31 -46 -33 -61 -37 -71 -22 -6 10 -55
276 -55 299 0 23 25 11 41 -20z m2415 -83 c58 -35 84 -43 84 -26 0 5 11 8 25
7 28 -1 30 -6 13 -26 -11 -12 -10 -12 2 -3 15 10 24 12 65 12 73 -1 94 -3 83
-11 -10 -6 -10 -8 0 -8 27 0 10 -18 -23 -24 -38 -7 -105 -67 -131 -117 -8 -16
-18 -29 -22 -29 -4 0 -54 24 -112 53 -117 58 -110 46 -89 155 13 64 24 66 105
17z m674 25 c0 -13 -20 -13 -40 0 -12 8 -9 10 13 10 15 0 27 -4 27 -10z
m-1230 -20 c13 -9 13 -10 0 -10 -8 0 -22 5 -30 10 -13 9 -13 10 0 10 8 0 22
-5 30 -10z m60 -10 c0 -12 -33 -5 -38 8 -2 6 5 8 17 5 12 -3 21 -9 21 -13z
m240 -9 c14 -6 25 -42 11 -39 -3 1 -13 -2 -22 -6 -18 -8 -198 30 -214 45 -10
10 200 10 225 0z m1250 -16 c-12 -14 -7 -19 13 -16 5 1 6 -3 2 -9 -5 -8 -11
-8 -20 0 -15 12 -9 40 7 40 6 0 5 -6 -2 -15z m-2671 -59 c10 -12 8 -13 -8 -9
-12 3 -18 9 -15 14 7 12 10 11 23 -5z m-383 -41 c1 -8 -2 -15 -6 -15 -5 0 -8
9 -7 20 1 21 10 18 13 -5z m2757 -87 c-9 -15 -23 -8 -23 12 0 17 2 19 14 8 8
-7 12 -16 9 -20z m57 16 c0 -3 -8 -19 -17 -35 -12 -20 -23 -27 -35 -23 -10 3
-18 1 -18 -5 0 -6 -10 -15 -22 -22 -13 -6 -1 11 27 40 45 47 65 61 65 45z
m-3116 -44 c7 -38 55 -102 69 -93 5 3 7 1 4 -4 -7 -10 57 -70 168 -155 33 -26
96 -63 140 -83 44 -20 87 -40 95 -46 8 -5 39 -21 69 -35 53 -25 53 -25 48 -62
-4 -20 -1 -53 5 -74 10 -34 8 -44 -15 -91 -14 -28 -31 -73 -38 -99 -6 -27 -15
-48 -19 -48 -4 0 -12 19 -19 43 -17 56 -59 130 -144 252 -99 143 -172 193
-282 195 -63 0 -76 9 -85 56 l-8 39 -1 -42 c-1 -47 -19 -63 -70 -63 l-30 0 42
63 c23 34 45 64 50 65 12 6 8 103 -7 160 -13 48 -13 52 4 52 12 0 20 -10 24
-30z m2238 -45 c18 -9 30 -9 37 -2 7 7 10 4 9 -9 0 -10 3 -27 7 -37 9 -20 -15
-19 -55 3 -14 7 -44 12 -67 11 -44 -3 -51 10 -23 44 15 17 43 15 92 -10z m68
13 c0 -10 3 -9 9 1 6 9 11 10 15 2 4 -6 5 -11 2 -11 -2 0 -11 -3 -19 -6 -8 -3
-17 2 -20 10 -4 9 -2 16 3 16 6 0 10 -6 10 -12z m907 -158 c99 -144 133 -181
98 -107 -13 25 -13 28 -1 14 10 -13 15 -15 19 -5 3 7 4 -9 4 -37 -1 -27 2 -66
6 -85 6 -29 4 -37 -13 -48 -25 -15 -47 -5 -103 44 -41 38 -53 41 -76 20 -9 -7
-27 -17 -40 -21 -21 -6 -23 -5 -18 14 6 26 -6 34 -63 41 -33 4 -48 1 -58 -10
-10 -13 -11 -13 -6 3 5 15 0 17 -40 17 -81 0 -160 -56 -173 -122 -7 -38 -28
-54 -48 -38 -10 9 -15 9 -15 1 0 -17 -17 -13 -60 15 -34 23 -48 26 -91 22 -52
-5 -52 -5 -107 49 -31 30 -76 65 -101 78 l-46 23 40 11 c22 6 95 11 163 11 74
0 122 4 122 10 0 6 4 10 9 10 5 0 21 -46 37 -101 15 -56 29 -98 31 -93 2 5 -8
49 -22 99 -18 68 -21 91 -12 97 17 11 23 10 37 -7 17 -20 129 -20 178 1 20 8
66 18 102 21 64 5 67 4 145 -42 44 -26 103 -67 132 -91 56 -48 63 -51 63 -29
0 8 -4 15 -8 15 -5 0 -35 21 -68 46 -32 25 -92 65 -133 87 -41 22 -88 53 -105
67 -17 15 -41 32 -53 39 -13 6 -23 16 -23 22 0 6 7 6 20 -1 17 -9 20 -7 26 15
7 29 16 31 35 9 7 -8 20 -13 30 -11 12 3 16 0 12 -9 -3 -9 0 -12 9 -9 8 3 23
-3 33 -15 10 -11 23 -20 30 -20 7 0 20 -9 30 -20 10 -11 22 -17 26 -14 17 10
9 40 -26 94 -19 30 -35 59 -35 64 0 19 43 -31 107 -124z m-297 85 c-13 -14
-27 -25 -31 -25 -4 0 4 13 19 28 15 15 29 26 31 25 3 -2 -6 -14 -19 -28z
m-863 16 c7 0 10 -7 7 -15 -7 -18 -74 -19 -74 -2 0 19 8 24 33 21 12 -1 27 -3
34 -4z m-247 -11 c0 -5 -5 -10 -11 -10 -5 0 -7 5 -4 10 3 6 8 10 11 10 2 0 4
-4 4 -10z m345 -10 c7 -11 -29 -40 -55 -45 -12 -2 -31 0 -41 5 -17 9 -17 11 3
33 15 17 28 22 54 19 19 -2 36 -8 39 -12z m421 -8 c6 -4 13 -15 17 -25 6 -17
6 -17 -23 0 -17 9 -30 21 -30 25 0 10 21 10 36 0z m184 -2 c0 -5 -9 -10 -21
-10 -11 0 -17 5 -14 10 3 6 13 10 21 10 8 0 14 -4 14 -10z m-1604 -69 c-10
-16 -23 -14 -30 5 -9 25 4 38 21 21 9 -8 12 -20 9 -26z m-396 13 c0 -8 -4 -12
-10 -9 -5 3 -10 10 -10 16 0 5 5 9 10 9 6 0 10 -7 10 -16z m-103 -6 c-2 -7 2
-20 10 -30 21 -23 -1 -31 -22 -8 -15 16 -15 22 -5 35 15 18 23 20 17 3z m143
-13 c0 6 10 -6 22 -25 12 -19 21 -39 20 -43 -1 -5 2 -5 8 -2 6 4 19 -2 29 -14
10 -11 21 -18 24 -15 6 7 15 -44 15 -88 0 -16 -4 -28 -8 -28 -5 0 -6 -17 -3
-39 5 -37 4 -39 -26 -43 -41 -6 -71 15 -71 50 1 27 1 27 15 -5 18 -41 30 -42
44 -2 13 39 14 72 2 85 -15 15 -91 164 -91 177 0 7 4 6 10 -3 5 -8 10 -10 10
-5z m1868 -24 c4 -36 -12 -62 -27 -45 -5 5 -13 26 -16 47 -7 37 -6 39 16 35
19 -2 25 -10 27 -37z m-48 -36 c0 -8 -4 -15 -10 -15 -5 0 -10 7 -10 15 0 8 5
15 10 15 6 0 10 -7 10 -15z m-1630 -24 c0 -5 -7 -14 -15 -21 -16 -14 -18 -10
-9 14 6 17 24 22 24 7z m3327 -17 c-3 -3 -12 -4 -19 -1 -8 3 -5 6 6 6 11 1 17
-2 13 -5z m-4290 -59 l3 -50 -24 45 c-25 48 -25 63 2 58 13 -2 18 -16 19 -53z
m3619 20 c-1 -29 -5 -35 -23 -35 -13 0 -23 3 -23 6 0 6 40 64 44 64 1 0 2 -16
2 -35z m528 4 c-23 -18 -40 -26 -42 -19 -6 18 29 50 56 50 23 0 23 -2 -14 -31z
m-291 -34 c4 -8 2 -17 -3 -20 -6 -4 -10 3 -10 14 0 25 6 27 13 6z m240 -34 c4
-1 11 -1 16 -1 5 0 11 -9 14 -19 3 -12 47 -42 116 -79 103 -54 110 -60 84 -65
-15 -4 -45 -11 -65 -16 -22 -5 -36 -5 -32 0 3 5 1 9 -3 9 -5 0 -18 7 -29 16
-18 14 -18 15 5 4 17 -9 26 -9 34 -1 8 8 8 11 -2 11 -7 0 -10 4 -7 8 13 22
-16 36 -76 39 -72 2 -192 35 -219 59 -10 9 -22 13 -28 9 -7 -4 -8 0 -5 10 4
10 10 12 18 6 17 -14 75 -21 82 -9 4 5 17 8 31 5 17 -3 23 -1 19 8 -7 18 4 26
23 16 9 -5 19 -9 24 -10z m755 -29 c-35 -37 -44 -69 -21 -75 10 -3 5 -5 -13
-6 -37 -1 -83 49 -61 67 16 13 110 50 116 45 3 -2 -7 -16 -21 -31z m-3397 -15
c-8 -8 -11 -7 -11 4 0 9 3 19 7 23 4 4 9 2 11 -4 3 -7 -1 -17 -7 -23z m2046
26 c-9 -9 -58 -13 -53 -5 3 5 17 10 31 10 14 0 24 -2 22 -5z m-52 -19 c14 -9
25 -22 25 -29 0 -7 10 -20 23 -29 12 -9 16 -14 8 -10 -7 4 -17 0 -22 -7 -7
-11 -9 -10 -9 4 0 11 -14 24 -35 33 -23 9 -35 21 -35 34 0 24 13 25 45 4z
m315 -14 c0 -23 -8 -24 -47 -9 -26 10 -27 12 -8 19 35 15 55 11 55 -10z m-251
-24 c7 -8 21 -13 31 -11 23 4 49 -23 32 -34 -7 -4 -8 -12 -2 -21 8 -12 10 -12
10 -1 0 10 3 11 14 2 15 -12 16 -35 2 -48 -4 -4 -6 -1 -4 7 6 27 -37 23 -50
-5 -13 -28 -37 -33 -46 -10 -7 19 3 45 17 45 6 0 7 3 4 7 -4 3 -2 12 4 20 13
15 -4 43 -27 43 -8 0 -14 5 -14 10 0 15 16 12 29 -4z m1111 -23 c0 -10 9 -33
20 -51 l20 -32 -24 -11 c-14 -7 -40 -9 -60 -5 -30 6 -36 11 -36 32 0 14 9 39
21 55 23 32 59 39 59 12z m-4528 -105 c14 -20 28 -35 31 -32 3 3 3 -5 0 -18
-4 -19 -3 -20 6 -8 9 12 10 8 5 -15 -9 -41 -11 -43 -42 -49 -15 -4 -37 -21
-51 -42 -22 -32 -26 -33 -40 -20 -13 14 -14 23 -2 73 8 32 16 96 18 142 l5 83
22 -38 c13 -22 34 -56 48 -76z m1806 -42 c-2 -91 -6 -111 -18 -111 -8 0 -14 5
-13 12 3 16 -32 98 -58 135 l-22 30 49 43 c46 40 49 42 57 22 4 -11 6 -70 5
-131z m1282 144 c-14 -4 -34 -8 -45 -8 -16 0 -15 2 5 8 14 4 34 8 45 8 16 0
15 -2 -5 -8z m61 -8 c-7 -2 -18 1 -23 6 -8 8 -4 9 13 5 13 -4 18 -8 10 -11z
m-2425 -5 c9 3 14 -2 14 -16 0 -25 -20 -19 -39 12 -9 15 -9 18 -1 10 7 -6 19
-9 26 -6z m-52 -31 c-3 -15 -8 -25 -11 -23 -2 3 -1 17 3 31 3 15 8 25 11 23 2
-3 1 -17 -3 -31z m2059 -38 c6 -22 5 -22 -8 -4 -17 22 -20 40 -6 32 5 -3 11
-16 14 -28z m-1753 -24 c0 -16 -16 -19 -25 -4 -8 13 4 32 16 25 5 -4 9 -13 9
-21z m3630 16 c0 -5 -2 -10 -4 -10 -3 0 -8 5 -11 10 -3 6 -1 10 4 10 6 0 11
-4 11 -10z m-3343 -106 c12 -3 25 -14 28 -24 8 -24 65 -43 100 -34 42 10 26
-7 -65 -70 -44 -31 -89 -70 -102 -86 -12 -17 -25 -30 -29 -30 -3 0 -18 26 -32
58 -15 31 -42 85 -61 120 -20 35 -32 61 -27 58 5 -3 12 6 16 21 4 19 9 23 14
14 5 -7 12 -12 17 -10 5 1 18 -16 29 -39 32 -67 55 -52 55 36 l1 47 17 -28 c9
-15 27 -30 39 -33z m1167 31 c-4 -8 -8 -15 -10 -15 -2 0 -4 7 -4 15 0 8 4 15
10 15 5 0 7 -7 4 -15z m-1613 -70 c6 -11 21 -38 34 -60 14 -22 25 -50 25 -62
0 -13 4 -23 9 -23 13 0 21 -41 11 -59 -10 -18 -12 -13 -24 41 -5 20 -17 30
-51 44 l-45 17 0 75 c0 67 2 73 16 61 9 -7 20 -22 25 -34z m1772 -32 c6 -35 1
-40 -22 -26 -14 9 -21 9 -30 0 -8 -8 -11 -8 -11 1 0 19 -34 14 -58 -8 -15 -14
-23 -16 -28 -8 -4 7 -2 14 5 16 7 2 24 15 38 28 18 16 38 24 63 24 33 0 38 -3
43 -27z m1667 -33 c0 -5 -4 -10 -9 -10 -6 0 -13 5 -16 10 -3 6 1 10 9 10 9 0
16 -4 16 -10z m-1640 -13 c0 -23 -30 -56 -49 -54 -17 1 -16 4 8 34 27 35 41
41 41 20z m-94 -90 c-3 -12 -5 -31 -5 -42 -1 -17 -3 -17 -11 -5 -11 18 -13
123 -3 134 10 10 24 -58 19 -87z m-2464 61 c10 -5 17 -12 16 -16 -5 -18 65
-142 104 -183 52 -54 129 -89 158 -71 21 13 30 6 30 -22 0 -18 -6 -21 -47 -22
-27 -1 -68 -5 -94 -9 -64 -10 -167 17 -195 52 -17 21 -26 25 -55 21 -25 -4
-42 1 -64 17 -16 13 -39 26 -50 29 -20 6 -61 54 -53 61 2 3 52 -7 111 -21 112
-28 141 -27 130 3 -12 35 -36 52 -107 79 -84 32 -94 40 -79 55 9 9 18 8 38 -5
31 -20 35 -18 40 20 2 16 4 30 4 30 3 5 99 -10 113 -18z m2632 -18 c8 -16 11
-30 6 -30 -5 0 -18 14 -30 30 -17 24 -18 30 -6 30 8 0 21 -13 30 -30z m1536 6
c0 -2 -7 -6 -15 -10 -8 -3 -15 -1 -15 4 0 6 7 10 15 10 8 0 15 -2 15 -4z
m-675 -88 c4 -3 2 -9 -3 -12 -5 -3 -15 1 -21 8 -10 11 -9 14 3 12 9 -1 18 -5
21 -8z m-1205 -35 c0 -7 -4 -13 -10 -13 -5 0 -10 7 -10 16 0 8 -4 12 -10 9 -5
-3 -10 -2 -10 4 0 5 6 11 13 14 13 4 27 -11 27 -30z m157 -10 c-15 -16 -62
-21 -75 -9 -11 11 19 24 56 24 31 0 33 -2 19 -15z m583 -42 c0 -12 -31 -43
-37 -37 -7 7 16 46 27 46 6 0 10 -4 10 -9z m-3245 -151 c12 -19 -12 -10 -31
11 -19 22 -19 22 3 10 12 -6 25 -16 28 -21z m2365 -39 c0 -5 7 -16 15 -25 14
-13 13 -15 -5 -13 -11 1 -20 4 -20 8 0 4 -3 14 -6 23 -3 9 -1 16 5 16 6 0 11
-4 11 -9z m-266 -366 c4 -11 -2 -15 -24 -15 -29 0 -38 9 -23 23 12 12 41 7 47
-8z m3294 -77 c10 -12 10 -18 1 -24 -8 -4 -9 -3 -5 5 4 6 0 14 -8 17 -9 3 -13
10 -10 16 3 5 7 8 8 6 1 -2 7 -10 14 -20z m29 -33 c0 -8 -4 -12 -9 -9 -5 3 -6
10 -3 15 9 13 12 11 12 -6z m102 -49 c15 -17 1 -28 -19 -15 -13 7 -13 9 0 9
13 0 13 1 0 10 -8 5 -10 10 -4 10 6 0 17 -6 23 -14z" />
    <path d="M2780 3235 c0 -19 41 -66 52 -59 12 8 10 52 -4 61 -24 14 -48 13 -48
-2z" />
    <path d="M1548 3485 c5 -29 8 -31 15 -11 3 8 0 19 -7 25 -10 9 -12 6 -8 -14z" />
    <path d="M281 3274 c0 -11 3 -14 6 -6 3 7 2 16 -1 19 -3 4 -6 -2 -5 -13z" />
    <path d="M1901 2606 l-34 -35 29 -67 c21 -50 30 -62 34 -48 7 18 7 18 13 -1 4
-11 6 -37 5 -58 -1 -20 2 -40 5 -43 12 -13 25 44 20 85 -6 45 14 151 31 163
16 11 -14 38 -43 38 -18 0 -39 -12 -60 -34z" />
    <path d="M2342 2620 c0 -14 2 -19 5 -12 2 6 2 18 0 25 -3 6 -5 1 -5 -13z" />
    <path d="M1491 2504 c0 -11 3 -14 6 -6 3 7 2 16 -1 19 -3 4 -6 -2 -5 -13z" />
    <path d="M1380 2497 c0 -2 14 -16 31 -33 22 -20 28 -23 19 -8 -11 18 -50 50
-50 41z" />
    <path d="M2091 2390 c-69 -35 -110 -70 -111 -96 0 -8 14 -5 38 7 20 11 54 22
74 25 21 4 42 12 47 18 7 9 34 90 28 84 -1 0 -35 -18 -76 -38z" />
    <path d="M2530 2386 c0 -2 7 -6 15 -10 8 -3 15 -1 15 4 0 6 -7 10 -15 10 -8 0
-15 -2 -15 -4z" />
    <path d="M4508 2093 c7 -3 16 -2 19 1 4 3 -2 6 -13 5 -11 0 -14 -3 -6 -6z" />
    <path d="M558 1663 c7 -3 16 -2 19 1 4 3 -2 6 -13 5 -11 0 -14 -3 -6 -6z" />
    <path d="M618 1653 c7 -3 16 -2 19 1 4 3 -2 6 -13 5 -11 0 -14 -3 -6 -6z" />
    <path d="M1520 4104 c0 -3 11 -24 23 -47 13 -23 22 -47 20 -53 -2 -6 3 -14 12
-18 20 -7 14 15 -21 79 -24 41 -34 54 -34 39z" />
    <path d="M820 3980 c0 -13 5 -18 15 -14 8 4 15 10 15 14 0 4 -7 10 -15 14 -10
4 -15 -1 -15 -14z" />
    <path d="M879 3892 c-46 -29 -79 -85 -79 -132 0 -12 -7 -20 -16 -20 -13 0 -15
6 -10 28 3 15 8 38 11 52 l6 25 -12 -25 c-26 -53 -38 -86 -44 -120 l-6 -35 15
33 c19 42 43 41 86 -3 27 -28 30 -35 16 -35 -30 0 -83 -38 -94 -68 -19 -46
-24 -96 -13 -123 22 -60 101 -109 175 -109 l28 0 -23 21 c-13 11 -18 17 -10
13 10 -5 12 -3 7 5 -5 7 -15 10 -25 6 -12 -5 -13 -3 -5 5 20 20 74 23 93 6 10
-9 21 -13 24 -9 4 3 7 1 7 -5 0 -7 7 -12 16 -12 9 0 12 -5 8 -12 -4 -7 2 -5
13 5 16 14 23 15 29 6 4 -8 3 -10 -4 -5 -7 4 -12 3 -12 -3 0 -6 14 -8 33 -6
25 4 28 3 12 -4 -17 -8 -17 -10 -3 -10 22 -1 43 35 26 45 -7 5 -8 3 -3 -6 6
-9 4 -11 -4 -5 -14 8 -4 22 19 27 8 2 22 14 31 27 16 22 17 22 28 5 8 -15 10
-16 11 -3 0 18 -57 79 -74 79 -6 0 -17 9 -24 20 -15 25 -13 25 43 -2 24 -12
48 -19 51 -15 6 6 -28 58 -60 90 -8 8 -12 18 -8 21 3 4 -1 4 -9 1 -9 -3 -22 2
-30 11 -13 16 -12 17 8 12 13 -4 26 -1 30 4 4 7 1 8 -8 3 -8 -5 -11 -4 -6 1 9
10 14 11 52 13 20 1 25 6 25 27 0 14 4 23 9 19 6 -3 8 -14 6 -24 -2 -10 3 -18
11 -18 10 0 11 4 3 14 -6 7 -8 13 -4 13 4 0 2 7 -5 15 -10 12 -16 13 -27 4
-11 -10 -12 -8 -7 6 5 12 4 16 -3 12 -6 -4 -14 0 -17 9 -3 8 -2 12 4 9 5 -3 8
3 7 14 0 11 -5 17 -11 14 -6 -4 -6 1 -2 13 4 10 4 15 0 11 -4 -4 -12 -3 -18 2
-6 5 -31 14 -56 21 -25 6 -62 22 -82 35 -58 38 -78 39 -129 7z m156 -203 c42
-10 46 -13 27 -20 -27 -10 -28 -30 -2 -54 23 -21 28 -44 6 -25 -8 6 -42 18
-76 26 -101 23 -130 45 -108 79 8 13 85 10 153 -6z m82 5 c-3 -3 -12 -4 -19
-1 -8 3 -5 6 6 6 11 1 17 -2 13 -5z" />
    <path d="M885 3690 c-3 -5 -1 -10 4 -10 6 0 11 5 11 10 0 6 -2 10 -4 10 -3 0
-8 -4 -11 -10z" />
    <path d="M176 3887 c3 -10 9 -15 12 -12 3 3 0 11 -7 18 -10 9 -11 8 -5 -6z" />
    <path d="M2608 3853 c7 -3 16 -2 19 1 4 3 -2 6 -13 5 -11 0 -14 -3 -6 -6z" />
    <path d="M1785 3839 c-37 -36 -74 -61 -97 -66 -33 -6 -38 -33 -7 -33 11 0 33
7 47 16 36 23 98 94 81 94 -8 -1 -18 -5 -24 -11z" />
    <path d="M2406 3829 c8 -13 44 -31 44 -22 0 4 -11 13 -25 20 -14 6 -23 7 -19
2z" />
    <path d="M2625 3830 c3 -5 8 -10 11 -10 2 0 4 5 4 10 0 6 -5 10 -11 10 -5 0
-7 -4 -4 -10z" />
    <path d="M2466 3758 c3 -5 10 -6 15 -3 13 9 11 12 -6 12 -8 0 -12 -4 -9 -9z" />
    <path d="M2716 3723 c-6 -14 -5 -15 5 -6 7 7 10 15 7 18 -3 3 -9 -2 -12 -12z" />
    <path d="M2699 3683 c-13 -16 -12 -17 4 -4 16 13 21 21 13 21 -2 0 -10 -8 -17
-17z" />
    <path d="M1217 3514 c-11 -11 -8 -42 4 -49 16 -10 19 -2 11 29 -4 15 -11 24
-15 20z" />
    <path d="M3964 2939 c-19 -22 -19 -22 4 -10 12 6 22 16 22 21 0 15 -5 12 -26
-11z" />
    <path d="M3740 2806 c0 -8 4 -17 9 -20 5 -4 7 3 4 14 -6 23 -13 26 -13 6z" />
    <path d="M4198 2789 c-8 -6 1 -9 25 -9 20 0 37 2 37 4 0 9 -50 12 -62 5z" />
    <path d="M4004 2682 c-24 -21 -48 -57 -59 -85 -17 -44 -17 -49 -1 -65 9 -10
40 -29 69 -41 28 -13 66 -30 82 -38 46 -24 85 -33 85 -21 0 6 12 8 31 4 17 -3
29 -2 27 2 -3 8 -94 195 -107 222 -8 15 -68 60 -80 60 -3 0 -24 -17 -47 -38z" />
    <path d="M3935 2639 c-4 -6 -5 -12 -2 -15 2 -3 7 2 10 11 7 17 1 20 -8 4z" />
    <path d="M3896 2628 c3 -5 10 -6 15 -3 13 9 11 12 -6 12 -8 0 -12 -4 -9 -9z" />
    <path d="M3830 2595 c5 -7 8 -14 5 -17 -3 -2 2 -5 10 -5 10 0 12 4 5 12 -5 7
-8 14 -5 17 3 2 -2 5 -10 5 -10 0 -12 -4 -5 -12z" />
    <path d="M4306 2410 c-28 -5 -55 -6 -60 -3 -6 3 -8 3 -4 -2 4 -4 2 -15 -5 -23
-8 -11 -8 -14 0 -9 6 4 18 0 26 -8 9 -8 22 -15 29 -15 11 0 11 -2 0 -9 -10 -6
-1 -18 35 -47 26 -21 53 -44 60 -52 8 -9 27 -13 57 -10 25 2 46 0 46 -4 0 -5
-10 -8 -22 -9 l-23 0 22 -11 c18 -9 33 -7 65 6 24 10 70 28 103 41 60 22 60
22 58 61 -4 74 -15 79 -47 19 -23 -42 -101 -105 -130 -105 -19 0 -19 1 4 13
56 28 65 99 19 143 -28 26 -37 29 -107 31 -42 1 -99 -2 -126 -7z" />
    <path d="M4140 2403 c0 -19 27 -42 65 -57 l40 -16 -25 20 c-53 43 -80 61 -80
53z" />
    <path d="M4905 2370 l-20 -9 20 0 c11 0 29 4 40 9 l20 9 -20 0 c-11 0 -29 -4
-40 -9z" />
    <path d="M5115 2350 c3 -5 13 -10 21 -10 8 0 12 5 9 10 -3 6 -13 10 -21 10 -8
0 -12 -4 -9 -10z" />
    <path d="M5725 2340 c-42 -11 -148 -60 -143 -66 7 -6 78 18 149 50 54 25 51
31 -6 16z" />
    <path d="M4312 2248 c3 -7 18 -14 34 -16 28 -2 28 -2 10 13 -24 18 -49 20 -44
3z" />
    <path d="M5716 2135 c48 -47 91 -85 96 -85 4 0 8 -4 8 -9 0 -6 -12 -6 -30 -1
-38 11 -39 -1 0 -23 16 -10 35 -23 42 -30 7 -7 48 -29 92 -50 70 -34 82 -37
107 -26 32 13 38 29 11 29 -19 0 -93 54 -161 118 -53 50 -216 162 -237 162 -8
0 25 -38 72 -85z" />
    <path d="M4120 2031 c0 -6 4 -13 10 -16 6 -3 7 1 4 9 -7 18 -14 21 -14 7z" />
    <path d="M4320 2021 c0 -5 18 -13 40 -19 24 -6 40 -6 40 -1 0 10 -8 14 -52 23
-16 4 -28 2 -28 -3z" />
    <path d="M5700 2010 c-21 -7 -22 -8 -5 -9 11 -1 38 -4 60 -7 38 -5 39 -4 21
10 -21 17 -37 18 -76 6z" />
    <path d="M6213 1943 c-7 -5 -9 -14 -3 -22 7 -13 27 -17 87 -20 12 -1 35 -13
50 -27 15 -15 20 -21 10 -14 -15 11 -17 10 -11 -3 3 -8 12 -18 20 -21 9 -3 13
-10 10 -15 -3 -5 1 -12 10 -15 8 -3 12 -11 8 -17 -5 -8 -3 -9 5 -5 7 5 21 0
32 -10 18 -16 98 -28 97 -15 0 4 0 8 2 11 12 33 7 50 -24 74 -24 18 -36 22
-40 13 -3 -8 -13 -2 -31 17 -40 43 -190 90 -222 69z" />
    <path d="M6055 1884 c-16 -16 -15 -19 18 -49 45 -42 119 -78 128 -64 4 8 8 7
12 -2 4 -11 6 -10 6 2 1 8 -4 20 -9 25 -6 6 -20 30 -33 55 -20 40 -26 44 -63
47 -29 2 -47 -2 -59 -14z" />
    <path d="M6018 1883 c7 -3 16 -2 19 1 4 3 -2 6 -13 5 -11 0 -14 -3 -6 -6z" />
    <path d="M4020 1840 c12 -22 64 -27 90 -9 12 8 10 9 -9 4 -13 -4 -21 -3 -18 2
3 5 -4 10 -16 10 -17 2 -19 0 -7 -7 13 -8 12 -10 -2 -10 -10 0 -18 4 -18 9 0
5 -7 11 -15 15 -13 4 -14 2 -5 -14z" />
    <path d="M5315 1761 c-32 -13 -72 -55 -93 -97 -11 -22 -29 -47 -41 -58 -19
-17 -22 -17 -44 -3 -16 10 -26 29 -30 53 -8 45 -6 47 33 48 18 1 30 6 30 14 0
8 -7 11 -17 9 -10 -3 -35 -8 -55 -11 -41 -7 -98 -63 -98 -96 0 -19 -37 -53
-50 -45 -4 2 -7 -2 -7 -10 0 -8 6 -15 14 -15 7 0 13 5 13 10 0 21 31 22 53 3
31 -29 83 -60 74 -46 -5 8 -3 11 5 9 7 -2 28 -7 46 -10 l32 -6 -14 34 c-13 32
-13 35 5 39 10 3 17 2 14 -2 -14 -23 110 -111 157 -111 20 0 18 -5 -22 -40
-25 -22 -62 -49 -82 -60 -42 -22 -48 -31 -19 -23 13 3 25 -3 36 -21 15 -23 44
-39 31 -17 -7 10 36 23 44 13 5 -7 16 -9 78 -14 18 -1 36 -6 38 -10 3 -4 17
-8 31 -8 17 0 40 -14 69 -44 76 -79 186 -125 214 -91 10 12 7 20 -14 46 -24
28 -26 36 -20 92 8 75 -3 89 -87 111 -30 7 -73 23 -94 35 -22 12 -45 21 -52
21 -7 0 -13 5 -13 10 0 6 -12 15 -26 20 -15 6 -40 20 -56 31 l-29 21 5 87 c3
47 8 96 11 107 5 16 1 23 -17 27 -28 8 -28 8 -53 -2z m9 -388 c9 -22 -6 -35
-35 -31 -31 4 -36 26 -7 37 32 13 35 13 42 -6z m129 -19 c11 -11 -5 -34 -24
-34 -13 0 -17 5 -12 17 5 12 3 14 -7 8 -9 -5 -11 -4 -6 3 8 13 38 16 49 6z
m53 -31 c2 -13 -1 -23 -6 -23 -6 0 -10 7 -10 15 0 8 -4 15 -10 15 -5 0 -7 -8
-4 -17 5 -17 5 -17 -6 0 -6 9 -8 22 -5 28 11 17 38 5 41 -18z" />
    <path d="M6663 1660 c3 -11 2 -20 -3 -20 -14 0 -21 -32 -9 -46 6 -8 22 -14 35
-14 30 0 31 23 4 68 -22 36 -35 42 -27 12z" />
    <path d="M5516 1633 c-16 -24 -26 -51 -26 -74 0 -33 5 -41 46 -68 63 -41 110
-50 136 -24 19 20 19 20 -4 57 -28 46 -96 128 -114 139 -9 5 -21 -5 -38 -30z" />
    <path d="M5110 1506 c0 -2 9 -6 20 -9 11 -3 18 -1 14 4 -5 9 -34 13 -34 5z" />
    <path d="M4232 1334 c-61 -31 -77 -53 -57 -80 7 -11 17 -19 22 -20 17 -2 49
-18 68 -35 11 -10 43 -29 70 -44 28 -14 75 -46 105 -70 30 -24 61 -44 68 -45
6 0 12 -4 12 -8 0 -5 15 -17 34 -27 19 -11 33 -22 31 -26 -3 -3 4 -14 15 -24
11 -10 20 -24 20 -32 0 -7 5 -13 11 -13 5 0 7 -4 4 -10 -3 -5 -2 -10 4 -10 5
0 18 -13 28 -30 21 -36 34 -37 65 -7 59 57 74 137 38 205 -26 50 -98 127 -118
127 -9 0 -34 7 -54 14 -31 12 -38 21 -47 57 -11 42 -13 43 -91 73 -100 39
-157 40 -228 5z" />
    <path d="M4326 975 c-21 -7 -42 -17 -46 -22 -11 -13 0 -84 13 -76 7 4 8 0 4
-11 -5 -14 -3 -17 8 -12 9 3 15 0 15 -10 0 -8 5 -12 10 -9 6 3 10 -3 10 -15 0
-12 5 -18 10 -15 6 3 10 0 10 -8 0 -7 6 -14 14 -14 8 0 12 8 8 21 -4 19 -2 18
14 -4 10 -14 23 -28 28 -32 6 -4 7 -8 2 -8 -5 0 2 -8 15 -19 24 -19 76 -101
64 -101 -4 0 1 -8 12 -17 10 -10 13 -14 6 -10 -14 10 -36 0 -28 -14 3 -5 -1
-6 -9 -3 -10 4 -16 1 -17 -7 -1 -8 -5 -3 -9 11 -7 23 -8 23 -11 -10 -6 -97 20
-157 88 -201 53 -33 60 -35 60 -14 0 8 -3 12 -7 10 -4 -2 -7 2 -7 10 0 10 5
11 18 5 13 -7 16 -6 15 8 0 9 -5 20 -11 24 -6 5 -5 8 3 8 8 0 10 5 6 13 -6 9
-5 9 8 0 8 -7 18 -10 21 -7 3 3 16 -1 29 -10 15 -11 18 -16 8 -17 -8 0 -4 -4
8 -10 13 -5 29 -22 35 -39 6 -16 15 -30 19 -30 4 0 8 -4 8 -10 0 -18 48 -79
56 -72 5 4 2 -1 -5 -10 -20 -26 2 -22 27 5 35 37 53 95 54 171 1 89 -12 136
-57 211 -70 116 -128 184 -156 185 -27 0 -124 53 -163 88 -12 11 -40 30 -63
42 -24 13 -43 27 -43 32 0 12 -29 9 -74 -7z" />
    <path d="M5994 722 c4 -3 14 -7 22 -8 9 -1 13 0 10 4 -4 3 -14 7 -22 8 -9 1
-13 0 -10 -4z" />
    <path d="M6044 704 c1 -8 4 -15 7 -16 2 -2 3 -1 2 1 -2 2 2 9 7 16 7 8 5 12
-4 12 -8 0 -13 -6 -12 -13z" />
    <path d="M5727 520 c-7 -28 1 -46 14 -33 6 6 6 19 1 33 l-9 24 -6 -24z" />
  </g>
</svg>