<?xml version="1.0" standalone="no"?>
<!DOCTYPE svg PUBLIC "-//W3C//DTD SVG 20010904//EN" "http://www.w3.org/TR/2001/REC-SVG-20010904/DTD/svg10.dtd">
<svg version="1.0" xmlns="http://www.w3.org/2000/svg" width="980.000000pt" height="988.000000pt"
  viewBox="0 0 980.000000 988.000000" preserveAspectRatio="xMidYMid meet">

  <g transform="translate(0.000000,988.000000) scale(0.100000,-0.100000)" fill="#currentColor" stroke="none">
    <path d="M1715 9869 c-685 -10 -844 -18 -942 -52 -333 -116 -600 -388 -713
-727 -52 -153 -55 -303 -55 -2785 0 -2444 4 -2664 51 -2803 118 -354 383 -618
738 -737 44 -15 111 -31 150 -37 46 -6 778 -12 2069 -15 1925 -4 1999 -4 1993
14 -12 42 -57 297 -70 403 -68 535 11 1009 249 1495 126 257 298 497 501 701
417 419 980 691 1559 754 128 14 470 14 600 0 141 -15 299 -46 384 -75 l72
-24 -4 1452 c-3 1003 -8 1471 -16 1515 -23 134 -95 304 -181 433 -55 81 -216
243 -296 297 -158 106 -304 161 -462 173 -341 26 -4173 38 -5627 18z m1623
-2065 c1101 -617 2589 -1461 2645 -1499 16 -11 -2 -24 -155 -113 -456 -264
-1290 -735 -2198 -1244 -294 -165 -550 -309 -567 -320 l-33 -20 0 1681 c0 925
3 1681 6 1681 3 0 139 -75 302 -166z" />
    <path d="M7215 5709 c-221 -29 -555 -141 -777 -262 -215 -117 -458 -329 -668
-582 -100 -120 -157 -207 -240 -367 -151 -293 -206 -483 -231 -811 -15 -190
-6 -550 16 -663 38 -198 181 -542 321 -773 l57 -93 -807 -807 c-443 -443 -806
-811 -806 -816 0 -6 119 -129 265 -275 l265 -265 813 812 812 812 85 -55 c256
-168 617 -298 955 -346 116 -16 433 -16 555 1 459 62 884 257 1210 556 415
381 677 871 744 1393 20 154 21 449 2 592 -33 248 -101 480 -201 686 -113 236
-245 414 -471 634 -211 206 -377 325 -607 435 -229 110 -450 173 -687 194
-135 13 -505 12 -605 0z m570 -764 c301 -48 574 -191 809 -422 201 -199 332
-423 396 -675 76 -303 64 -592 -37 -882 -75 -216 -173 -368 -357 -552 -228
-228 -450 -351 -749 -416 -147 -32 -457 -32 -599 -1 -308 69 -584 224 -791
443 -238 253 -376 559 -409 902 -25 273 40 583 178 835 143 263 409 514 680
643 279 133 570 174 879 125z" />
  </g>
</svg>