<?xml version="1.0" standalone="no"?>
<!DOCTYPE svg PUBLIC "-//W3C//DTD SVG 20010904//EN" "http://www.w3.org/TR/2001/REC-SVG-20010904/DTD/svg10.dtd">
<svg version="1.0" xmlns="http://www.w3.org/2000/svg" width="64.000000pt" height="64.000000pt"
  viewBox="0 0 64.000000 64.000000" preserveAspectRatio="xMidYMid meet">

  <g transform="translate(0.000000,64.000000) scale(0.100000,-0.100000)" fill="#currentColor" stroke="none">
    <path d="M310 520 c0 -27 5 -50 10 -50 6 0 10 23 10 50 0 28 -4 50 -10 50 -5
0 -10 -22 -10 -50z" />
    <path d="M90 482 c0 -14 69 -76 77 -69 3 4 -9 23 -27 42 -33 34 -50 43 -50 27z" />
    <path d="M500 455 c-18 -19 -30 -38 -27 -42 8 -7 77 55 77 69 0 16 -17 7 -50
-27z" />
    <path d="M257 435 c-50 -17 -85 -50 -108 -100 -19 -42 -25 -95 -10 -95 5 0 11
17 15 38 14 89 76 142 166 142 90 0 152 -53 166 -142 8 -44 24 -51 24 -10 -1
70 -66 152 -138 172 -48 13 -68 12 -115 -5z" />
    <path d="M290 325 c-25 -26 -21 -47 5 -25 13 11 15 8 15 -19 0 -17 5 -31 10
-31 6 0 10 14 10 31 0 27 2 30 15 19 26 -22 30 -1 5 25 -13 14 -26 25 -30 25
-4 0 -17 -11 -30 -25z" />
    <path d="M5 250 c-3 -5 0 -13 8 -16 23 -8 92 0 92 11 0 14 -92 19 -100 5z" />
    <path d="M535 250 c-3 -5 0 -13 8 -16 23 -8 92 0 92 11 0 14 -92 19 -100 5z" />
    <path d="M130 200 c0 -6 70 -10 190 -10 120 0 190 4 190 10 0 6 -70 10 -190
10 -120 0 -190 -4 -190 -10z" />
    <path d="M150 160 c0 -6 63 -10 170 -10 107 0 170 4 170 10 0 6 -63 10 -170
10 -107 0 -170 -4 -170 -10z" />
    <path d="M185 120 c-4 -6 45 -10 140 -10 95 0 144 4 140 10 -4 6 -62 10 -140
10 -78 0 -136 -4 -140 -10z" />
    <path d="M225 80 c-3 -5 0 -13 8 -16 23 -9 177 0 180 11 3 14 -179 19 -188 5z" />
  </g>
</svg>