<?xml version="1.0" standalone="no"?>
<!DOCTYPE svg PUBLIC "-//W3C//DTD SVG 20010904//EN" "http://www.w3.org/TR/2001/REC-SVG-20010904/DTD/svg10.dtd">
<svg version="1.0" xmlns="http://www.w3.org/2000/svg" width="64.000000pt" height="64.000000pt"
  viewBox="0 0 64.000000 64.000000" preserveAspectRatio="xMidYMid meet">

  <g transform="translate(0.000000,64.000000) scale(0.100000,-0.100000)" fill="#currentColor" stroke="none">
    <path d="M310 510 c0 -27 5 -50 10 -50 6 0 10 23 10 50 0 28 -4 50 -10 50 -5
0 -10 -22 -10 -50z" />
    <path d="M110 472 c0 -10 63 -72 73 -72 16 0 5 28 -21 53 -27 26 -52 35 -52
19z" />
    <path d="M477 452 c-26 -27 -35 -52 -19 -52 10 0 72 63 72 73 0 16 -28 5 -53
-21z" />
    <path d="M240 408 c-50 -34 -72 -71 -78 -127 l-5 -51 -78 0 c-46 0 -79 -4 -79
-10 0 -6 113 -10 320 -10 207 0 320 4 320 10 0 6 -33 10 -79 10 l-78 0 -5 51
c-9 87 -75 149 -158 149 -32 0 -57 -7 -80 -22z m137 -17 c49 -23 73 -62 73
-121 l0 -40 -130 0 -130 0 0 40 c0 59 24 98 73 121 23 10 49 19 57 19 8 0 34
-9 57 -19z" />
    <path d="M37 284 c-17 -17 -4 -24 44 -24 36 0 49 4 47 13 -5 13 -79 22 -91 11z" />
    <path d="M517 284 c-17 -17 -4 -24 44 -24 36 0 49 4 47 13 -5 13 -79 22 -91
11z" />
    <path d="M310 150 c0 -23 -4 -28 -16 -23 -12 4 -15 1 -13 -12 6 -27 35 -42 57
-29 23 15 30 49 8 41 -12 -5 -16 0 -16 23 0 17 -4 30 -10 30 -5 0 -10 -13 -10
-30z" />
  </g>
</svg>