<?xml version="1.0" standalone="no"?>
<!DOCTYPE svg PUBLIC "-//W3C//DTD SVG 20010904//EN" "http://www.w3.org/TR/2001/REC-SVG-20010904/DTD/svg10.dtd">
<svg version="1.0" xmlns="http://www.w3.org/2000/svg" width="512.000000pt" height="512.000000pt"
  viewBox="0 0 512.000000 512.000000" preserveAspectRatio="xMidYMid meet">

  <g transform="translate(0.000000,512.000000) scale(0.100000,-0.100000)" fill="#currentColor" stroke="none">
    <path d="M1397 4720 c-17 -14 -27 -31 -27 -48 0 -48 93 -393 112 -418 37 -46
118 -18 118 40 0 39 -98 408 -112 422 -25 25 -62 26 -91 4z" />
    <path d="M2488 4568 c-9 -7 -61 -91 -117 -186 -113 -191 -120 -217 -69 -255
23 -17 31 -18 55 -8 32 13 25 2 150 214 51 88 93 170 93 183 0 50 -72 83 -112
52z" />
    <path d="M508 4053 c-23 -27 -29 -55 -15 -81 17 -29 359 -232 392 -232 51 0
85 72 53 112 -7 8 -90 61 -185 117 -178 104 -216 117 -245 84z" />
    <path d="M1688 4040 c-193 -33 -381 -144 -493 -291 -56 -75 -118 -200 -140
-284 -45 -169 -23 -374 58 -537 l44 -88 -19 -68 c-12 -42 -19 -101 -20 -159
l0 -93 -103 0 c-123 0 -203 -21 -291 -78 -146 -95 -221 -246 -212 -428 4 -80
10 -103 41 -168 60 -126 159 -215 290 -260 l62 -21 1790 -3 c1171 -2 1819 1
1874 7 188 23 335 138 400 314 62 170 19 365 -112 496 -103 104 -204 141 -380
141 -98 0 -108 2 -103 18 18 61 28 199 23 306 -30 565 -443 1035 -997 1132
-109 19 -311 19 -420 0 -161 -29 -359 -111 -489 -204 l-54 -39 -65 69 c-175
185 -443 278 -684 238z m269 -151 c26 -6 86 -29 133 -52 68 -32 101 -56 164
-118 l78 -79 -47 -52 c-26 -29 -70 -86 -98 -127 -49 -73 -137 -247 -137 -271
0 -13 -3 -13 -95 21 -81 30 -251 37 -349 15 -103 -24 -219 -89 -299 -168 l-69
-67 -19 45 c-33 73 -51 189 -44 278 23 296 238 533 533 586 57 11 182 5 249
-11z m1423 -53 c622 -112 1011 -742 834 -1354 -13 -45 -24 -86 -24 -91 0 -6
91 -11 208 -13 199 -3 209 -4 262 -29 96 -46 159 -123 185 -227 39 -151 -37
-312 -180 -383 l-50 -24 -1865 0 -1865 0 -43 23 c-67 36 -129 98 -159 161 -24
49 -28 68 -28 146 0 75 4 98 25 140 31 64 101 134 165 165 47 24 61 25 253 28
173 3 203 6 198 18 -43 113 -46 285 -7 386 48 124 164 240 289 289 47 19 77
23 172 23 140 1 189 -14 300 -89 l77 -52 32 111 c57 197 135 331 276 471 142
143 294 232 477 280 51 13 104 26 118 28 58 10 281 5 350 -7z" />
    <path d="M548 3021 c-100 -27 -186 -56 -198 -66 -11 -10 -20 -30 -20 -45 0
-31 37 -70 66 -70 10 0 107 23 214 50 148 38 199 55 213 71 21 26 22 58 1 87
-23 33 -71 28 -276 -27z" />
    <path d="M2766 1379 c-57 -45 -159 -224 -191 -334 -29 -100 -4 -201 70 -283
77 -86 171 -104 263 -52 135 78 180 248 107 410 -67 149 -161 280 -202 280
-11 0 -32 -9 -47 -21z m93 -261 c66 -131 67 -201 5 -263 -43 -44 -67 -44 -109
-2 -49 49 -62 102 -41 169 20 60 83 178 95 178 5 0 27 -37 50 -82z" />
    <path d="M1718 1061 c-18 -21 -54 -75 -81 -119 -128 -216 -130 -359 -7 -482
81 -82 146 -98 235 -56 148 68 201 244 127 418 -38 87 -143 253 -172 268 -37
20 -67 11 -102 -29z m123 -255 c50 -102 56 -135 34 -191 -16 -44 -65 -95 -90
-95 -22 0 -77 52 -91 87 -8 18 -14 47 -14 65 1 37 34 123 75 193 31 55 28 57
86 -59z" />
    <path d="M3768 1061 c-18 -21 -55 -75 -82 -119 -127 -212 -129 -360 -6 -484
83 -83 148 -97 239 -52 103 52 170 177 157 292 -4 30 -20 87 -37 127 -35 84
-140 250 -169 265 -37 20 -67 11 -102 -29z m128 -265 c20 -41 38 -92 41 -113
6 -50 -30 -121 -75 -147 -33 -19 -34 -18 -60 1 -95 70 -94 164 4 331 25 42 26
43 40 23 8 -11 31 -54 50 -95z" />
  </g>
</svg>