<?xml version="1.0" standalone="no"?>
<!DOCTYPE svg PUBLIC "-//W3C//DTD SVG 20010904//EN" "http://www.w3.org/TR/2001/REC-SVG-20010904/DTD/svg10.dtd">
<svg version="1.0" xmlns="http://www.w3.org/2000/svg" width="5000.000000pt" height="5000.000000pt"
  viewBox="0 0 5000.000000 5000.000000" preserveAspectRatio="xMidYMid meet">

  <g transform="translate(0.000000,5000.000000) scale(0.100000,-0.100000)" fill="#currentColor" stroke="none">
    <path d="M31854 37304 c-231 -47 -384 -273 -342 -504 12 -67 56 -161 99 -214
42 -50 139 -113 204 -131 27 -8 88 -17 135 -20 47 -3 103 -8 125 -10 22 -2 76
-6 120 -10 44 -4 107 -10 140 -15 33 -5 83 -12 110 -15 380 -48 989 -218 1330
-370 17 -7 77 -34 135 -60 1170 -522 2085 -1501 2485 -2660 58 -167 159 -582
180 -735 3 -25 8 -57 11 -72 16 -103 23 -157 29 -228 4 -36 8 -81 10 -100 17
-151 23 -529 10 -682 -11 -149 -22 -256 -30 -308 -34 -214 -50 -300 -86 -448
-44 -180 -97 -345 -169 -527 -485 -1220 -1574 -2184 -3015 -2670 -196 -66
-521 -155 -665 -181 -14 -3 -50 -11 -80 -19 -30 -7 -77 -16 -105 -20 -27 -3
-57 -8 -65 -10 -25 -7 -340 -53 -410 -60 -36 -3 -87 -8 -115 -11 -27 -2 -70
-6 -95 -9 -161 -16 -501 -26 -660 -20 -327 12 -553 28 -610 43 -14 4 -5060 8
-11215 9 -9875 3 -11196 1 -11241 -12 -330 -96 -429 -519 -175 -748 55 -49
142 -94 197 -102 22 -3 5041 -7 11154 -8 6113 -1 11124 -5 11135 -8 17 -6 59
-11 200 -24 39 -4 214 -16 290 -20 90 -6 646 -5 755 0 138 7 280 16 316 21 17
2 60 6 95 9 59 5 110 10 184 20 61 8 241 35 270 40 205 37 289 54 460 92 366
82 894 255 1194 390 305 137 559 267 743 379 172 105 240 149 373 242 307 216
519 394 775 651 529 531 908 1113 1165 1791 71 188 166 511 201 682 26 131 59
327 68 401 3 26 8 66 11 90 22 180 30 339 29 612 0 231 -9 482 -19 535 -1 8
-6 44 -10 80 -3 36 -8 81 -10 100 -7 57 -33 229 -50 320 -9 47 -22 123 -31
169 -50 277 -198 758 -306 999 -15 35 -28 65 -28 68 0 6 -132 271 -170 339
-177 323 -363 598 -606 890 -129 155 -483 512 -644 649 -445 379 -898 657
-1515 931 -240 106 -750 273 -995 325 -30 6 -95 20 -145 31 -49 11 -101 22
-115 24 -51 11 -397 64 -445 69 -27 3 -68 8 -90 11 -91 11 -136 15 -265 21
-74 3 -139 7 -145 8 -5 2 -37 -3 -71 -10z" />
    <path d="M41028 31928 c-102 -21 -234 -121 -279 -210 -46 -89 -51 -117 -64
-328 -13 -206 -52 -439 -102 -605 -77 -254 -195 -485 -340 -665 -151 -187
-335 -329 -569 -440 -162 -77 -151 -72 -429 -177 -544 -205 -783 -346 -1046
-619 -147 -153 -250 -304 -353 -516 -93 -192 -184 -505 -210 -718 -8 -66 -15
-128 -21 -185 -7 -58 -7 -541 -1 -600 3 -22 7 -74 11 -115 3 -41 8 -86 10
-100 2 -14 6 -47 10 -75 10 -85 16 -128 29 -197 7 -37 10 -71 7 -77 -23 -37
-600 -174 -866 -206 -27 -3 -57 -8 -65 -10 -8 -2 -46 -6 -85 -10 -180 -14
-209 -20 -291 -56 -57 -26 -146 -107 -180 -165 -81 -138 -83 -304 -6 -447 31
-58 128 -150 186 -177 55 -26 151 -47 201 -44 80 4 253 21 310 29 17 2 53 7
80 11 28 3 59 8 70 10 11 2 58 11 105 19 344 60 752 169 1027 274 129 49 124
50 200 -7 466 -342 1043 -573 1542 -617 97 -9 398 -9 486 -1 952 92 1731 681
2230 1686 222 445 379 959 421 1375 3 28 7 68 10 90 9 64 11 513 4 590 -4 39
-11 104 -14 145 -32 368 -154 836 -323 1233 -66 155 -190 405 -244 494 -22 35
-39 66 -39 68 0 16 -238 371 -324 485 -274 360 -664 768 -792 827 -89 40 -199
52 -296 31z m536 -1608 c138 -207 229 -375 351 -645 84 -186 202 -586 230
-779 3 -21 7 -48 10 -60 27 -130 40 -522 23 -706 -59 -637 -372 -1359 -779
-1795 -254 -273 -574 -458 -904 -524 -194 -39 -399 -50 -521 -27 -10 2 -44 7
-74 11 -88 11 -256 54 -372 95 -114 41 -308 129 -308 140 0 3 21 19 47 36 463
288 942 697 1300 1108 136 157 171 217 186 323 31 222 -98 424 -312 489 -59
18 -183 18 -242 0 -113 -34 -153 -68 -353 -294 -261 -294 -614 -595 -978 -835
-99 -65 -339 -207 -345 -203 -1 1 -4 26 -8 56 -3 30 -8 69 -10 85 -25 185 -25
524 -1 705 66 494 279 822 661 1015 113 57 149 72 521 214 564 215 895 430
1183 766 240 280 430 621 531 954 l23 74 19 -24 c10 -13 65 -94 122 -179z" />
    <path d="M32725 24629 c-38 -4 -4512 -7 -9941 -8 -9168 -1 -9874 -2 -9920 -18
-114 -38 -223 -141 -265 -251 -30 -79 -37 -210 -15 -287 41 -138 160 -260 296
-299 50 -15 930 -16 10165 -17 5560 0 10124 -1 10140 -3 17 -2 64 -7 105 -10
41 -4 82 -9 90 -11 8 -2 33 -6 55 -10 217 -32 541 -124 720 -205 355 -160 585
-308 850 -547 397 -358 693 -872 780 -1353 27 -146 33 -230 30 -410 -4 -210
-6 -224 -36 -375 -62 -310 -186 -604 -372 -882 -121 -180 -200 -277 -362 -439
-225 -226 -456 -397 -740 -547 -190 -101 -234 -134 -285 -209 -86 -130 -100
-294 -35 -435 73 -161 246 -263 424 -250 95 6 146 26 335 128 429 231 829 555
1142 924 398 470 689 1083 774 1635 6 41 13 86 16 100 27 170 26 629 -1 781
-3 13 -7 40 -9 59 -23 172 -129 545 -201 705 -222 490 -439 803 -801 1155
-385 374 -825 649 -1359 849 -247 92 -636 184 -875 206 -36 3 -74 8 -85 10
-72 15 -504 24 -620 14z" />
    <path d="M26617 22024 c-15 -14 -1542 -18 -9352 -20 -9113 -4 -9140 -4 -9206
-24 -130 -39 -244 -154 -284 -286 -19 -64 -19 -197 1 -264 38 -129 142 -236
271 -281 55 -19 174 -19 9212 -19 5036 0 9203 4 9261 8 138 9 582 9 740 -1
677 -41 1353 -192 1895 -422 563 -239 1002 -531 1405 -935 638 -640 998 -1330
1114 -2140 27 -188 28 -562 1 -780 -17 -141 -16 -131 -40 -265 -28 -150 -47
-229 -91 -380 -228 -780 -705 -1490 -1310 -1951 -110 -84 -297 -210 -374 -252
-169 -91 -215 -114 -315 -157 -306 -132 -622 -217 -925 -251 -25 -3 -58 -7
-75 -9 -16 -3 -91 -8 -165 -12 -619 -36 -1270 93 -1825 362 -339 164 -593 343
-850 600 -243 242 -403 465 -544 760 -99 206 -189 486 -225 700 -33 196 -40
291 -41 530 0 170 9 344 20 400 3 11 7 37 10 58 22 158 39 245 80 408 33 132
90 310 161 499 52 140 35 290 -47 411 -173 256 -554 253 -728 -6 -52 -77 -173
-419 -235 -667 -63 -247 -118 -579 -132 -788 -13 -206 -7 -663 10 -756 2 -11
7 -46 11 -79 5 -50 28 -183 50 -295 2 -14 18 -79 35 -145 50 -196 94 -323 188
-550 22 -53 140 -284 185 -362 222 -386 571 -779 957 -1074 631 -484 1450
-799 2275 -874 33 -3 83 -7 110 -10 72 -6 589 -6 660 0 33 3 78 7 100 10 22 2
67 7 100 10 33 4 71 9 85 11 14 2 45 7 70 10 42 6 182 33 345 68 295 63 762
246 1055 413 596 340 1105 817 1498 1405 230 343 430 749 567 1148 77 227 155
532 190 748 3 17 7 44 9 60 5 25 22 150 31 224 18 141 25 625 11 763 -3 33 -9
85 -12 115 -3 30 -7 66 -9 80 -2 14 -7 48 -11 75 -3 28 -7 57 -9 65 -2 8 -10
55 -20 104 -87 466 -297 1000 -559 1426 -321 520 -743 996 -1206 1362 -732
577 -1682 974 -2715 1133 -93 14 -181 28 -195 30 -14 2 -56 7 -95 11 -38 3
-78 8 -88 10 -9 1 -56 6 -105 10 -48 3 -100 8 -117 10 -16 2 -187 7 -380 9
-192 3 -367 7 -388 8 -21 1 -39 2 -40 1z" />
    <path d="M34862 16559 c-147 -37 -252 -136 -309 -293 -22 -62 -18 -212 8 -282
55 -147 282 -464 512 -716 94 -102 106 -120 102 -145 -14 -75 -17 -121 -19
-277 -9 -487 120 -871 406 -1211 236 -281 595 -485 990 -564 103 -21 126 -24
248 -36 142 -15 505 -4 640 19 14 3 42 7 63 10 61 9 174 36 262 61 827 241
1492 927 1816 1875 80 236 60 383 -72 525 -107 114 -262 164 -407 130 -32 -8
-96 -29 -142 -48 -83 -33 -241 -80 -310 -92 -91 -16 -246 -14 -337 4 -171 35
-276 102 -510 324 -156 147 -228 208 -328 273 -188 122 -368 189 -585 218 -54
8 -259 8 -315 1 -235 -30 -452 -101 -693 -226 -75 -39 -161 -88 -192 -109
l-57 -39 -57 72 c-32 40 -97 133 -146 207 -130 198 -143 214 -211 259 -108 72
-229 93 -357 60z m2005 -1117 c86 -27 160 -82 353 -262 238 -222 380 -325 563
-410 150 -69 390 -133 545 -144 35 -2 66 -7 68 -9 15 -14 -211 -257 -326 -351
-256 -210 -545 -327 -872 -353 -121 -10 -225 -10 -318 0 -335 34 -566 157
-716 384 -37 56 -100 201 -91 210 3 2 27 -7 54 -20 157 -80 443 -186 652 -241
205 -55 383 -2 496 147 137 180 120 426 -40 582 -69 67 -109 86 -292 140 -183
55 -470 173 -561 233 l-22 15 22 11 c148 76 362 106 485 68z" />
  </g>
</svg>